<?xml version="1.0" encoding="utf-8"?>
<!-- Generator: Adobe Illustrator 16.0.0, SVG Export Plug-In . SVG Version: 6.00 Build 0)  -->
<!DOCTYPE svg PUBLIC "-//W3C//DTD SVG 1.1//EN" "http://www.w3.org/Graphics/SVG/1.1/DTD/svg11.dtd">
<svg version="1.1" id="Layer_1" xmlns="http://www.w3.org/2000/svg" xmlns:xlink="http://www.w3.org/1999/xlink" x="0px" y="0px"
	 width="274.5px" height="99.5px" viewBox="0 0 274.5 99.5" enable-background="new 0 0 274.5 99.5" xml:space="preserve">
<g>
	<defs>
		<rect id="SVGID_1_" x="-9.438" y="-5.333" width="296.753" height="123.385"/>
	</defs>
	<clipPath id="SVGID_2_">
		<use xlink:href="#SVGID_1_"  overflow="visible"/>
	</clipPath>
	<path clip-path="url(#SVGID_2_)" d="M158.054,78.245V22.192c0-1.116,0.904-2.021,2.021-2.021h7.933
		c1.116,0,2.021,0.905,2.021,2.021v44.115c0,1.116,0.905,2.021,2.021,2.021h20.206c0.806,0,1.535,0.478,1.855,1.218
		c1.057,2.446,2.422,5.644,3.386,7.908c0.568,1.333-0.411,2.812-1.86,2.812h-35.561C158.958,80.266,158.054,79.361,158.054,78.245"
		/>
	<path clip-path="url(#SVGID_2_)" d="M139.686,39.85c-0.313-1.014-0.602-1.944-0.876-2.834c-0.159-0.512,0.112-1.059,0.615-1.246
		c1.449-0.537,2.725-0.959,3.87-1.561c2.105-1.105,3.788-2.557,3.307-5.375c-0.359-2.105-1.987-4.005-4.207-4.784
		c-2.181-0.765-4.619-0.156-5.703,1.428c-1.896,2.771-1.54,6.099-0.681,9.466c1.17,4.592,2.671,9.168,3.801,13.761
		c1.518,6.173,2.179,12.284,0.648,18.031c-1.632,6.121-5.145,10.62-11.684,12.816c-4.577,1.537-9.2,0.807-14.004-0.911
		c-2.101-0.751-4.367-1.604-6.107-2.958c-9.073-7.057-13.19-17.746-7.967-26.578c2.838-4.799,7.374-7.886,13.029-9.52
		c4.005-1.157,8.284-1.774,12.476-2.542c1.608-0.294,2.364,0.369,2.486,1.993c0.354,4.737,0.877,4.032-3.431,5.456
		c-4.276,1.412-8.261,3.252-10.902,6.71c-1.719,2.251-2.246,4.906-0.636,7.853c1.768,3.232,4.623,5.639,8.358,6.124
		c3.88,0.503,7.547-0.874,9.113-5.287c1.463-4.119,1.582-8.557,0.993-13.143c-0.584-4.535-1.421-9.089-1.873-13.612
		c-0.302-3.02,0.184-5.9,1.427-8.504c1.667-3.494,5.526-5.282,9.542-4.382c4.5,1.009,8.319,4.429,9.283,8.613
		c0.921,3.998-0.86,6.828-3.789,8.916c-1.452,1.035-3.183,1.764-4.838,2.557c-0.312,0.149-0.704,0.18-1.197,0.221
		C140.266,40.6,139.827,40.304,139.686,39.85"/>
	<path clip-path="url(#SVGID_2_)" d="M48.756,80.266H7.94c-0.743,0-1.346-0.601-1.348-1.345l-0.12-57.439
		c-0.001-0.746,0.602-1.35,1.348-1.35h28.875c0.796,0,1.518,0.468,1.843,1.196l3.663,8.215c0.411,0.921-0.263,1.96-1.272,1.96
		H18.593c-0.429,0-0.775,0.346-0.775,0.775v11.257c0,0.417,0.338,0.755,0.755,0.756c1.428,0.003,2.984,0.011,10.462,0.015
		c0.606,0,1.141,0.399,1.312,0.98l2.514,8.558c0.264,0.896-0.41,1.795-1.345,1.795c-8.337,0.003-11.288,0.031-13.058,0.124
		c-0.401,0.021-0.715,0.353-0.715,0.755l0,11.619c0,0.414,0.327,0.755,0.74,0.774c4.359,0.207-6.643,0.048-0.764,0.078
		c3.937,0.023,19.729,0.02,27.747,0.013c0.558,0,1.058,0.343,1.257,0.865l3.29,8.57C50.352,79.318,49.701,80.266,48.756,80.266"/>
	<path clip-path="url(#SVGID_2_)" fill="#E82329" d="M44.883,55.608h-9.28c-0.441,0-0.831-0.286-0.964-0.707l-2.932-9.313
		c-0.205-0.651,0.281-1.314,0.964-1.314h8.987c0.431,0,0.813,0.273,0.955,0.68l3.225,9.313
		C46.065,54.923,45.578,55.608,44.883,55.608"/>
	<path clip-path="url(#SVGID_2_)" fill="#E82329" d="M62.508,80.266h-9.476c-0.417,0-0.791-0.256-0.942-0.644l-3.621-9.313
		c-0.258-0.663,0.23-1.377,0.941-1.377h9.286c0.41,0,0.78,0.249,0.935,0.628l3.812,9.313C63.715,79.538,63.226,80.266,62.508,80.266
		"/>
	<path clip-path="url(#SVGID_2_)" fill="#E82329" d="M231.725,80.266c0.832,0,1.578-0.509,1.881-1.282
		c1.468-3.741,5.771-14.704,7.825-19.907c1.786-4.524,3.702-9.003,5.717-13.431c2.33-5.125,4.745-10.214,7.278-15.24
		c3.529-7,7.393-13.818,11.756-20.338c1.698-2.537,3.554-4.968,5.338-7.448c0.057-0.079,0.108-0.163,0.077-0.34
		c-1.364,0.928-2.745,1.834-4.089,2.79c-5.302,3.766-10.155,8.046-14.678,12.716c-3.941,4.069-7.579,8.391-10.965,12.922
		c-4.37,5.848-8.325,11.973-11.845,18.367c-1.978,3.593-3.875,7.236-5.649,10.933c-2.043,4.258-5.603,13.008-7.402,17.486
		c-0.533,1.328,0.445,2.773,1.876,2.773H231.725z"/>
	<path clip-path="url(#SVGID_2_)" d="M243.592,23.383c0,0-20.556,29.991-28.624,46.883c-0.375,0.786-1.497,0.768-1.84-0.033
		c-3.198-7.442-14.187-33.03-20.237-47.181c-0.568-1.33,0.404-2.808,1.851-2.814c2.602-0.011,6.305-0.024,8.773-0.03
		c0.809-0.002,1.541,0.475,1.861,1.217c4.061,9.399,7.846,19.122,12.014,28.793c0.299,0.692,1.225,0.825,1.705,0.243
		C223.864,44.667,243.592,23.383,243.592,23.383"/>
	<polygon clip-path="url(#SVGID_2_)" points="238.476,79.02 238.476,76.364 237.473,76.364 237.473,75.848 240.038,75.848 
		240.038,76.364 239.036,76.364 239.036,79.02 	"/>
	<polygon clip-path="url(#SVGID_2_)" points="240.625,79.02 240.625,75.848 241.217,75.848 242.178,77.348 243.14,75.848 
		243.732,75.848 243.732,79.02 243.176,79.02 243.176,76.745 242.178,78.24 242.161,78.24 241.171,76.754 241.171,79.02 	"/>
	<path clip-path="url(#SVGID_2_)" d="M63.246,20.102c0.555,0,1.053,0.337,1.255,0.854C66.092,25,72.949,42.38,76.612,50.79
		c0.164,0.375,0.692,0.387,0.875,0.021c0.303-0.608,0.575-1.149,0.814-1.703c2.858-6.601,5.701-13.208,8.557-19.809
		c0.81-1.873,2.23-5.763,2.976-7.833c0.295-0.82,1.074-1.364,1.944-1.364h9.831c0.975,0,1.628,1.001,1.232,1.892
		c-3.884,8.741-20.102,47.093-24.766,57.36c-0.481,1.06-1.987,1.051-2.458-0.014C68.264,62.69,54.625,30.023,51.149,22.176
		c-0.391-0.882,0.245-1.875,1.209-1.892L63.246,20.102z"/>
	<g clip-path="url(#SVGID_2_)">
		<path d="M7.153,91.617v-0.022c0-2.171,1.662-4.01,3.999-4.01c1.163,0,1.938,0.277,2.647,0.787c0.133,0.1,0.277,0.288,0.277,0.554
			c0,0.365-0.299,0.676-0.676,0.676c-0.177,0-0.31-0.078-0.421-0.155c-0.499-0.366-1.041-0.609-1.883-0.609
			c-1.429,0-2.515,1.252-2.515,2.736v0.022c0,1.595,1.053,2.77,2.637,2.77c0.731,0,1.396-0.232,1.872-0.587v-1.451h-1.529
			c-0.332,0-0.609-0.255-0.609-0.587c0-0.332,0.277-0.598,0.609-0.598h2.16c0.388,0,0.687,0.299,0.687,0.687v2.071
			c0,0.388-0.155,0.665-0.477,0.864c-0.665,0.443-1.595,0.842-2.758,0.842C8.749,95.604,7.153,93.876,7.153,91.617z"/>
		<path d="M17.739,88.337c0-0.376,0.299-0.676,0.687-0.676c0.377,0,0.676,0.299,0.676,0.676v5.894h3.512
			c0.344,0,0.621,0.277,0.621,0.621c0,0.343-0.277,0.62-0.621,0.62h-4.188c-0.388,0-0.687-0.299-0.687-0.687V88.337z"/>
		<path d="M25.366,91.617v-0.022c0-2.182,1.684-4.01,4.065-4.01s4.043,1.806,4.043,3.988v0.022c0,2.183-1.684,4.01-4.066,4.01
			C27.028,95.604,25.366,93.799,25.366,91.617z M32.046,91.617v-0.022c0-1.506-1.097-2.758-2.637-2.758
			c-1.54,0-2.614,1.229-2.614,2.736v0.022c0,1.507,1.097,2.748,2.637,2.748C30.971,94.342,32.046,93.123,32.046,91.617z"/>
		<path d="M36.683,88.404c0-0.388,0.299-0.687,0.687-0.687h2.792c0.886,0,1.584,0.244,2.027,0.687
			c0.343,0.344,0.521,0.765,0.521,1.285v0.022c0,0.931-0.532,1.429-1.108,1.729c0.908,0.31,1.54,0.831,1.54,1.883v0.022
			c0,1.385-1.141,2.127-2.869,2.127H37.37c-0.388,0-0.687-0.299-0.687-0.687V88.404z M39.885,90.985
			c0.875,0,1.462-0.344,1.462-1.053v-0.022c0-0.609-0.487-0.986-1.362-0.986h-1.961v2.061H39.885z M40.283,94.264
			c0.931,0,1.496-0.366,1.496-1.063v-0.022c0-0.654-0.521-1.042-1.595-1.042h-2.16v2.127H40.283z"/>
		<path d="M45.795,94.585l2.88-6.425c0.155-0.343,0.432-0.554,0.82-0.554h0.066c0.388,0,0.654,0.21,0.809,0.554l2.88,6.425
			c0.055,0.1,0.078,0.199,0.078,0.288c0,0.366-0.277,0.653-0.643,0.653c-0.321,0-0.543-0.188-0.665-0.476L51.39,93.6h-3.767
			l-0.654,1.496c-0.111,0.277-0.343,0.432-0.631,0.432c-0.354,0-0.631-0.277-0.631-0.631C45.707,94.796,45.74,94.696,45.795,94.585z
			 M50.869,92.392l-1.362-3.135l-1.363,3.135H50.869z"/>
		<path d="M56.359,88.337c0-0.376,0.299-0.676,0.687-0.676c0.376,0,0.675,0.299,0.675,0.676v5.894h3.512
			c0.344,0,0.621,0.277,0.621,0.621c0,0.343-0.277,0.62-0.621,0.62h-4.187c-0.388,0-0.687-0.299-0.687-0.687V88.337z"/>
		<path d="M69.728,88.337c0-0.376,0.299-0.676,0.687-0.676c0.377,0,0.676,0.299,0.676,0.676v6.514c0,0.376-0.299,0.675-0.676,0.675
			c-0.388,0-0.687-0.299-0.687-0.675V88.337z"/>
		<path d="M74.715,88.36c0-0.377,0.299-0.687,0.687-0.687h0.144c0.333,0,0.521,0.166,0.709,0.399l3.877,5.018v-4.763
			c0-0.366,0.299-0.665,0.665-0.665c0.377,0,0.676,0.299,0.676,0.665v6.514c0,0.376-0.288,0.676-0.665,0.676h-0.055
			c-0.321,0-0.521-0.167-0.709-0.41l-3.988-5.162v4.918c0,0.366-0.299,0.665-0.665,0.665c-0.377,0-0.676-0.299-0.676-0.665V88.36z"
			/>
		<path d="M85.024,88.36c0-0.377,0.299-0.687,0.687-0.687h0.144c0.333,0,0.521,0.166,0.709,0.399l3.877,5.018v-4.763
			c0-0.366,0.299-0.665,0.665-0.665c0.377,0,0.676,0.299,0.676,0.665v6.514c0,0.376-0.288,0.676-0.665,0.676h-0.055
			c-0.321,0-0.521-0.167-0.709-0.41l-3.988-5.162v4.918c0,0.366-0.299,0.665-0.665,0.665c-0.377,0-0.676-0.299-0.676-0.665V88.36z"
			/>
		<path d="M94.99,91.617v-0.022c0-2.182,1.684-4.01,4.065-4.01s4.043,1.806,4.043,3.988v0.022c0,2.183-1.684,4.01-4.066,4.01
			C96.652,95.604,94.99,93.799,94.99,91.617z M101.67,91.617v-0.022c0-1.506-1.097-2.758-2.637-2.758
			c-1.54,0-2.614,1.229-2.614,2.736v0.022c0,1.507,1.097,2.748,2.637,2.748C100.595,94.342,101.67,93.123,101.67,91.617z"/>
		<path d="M108.224,95.028l-2.714-6.381c-0.044-0.1-0.078-0.199-0.078-0.321c0-0.366,0.299-0.665,0.687-0.665
			c0.354,0,0.587,0.2,0.698,0.488l2.238,5.594l2.271-5.639c0.088-0.233,0.333-0.443,0.654-0.443c0.376,0,0.675,0.288,0.675,0.654
			c0,0.1-0.033,0.21-0.066,0.288l-2.725,6.425c-0.144,0.344-0.399,0.554-0.787,0.554H109
			C108.623,95.583,108.368,95.372,108.224,95.028z"/>
		<path d="M114.333,94.585l2.88-6.425c0.155-0.343,0.432-0.554,0.82-0.554h0.066c0.388,0,0.654,0.21,0.809,0.554l2.88,6.425
			c0.056,0.1,0.078,0.199,0.078,0.288c0,0.366-0.277,0.653-0.643,0.653c-0.321,0-0.543-0.188-0.665-0.476l-0.631-1.451h-3.767
			l-0.654,1.496c-0.111,0.277-0.343,0.432-0.631,0.432c-0.354,0-0.631-0.277-0.631-0.631
			C114.245,94.796,114.278,94.696,114.333,94.585z M119.407,92.392l-1.362-3.135l-1.363,3.135H119.407z"/>
		<path d="M125.916,88.98h-1.883c-0.354,0-0.631-0.288-0.631-0.631s0.277-0.631,0.631-0.631h5.151c0.343,0,0.62,0.288,0.62,0.631
			s-0.277,0.631-0.62,0.631h-1.895v5.872c0,0.376-0.31,0.675-0.687,0.675c-0.377,0-0.687-0.299-0.687-0.675V88.98z"/>
		<path d="M131.981,91.617v-0.022c0-2.182,1.684-4.01,4.065-4.01s4.043,1.806,4.043,3.988v0.022c0,2.183-1.684,4.01-4.065,4.01
			C133.643,95.604,131.981,93.799,131.981,91.617z M138.661,91.617v-0.022c0-1.506-1.097-2.758-2.636-2.758
			c-1.54,0-2.615,1.229-2.615,2.736v0.022c0,1.507,1.097,2.748,2.637,2.748C137.586,94.342,138.661,93.123,138.661,91.617z"/>
		<path d="M143.298,88.404c0-0.388,0.299-0.687,0.687-0.687h2.769c0.975,0,1.739,0.288,2.238,0.775
			c0.41,0.421,0.643,0.997,0.643,1.673v0.022c0,1.241-0.72,1.994-1.761,2.315l1.484,1.872c0.133,0.166,0.222,0.31,0.222,0.521
			c0,0.377-0.321,0.631-0.654,0.631c-0.31,0-0.51-0.144-0.665-0.354l-1.883-2.404h-1.717v2.083c0,0.376-0.299,0.675-0.675,0.675
			c-0.388,0-0.687-0.299-0.687-0.675V88.404z M146.655,91.561c0.975,0,1.595-0.509,1.595-1.296v-0.022
			c0-0.831-0.598-1.285-1.606-1.285h-1.983v2.603H146.655z"/>
		<path d="M157.543,94.607c-0.155-0.11-0.266-0.299-0.266-0.521c0-0.354,0.288-0.631,0.643-0.631c0.188,0,0.31,0.055,0.399,0.122
			c0.643,0.51,1.329,0.798,2.171,0.798c0.842,0,1.374-0.399,1.374-0.975v-0.022c0-0.554-0.311-0.853-1.75-1.186
			c-1.65-0.398-2.581-0.886-2.581-2.315v-0.022c0-1.329,1.108-2.249,2.647-2.249c0.975,0,1.761,0.255,2.459,0.72
			c0.155,0.088,0.299,0.277,0.299,0.542c0,0.354-0.288,0.631-0.643,0.631c-0.133,0-0.244-0.033-0.354-0.1
			c-0.598-0.388-1.174-0.587-1.783-0.587c-0.798,0-1.263,0.41-1.263,0.919v0.022c0,0.598,0.354,0.864,1.85,1.219
			c1.64,0.399,2.481,0.986,2.481,2.271v0.022c0,1.451-1.141,2.315-2.77,2.315C159.404,95.583,158.407,95.25,157.543,94.607z"/>
		<path d="M168.316,92.458l-2.669-3.667c-0.089-0.133-0.155-0.288-0.155-0.476c0-0.366,0.299-0.654,0.687-0.654
			c0.299,0,0.499,0.167,0.665,0.41l2.16,3.113l2.193-3.124c0.166-0.244,0.366-0.41,0.654-0.41c0.398,0,0.665,0.299,0.665,0.665
			c0,0.188-0.089,0.354-0.188,0.487l-2.647,3.623v2.426c0,0.376-0.299,0.675-0.687,0.675c-0.376,0-0.676-0.299-0.676-0.675V92.458z"
			/>
		<path d="M175.401,88.36c0-0.377,0.299-0.687,0.687-0.687h0.144c0.333,0,0.521,0.166,0.709,0.399l3.877,5.018v-4.763
			c0-0.366,0.299-0.665,0.665-0.665c0.377,0,0.676,0.299,0.676,0.665v6.514c0,0.376-0.288,0.676-0.665,0.676h-0.055
			c-0.321,0-0.521-0.167-0.709-0.41l-3.988-5.162v4.918c0,0.366-0.299,0.665-0.665,0.665c-0.377,0-0.676-0.299-0.676-0.665V88.36z"
			/>
		<path d="M185.709,94.785v-6.381c0-0.388,0.299-0.687,0.687-0.687h4.508c0.333,0,0.609,0.277,0.609,0.609
			c0,0.343-0.277,0.609-0.609,0.609h-3.833v2.017h3.334c0.333,0,0.609,0.277,0.609,0.62c0,0.333-0.277,0.598-0.609,0.598h-3.334
			v2.083h3.889c0.332,0,0.609,0.277,0.609,0.609c0,0.344-0.277,0.609-0.609,0.609h-4.564
			C186.008,95.472,185.709,95.172,185.709,94.785z"/>
		<path d="M194.688,88.404c0-0.388,0.299-0.687,0.687-0.687h2.77c0.975,0,1.739,0.288,2.238,0.775
			c0.41,0.421,0.643,0.997,0.643,1.673v0.022c0,1.241-0.72,1.994-1.761,2.315l1.484,1.872c0.133,0.166,0.222,0.31,0.222,0.521
			c0,0.377-0.321,0.631-0.654,0.631c-0.31,0-0.509-0.144-0.665-0.354l-1.883-2.404h-1.717v2.083c0,0.376-0.299,0.675-0.676,0.675
			c-0.388,0-0.687-0.299-0.687-0.675V88.404z M198.045,91.561c0.975,0,1.595-0.509,1.595-1.296v-0.022
			c0-0.831-0.598-1.285-1.606-1.285h-1.983v2.603H198.045z"/>
		<path d="M203.912,91.617v-0.022c0-2.171,1.662-4.01,3.999-4.01c1.163,0,1.938,0.277,2.647,0.787
			c0.133,0.1,0.277,0.288,0.277,0.554c0,0.365-0.299,0.676-0.676,0.676c-0.177,0-0.31-0.078-0.421-0.155
			c-0.499-0.366-1.041-0.609-1.883-0.609c-1.429,0-2.515,1.252-2.515,2.736v0.022c0,1.595,1.053,2.77,2.637,2.77
			c0.731,0,1.396-0.232,1.872-0.587v-1.451h-1.529c-0.332,0-0.609-0.255-0.609-0.587c0-0.332,0.277-0.598,0.609-0.598h2.16
			c0.388,0,0.687,0.299,0.687,0.687v2.071c0,0.388-0.155,0.665-0.477,0.864c-0.665,0.443-1.595,0.842-2.758,0.842
			C205.507,95.604,203.912,93.876,203.912,91.617z"/>
		<path d="M214.575,88.337c0-0.376,0.299-0.676,0.687-0.676c0.377,0,0.676,0.299,0.676,0.676v6.514c0,0.376-0.299,0.675-0.676,0.675
			c-0.388,0-0.687-0.299-0.687-0.675V88.337z"/>
		<path d="M219.563,94.785v-6.381c0-0.388,0.299-0.687,0.687-0.687h4.508c0.333,0,0.609,0.277,0.609,0.609
			c0,0.343-0.277,0.609-0.609,0.609h-3.833v2.017h3.334c0.333,0,0.609,0.277,0.609,0.62c0,0.333-0.277,0.598-0.609,0.598h-3.334
			v2.083h3.889c0.332,0,0.609,0.277,0.609,0.609c0,0.344-0.277,0.609-0.609,0.609h-4.564
			C219.862,95.472,219.563,95.172,219.563,94.785z"/>
		<path d="M228.343,94.607c-0.155-0.11-0.266-0.299-0.266-0.521c0-0.354,0.288-0.631,0.643-0.631c0.188,0,0.31,0.055,0.399,0.122
			c0.643,0.51,1.329,0.798,2.171,0.798c0.842,0,1.374-0.399,1.374-0.975v-0.022c0-0.554-0.311-0.853-1.75-1.186
			c-1.65-0.398-2.581-0.886-2.581-2.315v-0.022c0-1.329,1.108-2.249,2.647-2.249c0.975,0,1.761,0.255,2.459,0.72
			c0.155,0.088,0.299,0.277,0.299,0.542c0,0.354-0.288,0.631-0.643,0.631c-0.133,0-0.244-0.033-0.354-0.1
			c-0.598-0.388-1.174-0.587-1.783-0.587c-0.798,0-1.263,0.41-1.263,0.919v0.022c0,0.598,0.354,0.864,1.85,1.219
			c1.64,0.399,2.481,0.986,2.481,2.271v0.022c0,1.451-1.141,2.315-2.77,2.315C230.204,95.583,229.207,95.25,228.343,94.607z"/>
	</g>
</g>
</svg>
