<?xml version="1.0" encoding="utf-8"?>
<!-- Generator: Adobe Illustrator 16.0.0, SVG Export Plug-In . SVG Version: 6.00 Build 0)  -->
<!DOCTYPE svg PUBLIC "-//W3C//DTD SVG 1.1//EN" "http://www.w3.org/Graphics/SVG/1.1/DTD/svg11.dtd">
<svg version="1.1" id="Layer_1" xmlns="http://www.w3.org/2000/svg" xmlns:xlink="http://www.w3.org/1999/xlink" x="0px" y="0px"
	 width="150px" height="150px" viewBox="0 0 150 150" enable-background="new 0 0 150 150" xml:space="preserve">
<path fill="#4378BC" d="M105.966,109.714c-0.708,0.045-1.141,0.097-1.575,0.097c-22.136,0.005-44.272,0.009-66.409,0.009
	c-1.717,0-2.353-0.568-2.779-2.377c-1.129-4.79-0.051-9.18,2.395-13.324c3.287-5.569,7.966-9.812,13.069-13.636
	c7.574-5.678,15.872-10.098,24.437-14.062c9.568-4.428,19.383-8.231,29.4-11.489c6.801-2.212,13.688-4.161,20.539-6.221
	c0.4-0.121,0.817-0.184,1.227-0.274c0.026,0.087,0.052,0.175,0.079,0.263c-2.047,0.917-4.086,1.854-6.143,2.748
	c-13.726,5.963-27.082,12.625-39.519,21.001c-7.824,5.269-15.295,10.986-21.735,17.94c-0.963,1.041-1.832,2.17-2.743,3.258
	c0.057,0.114,0.113,0.227,0.17,0.341c0.46,0,0.92,0,1.38,0C69.773,93.984,81.788,94,93.801,93.959
	c1.776-0.006,3.005,0.592,3.932,2.148c2.483,4.172,5.066,8.285,7.605,12.425C105.525,108.836,105.675,109.163,105.966,109.714z"/>
<path fill="#4378BC" d="M67.142,48.872c2.686-3.889,5.202-7.532,7.901-11.44c-0.871-0.061-1.437-0.135-2.002-0.135
	c-11.268-0.006-22.536-0.004-33.804-0.002c-2.708,0-2.694-0.001-3.761-2.479c-1.685-3.914-3.393-7.818-5.084-11.728
	c-0.158-0.365-0.273-0.748-0.472-1.295c0.596-0.055,1.049-0.133,1.502-0.133c23.759-0.004,47.518-0.007,71.277,0.027
	c0.667,0.001,1.772,0.255,1.901,0.646c0.217,0.655,0.021,1.648-0.37,2.267c-1.441,2.287-3.019,4.488-4.57,6.705
	c-2.676,3.826-5.336,7.664-8.09,11.433c-0.477,0.653-1.324,1.258-2.102,1.434c-7.046,1.597-14.115,3.094-21.179,4.612
	C68.012,48.844,67.718,48.83,67.142,48.872z"/>
<linearGradient id="SVGID_1_" gradientUnits="userSpaceOnUse" x1="-113.1855" y1="763.6543" x2="-217.507" y2="684.9517" gradientTransform="matrix(1 0 0 -1 224 799.1992)">
	<stop  offset="0.078" style="stop-color:#EC1D25"/>
	<stop  offset="1" style="stop-color:#981B1F"/>
</linearGradient>
<path fill="url(#SVGID_1_)" d="M30.515,108.356c-0.133-0.042-0.286-0.055-0.395-0.131c-4.673-3.258-8.837-7.024-11.512-12.148
	c-3.037-5.82-2.178-11.975,2.195-17.041c3.665-4.245,8.16-7.418,13.026-10.094c10.701-5.888,22.033-10.307,33.726-13.694
	c13.164-3.813,26.404-7.389,39.702-10.709c11.246-2.808,22.62-5.105,33.938-7.622c0.377-0.083,0.771-0.094,1.157-0.139
	c0.035,0.125,0.07,0.25,0.104,0.375c-0.771,0.254-1.536,0.522-2.312,0.759c-7.83,2.397-15.697,4.68-23.485,7.205
	c-15.064,4.885-29.875,10.464-44.292,17.028C61.799,66.957,51.428,72.167,42,79.033c-4.385,3.192-8.573,6.633-11.728,11.124
	c-1.896,2.7-3.312,5.596-3.347,9.026c-0.028,2.759,0.874,5.154,2.488,7.328c0.414,0.559,0.839,1.108,1.259,1.662
	C30.619,108.234,30.567,108.295,30.515,108.356z"/>
<g>
	
		<text transform="matrix(0.9648 0 0 1 29.9189 130.7373)" fill="#4378BC" font-family="'GothamBold'" font-size="21.6173" letter-spacing="7.255">ZING</text>
</g>
</svg>
