<?xml version="1.0" encoding="utf-8"?>
<!-- Generator: Adobe Illustrator 16.0.0, SVG Export Plug-In . SVG Version: 6.00 Build 0)  -->
<!DOCTYPE svg PUBLIC "-//W3C//DTD SVG 1.1//EN" "http://www.w3.org/Graphics/SVG/1.1/DTD/svg11.dtd">
<svg version="1.1" id="Layer_1" xmlns="http://www.w3.org/2000/svg" xmlns:xlink="http://www.w3.org/1999/xlink" x="0px" y="0px"
	 width="577px" height="601.573px" viewBox="0 0 577 601.573" enable-background="new 0 0 577 601.573" xml:space="preserve">
<path fill-rule="evenodd" clip-rule="evenodd" fill="#4378BC" d="M410.906,424.96c-3.064,0.195-4.943,0.42-6.821,0.42
	c-95.912,0.026-191.823,0.04-287.734,0.039c-7.438-0.001-10.194-2.459-12.042-10.301c-4.891-20.753-0.222-39.773,10.376-57.73
	c14.242-24.132,34.518-42.509,56.625-59.082c32.815-24.598,68.771-43.751,105.88-60.925c41.456-19.185,83.982-35.663,127.385-49.781
	c29.468-9.586,59.309-18.028,88.99-26.955c1.733-0.521,3.54-0.797,5.312-1.188c0.114,0.379,0.229,0.759,0.343,1.137
	c-8.87,3.974-17.702,8.034-26.615,11.906c-59.467,25.835-117.338,54.699-171.224,90.993c-33.899,22.831-66.273,47.603-94.173,77.729
	c-4.175,4.509-7.935,9.402-11.886,14.118c0.246,0.492,0.491,0.984,0.736,1.477c1.994,0,3.988,0.001,5.982,0
	c52.053-0.009,104.106,0.061,156.158-0.116c7.698-0.026,13.019,2.563,17.034,9.309c10.761,18.077,21.953,35.898,32.954,53.834
	C408.995,421.159,409.644,422.572,410.906,424.96z"/>
<path fill-rule="evenodd" clip-rule="evenodd" fill="#4378BC" d="M242.689,161.346c11.636-16.849,22.538-32.633,34.232-49.565
	c-3.772-0.265-6.223-0.585-8.673-0.585c-48.821-0.025-97.643-0.018-146.463-0.008c-11.732,0.003-11.673-0.006-16.296-10.742
	c-7.302-16.957-14.7-33.873-22.032-50.815c-0.683-1.579-1.184-3.237-2.042-5.61c2.581-0.238,4.544-0.578,6.508-0.578
	c102.941-0.018,205.884-0.03,308.824,0.117c2.891,0.004,7.68,1.104,8.239,2.797c0.938,2.839,0.088,7.141-1.603,9.823
	c-6.243,9.909-13.08,19.447-19.8,29.051c-11.596,16.576-23.122,33.206-35.056,49.538c-2.066,2.829-5.734,5.45-9.104,6.213
	c-30.53,6.916-61.156,13.403-91.762,19.984C246.458,161.225,245.185,161.167,242.689,161.346z"/>
<linearGradient id="SVGID_1_" gradientUnits="userSpaceOnUse" x1="431.9141" y1="103.605" x2="-20.086" y2="444.605">
	<stop  offset="0.078" style="stop-color:#EC1D25"/>
	<stop  offset="1" style="stop-color:#981B1F"/>
</linearGradient>
<path fill-rule="evenodd" clip-rule="evenodd" fill="url(#SVGID_1_)" d="M83.993,419.078c-0.575-0.185-1.238-0.241-1.711-0.57
	c-20.246-14.115-38.289-30.435-49.878-52.638c-13.161-25.215-9.438-51.883,9.51-73.829c15.878-18.393,35.356-32.143,56.437-43.739
	c46.368-25.51,95.464-44.655,146.128-59.33c57.037-16.521,114.404-32.015,172.017-46.401
	c48.726-12.167,98.005-22.122,147.047-33.025c1.635-0.363,3.341-0.409,5.015-0.602c0.149,0.541,0.3,1.083,0.45,1.624
	c-3.338,1.099-6.656,2.261-10.016,3.289c-33.926,10.385-68.012,20.275-101.756,31.218c-65.271,21.166-129.44,45.336-191.906,73.78
	c-45.787,20.85-90.722,43.425-131.576,73.172c-18.997,13.831-37.146,28.738-50.813,48.197c-8.217,11.7-14.349,24.246-14.503,39.109
	c-0.124,11.956,3.784,22.328,10.781,31.753c1.794,2.418,3.634,4.801,5.453,7.199C84.446,418.551,84.22,418.814,83.993,419.078z"/>
<g>
	
		<text transform="matrix(0.9648 0 0 1 81.415 516.0488)" fill="#4378BC" font-family="'GothamBold'" font-size="93.6623" letter-spacing="35.239">ZING</text>
</g>
<g>
	
		<text transform="matrix(0.9648 0 0 1 85.4155 550.2314)" fill="#4378BC" font-family="'GothamBold'" font-size="24.6651" letter-spacing="11.401">EVENT ACUMEN</text>
</g>
</svg>
