<?xml version="1.0" encoding="utf-8"?>
<!-- Generator: Adobe Illustrator 16.0.0, SVG Export Plug-In . SVG Version: 6.00 Build 0)  -->
<!DOCTYPE svg PUBLIC "-//W3C//DTD SVG 1.1//EN" "http://www.w3.org/Graphics/SVG/1.1/DTD/svg11.dtd">
<svg version="1.1" id="Layer_1" xmlns="http://www.w3.org/2000/svg" xmlns:xlink="http://www.w3.org/1999/xlink" x="0px" y="0px"
	 width="75px" height="75px" viewBox="0 0 75 75" enable-background="new 0 0 75 75" xml:space="preserve">
<g id="Blockchain">
	<path fill-rule="evenodd" clip-rule="evenodd" d="M11.918,46.903c0-6.862,0.047-13.657-0.036-20.454
		c-0.018-1.529,0.524-2.349,1.833-3.063c5.625-3.067,11.193-6.243,16.792-9.356c0.795-0.441,1.267-0.89,1.404-1.934
		c0.381-2.871,3.054-5.06,5.922-5.104c2.896-0.045,5.502,2.208,6.137,5.129c0.144,0.667,0.658,1.463,1.235,1.793
		c5.649,3.249,11.331,6.442,17.047,9.573c1.219,0.666,1.657,1.476,1.645,2.845c-0.06,6.418-0.012,12.837-0.042,19.257
		c-0.004,0.892,0.157,1.415,1.084,1.855c3.34,1.59,4.494,5.429,2.696,8.539c-1.771,3.062-5.711,3.942-8.771,1.85
		c-0.778-0.532-1.26-0.454-2.004-0.03c-5.664,3.223-11.381,6.357-17.024,9.615c-1.412,0.814-2.535,0.77-3.921-0.028
		c-5.649-3.25-11.343-6.422-17.051-9.568c-0.45-0.249-1.329-0.348-1.66-0.081c-2.581,2.071-7.208,1.679-9.151-1.94
		c-1.784-3.326-0.336-6.981,3.414-8.683C11.564,47.073,11.662,47.024,11.918,46.903z M56.198,52.736
		c0.961-1.788-0.433-2.292-1.639-2.957c-1.903-1.051-3.803-2.108-5.648-3.25c-0.856-0.53-1.508-0.484-2.352,0.035
		c-2.405,1.479-4.887,2.833-7.3,4.297c-0.956,0.581-1.762,0.585-2.719,0.002c-2.411-1.466-4.894-2.82-7.3-4.296
		c-0.84-0.517-1.486-0.568-2.351-0.038c-2.082,1.278-4.154,2.612-6.374,3.608c-1.905,0.855-0.881,2.29-0.986,3.461
		c-0.045,0.478,0.521,1.228,1.009,1.505c5.419,3.1,10.893,6.106,16.313,9.204c0.854,0.489,1.433,0.355,2.211-0.086
		c5.192-2.947,10.401-5.871,15.636-8.746C55.822,54.859,56.854,54.337,56.198,52.736z M43.45,16.41
		c-1.152,0.845-2.185,1.524-3.119,2.321c-0.414,0.354-0.87,0.93-0.896,1.424c-0.1,2.059-0.119,4.13,0.007,6.185
		c0.036,0.61,0.504,1.407,1.018,1.734c2.145,1.374,4.361,2.642,6.595,3.867c1.069,0.589,1.57,1.324,1.524,2.589
		c-0.084,2.332,0.025,4.672-0.047,7.003c-0.029,0.955,0.323,1.463,1.127,1.905c2.564,1.408,5.089,2.892,7.637,4.333
		c1.435,0.813,3.588-0.456,3.59-2.115c0.008-5.16-0.213-10.331,0.087-15.473c0.172-2.965-0.749-4.539-3.39-5.865
		C52.701,21.869,48.028,19.002,43.45,16.41z M14.9,46.854c0.671,0.348,1.215,0.741,1.822,0.907c0.538,0.146,1.259,0.249,1.706,0.01
		c2.627-1.412,5.182-2.961,7.8-4.393c0.776-0.426,1.046-0.918,1.023-1.794c-0.06-2.39,0.024-4.784-0.038-7.174
		c-0.03-1.12,0.382-1.82,1.35-2.358c2.276-1.269,4.539-2.564,6.744-3.948c0.494-0.312,1.008-1.015,1.036-1.565
		c0.119-2.169,0.078-4.347,0.022-6.519c-0.009-0.4-0.266-0.923-0.581-1.161c-1.057-0.804-2.192-1.505-3.413-2.322
		c-5.432,3.035-11.026,6.146-16.593,9.303c-0.391,0.221-0.839,0.776-0.843,1.18C14.886,33.646,14.9,40.273,14.9,46.854z
		 M45.551,39.698c0-5.185-0.135-4.983-3.92-7.548c-2.701-1.829-4.688-1.628-7.509-0.059c-3.074,1.714-4.055,3.586-4.038,7.052
		c0.016,3.353,1.023,5.113,3.912,6.807c2.902,1.7,4.935,1.713,7.805-0.018C44.614,44.233,46.509,42.636,45.551,39.698z
		 M13.358,49.82c-1.674,0.036-3.087,1.517-3.027,3.176c0.059,1.688,1.503,3.012,3.218,2.949c1.631-0.061,2.953-1.435,2.941-3.059
		C16.481,51.209,15.027,49.786,13.358,49.82z M62.344,55.946c1.71,0.014,3.122-1.368,3.117-3.056
		c-0.006-1.663-1.477-3.102-3.138-3.07c-1.62,0.031-2.986,1.393-3.025,3.011C59.257,54.523,60.633,55.932,62.344,55.946z
		 M40.967,13.163c0.023-1.671-1.411-3.137-3.072-3.137c-1.593-0.001-3.012,1.372-3.075,2.974c-0.065,1.686,1.306,3.144,2.993,3.18
		C39.514,16.218,40.944,14.849,40.967,13.163z"/>
</g>
</svg>
