<?xml version="1.0" encoding="utf-8"?>
<!-- Generator: Adobe Illustrator 16.0.0, SVG Export Plug-In . SVG Version: 6.00 Build 0)  -->
<!DOCTYPE svg PUBLIC "-//W3C//DTD SVG 1.1//EN" "http://www.w3.org/Graphics/SVG/1.1/DTD/svg11.dtd">
<svg version="1.1" id="Layer_1" xmlns="http://www.w3.org/2000/svg" xmlns:xlink="http://www.w3.org/1999/xlink" x="0px" y="0px"
	 width="75px" height="75px" viewBox="0 0 75 75" enable-background="new 0 0 75 75" xml:space="preserve">
<g id="Battery_Technologies">
	<path fill-rule="evenodd" clip-rule="evenodd" d="M55.976,28.864c-0.003-2.524-1.173-3.668-3.739-3.692
		c-1.916-0.018-3.833-0.002-5.915-0.002c0-0.947-0.055-1.742,0.016-2.528c0.119-1.349-0.515-1.8-1.795-1.754
		c-1.502,0.058-3.008,0.015-4.525,0.015V18.74c3.919-0.187,7.956,0.682,11.304-2.107c3.369-2.809,3.927-6.467,3.434-10.586
		c-2.815,0-5.607-0.184-8.366,0.049c-3.306,0.278-5.792,2.113-7.547,5.059c-1.752-3.012-4.254-4.771-7.527-5.059
		c-2.755-0.242-5.55-0.049-8.475-0.049c0,0.983-0.003,1.875,0,2.77c0.003,5.813,4.093,9.889,9.925,9.895c1.654,0.003,3.31,0,4.913,0
		v2.191c-1.63,0-3.151,0.025-4.67-0.008c-1.139-0.025-1.708,0.404-1.63,1.602c0.059,0.84,0.013,1.684,0.013,2.674
		c-2.039,0-3.903-0.01-5.771,0c-2.756,0.018-3.883,1.127-3.886,3.852c-0.003,12.893-0.003,25.786,0,38.68
		c0,1.943,0.149,2.092,2.052,2.092h30.149c1.856-0.003,2.042-0.17,2.042-1.947C55.982,54.85,55.985,41.856,55.976,28.864z
		 M47.157,8.258c1.712-0.125,3.439-0.021,5.132-0.021c1.55,4.369-2.932,8.482-9.253,8.168c2.229-1.485,4.148-2.764,6.038-4.023
		c-0.769-2.225-0.941-2.287-2.787-1.076c-2.02,1.331-4.034,2.665-6.111,4.038C40.432,11.317,43.149,8.549,47.157,8.258z
		 M34.446,16.298c-5.017,0.701-8.661-1.872-9.304-6.371c-0.162-1.149,0.004-1.854,1.447-1.712c1.658,0.164,3.354,0.021,4.992,0.285
		c3.413,0.547,5.592,3.051,5.924,6.814c-1.764-1.166-3.371-2.23-4.977-3.293c-0.381-0.25-0.765-0.498-1.143-0.749
		c-1.776-1.17-1.84-1.149-2.84,1.036C30.457,13.601,32.393,14.91,34.446,16.298z M33.825,23.021
		c0.279-0.277,0.666-0.449,1.094-0.449h8.075c0.856,0,1.551,0.689,1.551,1.538c0,0.847-0.694,1.536-1.551,1.536h-8.075
		c-0.854,0-1.549-0.689-1.549-1.536C33.37,23.688,33.544,23.301,33.825,23.021z M38.88,59.136c-4.613,0.016-8.545-3.86-8.581-8.456
		c-0.037-4.58,3.87-8.463,8.532-8.481c4.657-0.02,8.569,3.825,8.581,8.431C47.426,55.201,43.497,59.117,38.88,59.136z"/>
	<path fill-rule="evenodd" clip-rule="evenodd" d="M38.351,56.725c1.033-1.565,1.954-2.961,3.052-4.624
		c-1.742,0-3.25,0.055-4.75-0.031c-0.518-0.03-1.202-0.289-1.456-0.674c-0.179-0.271,0.115-1.029,0.413-1.398
		c1.574-1.959,3.217-3.865,4.925-5.894c0.581,0.47,1.063,0.86,1.658,1.342c-1.2,1.469-2.343,2.864-3.683,4.505
		c1.57,0,2.887-0.063,4.192,0.028c0.577,0.042,1.337,0.25,1.632,0.655c0.213,0.291-0.076,1.116-0.361,1.564
		c-1.213,1.908-2.507,3.763-3.832,5.726C39.495,57.491,38.976,57.143,38.351,56.725z"/>
</g>
</svg>
