<?xml version="1.0" encoding="utf-8"?>
<!-- Generator: Adobe Illustrator 16.0.0, SVG Export Plug-In . SVG Version: 6.00 Build 0)  -->
<!DOCTYPE svg PUBLIC "-//W3C//DTD SVG 1.1//EN" "http://www.w3.org/Graphics/SVG/1.1/DTD/svg11.dtd">
<svg version="1.1" id="Layer_1" xmlns="http://www.w3.org/2000/svg" xmlns:xlink="http://www.w3.org/1999/xlink" x="0px" y="0px"
	 width="75px" height="75px" viewBox="0 0 75 75" enable-background="new 0 0 75 75" xml:space="preserve">
<g id="CX_360">
	<path fill-rule="evenodd" clip-rule="evenodd" d="M71.047,36.643c0,0.188,0,0.374,0,0.563c-0.535,0.744-1.003,1.552-1.619,2.223
		c-1.326,1.443-2.776,2.773-4.076,4.238c-0.561,0.632-1.021,1.436-1.28,2.239c-3.225,10.026-9.746,16.829-19.745,20.188
		c-1.971,0.661-4.067,0.951-6.106,1.413c-1.964,0-3.928,0-5.892,0c-0.313-0.079-0.623-0.18-0.941-0.232
		c-12.654-2.084-21.025-9.22-24.927-21.42c-0.798-2.491-0.916-5.198-1.347-7.808c0-0.28,0-0.562,0-0.841
		c0.123-1.248,0.204-2.503,0.377-3.742C7.367,19.992,18.577,9.034,31.743,7.785c14.572-1.383,27.532,6.835,31.969,20.364
		c0.759,2.314,1.162,4.746,1.726,7.104C68.363,33.398,69.878,33.761,71.047,36.643z M58.975,35.283c0-0.515,0.039-0.89-0.005-1.253
		c-1.318-10.604-10.818-19.604-21.526-20.396c-16.479-1.22-29.029,13.079-25.651,29.223c2.196,10.49,11.729,18.334,22.718,18.694
		c10.872,0.357,20.932-6.888,23.738-17.157c0.135-0.494-0.082-1.282-0.427-1.679c-1.134-1.302-2.449-2.443-3.605-3.725
		c-1.018-1.129-0.994-2.6-0.092-3.724c0.913-1.139,2.298-1.437,3.654-0.762C58.146,34.688,58.472,34.952,58.975,35.283z"/>
	<path fill-rule="evenodd" clip-rule="evenodd" d="M35.125,50.412c-3.453,0-6.908,0-10.363,0c-3.951-0.001-5.662-2.9-3.711-6.41
		c0.462-0.832,1.135-1.676,1.927-2.171c1.929-1.208,3.967-2.244,6.003-3.269c0.316-0.157,0.917,0.01,1.277,0.217
		c3.244,1.869,6.464,1.782,9.746,0.085c0.438-0.228,1.173-0.224,1.629-0.017c1.821,0.826,3.656,1.662,5.354,2.709
		c1.882,1.161,2.997,2.86,2.914,5.231c-0.086,2.511-1.08,3.608-3.573,3.619C42.594,50.425,38.859,50.412,35.125,50.412z"/>
	<path fill-rule="evenodd" clip-rule="evenodd" d="M42.487,29.101c-0.08,5.716-5.018,9.509-9.826,7.552
		c-3.512-1.43-5.509-5.937-4.376-9.873c1.086-3.772,4.376-6.168,7.768-5.656C39.793,21.688,42.543,25.096,42.487,29.101z"/>
</g>
</svg>
