<?xml version="1.0" encoding="utf-8"?>
<!-- Generator: Adobe Illustrator 16.0.0, SVG Export Plug-In . SVG Version: 6.00 Build 0)  -->
<!DOCTYPE svg PUBLIC "-//W3C//DTD SVG 1.1//EN" "http://www.w3.org/Graphics/SVG/1.1/DTD/svg11.dtd">
<svg version="1.1" id="Layer_1" xmlns="http://www.w3.org/2000/svg" xmlns:xlink="http://www.w3.org/1999/xlink" x="0px" y="0px"
	 width="75px" height="75px" viewBox="0 0 75 75" enable-background="new 0 0 75 75" xml:space="preserve">
<g id="Cybersecurity2">
	<g>
		<path fill-rule="evenodd" clip-rule="evenodd" d="M65.697,26.728c-0.149,10.214-1.879,19.278-7.016,27.429
			c-4.486,7.119-10.773,12.099-18.656,14.929c-1.449,0.521-3.437,0.415-4.904-0.132c-11.547-4.301-19.03-12.573-22.805-24.206
			c-2.721-8.384-3.212-16.988-1.996-25.7c0.311-2.214,1.389-3.826,3.535-4.712c7.157-2.948,14.304-5.925,21.438-8.927
			c1.722-0.725,3.336-0.671,5.053,0.062c6.521,2.777,13.011,5.644,19.63,8.165c3.479,1.326,5.209,3.506,5.355,7.136
			C65.424,23.001,65.604,25.229,65.697,26.728z M61.45,26.476c-0.09-1.289-0.263-3.677-0.421-6.066
			c-0.08-1.201-0.616-1.951-1.795-2.429c-6.612-2.689-13.212-5.409-19.775-8.216c-1.351-0.576-2.446-0.447-3.724,0.1
			c-6.361,2.718-12.729,5.427-19.149,8c-1.514,0.608-2.052,1.504-2.214,3.001c-0.633,5.784-0.469,11.535,0.641,17.243
			c2.446,12.575,9.081,21.893,21.167,26.859c0.823,0.339,1.994,0.411,2.81,0.099c6.869-2.624,12.376-6.961,16.293-13.259
			C59.904,44.375,61.372,36.166,61.45,26.476z"/>
		<path fill-rule="evenodd" clip-rule="evenodd" d="M59.869,27.447C59.74,36.354,58.05,44.824,52.9,52.276
			c-3.528,5.105-8.292,8.77-14.093,11.009c-0.641,0.248-1.548,0.272-2.175,0.017c-9.311-3.772-15.492-10.52-18.628-20.024
			c-2.357-7.148-2.887-14.499-2.092-21.968c0.124-1.163,0.615-1.771,1.753-2.228c6.222-2.499,12.383-5.149,18.608-7.637
			c0.85-0.341,2.067-0.361,2.909-0.021c6.32,2.551,12.601,5.195,18.849,7.918c0.632,0.276,1.263,1.211,1.367,1.918
			C59.701,23.301,59.732,25.383,59.869,27.447z M37.702,51.044c0-0.002,0-0.004,0-0.006c1.908,0,3.816,0.047,5.722-0.011
			c2.873-0.087,4.813-2.004,4.87-4.87c0.062-3.049,0.128-6.109-0.056-9.149c-0.07-1.16-0.558-2.544-1.344-3.351
			c-0.996-1.023-1.337-2.012-1.227-3.32c0.041-0.486,0.024-0.981-0.011-1.47c-0.221-3.087-1.709-5.367-4.479-6.727
			c-2.79-1.37-5.501-1.045-8.039,0.688c-2.71,1.851-3.54,4.573-3.414,7.688c0.048,1.186-0.221,2.118-1.053,3.098
			c-0.788,0.929-1.413,2.266-1.5,3.466c-0.213,2.927-0.149,5.881-0.052,8.82c0.104,3.173,2.172,5.092,5.351,5.14
			C34.215,51.066,35.96,51.044,37.702,51.044z"/>
	</g>
	<path fill-rule="evenodd" clip-rule="evenodd" d="M37.848,49.415c-1.8,0-3.598,0.025-5.396-0.007
		c-2.226-0.039-3.625-1.267-3.707-3.497c-0.109-2.938-0.102-5.887,0.001-8.825c0.078-2.218,1.481-3.428,3.749-3.442
		c3.433-0.021,6.866-0.03,10.3,0c2.583,0.021,3.825,1.23,3.874,3.806c0.05,2.725,0.055,5.45-0.008,8.174
		c-0.058,2.548-1.362,3.765-3.909,3.785c-1.636,0.012-3.271,0.002-4.904,0.002C37.848,49.411,37.848,49.413,37.848,49.415z
		 M34.911,39.992c0.115,0.298,0.17,0.938,0.519,1.261c1.108,1.02,1.683,2.162,1.531,3.699c-0.026,0.283,0.462,0.616,0.712,0.925
		c0.268-0.336,0.775-0.685,0.761-1.009c-0.064-1.391,0.349-2.409,1.424-3.391c0.952-0.87,0.87-2.203,0.172-3.312
		c-0.726-1.154-1.895-1.47-3.139-1.102C35.621,37.44,34.981,38.416,34.911,39.992z"/>
	<path fill-rule="evenodd" clip-rule="evenodd" d="M37.547,32.032c-1.63,0-3.264,0.063-4.886-0.041
		c-0.451-0.029-1.153-0.474-1.263-0.861c-0.697-2.501,0.758-5.866,3.005-7.232c2.398-1.458,5.277-1.253,7.433,0.552
		c2.104,1.763,2.454,4.139,2.153,6.659c-0.04,0.349-0.788,0.849-1.232,0.874c-1.732,0.103-3.473,0.042-5.21,0.042
		C37.547,32.027,37.547,32.029,37.547,32.032z"/>
	<path fill-rule="evenodd" clip-rule="evenodd" fill="#FFFFFF" d="M34.911,39.992c0.07-1.576,0.71-2.552,1.979-2.928
		c1.244-0.368,2.413-0.053,3.139,1.102c0.698,1.108,0.78,2.441-0.172,3.312c-1.075,0.981-1.488,2-1.424,3.391
		c0.015,0.324-0.493,0.673-0.761,1.009c-0.25-0.309-0.738-0.642-0.712-0.925c0.151-1.537-0.423-2.68-1.531-3.699
		C35.081,40.931,35.026,40.29,34.911,39.992z M37.847,41.373c0.459-0.817,0.926-1.283,0.901-1.72
		c-0.021-0.365-0.726-1.041-0.938-0.974c-0.471,0.147-1.096,0.644-1.143,1.057C36.623,40.122,37.243,40.584,37.847,41.373z"/>
	<path fill-rule="evenodd" clip-rule="evenodd" d="M37.847,41.373c-0.604-0.789-1.224-1.251-1.18-1.637
		c0.047-0.413,0.672-0.909,1.143-1.057c0.213-0.067,0.917,0.608,0.938,0.974C38.772,40.09,38.306,40.556,37.847,41.373z"/>
</g>
</svg>
