<?xml version="1.0" encoding="utf-8"?>
<!-- Generator: Adobe Illustrator 16.0.0, SVG Export Plug-In . SVG Version: 6.00 Build 0)  -->
<!DOCTYPE svg PUBLIC "-//W3C//DTD SVG 1.1//EN" "http://www.w3.org/Graphics/SVG/1.1/DTD/svg11.dtd">
<svg version="1.1" id="Layer_1" xmlns="http://www.w3.org/2000/svg" xmlns:xlink="http://www.w3.org/1999/xlink" x="0px" y="0px"
	 width="75px" height="75px" viewBox="0 0 75 75" enable-background="new 0 0 75 75" xml:space="preserve">
<g id="Digital_Health">
	<path fill-rule="evenodd" clip-rule="evenodd" d="M19.876,31.864c-0.768-0.42-1.371-0.716-1.936-1.072
		c-0.317-0.2-0.543-0.674-0.857-0.724c-0.783-0.124-1.694-0.305-2.35-0.01c-0.396,0.178-0.615,1.22-0.563,1.845
		c0.313,3.73,1.383,7.212,3.777,10.18c0.872,1.081,1.742,2.18,3.131,2.826c0.447-0.315,0.896-0.632,1.37-0.965
		c6.123,3.996,12.245,4.278,18.434,0.095c0.462,0.333,0.907,0.653,1.325,0.956c4.296-1.911,7.62-9.236,6.784-14.965
		c-1.042-0.419-1.976-0.368-2.892,0.488c-0.527,0.494-1.241,0.79-1.91,1.198c-0.475-1.609-0.498-5.824-0.083-7.506
		c0.987-0.107,1.754,0.369,2.194,1.16c0.493,0.89,1.191,1.031,2.067,1c0.81-0.027,1.623-0.006,2.431-0.006
		c0.991,2.506,0.81,4.954,0.572,7.311c-0.329,3.237-1.309,6.351-3.322,8.996c-0.912,1.196-2.011,2.251-3.026,3.367
		c-0.212,0.234-0.634,0.488-0.609,0.689c0.167,1.363-0.984,1.614-1.753,2.146c-2.499,1.732-5.293,2.69-8.3,3.076
		c-0.687,0.089-1.357,0.302-2.14,0.482c-0.066,0.411-0.19,0.833-0.194,1.256c-0.02,2.225-0.037,4.449-0.003,6.672
		c0.051,3.31,2.504,5.704,5.822,5.708c5.846,0.008,11.695-0.132,17.536,0.057c3.077,0.099,4.637-2.063,5.228-4.945
		c0.101-0.49,0.036-1.015,0.036-1.523c0.002-8.133-0.007-16.267,0.011-24.4c0.002-1.044-0.096-1.934-0.924-2.76
		c-1.026-1.025-0.847-2.812,0.268-3.731c1.307-1.078,2.735-1.03,3.967,0.054c1.089,0.959,1.203,2.686,0.156,3.737
		c-0.777,0.779-0.862,1.617-0.86,2.591c0.013,8.134,0.017,16.268,0,24.401c-0.004,2.136-0.558,4.112-1.755,5.922
		c-1.418,2.145-3.411,3.194-5.922,3.209c-6.164,0.037-12.328-0.018-18.491,0.031c-1.961,0.015-3.416-0.993-4.707-2.188
		c-1.713-1.585-2.87-3.482-2.698-6.026c0.149-2.213,0.045-4.446,0.025-6.67c-0.015-1.664-0.067-1.637-1.64-1.928
		c-3.099-0.571-5.937-1.808-8.532-3.585c-0.289-0.198-0.705-0.619-0.651-0.838c0.266-1.1-0.641-1.46-1.182-1.99
		c-5.379-5.269-6.69-11.67-5.455-19.022c1.118-0.032,2.113-0.092,3.108-0.078c0.816,0.01,1.434-0.161,1.911-0.939
		c0.553-0.9,1.402-1.448,2.541-1.274C20.26,25.522,20.324,29.541,19.876,31.864z"/>
	<path fill-rule="evenodd" clip-rule="evenodd" d="M42.673,24.685c0,4.127,0.001,8.255,0,12.383c0,0.381,0.015,0.763-0.005,1.143
		c-0.125,2.441-1.379,3.703-3.852,3.771c-1.967,0.054-3.937,0.013-5.905,0.013c-2.667,0-5.335-0.018-8.001,0.004
		c-3.07,0.027-4.134-1.646-4.303-4.188c-0.017-0.253-0.005-0.508-0.005-0.762c0-8.255-0.011-16.511,0.018-24.767
		c0.003-0.873,0.126-1.776,0.379-2.61c0.508-1.674,1.451-2.335,3.248-2.352c3.237-0.028,6.477-0.009,9.715-0.009
		c1.588,0,3.177-0.012,4.763,0.003c2.547,0.025,3.87,1.281,3.934,3.845c0.06,2.349,0.015,4.699,0.015,7.05
		C42.674,20.365,42.673,22.524,42.673,24.685z M23.603,13.456c0,2.1,0,3.988,0,5.876c0,1.839,0,3.678,0,5.518
		c0,1.902-0.021,3.805,0.007,5.707c0.025,1.869-0.127,3.753,0.095,5.563c3.007,0.351,14.427,0.234,15.968-0.185
		c0-1.828,0-3.717,0-5.604c0-1.84,0-3.678,0-5.518c0-1.902,0.022-3.805-0.007-5.707c-0.028-1.869,0.141-3.754-0.118-5.649
		C34.182,13.456,29.061,13.456,23.603,13.456z M33.544,38.753c-0.007-0.98-0.665-1.666-1.637-1.706
		c-1.047-0.042-1.813,0.692-1.806,1.733c0.006,0.968,0.68,1.667,1.645,1.707C32.802,40.53,33.552,39.808,33.544,38.753z
		 M28.54,10.557c2.291,0.191,4.215,0.367,6.142,0.485c0.19,0.012,0.402-0.33,0.65-0.549C33.861,9.78,30.311,9.762,28.54,10.557z"/>
</g>
</svg>
