<?xml version="1.0" encoding="utf-8"?>
<!-- Generator: Adobe Illustrator 16.0.0, SVG Export Plug-In . SVG Version: 6.00 Build 0)  -->
<!DOCTYPE svg PUBLIC "-//W3C//DTD SVG 1.1//EN" "http://www.w3.org/Graphics/SVG/1.1/DTD/svg11.dtd">
<svg version="1.1" id="Layer_1" xmlns="http://www.w3.org/2000/svg" xmlns:xlink="http://www.w3.org/1999/xlink" x="0px" y="0px"
	 width="75px" height="75px" viewBox="0 0 75 75" enable-background="new 0 0 75 75" xml:space="preserve">
<g id="Diversity_Inclusion">
	<path fill-rule="evenodd" clip-rule="evenodd" d="M53.887,70.028c-0.46,0-0.919,0-1.38,0c-0.558-0.381-1.222-0.671-1.646-1.165
		c-0.416-0.486-0.585-1.179-0.86-1.775c-2.433,0.461-3.545-0.268-4.326-2.858c-1.127,0.079-2.262,0.152-3.213-0.725
		c-0.993-0.915-0.83-2.16-1.003-3.36c-1.849,0-3.629,0-5.306,0c-2.127,2.319-4.187,4.603-6.294,6.839
		c-0.524,0.557-1.146,1.092-1.827,1.413c-1.564,0.731-3.214-0.115-3.678-1.779c-0.334-1.2-0.008-2.266,0.691-3.248
		c0.252-0.353,0.509-0.7,0.908-1.249c-0.744-0.026-1.232-0.058-1.723-0.059c-3.494-0.005-6.99-0.071-10.48,0.028
		c-1.624,0.045-2.977-1.39-2.9-2.984c0.02-0.399,0.061-0.797,0.092-1.179c-1.975-0.706-2.628-1.408-2.603-2.965
		c0.01-0.618,0.151-1.28,0.413-1.838c0.42-0.896,1.359-1.153,2.225-1.395c-0.198-0.995-0.26-1.899,0.199-2.765
		c0.512-0.966,1.421-1.362,2.396-1.542c-0.021-3.101,0.46-3.738,3.215-4.316c0-2.909,0-5.831,0-8.495
		c-2.526-2.479-4.897-4.785-7.239-7.118c-0.385-0.382-0.755-0.842-0.948-1.338c-0.822-2.101,0.01-3.923,2.144-4.325
		c0.951-0.179,1.814,0.177,2.58,0.737c0.438,0.318,0.849,0.675,1.446,1.156c0-0.692,0-1.192,0-1.691
		c0-3.402-0.001-6.805,0.001-10.207c0-0.366-0.023-0.74,0.023-1.102c0.232-1.823,1.68-2.92,3.507-2.672
		c0.22,0.029,0.435,0.09,0.739,0.156c0.08-1.565,1.071-2.381,2.296-3.007c0.46,0,0.919,0,1.379,0
		c0.558,0.379,1.218,0.669,1.646,1.162c0.42,0.484,0.606,1.175,0.904,1.794c0.984-0.313,1.92-0.225,2.783,0.313
		c0.922,0.572,1.273,1.508,1.451,2.572c1.229-0.15,2.354-0.172,3.297,0.72c0.971,0.919,0.787,2.172,0.968,3.346
		c1.868,0,3.651,0,5.3,0c2.181-2.373,4.272-4.684,6.414-6.954c0.491-0.521,1.085-1.016,1.729-1.308
		c1.599-0.722,3.183,0.093,3.668,1.777c0.33,1.147,0.031,2.175-0.614,3.131c-0.268,0.396-0.558,0.779-1.017,1.417
		c0.779,0,1.268,0,1.756,0c3.447,0,6.894-0.012,10.341,0.005c1.634,0.008,2.56,0.776,2.85,2.397
		c0.102,0.561,0.017,1.153,0.017,1.728c1.889,0.71,2.63,1.577,2.646,3.087c0.016,1.54-0.735,2.424-2.75,3.202
		c0.375,0.952,0.23,1.866-0.238,2.766c-0.521,0.997-1.526,1.224-2.448,1.535c0.41,2.535-0.352,3.609-2.976,4.25
		c0,2.911,0,5.833,0,8.491c2.532,2.485,4.904,4.787,7.24,7.124c0.412,0.413,0.784,0.932,0.987,1.471
		c0.425,1.122,0.452,2.278-0.412,3.235c-0.761,0.844-1.765,1.189-2.875,0.874c-0.601-0.171-1.165-0.512-1.71-0.838
		c-0.377-0.228-0.692-0.559-1.217-0.995c0,0.757,0,1.302,0,1.848c0,3.08,0,6.157-0.001,9.236c0,0.599,0.036,1.198-0.017,1.792
		c-0.173,1.912-1.621,3.053-3.521,2.804c-0.219-0.028-0.432-0.093-0.738-0.161C56.104,68.593,55.11,69.4,53.887,70.028z
		 M51.895,56.044c0.022,0.528,0.062,0.976,0.062,1.423c0.006,2.526,0.004,5.053,0.004,7.579c0,0.645-0.02,1.288,0.006,1.931
		c0.031,0.788,0.454,1.27,1.108,1.32c0.652,0.052,1.229-0.519,1.306-1.317c0.03-0.319,0.007-0.643,0.008-0.965
		c0-2.894-0.004-5.789,0.005-8.683c0.001-0.437,0.059-0.873,0.098-1.387c0.639,0.034,1.117,0.06,1.686,0.091
		c0,0.607,0,1.063,0,1.517c0,1.931-0.002,3.86,0.001,5.789c0.001,0.321-0.018,0.648,0.033,0.963
		c0.115,0.736,0.647,1.227,1.272,1.218c0.65-0.01,1.068-0.487,1.123-1.298c0.015-0.229,0.004-0.459,0.005-0.688
		c0.006-1.977-0.007-3.951,0.017-5.927c0.036-2.793,0.1-5.586,0.15-8.376c0.405-0.198,0.682-0.334,1.083-0.53
		c0.766,0.639,1.529,1.287,2.309,1.917c0.423,0.344,0.857,0.683,1.316,0.977c0.442,0.283,0.886,0.143,1.281-0.145
		c0.432-0.314,0.523-0.785,0.377-1.235c-0.14-0.423-0.352-0.875-0.666-1.175c-2.187-2.099-4.358-4.214-6.639-6.206
		c-0.989-0.862-1.504-1.789-1.492-3.074c0.02-2.205,0.01-4.41,0.001-6.616c-0.001-0.351-0.059-0.7-0.091-1.063
		c-3.477,0-6.857,0-10.388,0c0,0.514,0,0.96,0,1.407c-0.001,2.481-0.002,4.962,0,7.442c0.001,0.56-0.013,1.099-0.508,1.499
		c-1.521,1.223-2.021,2.849-2.003,4.751c0.04,4.502,0.013,9.004,0.016,13.508c0,0.32-0.021,0.647,0.035,0.961
		c0.1,0.563,0.47,0.874,1.039,0.927c0.563,0.05,1.017-0.151,1.202-0.702c0.114-0.341,0.152-0.718,0.159-1.078
		c0.019-1.24-0.003-2.48,0.013-3.721c0.006-0.347,0.082-0.693,0.138-1.121c0.584,0.029,1.061,0.055,1.533,0.078
		c0.041,0.335,0.082,0.516,0.082,0.695c0.005,2.252,0.001,4.504,0.007,6.755c0.001,0.365-0.02,0.742,0.052,1.097
		c0.117,0.573,0.654,0.978,1.187,0.97c0.603-0.009,1.104-0.472,1.173-1.12c0.034-0.318,0.015-0.643,0.015-0.964
		c0-2.113-0.005-4.227,0.005-6.34c0.002-0.351,0.068-0.7,0.106-1.082C50.742,56.044,51.269,56.044,51.895,56.044z M19.045,19.229
		c0-0.598,0-1.051,0-1.503c0-1.975,0.007-3.951-0.005-5.926c-0.003-0.408-0.019-0.834-0.131-1.222
		c-0.162-0.56-0.76-0.909-1.272-0.84c-0.568,0.076-0.944,0.483-1.009,1.124c-0.027,0.272-0.012,0.551-0.012,0.827
		c-0.009,3.536,0.002,7.073-0.037,10.611c-0.016,1.275-0.154,2.551-0.232,3.772c-0.942,0.429-0.974,0.469-1.455,0.103
		c-0.691-0.53-1.318-1.142-1.997-1.688c-0.386-0.311-0.788-0.646-1.241-0.823c-0.982-0.386-1.793,0.298-1.57,1.324
		c0.092,0.425,0.327,0.887,0.639,1.185c2.221,2.127,4.438,4.261,6.743,6.295c0.94,0.831,1.429,1.729,1.413,2.967
		c-0.025,2.159-0.01,4.319-0.005,6.479c0.001,0.399,0.044,0.798,0.065,1.179c1.98,0.245,9.382,0.175,10.411-0.107
		c0-0.434,0-0.891,0-1.348c0-2.435,0.001-4.869,0.001-7.305c0-0.555-0.018-1.112,0.49-1.504c1.557-1.202,2.029-2.846,2.016-4.739
		c-0.029-4.501-0.008-9.005-0.01-13.506c0-0.321,0.01-0.647-0.035-0.962c-0.082-0.577-0.463-0.877-1.02-0.955
		c-0.604-0.086-1.089,0.206-1.27,0.809c-0.09,0.299-0.096,0.632-0.1,0.949c-0.01,1.24,0.006,2.481-0.01,3.722
		c-0.004,0.349-0.081,0.696-0.123,1.032c-0.585,0-1.063,0-1.567,0c-0.034-0.324-0.078-0.548-0.079-0.773
		c-0.005-2.204-0.002-4.41-0.005-6.614c-0.001-0.367,0.026-0.742-0.042-1.099c-0.112-0.604-0.74-1.055-1.303-0.999
		c-0.555,0.056-0.99,0.481-1.06,1.086c-0.035,0.318-0.015,0.643-0.015,0.965c-0.001,2.113,0.004,4.227-0.006,6.339
		c-0.001,0.354-0.061,0.708-0.094,1.076c-0.646,0-1.204,0-1.861,0c0-0.58,0-1.033,0-1.488c0-3.031,0.008-6.063-0.004-9.096
		c-0.004-1.244-0.053-1.28-1.344-1.619c-0.953,0.27-1.088,0.984-1.084,1.834c0.021,3.032,0.013,6.064,0.006,9.098
		c-0.002,0.438-0.049,0.877-0.078,1.341C20.158,19.229,19.711,19.229,19.045,19.229z M53.372,21.617
		c0.636-0.041,1.127-0.1,1.619-0.102c2.758-0.009,5.516,0,8.272-0.008c0.497-0.002,0.991-0.052,1.419-0.075
		c0.809-1.459,0.475-2.11-0.985-2.157c-0.275-0.008-0.551-0.001-0.828-0.001c-2.665,0-5.333,0.006-7.997-0.007
		c-0.482-0.002-0.964-0.082-1.448-0.127c0-0.687,0-1.209,0-1.849c0.562,0,1.015,0,1.469,0c1.93,0,3.859,0.002,5.79-0.002
		c0.322,0,0.649,0.021,0.963-0.035c0.553-0.1,0.995-0.653,0.989-1.169c-0.004-0.519-0.452-1.055-1.014-1.147
		c-0.313-0.054-0.642-0.027-0.963-0.027c-3.585-0.008-7.171-0.01-10.755-0.019c-0.736-0.002-1.475,0.007-2.205-0.053
		c-0.992-0.079-1.354-0.787-0.807-1.634c0.396-0.613,0.913-1.148,1.364-1.728c0.31-0.396,0.646-0.783,0.885-1.22
		c0.366-0.674,0.31-1.147-0.118-1.502c-0.487-0.407-1.036-0.353-1.542-0.063c-0.314,0.178-0.589,0.438-0.837,0.702
		c-0.728,0.767-1.448,1.539-2.14,2.337c-1.141,1.32-2.335,2.604-3.357,4.014c-0.79,1.091-1.778,1.532-3.039,1.554
		c-1.057,0.018-2.116-0.004-3.171,0.008c-0.353,0.004-0.704,0.057-1.086,0.089c0,3.472,0,6.848,0,10.366c2.268,0,4.458,0,6.574,0
		c1.259,1.839,2.958,2.461,4.955,2.461c4.184,0,8.366,0.003,12.549-0.003c0.363,0,0.743,0.013,1.093-0.073
		c0.582-0.146,0.912-0.663,0.871-1.245c-0.04-0.583-0.427-0.978-1.063-1.048c-0.272-0.031-0.552-0.013-0.828-0.013
		c-1.239-0.001-2.48,0.01-3.723-0.009c-0.299-0.005-0.596-0.107-0.97-0.179c0.029-0.611,0.053-1.136,0.083-1.773
		c2.986,0,5.822,0,8.626,0c0.154-0.19,0.262-0.285,0.324-0.404c0.588-1.09,0.208-1.758-1.037-1.825
		c-0.229-0.013-0.46-0.003-0.689-0.003c-1.932,0-3.863,0.012-5.792-0.01c-0.478-0.004-0.953-0.114-1.452-0.179
		C53.372,22.813,53.372,22.321,53.372,21.617z M26.262,66.486c0.805,0.42,1.397,0.128,1.966-0.453
		c2.088-2.136,4.125-4.314,5.895-6.728c0.709-0.965,1.635-1.44,2.82-1.441c0.92,0,1.84,0.005,2.759-0.002
		c0.535-0.005,1.071-0.03,1.618-0.046c0-3.423,0-6.708,0-10.106c-1.729,0-3.379-0.037-5.024,0.014
		c-0.94,0.029-1.657-0.199-2.275-0.97c-0.88-1.098-2.079-1.553-3.52-1.542c-4.552,0.04-9.104,0.012-13.655,0.019
		c-0.401,0.001-0.803,0.059-1.148,0.087c-0.62,1.483-0.313,2.003,1.115,2.022c1.334,0.018,2.667-0.007,4,0.01
		c0.35,0.004,0.695,0.091,1.146,0.153c-0.038,0.673-0.068,1.234-0.105,1.901c-0.619,0-1.072,0-1.526,0
		c-2.114,0-4.23,0.008-6.345-0.006c-0.537-0.004-1.047,0.052-1.292,0.584c-0.257,0.562-0.116,1.073,0.472,1.537
		c1.387,0,2.855-0.021,4.324,0.004c1.451,0.028,2.914-0.127,4.365,0.113c0,0.75,0,1.367,0,2.083
		c-0.545,0.028-0.995,0.07-1.443,0.071c-2.804,0.006-5.609,0.003-8.412,0.005c-0.369,0-0.744-0.026-1.102,0.038
		c-0.539,0.098-0.871,0.574-0.818,1.107c0.051,0.516,0.334,0.859,0.853,0.934c0.361,0.051,0.733,0.032,1.101,0.032
		c2.805,0.003,5.609-0.001,8.414,0.006c0.445,0.001,0.892,0.048,1.424,0.078c0,0.681,0,1.254,0,1.974
		c-0.5,0.071-0.977,0.192-1.455,0.197c-2.023,0.022-4.047,0.007-6.068,0.012c-0.453,0.002-0.905,0.038-1.305,0.055
		c-0.682,1.274-0.365,1.956,0.876,2.056c0.366,0.029,0.735,0.006,1.103,0.008c4.047,0.012,8.092,0.013,12.137,0.043
		c1.203,0.009,1.203,0.046,1.584,1.363c-0.67,0.845-1.385,1.74-2.094,2.638C26.134,64.979,25.817,65.657,26.262,66.486z
		 M33.81,29.796c-0.658,1.235-1.146,2.322-1.791,3.304c-0.375,0.565-0.602,1.079-0.594,1.76c0.029,2.481,0.009,4.963,0.017,7.442
		c0.001,0.313,0.056,0.625,0.064,0.718c1.462,0.813,2.771,1.538,4.283,2.378c1.771,0,3.82,0,5.633,0
		c0.799-1.482,1.508-2.8,2.302-4.271c0-2.886,0-5.994,0-8.9c-1.462-0.814-2.769-1.541-4.368-2.431
		C37.713,29.796,35.7,29.796,33.81,29.796z"/>
</g>
</svg>
