<?xml version="1.0" encoding="utf-8"?>
<!-- Generator: Adobe Illustrator 16.0.0, SVG Export Plug-In . SVG Version: 6.00 Build 0)  -->
<!DOCTYPE svg PUBLIC "-//W3C//DTD SVG 1.1//EN" "http://www.w3.org/Graphics/SVG/1.1/DTD/svg11.dtd">
<svg version="1.1" id="Layer_1" xmlns="http://www.w3.org/2000/svg" xmlns:xlink="http://www.w3.org/1999/xlink" x="0px" y="0px"
	 width="75px" height="75px" viewBox="0 0 75 75" enable-background="new 0 0 75 75" xml:space="preserve">
<g id="Drone">
	<path d="M24.111,40.751c-2.817-0.521-5.621-1.164-8.459-1.515c-2.005-0.247-2.978-0.904-2.976-2.667
		c0.003-1.76,1-2.639,2.977-2.638c14.629,0.001,29.259,0,43.89,0c1.961-0.001,2.959,0.898,2.947,2.665
		c-0.014,1.701-0.958,2.575-2.846,2.593c-3.07,0.028-6.095,0.274-8.873,1.765c-0.463,0.285-0.924,0.571-1.387,0.856
		c-0.783,0.582-1.566,1.164-2.609,1.938c0-0.749,0.017-1.353-0.002-1.956c-0.078-2.482-1.73-4.273-4.188-4.329
		c-3.326-0.076-6.658-0.074-9.984-0.002c-2.466,0.053-4.127,1.831-4.209,4.31c-0.019,0.584-0.003,1.17-0.003,1.965
		c-0.974-0.721-1.78-1.318-2.587-1.916C25.24,41.464,24.676,41.107,24.111,40.751z"/>
	<path d="M20.727,33.5c7.342-5.515,26.416-5.512,33.71,0C43.146,33.5,32.053,33.5,20.727,33.5z M40.668,30.063
		c1.967,0.767,3.988,1.247,5.646,2.298c1.385,0.877,2.627,0.868,4.053,0.646C47.427,31.133,44.145,30.451,40.668,30.063z"/>
	<path d="M37.658,38.918c1.471,0.001,2.943-0.032,4.414,0.007c2.38,0.065,3.854,2.022,3.142,4.245
		c-0.124,0.383-0.735,0.73-1.19,0.867c-4.057,1.213-8.145,1.371-12.232,0.168c-0.806-0.236-1.937-0.07-1.919-1.497
		c0.018-1.496,0.188-2.872,1.776-3.515c0.488-0.197,1.06-0.252,1.595-0.266C34.713,38.895,36.186,38.918,37.658,38.918z"/>
	<path d="M60.479,30.108c0,0.996,0,2.184,0,3.36c-1.018,0.072-1.018,0.072-1.439-3.395c-2.506,0.104-4.988,0.266-7.473,0.266
		c-0.465,0-0.93-0.635-1.396-0.977c0.474-0.336,0.945-0.959,1.419-0.96c2.43-0.002,4.859,0.155,7.479,0.266
		c0.091-0.1,0.42-0.464,0.752-0.826c0.33,0.378,0.66,0.756,0.74,0.846c2.613-0.108,5.045-0.266,7.476-0.262
		c0.444,0.001,0.889,0.657,1.333,1.013c-0.469,0.327-0.938,0.934-1.406,0.934C65.529,30.373,63.098,30.218,60.479,30.108z"/>
	<path d="M16.16,30.094c-0.127,1.07-0.26,2.284-0.454,3.491c-0.008,0.048-0.583,0.006-1.032,0.006c0-1.323,0-2.558,0-3.496
		c-2.614,0.1-5.102,0.246-7.587,0.234c-0.431-0.003-0.858-0.672-1.288-1.033c0.428-0.313,0.854-0.893,1.282-0.892
		c2.431,0.003,4.862,0.146,7.531,0.249c0.061-0.082,0.377-0.514,0.84-1.146c0.364,0.666,0.584,1.069,0.663,1.212
		c2.506-0.124,4.882-0.307,7.259-0.311c0.539-0.002,1.081,0.614,1.622,0.944c-0.507,0.357-1.013,1.02-1.521,1.021
		C21.048,30.379,18.617,30.205,16.16,30.094z"/>
	<path d="M24.111,40.751c0.564,0.356,1.129,0.713,1.692,1.069c-0.085,0.355-0.093,0.758-0.268,1.063
		c-1.924,3.375-2.205,6.968-1.558,10.722c0.071,0.412-0.269,0.896-0.417,1.348c-0.361-0.229-0.983-0.4-1.044-0.689
		C21.552,49.592,21.537,45.014,24.111,40.751z"/>
	<path d="M49.387,41.811c0.461-0.283,0.922-0.57,1.387-0.855c0.334,0.303,0.826,0.541,0.983,0.918
		c1.658,3.943,1.894,8.025,0.94,12.17c-0.084,0.368-0.68,0.618-1.038,0.923c-0.183-0.389-0.582-0.817-0.517-1.157
		c0.771-3.945,0.406-7.697-1.672-11.213C49.352,42.389,49.41,42.074,49.387,41.811z"/>
</g>
</svg>
