<?xml version="1.0" encoding="utf-8"?>
<!-- Generator: Adobe Illustrator 16.0.0, SVG Export Plug-In . SVG Version: 6.00 Build 0)  -->
<!DOCTYPE svg PUBLIC "-//W3C//DTD SVG 1.1//EN" "http://www.w3.org/Graphics/SVG/1.1/DTD/svg11.dtd">
<svg version="1.1" id="Layer_1" xmlns="http://www.w3.org/2000/svg" xmlns:xlink="http://www.w3.org/1999/xlink" x="0px" y="0px"
	 width="75px" height="75px" viewBox="0 0 75 75" enable-background="new 0 0 75 75" xml:space="preserve">
<g id="EdTech">
	<path fill-rule="evenodd" clip-rule="evenodd" d="M60.553,12.628c3.205,1.363,3.95,2.5,3.951,6.046
		c0.001,10.438,0.003,20.875-0.002,31.312c-0.001,3.827-1.801,5.609-5.665,5.615c-3.989,0.006-7.979,0.002-12.164,0.002
		c0.385,2.343,0.738,4.494,1.105,6.728c1.063,0,1.979,0.021,2.89-0.006c0.978-0.028,2.057,0.058,2.131,1.191
		c0.045,0.671-0.654,1.391-1.021,2.087c-9.101,0-18.2,0-27.301,0c-0.371-0.695-1.085-1.414-1.037-2.079
		c0.08-1.115,1.148-1.234,2.135-1.2c0.913,0.031,1.829,0.007,2.895,0.007c0.368-2.226,0.724-4.379,1.113-6.728
		c-4.124,0-8.06,0.006-11.996-0.006c-0.754-0.003-1.533,0.024-2.258-0.145c-2.023-0.471-3.554-2.354-3.56-4.485
		c-0.027-11.197-0.034-22.395,0.003-33.591c0.009-2.581,1.686-3.938,3.93-4.748C30.652,12.628,45.603,12.628,60.553,12.628z
		 M37.962,52.359c6.874,0,13.747,0.003,20.622-0.002c2.368-0.003,2.667-0.29,2.668-2.587c0.005-10.393,0.004-20.784,0-31.177
		c-0.001-2.359-0.346-2.692-2.746-2.692c-13.586-0.001-27.172-0.001-40.757,0c-2.402,0-2.753,0.336-2.755,2.687
		c-0.004,10.339-0.004,20.677,0,31.015c0.001,2.506,0.258,2.754,2.833,2.756C24.538,52.36,31.25,52.359,37.962,52.359z
		 M32.895,55.662c-0.354,2.18-0.702,4.327-1.08,6.656c2.279,0,4.323,0,6.367,0c2.031,0,4.063,0,6.284,0
		c-0.41-2.391-0.776-4.533-1.141-6.656C39.741,55.662,36.401,55.662,32.895,55.662z"/>
	<path fill-rule="evenodd" clip-rule="evenodd" d="M51.405,31.835c-3.431,1.11-3.431,1.11-3.431,4.345
		c0,0.92-0.115,1.857,0.022,2.758c0.342,2.209-0.731,3.49-2.501,4.59c-5.094,3.165-11.657,2.802-16.139-1.11
		c-0.564-0.493-0.978-1.424-1.035-2.184c-0.145-1.938-0.091-3.896-0.031-5.844c0.027-0.895-0.277-1.358-1.121-1.685
		c-1.457-0.563-2.903-1.189-4.272-1.939c-0.543-0.299-1.23-1.022-1.197-1.508c0.04-0.592,0.649-1.396,1.221-1.661
		c4.7-2.181,9.437-4.288,14.2-6.327c0.604-0.26,1.523-0.199,2.145,0.066c4.713,2.021,9.406,4.093,14.055,6.258
		c0.598,0.277,1.203,1.144,1.288,1.803c0.189,1.49,0.092,3.025,0.042,4.539c-0.034,1.03-0.507,1.801-1.664,1.788
		c-1.16-0.013-1.592-0.748-1.582-1.825C51.409,33.252,51.405,32.604,51.405,31.835z M27.294,29.174
		c0.872,0.393,1.356,0.618,1.846,0.832c3.014,1.316,6.027,2.631,9.041,3.946c2.963-1.306,5.927-2.607,8.887-3.919
		c0.547-0.243,1.074-0.53,1.806-0.893c-3.484-1.562-6.68-3.008-9.894-4.409c-0.397-0.174-0.976-0.278-1.343-0.121
		C34.28,26.047,30.952,27.548,27.294,29.174z M44.751,34.648c-1.928,0.861-3.503,1.708-5.175,2.256c-0.88,0.287-2.012,0.29-2.889,0
		c-1.715-0.566-3.332-1.428-5.195-2.259c0,1.711-0.06,3.212,0.039,4.703c0.029,0.439,0.421,0.976,0.803,1.249
		c3.353,2.401,8.157,2.419,11.533,0.045c0.39-0.273,0.813-0.794,0.843-1.226C44.813,37.918,44.751,36.409,44.751,34.648z"/>
</g>
</svg>
