<?xml version="1.0" encoding="utf-8"?>
<!-- Generator: Adobe Illustrator 16.0.0, SVG Export Plug-In . SVG Version: 6.00 Build 0)  -->
<!DOCTYPE svg PUBLIC "-//W3C//DTD SVG 1.1//EN" "http://www.w3.org/Graphics/SVG/1.1/DTD/svg11.dtd">
<svg version="1.1" id="Layer_1" xmlns="http://www.w3.org/2000/svg" xmlns:xlink="http://www.w3.org/1999/xlink" x="0px" y="0px"
	 width="75px" height="75px" viewBox="0 0 75 75" enable-background="new 0 0 75 75" xml:space="preserve">
<g id="Electric_Vehicles">
	<path fill-rule="evenodd" clip-rule="evenodd" d="M67.872,47.337c-0.813-5.223-3.447-8.068-7.619-7.957
		c-2.272,0.06-4.031,1.144-5.378,2.94c-1.327,1.767-1.55,3.803-1.363,6.022c-10.396,0-20.706,0-31.033,0
		c-0.117-1.218-0.097-2.422-0.368-3.558c-0.812-3.391-3.786-5.646-7.062-5.485c-3.402,0.165-6.214,2.75-6.69,6.234
		c-0.103,0.755-0.343,1.08-1.132,1.092c-0.893,0.012-1.466-0.358-1.513-1.214c-0.049-0.872,0.02-1.773,0.188-2.632
		c0.612-3.124,2.317-5.475,5.095-7.074c0.426-0.245,0.833-0.775,0.961-1.251c1.194-4.463,3.867-7.815,7.856-9.987
		c8.373-4.557,17.03-4.934,25.771-1.127c3.844,1.673,6.659,4.519,8.377,8.409c0.191,0.437,0.771,0.873,1.247,0.985
		c2.28,0.538,4.643,0.786,6.866,1.486c1.759,0.555,3.531,1.389,4.989,2.504c2.146,1.645,2.667,4.065,2.011,6.672
		C68.74,44.729,68.277,46.025,67.872,47.337z M29.937,41.247c2.032,0,3.954,0.024,5.873-0.007c2.017-0.031,3.605-0.898,4.846-2.496
		c0.255-0.328,0.771-0.601,1.188-0.63c1.459-0.104,2.926-0.082,4.391-0.12c0.963-0.026,1.459-0.412,1.396-1.499
		c-0.088-1.499-0.072-3.009-0.006-4.51c0.048-1.093-0.459-1.421-1.449-1.425c-1.426-0.007-2.855-0.029-4.272-0.158
		c-0.453-0.041-1.01-0.328-1.285-0.685c-0.947-1.22-2.171-2.144-3.63-2.273c-2.318-0.207-4.668-0.056-7.037-0.056
		c-0.049,0.618-0.091,1.144-0.142,1.795c-1.615,0-3.187-0.015-4.756,0.007c-0.694,0.01-1.766-0.217-1.792,0.714
		c-0.028,0.999,1.058,0.746,1.741,0.759c1.603,0.031,3.206,0.01,4.816,0.01c0,2.483,0,4.779,0,7.198
		c-0.666,0-1.275-0.011-1.884,0.002c-1.347,0.026-2.696,0.033-4.04,0.125c-0.251,0.017-0.476,0.394-0.713,0.604
		c0.229,0.221,0.429,0.569,0.695,0.636c0.515,0.125,1.068,0.114,1.606,0.12c1.447,0.012,2.896,0.003,4.351,0.003
		C29.871,40.041,29.897,40.533,29.937,41.247z"/>
	<path fill-rule="evenodd" clip-rule="evenodd" d="M9.124,46.783c-0.006-3.784,2.649-6.622,6.195-6.626
		c3.505-0.003,6.232,2.897,6.23,6.624c-0.003,3.694-2.784,6.688-6.228,6.699C11.892,53.493,9.128,50.506,9.124,46.783z"/>
	<path fill-rule="evenodd" clip-rule="evenodd" d="M54.295,46.858c0.001-3.707,2.772-6.683,6.214-6.673
		c3.447,0.009,6.212,2.992,6.211,6.697c-0.002,3.737-2.727,6.635-6.233,6.63C56.975,53.508,54.295,50.626,54.295,46.858z"/>
</g>
</svg>
