<?xml version="1.0" encoding="utf-8"?>
<!-- Generator: Adobe Illustrator 16.0.0, SVG Export Plug-In . SVG Version: 6.00 Build 0)  -->
<!DOCTYPE svg PUBLIC "-//W3C//DTD SVG 1.1//EN" "http://www.w3.org/Graphics/SVG/1.1/DTD/svg11.dtd">
<svg version="1.1" id="Layer_1" xmlns="http://www.w3.org/2000/svg" xmlns:xlink="http://www.w3.org/1999/xlink" x="0px" y="0px"
	 width="75px" height="75px" viewBox="0 0 75 75" enable-background="new 0 0 75 75" xml:space="preserve">
<g id="Fashion_and_Design">
	<path fill-rule="evenodd" clip-rule="evenodd" d="M24.398,64.313c1.093-0.832,2.013-1.479,2.843-2.178
		c1.565-1.317,3.097-2.658,4.606-4.009c0.76-0.682,1.228-1.778,2.192-2.051c4.387-1.244,4.03-3.771,3.993-6.34
		c-0.081-5.743-0.185,4.901-0.014-0.838c0.128-4.294,0.313-4.286-5.808-4.62c-0.814-0.045-1.621-0.144-3.28-0.296
		c0.328-2.903-0.158-5.951,1.14-8.559c2.776-5.582,1.585-10.899-0.282-16.342c-1.505-4.385-1.097-4.699,4.859-5.968
		c2.963-0.63,5.646-1.523,3.709-4.341c-0.282-0.41-0.453-1.056-0.188-1.41c0.456-0.611,1.297-1.079,1.977-1.608
		c0.553,0.541,1.679,1.152,1.565,1.61c-0.9,3.65,1.054,5.476,6.354,5.909c3.409,0.277,4.761,2.065,3.44,4.292
		c-3.788,6.389-5.082,12.769-1.675,19.504c0.979,1.937,0.574,4.223,0.849,6.755c-3.35,0.201-6.43,0.384-9.728,0.581
		c0,3.807-0.026,7.569,0.009,11.332c0.028,3.214,0.342-9.956,0.149-6.75c-0.263,4.425,2.784,7.842,6.187,11.21
		c0.614,0.609,1.188,1.239,1.781,1.86c-0.296,0.246-0.592,0.491-0.888,0.737c-1.759-0.957-3.518-1.916-5.745-3.129
		c0.821,3.229,1.566,6.158,2.313,9.089c-0.426,0.1-0.85,0.2-1.275,0.3c-0.924-1.71-1.963-3.396-2.727-5.14
		c-0.442-1.012-0.124-2.219-0.724-3.153c-0.611-0.948-1.93-1.67-2.939-2.492c-0.938,0.701-2.19,1.296-2.754,2.123
		C32.959,62.416,27.712,64.794,24.398,64.313z"/>
</g>
</svg>
