<?xml version="1.0" encoding="utf-8"?>
<!-- Generator: Adobe Illustrator 16.0.0, SVG Export Plug-In . SVG Version: 6.00 Build 0)  -->
<!DOCTYPE svg PUBLIC "-//W3C//DTD SVG 1.1//EN" "http://www.w3.org/Graphics/SVG/1.1/DTD/svg11.dtd">
<svg version="1.1" id="Layer_1" xmlns="http://www.w3.org/2000/svg" xmlns:xlink="http://www.w3.org/1999/xlink" x="0px" y="0px"
	 width="75px" height="75px" viewBox="0 0 75 75" enable-background="new 0 0 75 75" xml:space="preserve">
<g id="Female_Led">
	<path fill-rule="evenodd" clip-rule="evenodd" d="M42.95,41.181c0.244,0.068,0.426,0.167,0.602,0.162
		c2.627-0.07,5.092-0.691,7.263-2.231c3.259-2.307,4.952-5.588,5.388-9.443c0.859-7.588-4.729-15.293-13.751-15.058
		c-7.281,0.191-12.065,5.51-12.977,11.424c-0.338,2.204-0.141,4.367,0.357,6.494c0.463,1.974,1.547,3.61,3.229,4.902
		c1.433-1.56,2.353-3.055,1.786-5.274c-0.621-2.434-0.843-4.97-1.327-7.442c-0.203-1.029,0.093-1.653,0.979-2.146
		c0.804-0.445,1.551-0.994,2.327-1.488c0.861-0.547,1.718-1.098,2.59-1.623c0.489-0.295,1.026-0.418,1.451,0.093
		c1.298,1.568,2.578,3.152,3.85,4.744c0.434,0.538,0.218,0.982-0.283,1.355c-0.789,0.587-1.991,0.575-3.008-0.085
		c-0.48-0.311-0.911-0.696-1.453-1.119c-0.454,0.366-0.881,0.71-1.428,1.153c2.529,2.902,2.979,6.193,2.48,9.751
		c0.785-1.02,1.567-2.04,2.454-3.195c0.79,0.908,1.473,1.69,2.142,2.459c1.531-0.529,2.931-1.011,4.501-1.554
		c-0.282,1.23-0.929,1.93-1.673,2.543c-1.423,1.173-2.864,2.323-4.293,3.487C43.508,39.619,43.025,40.245,42.95,41.181z
		 M38.222,40.271c0.821-0.605,1.523-1.123,2.271-1.677c-0.692-0.415-1.43-0.857-2.099-1.256
		C38.336,38.347,38.281,39.26,38.222,40.271z M61.294,16.886c-4.2-6.84-10.37-10.31-18.32-10.47c-5.89-0.11-11.029,2.05-15.279,6.1
		c-4.511,4.311-6.7,9.7-6.551,15.931c0.15,6.77,2.87,12.359,8.16,16.66c0.261,0.21,0.48,0.47,0.84,0.819
		c-1.38,2.311-1.84,5.03-3.39,7.29c-1.85-0.64-3.41-1.66-5.25-2.18c-1.22,2.439-2.27,4.81-3.29,7.189
		c1.73,1.12,3.62,1.521,5.16,2.681c-0.57,1.279-4.43,6.92-5.66,9.43h9.23c0.64-1.45,3.25-5.07,4-6.13
		c1.779,0.78,3.489,1.51,5.31,2.3c1.14-2.51,2.2-4.87,3.311-7.33c-1.851-0.89-3.521-1.7-5.351-2.58c1.11-2.39,2.15-4.63,3.18-6.859
		c0.24-0.511,0.681-0.511,1.12-0.4c3,0.72,5.95,0.43,8.931-0.2c8.81-1.87,15.25-8.6,16.75-17.31
		C65.094,26.556,64.134,21.506,61.294,16.886z"/>
	<path fill-rule="evenodd" clip-rule="evenodd" fill="none" d="M26.944,70.336c-0.32,0.74,1.34-0.56,0.97,0
		c-6.16,0.5-2.66,0.33-9.16,0c0.2-0.46-1.46,0.83-1.04,0H26.944z"/>
	<path fill-rule="evenodd" clip-rule="evenodd" d="M38.222,40.271c0.06-1.011,0.114-1.924,0.173-2.933
		c0.669,0.398,1.406,0.841,2.099,1.256C39.745,39.147,39.043,39.665,38.222,40.271z"/>
	<path fill-rule="evenodd" clip-rule="evenodd" d="M49.84,24.433c0.916,0.823,1.251,1.765,1.466,2.763
		c0.115,0.53-0.053,0.958-0.579,1.181c-1.854,0.787-3.709,1.567-5.626,2.374c-0.275-0.412-0.515-0.709-0.688-1.04
		c-0.824-1.571-0.728-1.879,0.792-2.719C46.72,26.156,48.233,25.319,49.84,24.433z"/>
	<path fill-rule="evenodd" clip-rule="evenodd" d="M45.089,26.44c0.105-0.817,0.371-1.497,0.222-2.068
		c-0.159-0.603-0.714-1.102-1.208-1.808c1.048-0.735,2.007-1.424,2.984-2.088c0.544-0.37,0.998-0.165,1.385,0.296
		c0.654,0.787,1.183,1.632,1.367,2.852C48.348,24.648,46.703,25.498,45.089,26.44z"/>
	<path fill-rule="evenodd" clip-rule="evenodd" d="M46.099,33.614c-0.248-0.419-0.555-0.823-0.739-1.277
		c-0.184-0.46-0.232-0.998,0.342-1.249c1.592-0.694,3.196-1.358,4.802-2.017c0.163-0.067,0.419-0.093,0.556-0.01
		c0.769,0.468,0.701,1.308,0.834,2.05c0.106,0.59-0.226,0.892-0.754,1.044c-1.158,0.334-2.316,0.67-3.474,1.006
		C47.203,33.295,46.741,33.427,46.099,33.614z"/>
	<path fill-rule="evenodd" clip-rule="evenodd" d="M41.294,19.288c1.109-0.813,2.042-1.492,2.973-2.173
		c0.038-0.028,0.081-0.06,0.126-0.071c1.229-0.343,1.555,0.734,2.084,1.398c0.684,0.856,0.686,1.261,0.051,1.746
		c-0.873,0.667-1.823,1.233-2.832,1.905C42.889,21.15,42.174,20.316,41.294,19.288z"/>
</g>
</svg>
