<?xml version="1.0" encoding="utf-8"?>
<!-- Generator: Adobe Illustrator 16.0.0, SVG Export Plug-In . SVG Version: 6.00 Build 0)  -->
<!DOCTYPE svg PUBLIC "-//W3C//DTD SVG 1.1//EN" "http://www.w3.org/Graphics/SVG/1.1/DTD/svg11.dtd">
<svg version="1.1" id="Layer_1" xmlns="http://www.w3.org/2000/svg" xmlns:xlink="http://www.w3.org/1999/xlink" x="0px" y="0px"
	 width="75px" height="75px" viewBox="0 0 75 75" enable-background="new 0 0 75 75" xml:space="preserve">
<path id="Fund_Raising" fill-rule="evenodd" clip-rule="evenodd" d="M19.009,43.349c-3.446-8.104-3.446-15.887,0.351-23.489
	c2.854-5.717,7.263-9.952,13.179-12.437c12.773-5.362,26.708-0.789,33.704,11.081c6.856,11.631,4.038,27.387-8.557,36.305
	c1.284,0,2.565-0.011,3.849,0.001c4.898,0.048,8.408,3.323,8.344,7.777c-0.063,4.366-3.541,7.504-8.404,7.512
	c-10.172,0.019-20.343,0.024-30.515-0.024c-0.974-0.006-2.024-0.268-2.903-0.691c-4.329-2.096-8.584-4.351-12.936-6.396
	c-1.036-0.487-2.345-0.476-3.539-0.538c-1.69-0.092-3.414,0.135-5.07-0.126c-0.708-0.111-1.741-1.082-1.775-1.708
	c-0.032-0.602,1.033-1.807,1.62-1.81c4.207-0.024,8.476-0.803,12.452,1.658c3.158,1.953,6.601,3.454,9.961,5.065
	c0.881,0.423,1.925,0.717,2.897,0.722c9.967,0.047,19.937,0.078,29.901-0.051c1.266-0.017,2.919-0.657,3.655-1.591
	c0.674-0.851,0.675-2.57,0.385-3.762c-0.394-1.605-1.902-2.204-3.521-2.213c-4-0.021-8-0.008-12-0.009
	c-5.155,0-10.309-0.012-15.462,0.005c-1.387,0.005-2.8-0.138-2.822-1.854c-0.021-1.848,1.463-1.989,2.917-1.973
	c1.561,0.019,3.121,0.039,4.678-0.033c2.298-0.11,3.705-1.566,3.711-3.736c0.007-2.128-1.41-3.734-3.649-3.831
	c-2.774-0.12-5.558-0.061-8.34-0.059c-7.662,0.001-15.323,0.016-22.985,0.023c-0.203,0-0.407,0.007-0.61,0.003
	c-1.262-0.028-2.387-0.351-2.409-1.859c-0.022-1.487,1.067-1.936,2.336-1.949c2.848-0.034,5.697-0.014,8.545-0.015
	C16.87,43.349,17.744,43.349,19.009,43.349z M41.205,41.389c-1.064,0-2.027,0.132-2.927-0.048c-0.575-0.113-1.3-0.581-1.516-1.082
	c-0.214-0.5-0.096-1.485,0.272-1.81c0.539-0.478,1.425-0.745,2.174-0.77c2.549-0.09,5.104-0.036,7.691-0.036
	c0-1.388,0-2.497,0-3.797c-2.493,0-4.881,0.211-7.204-0.086c-1.253-0.162-2.86-0.892-3.504-1.886
	c-2.672-4.124-0.119-9.152,4.632-9.522c0.114-0.01,0.223-0.132,0.487-0.296c0.057-1.309-0.368-3.271,1.729-3.382
	c2.463-0.129,1.771,2.205,2.264,3.768c0.823,0,1.654-0.13,2.418,0.038c0.653,0.147,1.464,0.486,1.801,1.003
	c0.814,1.253-0.137,2.628-1.862,2.675c-2.688,0.074-5.382,0.021-8.189,0.021c0,1.39,0,2.513,0,3.914c2.426,0,4.807-0.201,7.13,0.081
	c1.264,0.152,2.919,0.813,3.546,1.789c2.678,4.174,0.167,9.119-4.621,9.527c-0.111,0.01-0.215,0.142-0.22,0.145
	c-0.287,1.252-0.555,2.409-0.851,3.698c2.635,2.455,3.008,5.571,1.837,9c4.422,0.047,10.448-3.065,13.946-7.142
	c11.41-13.294,5.361-33.151-11.627-37.437c-9.158-2.31-17.175,0.457-23.116,7.795c-6.046,7.464-6.86,15.846-2.727,24.577
	c0.267,0.563,1.183,1.156,1.807,1.165c5.528,0.091,11.06,0.053,16.629,0.053C41.205,42.759,41.205,42.19,41.205,41.389z"/>
</svg>
