<?xml version="1.0" encoding="utf-8"?>
<!-- Generator: Adobe Illustrator 16.0.0, SVG Export Plug-In . SVG Version: 6.00 Build 0)  -->
<!DOCTYPE svg PUBLIC "-//W3C//DTD SVG 1.1//EN" "http://www.w3.org/Graphics/SVG/1.1/DTD/svg11.dtd">
<svg version="1.1" id="Layer_1" xmlns="http://www.w3.org/2000/svg" xmlns:xlink="http://www.w3.org/1999/xlink" x="0px" y="0px"
	 width="75px" height="75px" viewBox="0 0 75 75" enable-background="new 0 0 75 75" xml:space="preserve">
<g id="Future_of_Work">
	<path fill-rule="evenodd" clip-rule="evenodd" d="M22.595,68.812c-0.091-1.967-0.304-3.938-0.242-5.899
		c0.099-3.115,1.67-4.927,4.685-5.73c1.51-0.402,3.043-0.737,4.523-1.231c1.917-0.641,2.3-2.098,1.077-3.632
		c-0.837-1.049-1.711-2.082-2.427-3.212c-0.654-1.033-1.179-2.163,0.083-3.246c0.225-0.192,0.2-0.731,0.208-1.112
		c0.018-0.984-0.06-1.972-0.007-2.954c0.089-1.659,0.83-3.013,2.183-3.979c1.006-0.719,2.041-1.408,3.12-2.007
		c0.342-0.189,0.895-0.141,1.308-0.031c0.99,0.259,1.983,0.552,2.927,0.949c3.344,1.407,4.418,3.104,4.4,6.733
		c-0.006,1.077-0.167,2.112,0.535,3.187c0.323,0.496-0.12,1.743-0.557,2.434c-1.046,1.655-2.294,3.183-3.471,4.776
		c0.533,1.247,1.47,2.041,2.843,2.338c1.049,0.227,2.08,0.527,3.128,0.762c3.662,0.821,5.154,2.568,5.282,6.347
		c0.062,1.834,0.002,3.673-0.001,5.509c-0.808,0-1.614,0-2.422,0c0.283-2.218,0.571-4.436,0.849-6.655
		c0.193-1.552-0.129-1.919-1.708-1.92c-5.556-0.005-11.112-0.002-16.668-0.002c-2.241,0-4.481,0.013-6.721-0.006
		c-0.982-0.008-1.623,0.391-1.501,1.414c0.285,2.396,0.659,4.779,0.997,7.169C24.209,68.812,23.402,68.812,22.595,68.812z
		 M31.814,46.313c-1.521,0.371-1.874,0.943-1.086,2.063c1.203,1.711,2.548,3.333,3.938,4.9c0.94,1.062,2.283,1.178,3.612,0.951
		c2.021-0.345,5.945-5.195,5.989-7.408c-0.439-0.098-0.893-0.198-1.393-0.31c0.148-0.807,0.283-1.529,0.375-2.026
		c-2.349-0.468-4.563-0.953-6.797-1.34c-1.661-0.286-3.343-0.44-4.855,0.45C31.675,44.56,31.742,45.401,31.814,46.313z
		 M40.17,54.344c-2.026,1.08-3.981,1.052-5.921-0.258c-0.322,0.764-0.629,1.491-0.923,2.19c2.306,2.065,5.978,2.032,8.171-0.07
		C41.069,55.605,40.635,54.996,40.17,54.344z"/>
	<path fill-rule="evenodd" clip-rule="evenodd" d="M39.276,5.854c2.223,0.62,4.563,0.982,6.635,1.932
		c2.288,1.05,4.346,2.61,6.467,4.005c0.756,0.496,1.315,1.221,0.554,2.127c-0.739,0.877-1.464,0.481-2.193-0.128
		c-2.995-2.506-6.317-4.347-10.226-5.016c-5.637-0.966-10.605,0.598-15.133,3.901c-0.469,0.343-0.92,0.711-1.371,1.078
		c-0.651,0.531-1.322,0.615-1.896-0.048c-0.625-0.723-0.395-1.409,0.28-1.979c3.487-2.947,7.418-4.951,11.974-5.63
		c0.297-0.043,0.583-0.16,0.873-0.242C36.586,5.854,37.932,5.854,39.276,5.854z"/>
	<path fill-rule="evenodd" clip-rule="evenodd" d="M26.069,25.123c1.158,0.853,2.16,1.57,3.134,2.326
		c0.256,0.198,0.519,0.484,0.613,0.783c0.292,0.926,0.505,1.877,0.787,2.969c-2.25,1.571-4.596,3.193-6.925,4.841
		c-2.191,1.552-4.348,3.152-6.554,4.683c-0.918,0.636-1.323,1.343-1.308,2.534c0.075,6.18,0.035,12.36,0.035,18.541
		c0,0.483,0,0.966,0,1.526c-0.813,0-1.51,0-2.372,0c0-6.764,0-13.54,0-20.413c-0.471,0.047-0.77,0.086-1.07,0.106
		c-1.866,0.131-3.169-0.578-3.704-2.01c-0.572-1.53-0.023-3.458,1.355-4.448C15.438,32.699,20.833,28.86,26.069,25.123z"/>
	<path fill-rule="evenodd" clip-rule="evenodd" d="M60.837,43.042c0,6.733,0,13.446,0,20.261c-0.809,0-1.532,0-2.405,0
		c0-0.521,0-1.003,0-1.484c0-6.094-0.04-12.189,0.031-18.283c0.016-1.346-0.362-2.208-1.48-2.992
		c-4.287-3.006-8.507-6.106-12.698-9.132c0.318-1.135,0.611-2.237,0.944-3.329c0.069-0.227,0.254-0.457,0.448-0.6
		c0.964-0.704,1.948-1.379,3.006-2.12c5.153,3.663,10.449,7.408,15.72,11.187c1.502,1.076,2.018,3.099,1.305,4.674
		c-0.724,1.598-2.262,2.252-4.266,1.823C61.276,43.011,61.098,43.042,60.837,43.042z"/>
	<path fill-rule="evenodd" clip-rule="evenodd" d="M37.296,12.021c4.462,0.1,8.016,2.027,11.06,4.987
		c0.328,0.318,0.131,1.181,0.178,1.789c-0.603,0.046-1.32,0.32-1.785,0.087c-0.821-0.411-1.463-1.165-2.225-1.715
		c-4.542-3.282-9.33-3.37-13.993-0.258c-0.706,0.471-1.371,1.007-2.034,1.538c-0.688,0.553-1.408,0.693-2.008-0.02
		c-0.549-0.653-0.365-1.337,0.264-1.893C29.797,13.852,33.247,12.121,37.296,12.021z"/>
	<path fill-rule="evenodd" clip-rule="evenodd" d="M60.781,20.388c0,2.902,0,5.692,0,8.71c-2.413-1.59-4.708-3.034-6.903-4.616
		c-0.348-0.25-0.334-1.12-0.341-1.707c-0.034-2.697-0.015-2.721,2.674-2.651C57.686,20.16,59.159,20.291,60.781,20.388z"/>
	<path fill-rule="evenodd" clip-rule="evenodd" d="M37.482,18.212c2.428,0.011,4.533,0.902,6.421,2.368
		c0.675,0.522,1.038,1.169,0.418,1.949c-0.587,0.737-1.245,0.638-1.996,0.132c-3.711-2.495-5.989-2.495-9.591-0.001
		c-0.787,0.545-1.48,0.674-2.078-0.163c-0.582-0.815-0.14-1.434,0.526-1.938C33.045,19.146,35.109,18.264,37.482,18.212z"/>
	<path fill-rule="evenodd" clip-rule="evenodd" d="M37.441,30.101c-1.562-0.024-2.773-1.265-2.771-2.838
		c0.001-1.613,1.304-2.89,2.908-2.851c1.533,0.036,2.783,1.318,2.787,2.856C40.37,28.859,39.062,30.126,37.441,30.101z"/>
	<path fill-rule="evenodd" clip-rule="evenodd" d="M35.674,67.022c0.166-1.439,0.771-1.908,1.684-1.846
		c0.927,0.064,1.456,0.653,1.391,1.614c-0.067,0.979-0.756,1.539-1.611,1.348C36.521,68.002,36.03,67.312,35.674,67.022z"/>
</g>
</svg>
