<?xml version="1.0" encoding="utf-8"?>
<!-- Generator: Adobe Illustrator 16.0.0, SVG Export Plug-In . SVG Version: 6.00 Build 0)  -->
<!DOCTYPE svg PUBLIC "-//W3C//DTD SVG 1.1//EN" "http://www.w3.org/Graphics/SVG/1.1/DTD/svg11.dtd">
<svg version="1.1" id="Layer_1" xmlns="http://www.w3.org/2000/svg" xmlns:xlink="http://www.w3.org/1999/xlink" x="0px" y="0px"
	 width="75px" height="75px" viewBox="0 0 75 75" enable-background="new 0 0 75 75" xml:space="preserve">
<g id="Generation_Z">
	<path fill-rule="evenodd" clip-rule="evenodd" d="M7.555,68.909c-2.068-1.075-2.482-1.976-2-4.354
		c0.772-3.813,3.64-6.329,7.512-6.696c3.374-0.32,6.742-0.702,10.104-1.137c0.377-0.05,0.894-0.578,0.988-0.97
		c0.275-1.152,0.393-2.346,0.521-3.529c0.031-0.283-0.047-0.659-0.222-0.872c-1.31-1.597-2.135-3.398-2.479-5.435
		c-0.045-0.266-0.257-0.67-0.461-0.719c-2.106-0.51-2.856-1.95-2.742-4.138c-1.229,0-2.362,0.011-3.494-0.003
		c-1.966-0.022-2.699-0.709-2.685-2.633c0.008-1.074,0.042-1.942-1.244-2.502c-1.068-0.464-1.09-1.928-0.232-2.98
		c1.62-1.991,3.317-3.921,4.904-5.938c0.385-0.489,0.608-1.206,0.658-1.838c0.167-2.099-0.019-4.251,0.365-6.302
		c0.945-5.069,4.118-8.46,8.885-10.147c6.778-2.399,13.686-2.433,20.493-0.099c6.113,2.095,9.612,6.929,9.401,13.367
		c-0.104,3.143,0.713,5.559,2.924,7.685c1.019,0.979,1.863,2.144,2.749,3.256c1.005,1.264,0.775,2.608-0.668,3.28
		c-0.773,0.359-0.785,0.857-0.79,1.515c-0.023,2.888-0.483,3.334-3.376,3.34c-0.868,0.002-1.736,0-2.725,0
		c-0.047,0.466-0.091,0.858-0.123,1.249c-0.104,1.273-0.772,2.255-1.94,2.582c-0.938,0.264-1.104,0.793-1.376,1.568
		c-0.508,1.449-1.125,2.884-1.89,4.214c-0.43,0.746-0.724,1.362-0.608,2.257c0.488,3.823,0.461,3.797,4.346,4.139
		c2.647,0.23,5.308,0.433,7.922,0.878c3.405,0.579,5.67,2.616,6.697,5.956c0.093,0.296,0.206,0.585,0.308,0.878
		c0,0.643,0,1.284,0,1.927c-0.733,0.733-1.467,1.468-2.201,2.201C45.902,68.909,26.729,68.909,7.555,68.909z M22.888,27.693
		c0,1.067,0.02,1.984-0.006,2.898c-0.031,1.056-0.385,1.63-1.635,1.286c-1.344-0.372-2.409,0.457-2.371,1.854
		c0.023,0.792,0.391,1.572,0.587,2.362c0.449,1.801,0.969,3.59,1.298,5.413c0.155,0.858,0.271,1.496,1.271,1.632
		c1.15,0.156,1.78,0.863,1.906,2.016c0.387,3.531,2.456,5.775,5.481,7.375c0.945,0.5,1.83,1.219,2.557,2.009
		c2.419,2.638,6.147,2.663,8.619,0.065c0.802-0.843,1.759-1.609,2.779-2.164c2.917-1.591,4.907-3.798,5.3-7.206
		c0.14-1.21,0.769-1.944,1.979-2.109c0.924-0.128,1.069-0.71,1.218-1.523c0.346-1.868,0.858-3.702,1.315-5.547
		c0.186-0.746,0.542-1.479,0.575-2.229c0.064-1.461-1.011-2.323-2.416-1.946c-1.146,0.309-1.553-0.169-1.587-1.188
		c-0.035-0.987-0.008-1.978-0.008-2.997C40.716,27.693,31.883,27.693,22.888,27.693z M53.865,25.499
		c0-1.237,0.009-2.419-0.002-3.601c-0.051-5.388-2.629-9.383-7.685-11.217c-6.504-2.357-13.181-2.438-19.646-0.01
		c-6.899,2.592-8.496,8.089-7.547,14.929c0.433,0,0.882,0,1.332,0c5.226,0,10.453,0,15.681,0c1.741-0.001,3.485,0.028,5.226-0.012
		c1.38-0.033,2.301-0.868,2.347-2.021c0.047-1.19-0.902-2.068-2.352-2.153c-0.503-0.028-1.009-0.019-1.513-0.019
		c-2.66,0.002-5.318,0.019-7.979,0.005c-1.405-0.009-1.78-0.498-1.529-1.892c0.527-2.902,2.771-4.975,5.614-5.185
		c2.979-0.219,5.412,1.435,6.419,4.339c0.111,0.327,0.25,0.794,0.5,0.901c2.712,1.149,3.31,3.185,2.455,5.934
		C48.099,25.499,50.904,25.499,53.865,25.499z M36.255,66.902c3.942,0,7.886,0.001,11.829,0c5.136,0,10.271,0.001,15.406-0.001
		c1.681,0,1.914-0.29,1.604-1.965c-0.485-2.625-2.404-4.591-5.186-4.982c-3.536-0.495-7.095-0.837-10.651-1.167
		c-0.397-0.037-1.015,0.325-1.237,0.684c-1.4,2.256-3.393,3.713-5.887,4.471c-3.589,1.091-7.237,1.142-10.862,0.226
		c-2.698-0.682-5.048-2.017-6.461-4.522c-0.483-0.855-1.024-0.979-1.864-0.88c-3.273,0.389-6.552,0.738-9.827,1.112
		c-2.857,0.327-5.07,2.296-5.563,4.931c-0.346,1.844-0.148,2.092,1.738,2.094C18.28,66.904,27.267,66.902,36.255,66.902z
		 M45.944,52.975c-1.531,1.204-2.917,2.089-4.05,3.224c-3.176,3.18-8.117,3.12-11.296-0.124c-1.087-1.109-2.46-1.938-3.917-3.061
		c-0.178,1.105-0.218,1.835-0.417,2.518c-0.766,2.629,0.713,4.148,2.65,5.413c0.68,0.444,1.443,0.814,2.221,1.045
		c3.464,1.023,6.952,1.048,10.411-0.01c1.934-0.591,3.577-1.663,4.595-3.472c0.271-0.482,0.432-1.118,0.393-1.667
		C46.452,55.707,46.202,54.586,45.944,52.975z M51.839,29.637c1.637,0.173,2.979,0.834,3.625,2.445
		c0.616,1.541,0.397,3.04-0.286,4.511c-0.334,0.719-0.625,1.458-0.965,2.254c1.384,0,2.543,0,3.691,0
		c0.348-1.754-0.887-4.077,2.177-4.487c-1.562-1.854-3.099-3.439-4.343-5.229c-1.037-1.494-2.263-1.755-3.899-1.355
		C51.839,28.32,51.839,28.86,51.839,29.637z M18.122,38.905c-0.429-1.869-1.106-3.688-1.202-5.538
		c-0.105-2.058,1.146-3.074,3.847-3.806c0-0.592,0-1.204,0-2.062c-1.017,0.156-2.262-0.029-2.773,0.497
		c-1.898,1.953-3.555,4.139-5.449,6.413c3.247,0.39,1.645,2.921,2.267,4.495C15.966,38.905,17.095,38.905,18.122,38.905z
		 M40.244,19.356c-0.732-2.146-2.164-3.153-4.162-3.06c-1.825,0.085-3.143,1.165-3.612,2.995c0.178,0.022,0.349,0.063,0.521,0.063
		C35.37,19.358,37.751,19.356,40.244,19.356z"/>
	<path fill-rule="evenodd" clip-rule="evenodd" d="M36.403,45.201c1.559,0,3.117,0.021,4.675-0.007
		c1.188-0.021,1.518,0.61,1.399,1.663c-0.352,3.121-3.049,5.536-6.183,5.526c-3.137-0.012-5.827-2.452-6.146-5.565
		c-0.111-1.08,0.273-1.646,1.442-1.618c1.604,0.04,3.207,0.01,4.812,0.01C36.403,45.208,36.403,45.204,36.403,45.201z
		 M32.434,47.264c0.534,1.918,2.045,3.089,3.898,3.094c1.848,0.005,3.379-1.206,3.845-3.094
		C37.619,47.264,35.078,47.264,32.434,47.264z"/>
	<path fill-rule="evenodd" clip-rule="evenodd" d="M36.787,43.057c-0.63,0-1.14,0.127-1.529-0.034
		c-0.393-0.163-0.918-0.607-0.923-0.936c-0.006-0.325,0.512-0.831,0.895-0.949c0.545-0.167,1.178-0.039,1.771-0.059
		c1.363-0.048,1.771-0.816,1.012-1.979c-0.723-1.11-1.51-2.18-2.261-3.271c-0.408-0.595-0.78-1.282,0.007-1.781
		c0.71-0.45,1.262-0.037,1.688,0.633c0.639,1,1.31,1.985,2.024,2.932c0.934,1.233,1.265,2.539,0.536,3.956
		C39.297,42.955,38.037,43.227,36.787,43.057z"/>
	<path fill-rule="evenodd" clip-rule="evenodd" d="M29.077,29.749c2.185-0.01,4.135,1.739,4.05,3.767
		c-0.02,0.438-0.571,0.854-0.877,1.279c-0.354-0.335-0.912-0.614-1.02-1.017c-0.303-1.131-0.817-1.971-2.069-2.005
		c-1.322-0.036-1.89,0.784-2.198,2c-0.104,0.408-0.756,0.677-1.158,1.011c-0.269-0.458-0.779-0.926-0.763-1.371
		C25.125,31.34,26.94,29.758,29.077,29.749z"/>
	<path fill-rule="evenodd" clip-rule="evenodd" d="M47.646,33.996c-0.176,0.156-0.513,0.679-0.914,0.735
		c-0.315,0.043-0.731-0.466-1.06-0.775c-0.107-0.103-0.07-0.349-0.115-0.526c-0.268-1.056-0.926-1.669-2.038-1.659
		c-1.121,0.009-1.801,0.673-2.013,1.709c-0.165,0.808-0.405,1.587-1.324,1.216c-0.39-0.158-0.712-1.123-0.64-1.667
		c0.27-2.082,2.275-3.459,4.512-3.257C45.98,29.945,47.692,31.782,47.646,33.996z"/>
</g>
</svg>
