<?xml version="1.0" encoding="utf-8"?>
<!-- Generator: Adobe Illustrator 16.0.0, SVG Export Plug-In . SVG Version: 6.00 Build 0)  -->
<!DOCTYPE svg PUBLIC "-//W3C//DTD SVG 1.1//EN" "http://www.w3.org/Graphics/SVG/1.1/DTD/svg11.dtd">
<svg version="1.1" id="Layer_1" xmlns="http://www.w3.org/2000/svg" xmlns:xlink="http://www.w3.org/1999/xlink" x="0px" y="0px"
	 width="75px" height="75px" viewBox="0 0 75 75" enable-background="new 0 0 75 75" xml:space="preserve">
<g id="GovTech">
	<path fill-rule="evenodd" clip-rule="evenodd" d="M42.533,7.25c0.738,0.423,1.447,0.919,2.229,1.239
		c0.418,0.172,1.039,0.202,1.434,0.013c1.302-0.626,2.137-0.541,2.707,0.45c0.546,0.95,0.231,1.954-0.846,2.683
		c-1.589,1.078-3.697,1.021-5.268-0.044c-0.464-0.316-1.348-0.734-1.577-0.545c-0.684,0.563-1.249,1.352-1.639,2.159
		c-0.231,0.477-0.043,1.157-0.043,1.834c5.066,1.199,8.32,4.198,9.51,9.466c-7.563,0-14.964,0-22.364,0
		c0.025-4.08,3.783-7.922,9.296-9.451c0-1.718,0.059-3.484-0.021-5.245c-0.058-1.19,0.328-2.028,1.389-2.559
		C39.071,7.25,40.803,7.25,42.533,7.25z"/>
	<path fill-rule="evenodd" clip-rule="evenodd" d="M36.794,68.75c-2.201-0.687-3.883-1.889-4.462-4.288
		c-0.619-2.566,0.347-5.018,2.682-6.257c0.768-0.407,0.987-0.844,0.978-1.669c-0.046-3.632-0.019-7.263-0.019-10.966
		c1.197,0,2.273,0,3.559,0c0,0.415,0,0.848,0,1.282c0,3.276-0.022,6.556,0.029,9.833c0.005,0.441,0.271,1.096,0.614,1.279
		c2.371,1.267,3.467,3.229,3.125,5.839c-0.334,2.535-1.804,4.212-4.383,4.786c-0.077,0.018-0.141,0.104-0.211,0.16
		C38.068,68.75,37.432,68.75,36.794,68.75z"/>
	<path fill-rule="evenodd" clip-rule="evenodd" d="M7,39.504c0.538-0.894,1.309-1.272,2.365-1.218
		c1.164,0.062,2.335,0.014,3.584,0.014c0,1.186,0,2.253,0,3.452c-1.511,0-3.035,0.095-4.536-0.054
		C7.911,41.649,7.469,40.981,7,40.597C7,40.233,7,39.867,7,39.504z"/>
	<path fill-rule="evenodd" clip-rule="evenodd" d="M68.5,40.597c-0.509,0.933-1.297,1.285-2.347,1.243
		c-1.168-0.047-2.339-0.012-3.592-0.012c0-1.177,0-2.238,0-3.442c1.55,0,3.113-0.082,4.657,0.053
		c0.454,0.038,0.856,0.693,1.281,1.065C68.5,39.867,68.5,40.233,68.5,40.597z"/>
	<path fill-rule="evenodd" clip-rule="evenodd" d="M28.318,45.552c1.165,0,2.247,0,3.413,0c0.3,1.51,0.295,2.919-1.067,4.025
		c-0.491,0.399-0.872,0.934-1.365,1.331c-1.307,1.052-1.875,2.116-1.421,4c0.669,2.773-1.9,5.66-4.941,6.081
		c-2.813,0.391-5.664-1.744-6.142-4.596c-0.518-3.103,1.373-5.971,4.358-6.51c0.741-0.134,1.606-0.24,2.272,0.012
		c1.271,0.481,2.042,0.015,2.762-0.918C27.012,47.909,28.565,47.326,28.318,45.552z"/>
	<path fill-rule="evenodd" clip-rule="evenodd" d="M43.77,45.542c1.13,0,2.208,0,3.337,0c0.102,2.284,2.172,3.072,3.381,4.509
		c0.127,0.15,0.666,0.013,0.991-0.074c3.285-0.883,6.571,0.967,7.182,4.06c0.703,3.56-1.343,6.427-4.943,6.93
		c-3.04,0.426-5.902-2.04-6.177-5.335c-0.025-0.313-0.061-0.678,0.068-0.94c0.77-1.577,0.044-2.618-1.155-3.548
		c-0.428-0.333-0.741-0.813-1.171-1.14C43.823,48.889,43.346,47.446,43.77,45.542z"/>
	<path fill-rule="evenodd" clip-rule="evenodd" d="M24.259,41.746c-2.574,0-5.01,0-7.607,0c0-1.932,0-3.781,0-5.632
		c0-1.819-0.016-3.639,0.004-5.458c0.019-1.827,0.57-2.382,2.351-2.394c1.721-0.011,3.441-0.002,5.253-0.002
		C24.259,32.791,24.259,37.22,24.259,41.746z"/>
	<path fill-rule="evenodd" clip-rule="evenodd" d="M51.212,41.736c0-4.539,0-8.894,0-13.435c2.093,0,4.169-0.105,6.221,0.077
		c0.513,0.045,1.329,1.012,1.347,1.576c0.119,3.893,0.063,7.792,0.063,11.781C56.264,41.736,53.789,41.736,51.212,41.736z"/>
	<path fill-rule="evenodd" clip-rule="evenodd" d="M35.748,28.317c1.384,0,2.641,0,3.977,0c0,4.492,0,8.926,0,13.432
		c-1.334,0-2.632,0-3.977,0C35.748,37.264,35.748,32.861,35.748,28.317z"/>
	<path fill-rule="evenodd" clip-rule="evenodd" d="M32.045,28.336c0,4.503,0,8.895,0,13.391c-1.308,0-2.599,0-3.96,0
		c0-4.465,0-8.889,0-13.391C29.397,28.336,30.651,28.336,32.045,28.336z"/>
	<path fill-rule="evenodd" clip-rule="evenodd" d="M43.458,28.327c1.382,0,2.632,0,3.961,0c0,4.491,0,8.917,0,13.406
		c-1.333,0-2.622,0-3.961,0C43.458,37.249,43.458,32.86,43.458,28.327z"/>
</g>
</svg>
