<?xml version="1.0" encoding="utf-8"?>
<!-- Generator: Adobe Illustrator 16.0.0, SVG Export Plug-In . SVG Version: 6.00 Build 0)  -->
<!DOCTYPE svg PUBLIC "-//W3C//DTD SVG 1.1//EN" "http://www.w3.org/Graphics/SVG/1.1/DTD/svg11.dtd">
<svg version="1.1" id="Layer_1" xmlns="http://www.w3.org/2000/svg" xmlns:xlink="http://www.w3.org/1999/xlink" x="0px" y="0px"
	 width="75px" height="75px" viewBox="0 0 75 75" enable-background="new 0 0 75 75" xml:space="preserve">
<g id="Hiring_and_Workforce">
	<path fill-rule="evenodd" clip-rule="evenodd" d="M55.565,63.902c-2.696-4.007-5.99-3.301-9.998-1.553
		c-2.368,1.03-2.786,2.394-2.798,4.285c-0.016,2.261-0.945,2.926-3.105,2.736c-2.146-0.189-4.321-0.041-6.74-0.041
		c-0.514-3.163-0.4-6.016-4.504-7.729c-4.148-1.733-6.064,0.187-8.604,2.256c-2.183-2.351-4.27-4.598-6.584-7.09
		c1.825-2.181,3.594-4.227,1.875-8.375c-1.72-4.149-4.404-4.161-7.709-4.539c0-1.622,0-3.114,0-4.738
		c0.762-0.042,1.441-0.11,2.121-0.112c3.63-0.012,7.259-0.005,11.038-0.005c0.356,5.361,2.302,9.784,6.329,13.141
		c3.018,2.517,6.529,3.866,10.445,3.995c9.175,0.304,14.633-4.848,18.129-17.058c4.146,0,8.317,0,12.67,0c0,1.558,0,3.053,0,4.95
		c-5.02-1.129-6.793,1.93-8.238,5.988c-0.67,1.879-0.648,2.979,0.576,4.451c2.199,2.645,2.116,2.715-0.391,5.218
		c-1.261,1.26-2.523,2.518-3.792,3.771C56.18,63.56,56.027,63.619,55.565,63.902z"/>
	<path fill-rule="evenodd" clip-rule="evenodd" d="M51.875,36.581c-9.444,0-18.728,0-27.997,0c-0.886-3.506,0.207-5.745,3.48-6.993
		c1.516-0.577,3.104-0.964,4.638-1.496c2.525-0.879,3.201-3.215,1.502-5.277c-2.335-2.831-3.209-6.155-3.259-9.717
		c-0.063-4.471,3.165-7.771,7.478-7.797c4.163-0.024,7.508,3.188,7.562,7.508c0.045,3.637-0.812,7.056-3.222,9.955
		c-1.707,2.053-1.048,4.429,1.441,5.308c1.167,0.412,2.363,0.741,3.55,1.098C51.036,30.367,52.268,32.188,51.875,36.581z"/>
	<path fill-rule="evenodd" clip-rule="evenodd" d="M68.157,36.535c-4.64,0-9.104,0-13.254,0c-0.73-2.513-1.403-4.824-2.2-7.564
		c1.15-1.244,0.748-2.708-0.386-4.765c-1.318-2.391-2.032-5.331-2.203-8.083c-0.212-3.401,2.752-5.936,6.106-5.988
		c3.274-0.05,6.153,2.485,6.4,5.828c0.235,3.181-0.494,6.146-2.499,8.723c-1.714,2.202-1.174,3.994,1.477,4.912
		c0.949,0.33,1.917,0.608,2.873,0.922C67.719,31.582,68.562,32.925,68.157,36.535z"/>
	<path fill-rule="evenodd" clip-rule="evenodd" d="M22.737,29.131c-0.714,2.563-1.342,4.82-2.047,7.35c-4.142,0-8.663,0-13.186,0
		c-0.521-3.038,0.412-4.758,3.177-5.742c1.165-0.415,2.38-0.691,3.541-1.115c2.246-0.818,2.786-2.653,1.274-4.531
		c-1.895-2.354-2.611-5.064-2.61-8.001c0-3.553,2.573-6.316,5.956-6.491c3.27-0.167,6.281,2.515,6.476,6.002
		c0.162,2.923-0.408,5.802-2.346,8.068C21.433,26.472,21.665,27.936,22.737,29.131z"/>
</g>
</svg>
