<?xml version="1.0" encoding="utf-8"?>
<!-- Generator: Adobe Illustrator 16.0.0, SVG Export Plug-In . SVG Version: 6.00 Build 0)  -->
<!DOCTYPE svg PUBLIC "-//W3C//DTD SVG 1.1//EN" "http://www.w3.org/Graphics/SVG/1.1/DTD/svg11.dtd">
<svg version="1.1" id="Layer_1" xmlns="http://www.w3.org/2000/svg" xmlns:xlink="http://www.w3.org/1999/xlink" x="0px" y="0px"
	 width="75px" height="75px" viewBox="0 0 75 75" enable-background="new 0 0 75 75" xml:space="preserve">
<g id="Marketing_Technology">
	<path fill-rule="evenodd" clip-rule="evenodd" d="M31.927,52.467c1.99,1.895,3.779,3.596,5.566,5.299
		c1.471,1.4,1.521,2.183,0.26,3.715c-0.192,0.233-0.364,0.484-0.557,0.719c-1.803,2.205-2.86,2.279-4.976,0.322
		c-1.735-1.605-3.452-3.229-5.246-4.91c-0.554,0.193-1.254,0.64-1.952,0.638c-1.256-0.005-2.872,0.161-3.699-0.52
		c-2.473-2.035-4.732-4.358-6.881-6.744c-1.184-1.314-1.141-3.146-0.074-4.505c2.262-2.88,4.759-5.512,7.848-7.629
		c1.535-1.052,2.646-2.893,3.605-4.573c1.546-2.71,2.258-5.722,2.299-8.862c0.004-0.347-0.006-0.725-0.135-1.036
		c-0.438-1.064-0.342-2.07,0.596-2.726c1.041-0.728,2.146-0.404,3.078,0.354c0.584,0.476,1.078,1.063,1.617,1.595
		c1.295,1.278,2.623,2.525,3.88,3.841c0.927,0.968,1.769,1.738,3.343,1.602c1.603-0.14,2.855,1.374,2.775,3.139
		c-0.048,1.045,0.344,1.688,1.035,2.354c1.894,1.822,3.771,3.666,5.587,5.564c0.536,0.562,1.033,1.287,1.229,2.021
		c0.391,1.472-0.72,2.62-2.227,2.424c-5.452-0.71-10.009,1.264-14.031,4.725C33.815,50.175,32.972,51.317,31.927,52.467z"/>
	<path fill-rule="evenodd" clip-rule="evenodd" d="M55.103,34.444c0.837,0.59,1.688,1.163,2.512,1.772
		c3.162,2.336,2.148,2.195,5.302,0.003c0.834-0.579,1.641-1.196,2.836-2.072c0,2.448,0.053,4.393-0.056,6.327
		c-0.017,0.291-0.779,0.76-1.207,0.771c-2.776,0.076-5.557,0.041-8.335,0.058c-0.98,0.006-1.517-0.385-1.504-1.431
		c0.021-1.738,0.005-3.477,0.005-5.215C54.804,34.587,54.953,34.516,55.103,34.444z"/>
	<path fill-rule="evenodd" clip-rule="evenodd" d="M17.929,33.987c0.447-1.793-0.242-2.431-2.011-1.95
		c-1.054-1.535-1.104-1.532-2.686-0.17c-0.14,0.121-0.349,0.209-0.53,0.218c-1.976,0.104-2.043,0.179-1.8,2.161
		c-1.548,0.94-1.521,1.617,0.115,2.949c-0.413,1.777,0.271,2.372,2.124,1.848c0.919,1.574,1.771,1.56,2.994-0.055
		c1.754,0.497,2.321-0.125,1.927-2.118C19.544,35.896,19.528,34.979,17.929,33.987z M14.677,37.726
		c-1.214,0-2.199-0.986-2.199-2.199c0-1.214,0.985-2.2,2.199-2.2c1.213,0,2.199,0.986,2.199,2.2
		C16.876,36.739,15.89,37.726,14.677,37.726z"/>
	<path fill-rule="evenodd" clip-rule="evenodd" d="M32.679,14.271c0.145-0.734,0.266-1.904,0.637-2.989
		c0.18-0.529,0.754-1.104,1.279-1.289c0.702-0.25,1.939-0.47,2.219-0.119c0.531,0.662,0.67,1.735,0.703,2.646
		c0.012,0.312-0.75,0.856-1.22,0.938c-1.044,0.179-1.388,0.719-1.247,1.673c0.102,0.697,0.191,1.41,0.415,2.073
		c0.267,0.789,0.614,1.536,1.737,0.905c0.747-0.421,1.379-0.141,1.678,0.696c0.352,0.98,0.98,2.021-0.084,2.911
		c-0.949,0.792-2.815,0.608-3.573-0.353C33.686,19.417,32.725,17.226,32.679,14.271z"/>
	<path fill-rule="evenodd" clip-rule="evenodd" d="M22.478,27.104c0-3.852-0.006-7.584,0.015-11.315
		c0.001-0.261,0.194-0.736,0.327-0.746c0.896-0.07,1.842-0.19,2.681,0.036c0.3,0.081,0.483,1.08,0.494,1.663
		c0.051,2.777,0.025,5.557,0.024,8.336c-0.002,2.273-0.016,2.29-2.259,2.194C23.414,27.258,23.071,27.185,22.478,27.104z"/>
	<path fill-rule="evenodd" clip-rule="evenodd" d="M57.587,52.865c-1.21,0-2.42,0.02-3.63-0.006
		c-1.445-0.028-2.266-0.783-2.316-2.234c-0.051-1.459-0.04-2.923-0.009-4.385c0.026-1.163,0.652-2.002,1.809-2.046
		c2.713-0.103,5.434-0.119,8.147-0.04c1.302,0.038,1.954,0.99,2.009,2.242c0.06,1.357,0.064,2.724-0.011,4.081
		c-0.089,1.598-0.896,2.32-2.521,2.392c-0.604,0.027-1.209,0.013-1.814,0.015c-0.555,0.001-1.109,0-1.663,0
		C57.587,52.878,57.587,52.871,57.587,52.865z M57.494,51.76c0,0.009,0,0.017,0,0.025c1.111,0,2.25,0.143,3.324-0.058
		c0.583-0.109,1.421-0.741,1.507-1.246c0.217-1.276,0.092-2.615,0.07-3.929c-0.015-0.843-0.438-1.289-1.33-1.283
		c-2.323,0.015-4.647,0.008-6.972-0.008c-0.979-0.006-1.354,0.544-1.369,1.425c-0.02,1.162-0.004,2.325-0.007,3.487
		c-0.003,1.066,0.554,1.575,1.593,1.584C55.372,51.767,56.433,51.76,57.494,51.76z"/>
	<path fill-rule="evenodd" clip-rule="evenodd" d="M22.012,22.927c0,0.653,0.003,1.307,0,1.96c-0.009,2.419-0.35,2.743-2.696,2.333
		c-0.344-0.061-0.855-0.571-0.868-0.891c-0.091-2.208-0.073-4.42-0.081-6.632c-0.006-1.678,1.272-1.141,2.178-1.255
		c1.009-0.128,1.516,0.237,1.469,1.317c-0.045,1.055-0.01,2.111-0.01,3.167C22.007,22.927,22.009,22.927,22.012,22.927z"/>
	<path fill-rule="evenodd" clip-rule="evenodd" d="M49.783,56.724c-0.963,0.611-1.927,1.224-2.891,1.835
		c-1.14,0.108-2.346,0.022-3.401,0.38c-0.998,0.338-1.84,1.143-3.033,1.54c0.365-0.777,0.73-1.556,1.137-2.423
		c-0.07-0.101-0.15-0.286-0.289-0.402c-2.806-2.37-1.29-5.563,1.717-6.451c1.939-0.573,3.804-0.393,5.497,0.755
		C50.222,53.11,50.478,54.181,49.783,56.724z M42.777,58.129c0.53-0.076,1.196-0.151,1.856-0.27c1.027-0.185,2.142-0.204,3.055-0.64
		c1.969-0.939,2.178-3.098,0.561-4.416c-1.669-1.362-4.84-1.342-6.486,0.041c-1.418,1.19-1.441,2.565-0.12,3.864
		C42.089,57.148,42.434,57.693,42.777,58.129z"/>
	<path fill-rule="evenodd" clip-rule="evenodd" d="M44.628,27.256c3.338-3.492,6.729-6.933,10.116-10.377
		c0.234-0.238,1.263,0.732,0.998,1.015c-1.857,1.979-3.754,3.92-5.645,5.866c-1.473,1.517-2.929,3.051-4.456,4.51"/>
	<path fill-rule="evenodd" clip-rule="evenodd" d="M54.514,34.302c1.773-1.329,3.529-2.684,5.342-3.957
		c0.24-0.168,0.871-0.056,1.151,0.154c1.662,1.241,3.274,2.55,4.904,3.835c-0.063,0.154-0.124,0.308-0.186,0.462
		c-3.641,0-7.28,0-10.92,0C54.709,34.632,54.611,34.466,54.514,34.302z"/>
	<path fill-rule="evenodd" clip-rule="evenodd" d="M40.925,26.114c0.649-1.943,1.217-3.664,1.801-5.379
		c1.023-3.002,2.031-6.012,3.121-8.991c0.141-0.386,1.463,0.053,1.338,0.432c-1.551,4.684-3.147,9.353-4.778,14.009"/>
	<path fill-rule="evenodd" clip-rule="evenodd" d="M46.427,30.516c2.633-1.017,5.296-1.953,7.952-2.91
		c1.942-0.701,3.877-1.431,5.84-2.067c0.421-0.137,0.941,1.212,0.61,1.333c-4.683,1.713-9.371,3.41-14.075,5.059"/>
	<path fill-rule="evenodd" clip-rule="evenodd" d="M14.36,24.523c0-0.301,0.043-0.609-0.007-0.901
		c-0.271-1.591,0.507-1.952,1.948-1.919c1.253,0.029,1.713,0.468,1.582,1.694c-0.079,0.744-0.08,1.509-0.008,2.253
		c0.118,1.217-0.289,1.716-1.588,1.659C14.349,27.225,14.346,27.299,14.36,24.523z"/>
	<path fill-rule="evenodd" clip-rule="evenodd" d="M59.94,48.277c-1.308,0.842-2.294,1.479-3.531,2.276c0-1.604,0-2.895,0-4.604
		C57.651,46.769,58.649,47.426,59.94,48.277z"/>
</g>
</svg>
