<?xml version="1.0" encoding="utf-8"?>
<!-- Generator: Adobe Illustrator 16.0.0, SVG Export Plug-In . SVG Version: 6.00 Build 0)  -->
<!DOCTYPE svg PUBLIC "-//W3C//DTD SVG 1.1//EN" "http://www.w3.org/Graphics/SVG/1.1/DTD/svg11.dtd">
<svg version="1.1" id="Layer_1" xmlns="http://www.w3.org/2000/svg" xmlns:xlink="http://www.w3.org/1999/xlink" x="0px" y="0px"
	 width="75px" height="75px" viewBox="0 0 75 75" enable-background="new 0 0 75 75" xml:space="preserve">
<g id="InsureTech">
	<path fill-rule="evenodd" clip-rule="evenodd" d="M59.885,32.467c-0.285-1.651-1.989-2.885-3.674-2.313
		c-1.264,0.425-2.05-0.004-2.937-0.655c-0.52-0.383-1.038-0.771-1.599-1.075c-0.805-0.433-1.158-0.975-1.199-1.959
		c-0.064-1.629-1.535-2.787-3.133-2.727c-1.629,0.063-2.81,1.26-2.972,2.93c-0.041,0.436-0.161,1.022-0.466,1.256
		c-1.095,0.839-2.268,1.579-3.438,2.32c-0.695,0.439-1.335,0.327-1.35-0.594c-0.049-3.242-0.019-6.487-0.019-10.049
		c0.608,0.481,1.015,0.733,1.335,1.068c1.237,1.301,1.305,1.309,2.583-0.076c1.128-1.222,2.948-1.673,3.964-0.508
		c1.587,1.824,2.509,1.471,4.145,0.004c1.094-0.978,1.245-1.628,0.857-2.82c-1.94-5.994-7.503-10.195-13.667-10.277
		c-6.299-0.087-11.988,3.934-14.076,9.92c-0.462,1.335-0.884,2.599,0.997,3.216c0.293,0.098,0.534,0.443,0.729,0.722
		c0.805,1.144,1.478,1.027,2.298-0.045c1.061-1.384,2.587-1.707,3.941-0.892c0.808,0.485,1.538,1.576,2.286,1.562
		c0.76-0.016,1.5-1.05,2.523-1.851v1.339c0,2.82,0.004,5.641-0.004,8.461c-0.008,1.087-0.541,1.339-1.429,0.782
		c-1.008-0.628-2.035-1.241-2.938-2c-0.443-0.376-0.813-1.038-0.891-1.613c-0.233-1.625-1.438-2.836-3.062-2.854
		c-1.554-0.022-3.02,1.087-3.031,2.651c-0.012,1.173-0.591,1.658-1.406,2.158c-0.715,0.444-1.361,1.023-2.117,1.357
		c-0.55,0.245-1.271,0.369-1.847,0.237c-1.899-0.433-3.704,0.508-4.058,2.249c-0.369,1.794,0.771,3.501,2.497,3.737
		c1.978,0.271,3.437-0.925,3.64-2.967c0.034-0.327,0.016-0.869,0.185-0.943c1.847-0.82,2.967-3.374,5.596-2.354
		c0.343,0.132,0.884,0.157,1.158-0.026c1.215-0.823,2.017,0.016,2.899,0.598c0.617,0.406,1.302,0.752,1.828,1.256
		c0.402,0.392,0.79,0.959,0.869,1.497c0.255,1.771,1.413,2.952,3.105,2.968c1.765,0.019,2.982-1.155,3.159-3.043
		c0.03-0.286-0.037-0.718,0.124-0.839c1.275-0.933,2.55-1.88,3.923-2.651c0.38-0.21,1.075,0.188,1.632,0.237
		c0.489,0.042,1.083,0.15,1.459-0.067c0.91-0.534,1.558-0.191,2.261,0.346c0.586,0.447,1.222,0.835,1.846,1.233
		c0.794,0.508,1.381,0.978,1.418,2.155c0.053,1.794,1.787,2.892,3.614,2.595C59.106,35.855,60.193,34.223,59.885,32.467z
		 M19.048,35.076c-1.071,0-1.94-0.868-1.94-1.944c0-1.071,0.869-1.94,1.94-1.94c1.076,0,1.944,0.869,1.944,1.94
		C20.992,34.208,20.124,35.076,19.048,35.076z M28.45,28.56c-1.072,0-1.941-0.873-1.941-1.944c0-1.072,0.869-1.944,1.941-1.944
		c1.075,0,1.943,0.872,1.943,1.944C30.394,27.687,29.525,28.56,28.45,28.56z M34.433,18.883c-2.373-1.839-4.817-1.959-7.272-0.041
		c-1.113-0.388-1.128-1.001-0.775-1.884c1.851-4.648,6.627-7.895,11.696-7.887c5.058,0.008,9.842,3.29,11.669,7.928
		c0.369,0.937,0.215,1.485-0.782,1.847c-2.373-1.873-4.821-1.869-7.262,0.045C39.307,17.014,36.907,16.958,34.433,18.883z
		 M37.915,34.889c-1.071,0-1.944-0.869-1.944-1.944c0-1.071,0.873-1.94,1.944-1.94c1.072,0,1.944,0.869,1.944,1.94
		C39.859,34.02,38.987,34.889,37.915,34.889z M47.441,28.619c-1.072,0-1.94-0.869-1.94-1.94s0.868-1.944,1.94-1.944
		c1.075,0,1.944,0.873,1.944,1.944S48.517,28.619,47.441,28.619z M57.031,34.952c-1.072,0-1.94-0.868-1.94-1.944
		c0-1.071,0.868-1.94,1.94-1.94c1.075,0,1.944,0.869,1.944,1.94C58.976,34.084,58.106,34.952,57.031,34.952z"/>
	<path fill-rule="evenodd" clip-rule="evenodd" d="M13.993,31.124c-1.311,5.007,1.034,8.407,4.686,11.494
		c2.86,2.419,5.388,5.239,7.987,7.953c0.481,0.503,0.84,1.347,0.85,2.039c0.071,5.045,0.004,10.092,0.062,15.137
		c0.016,1.387-0.396,1.974-1.859,1.926c-2.618-0.087-5.243-0.06-7.864-0.01c-1.198,0.023-1.733-0.406-1.675-1.641
		c0.061-1.283-0.134-2.593,0.044-3.854c0.361-2.563-0.607-4.509-2.239-6.403c-2.288-2.658-4.384-5.483-6.505-8.279
		c-0.389-0.511-0.716-1.223-0.721-1.845c-0.049-7.37-0.04-14.741-0.024-22.112c0.004-1.797,0.972-3.188,2.459-3.685
		c1.538-0.513,3.201-0.069,4.068,1.295c0.424,0.667,0.658,1.548,0.7,2.348C14.061,27.361,13.993,29.244,13.993,31.124z
		 M25.554,67.508c0-4.944,0.009-9.739-0.018-14.533c-0.002-0.354-0.168-0.799-0.414-1.048c-2.953-2.99-5.903-5.986-8.948-8.883
		c-0.418-0.398-1.432-0.511-2.006-0.304c-0.513,0.185-1.1,0.992-1.106,1.531c-0.008,0.631,0.454,1.386,0.927,1.883
		c1.934,2.034,3.949,3.99,5.923,5.963c-0.511,0.599-0.916,1.075-1.372,1.609c-2.201-2.219-4.274-4.271-6.294-6.377
		c-0.463-0.482-0.851-1.105-1.079-1.735c-0.706-1.946-0.04-3.317,2.509-5.244c-1.908-1.021-1.673-2.793-1.661-4.516
		c0.023-3.313-0.001-6.628,0.011-9.941c0.005-1.165-0.323-2.2-1.634-2.197c-1.313,0.003-1.601,1.021-1.597,2.202
		c0.022,6.974-0.006,13.947,0.04,20.921c0.004,0.627,0.269,1.357,0.65,1.858c2.518,3.303,5.072,6.576,7.676,9.809
		c0.761,0.944,1.105,1.898,1.054,3.111c-0.083,1.95-0.022,3.906-0.022,5.891C20.735,67.508,23.043,67.508,25.554,67.508z"/>
	<path fill-rule="evenodd" clip-rule="evenodd" d="M69.384,36.678c0,3.562,0.04,7.125-0.033,10.686
		c-0.016,0.722-0.303,1.557-0.738,2.133c-2.477,3.271-5.01,6.502-7.581,9.699c-0.778,0.969-1.21,1.93-1.14,3.21
		c0.104,1.874-0.007,3.759,0.038,5.638c0.027,1.116-0.374,1.636-1.546,1.618c-2.771-0.041-5.541-0.033-8.312-0.003
		c-1.054,0.011-1.531-0.393-1.525-1.483c0.022-5.293-0.018-10.587,0.049-15.88c0.007-0.59,0.419-1.297,0.855-1.741
		c3.777-3.848,7.574-7.677,11.437-11.438c0.935-0.91,1.283-1.833,1.254-3.113c-0.078-3.412-0.038-6.826-0.022-10.24
		c0.011-2.517,1.481-4.157,3.648-4.119c2.179,0.04,3.608,1.69,3.614,4.201C69.39,29.455,69.384,33.066,69.384,36.678z
		 M56.039,52.151c2.216-2.173,4.26-4.179,6.305-6.183c0.852-0.835,1.116-1.758,0.33-2.763c-0.776-0.991-2.011-0.959-3.085,0.104
		c-2.813,2.783-5.62,5.57-8.371,8.412c-0.389,0.401-0.624,1.113-0.637,1.687c-0.062,3.016-0.029,6.033-0.029,9.05
		c0,1.662,0,3.324,0,5.021c2.546,0,4.894,0,7.367,0c0-1.959,0.067-3.833-0.023-5.699c-0.063-1.315,0.302-2.354,1.135-3.382
		c2.582-3.187,5.089-6.435,7.597-9.681c0.313-0.405,0.646-0.94,0.648-1.418c0.039-7.318,0.031-14.638,0.018-21.957
		c-0.002-0.995-0.64-1.728-1.544-1.591c-0.599,0.09-1.155,0.857-1.595,1.426c-0.195,0.254-0.063,0.767-0.063,1.162
		c-0.003,3.214-0.035,6.429,0.013,9.643c0.024,1.699,0.179,3.393-1.75,4.425c0.455,0.307,0.731,0.488,1.004,0.678
		c2.041,1.425,2.554,3.98,0.89,5.795c-2.12,2.312-4.474,4.409-6.787,6.657C57.063,53.15,56.644,52.74,56.039,52.151z"/>
</g>
</svg>
