<?xml version="1.0" encoding="utf-8"?>
<!-- Generator: Adobe Illustrator 16.0.0, SVG Export Plug-In . SVG Version: 6.00 Build 0)  -->
<!DOCTYPE svg PUBLIC "-//W3C//DTD SVG 1.1//EN" "http://www.w3.org/Graphics/SVG/1.1/DTD/svg11.dtd">
<svg version="1.1" id="Layer_1" xmlns="http://www.w3.org/2000/svg" xmlns:xlink="http://www.w3.org/1999/xlink" x="0px" y="0px"
	 width="75px" height="75px" viewBox="0 0 75 75" enable-background="new 0 0 75 75" xml:space="preserve">
<g id="Internet_of_Things">
	<path fill-rule="evenodd" clip-rule="evenodd" d="M42.835,63.61c1.864-3.854,3.162-4.428,7.672-3.507
		c0.354,0.071,0.892-0.247,1.198-0.538c1.236-1.18,2.417-2.419,3.701-3.722c0.559,0.521,0.989,0.92,1.646,1.532
		c-1.401,1.329-2.681,2.464-3.845,3.705c-0.32,0.342-0.523,1.074-0.394,1.514c0.945,3.181-0.183,5.966-2.933,6.997
		c-2.771,1.037-5.409-0.249-6.82-3.324c-0.068-0.15-0.149-0.295-0.246-0.483c-3.416,0-6.847,0-9.579,0
		c-1.655,1.512-2.755,2.96-4.213,3.734c-1.855,0.985-3.83,0.406-5.346-1.069c-1.502-1.463-2.138-3.323-1.297-5.307
		c0.503-1.188,0.111-1.781-0.666-2.532c-2.152-2.077-4.223-4.243-6.387-6.308c-0.342-0.325-1.077-0.548-1.513-0.419
		c-3.213,0.947-5.979-0.154-7.009-2.896c-1.046-2.779,0.234-5.43,3.299-6.833c0.15-0.067,0.296-0.147,0.55-0.275
		c0-3.16,0.03-6.367-0.04-9.571c-0.008-0.392-0.478-0.923-0.869-1.127c-2.79-1.454-3.956-4.085-2.913-6.741
		c1.058-2.688,3.822-3.809,6.889-2.911c0.482,0.141,1.279-0.066,1.655-0.413c1.877-1.721,3.66-3.542,5.479-5.323
		c0.03-0.03,0.104-0.014,0.437-0.049c0.268,0.312,0.652,0.758,1.174,1.364c-1.835,1.802-3.63,3.602-5.473,5.353
		c-0.664,0.631-1.113,1.211-0.459,2.095c0.093,0.126,0.168,0.323,0.145,0.469c-0.367,2.292,1.249,2.817,2.911,3.396
		c1.607,0.561,3.168,1.252,4.887,1.94c-0.255,0.661-0.46,1.197-0.73,1.905c-2.22-0.878-4.33-1.671-6.399-2.551
		c-0.864-0.367-1.455-0.392-2.176,0.372c-0.621,0.657-1.549,1.025-2.461,1.596c0,3.072-0.024,6.283,0.032,9.495
		c0.007,0.365,0.405,0.777,0.717,1.065c0.272,0.252,0.798,0.269,1.005,0.544c1.328,1.76,2.771,1.112,4.334,0.384
		c1.543-0.721,3.165-1.267,4.897-1.946c0.276,0.623,0.51,1.147,0.824,1.854c-2.155,0.874-4.168,1.744-6.224,2.503
		c-0.973,0.359-1.695,0.759-1.475,1.952c0.009,0.052,0.003,0.118-0.022,0.163c-1.278,2.234,0.24,3.448,1.662,4.778
		c1.736,1.629,3.405,3.334,5.053,5.055c0.569,0.593,1.058,0.854,1.838,0.398c0.364-0.214,0.854-0.204,1.27-0.345
		c0.823-0.279,1.636-0.593,2.452-0.892c-0.045-0.165-0.087-0.327-0.131-0.492c0.511,0.195,1.021,0.389,1.652,0.63
		c-1.12,2.242,1.84,2.855,1.663,4.779C35.889,63.61,39.361,63.61,42.835,63.61z M11.74,31.434c1.692-0.034,3.006-1.381,3.009-3.079
		c0.001-1.771-1.407-3.171-3.149-3.13c-1.734,0.04-3.093,1.514-3.013,3.271C8.663,30.188,10.037,31.469,11.74,31.434z M8.59,48.92
		c-0.114,1.756,1.2,3.238,2.951,3.327c1.652,0.086,3.099-1.228,3.2-2.901c0.104-1.712-1.105-3.147-2.777-3.295
		C10.19,45.896,8.702,47.162,8.59,48.92z M27.202,61.644c-1.7,0.022-3.046,1.363-3.059,3.049c-0.015,1.74,1.416,3.146,3.17,3.119
		c1.695-0.027,3.022-1.366,3.036-3.062C30.363,62.981,28.983,61.621,27.202,61.644z M48.034,61.645
		c-1.708,0.008-3.042,1.313-3.076,3.01c-0.034,1.765,1.346,3.168,3.105,3.159c1.752-0.009,3.16-1.457,3.103-3.19
		C51.111,62.942,49.739,61.638,48.034,61.645z"/>
	<path fill-rule="evenodd" clip-rule="evenodd" d="M55.519,46.851c0.239-0.574,0.466-1.115,0.808-1.936
		c2.58,2.58,4.116-0.286,6.191-0.942c0-3.454,0-6.924,0-10.226c-1.001-0.726-1.891-1.465-2.878-2.035
		c-0.377-0.218-1.031-0.187-1.47-0.025c-2.168,0.795-4.305,1.672-6.588,2.572c-0.274-0.67-0.491-1.202-0.771-1.89
		c2.266-0.908,4.398-1.788,6.55-2.615c0.738-0.284,1.31-0.595,1.099-1.526c-0.025-0.102-0.024-0.24,0.027-0.325
		c1.445-2.41-0.329-3.647-1.784-5.043c-1.6-1.535-3.17-3.101-4.695-4.707c-0.67-0.706-1.271-1.211-2.223-0.513
		c-0.126,0.092-0.318,0.142-0.474,0.132c-1.78-0.108-2.975,0.549-3.044,2.65c-0.803-0.305-1.352-0.513-2.163-0.82
		c2.247-2.52-0.829-3.721-1.152-5.724c-3.516,0-6.985,0-10.636,0c0.135,1.809-2.688,2.458-1.726,4.75
		c-0.535,0.219-1.037,0.423-1.135,0.463c-1.073-0.498-1.791-1.053-2.567-1.15c-2.599-0.329-4.551-2.147-4.823-4.709
		c-0.255-2.405,1.335-4.745,3.706-5.45c2.448-0.726,4.978,0.372,6.152,2.684c0.199,0.392,0.355,0.808,0.542,1.237
		c3.455,0,6.886,0,10.357,0c0.163-0.356,0.319-0.707,0.485-1.05c1.275-2.636,4.057-3.768,6.674-2.721
		c2.574,1.03,3.909,3.879,2.903,6.567c-0.357,0.954-0.214,1.475,0.472,2.135c2.192,2.116,4.292,4.328,6.51,6.416
		c0.399,0.375,1.268,0.596,1.785,0.441c2.984-0.888,5.832,0.309,6.852,3.011c1.008,2.673-0.216,5.371-3.024,6.674
		c-0.25,0.116-0.495,0.244-0.778,0.385c0,3.432,0,6.86,0,10.358c2.074,0.766,3.624,2.04,4.054,4.37
		c0.625,3.395-2.508,6.583-5.91,5.981c-2.331-0.412-2.331-0.412-4.157,1.146c-0.423-0.399-0.854-0.809-1.448-1.371
		c1.508-1.069,1.615-2.309,1.463-4.131C58.505,47.564,56.677,47.806,55.519,46.851z M30.35,12.799
		c0.022-1.77-1.359-3.153-3.129-3.136c-1.686,0.02-3.056,1.371-3.079,3.043c-0.026,1.748,1.378,3.14,3.153,3.126
		C28.989,15.82,30.328,14.49,30.35,12.799z M48.055,9.665c-1.705-0.005-3.057,1.303-3.099,2.997c-0.044,1.765,1.32,3.169,3.084,3.17
		c1.694,0.003,3.073-1.316,3.126-2.988C51.222,11.115,49.808,9.67,48.055,9.665z M63.676,31.434
		c1.688-0.018,3.027-1.356,3.051-3.049c0.024-1.75-1.392-3.179-3.13-3.158c-1.687,0.021-3.02,1.369-3.037,3.072
		C60.542,30.077,61.908,31.453,63.676,31.434z M66.728,49.123c-0.008-1.763-1.42-3.128-3.183-3.08
		c-1.691,0.046-2.989,1.395-2.984,3.101c0.005,1.703,1.323,3.068,3.004,3.108C65.3,52.293,66.735,50.873,66.728,49.123z"/>
	<path fill-rule="evenodd" clip-rule="evenodd" d="M46.188,57.353c-0.927,0-1.464,0-2.022,0c-1.257-2.384-1.814-4.821-0.849-7.473
		c0.121-0.331-0.119-0.932-0.386-1.241c-0.754-0.882-1.662-1.634-2.41-2.519c-1.149-1.355-1.029-3.14,0.197-4.35
		c1.228-1.211,2.976-1.282,4.356-0.141c0.551,0.455,1.045,0.982,1.754,1.656c0.069-0.568,0.155-0.953,0.156-1.339
		c0.01-5.317-0.01-10.636,0.019-15.954c0.007-1.263-0.165-2.505-1.57-2.72c-1.28-0.196-2.878-0.862-3.668,1.106
		c-0.161,0.402-0.938,0.754-1.448,0.782c-1.768,0.095-3.546,0.095-5.313,0.001c-0.515-0.028-1.299-0.371-1.458-0.77
		c-0.781-1.973-2.378-1.318-3.661-1.125c-1.406,0.212-1.649,1.444-1.573,2.714c0.021,0.374-0.044,0.755-0.076,1.236
		c-0.634,0-1.207,0-1.768,0c-0.807-3.99,0.855-6.126,4.72-6.131c4.431-0.006,8.862-0.013,13.294,0.004
		c2.935,0.01,4.529,1.562,4.572,4.483c0.04,2.771-0.052,5.542,0.052,8.309c0.029,0.735,0.428,1.554,0.892,2.155
		c0.703,0.914,1.764,1.569,2.395,2.519c0.774,1.165,1.707,2.494,1.786,3.8c0.233,3.911,0.084,7.845,0.084,11.879
		c-0.661,0-1.232,0-2.026,0c0-3.311,0.001-6.615,0-9.918c0-3.002-0.393-3.783-3.171-5.981c0,1.782,0.101,3.351-0.026,4.901
		c-0.138,1.669,0.236,3.043,1.813,4.019c-0.53,0.574-0.931,1.009-1.482,1.605c-1.717-1.735-3.383-3.419-5.049-5.104
		c-0.607-0.612-1.302-1.278-2.112-0.465c-0.81,0.813-0.142,1.503,0.471,2.111c0.392,0.392,0.755,0.817,1.181,1.17
		c1.523,1.268,2.604,2.448,1.337,4.717c-0.523,0.937,0.083,2.542,0.276,3.827C45.572,55.799,45.89,56.446,46.188,57.353z"/>
	<path fill-rule="evenodd" clip-rule="evenodd" d="M26.447,29.479c0.611,0,1.148,0,1.871,0c0,0.664,0,1.256,0,1.849
		c0,7.028-0.002,14.056,0.002,21.083c0.001,2.353,0.597,2.952,2.919,2.958c3.43,0.008,6.858,0.002,10.481,0.002
		c0.029,0.63,0.058,1.2,0.099,2.053c-1.686,0-3.261,0-4.835-0.001c-2.214,0-4.428,0.039-6.641-0.016
		c-2.34-0.059-4.045-1.631-4.061-3.948c-0.052-7.855-0.008-15.712,0.005-23.57C26.288,29.789,26.362,29.69,26.447,29.479z"/>
	<path fill-rule="evenodd" clip-rule="evenodd" d="M44.62,34.442c-0.519,0.504-0.945,0.92-1.354,1.315
		c-4.267-2.945-7.122-2.951-11.233,0.041c-0.419-0.422-0.866-0.872-1.308-1.317C34.456,30.524,40.484,30.494,44.62,34.442z"/>
	<path fill-rule="evenodd" clip-rule="evenodd" d="M35.211,38.396c-0.501-0.535-0.903-0.968-1.304-1.396
		c2.378-2.195,5.23-2.18,7.47,0.03c-0.405,0.427-0.812,0.854-1.268,1.332C38.507,37.227,36.917,37.102,35.211,38.396z"/>
	<path fill-rule="evenodd" clip-rule="evenodd" d="M35.684,51.211c1.042,0,1.859-0.009,2.676,0.004
		c0.379,0.006,0.755,0.052,1.235,0.087c0,0.628,0,1.202,0,1.899c-1.28,0-2.555,0-3.911,0C35.684,52.551,35.684,51.969,35.684,51.211
		z"/>
	<path fill-rule="evenodd" clip-rule="evenodd" d="M32.188,44.197c0.329-1.108,0.389-1.797,0.741-2.269
		c0.157-0.21,1.12-0.16,1.326,0.091c0.279,0.343,0.416,1.268,0.197,1.45C34.016,43.84,33.299,43.877,32.188,44.197z"/>
	<path fill-rule="evenodd" clip-rule="evenodd" d="M36.767,41.919c0.579,0,1.112,0,1.777,0c0,0.635,0,1.253,0,1.956
		c-0.58,0-1.113,0-1.777,0C36.767,43.241,36.767,42.623,36.767,41.919z"/>
</g>
</svg>
