<?xml version="1.0" encoding="utf-8"?>
<!-- Generator: Adobe Illustrator 16.0.0, SVG Export Plug-In . SVG Version: 6.00 Build 0)  -->
<!DOCTYPE svg PUBLIC "-//W3C//DTD SVG 1.1//EN" "http://www.w3.org/Graphics/SVG/1.1/DTD/svg11.dtd">
<svg version="1.1" id="Layer_1" xmlns="http://www.w3.org/2000/svg" xmlns:xlink="http://www.w3.org/1999/xlink" x="0px" y="0px"
	 width="75px" height="75px" viewBox="0 0 75 75" enable-background="new 0 0 75 75" xml:space="preserve">
<g>
	<path fill-rule="evenodd" clip-rule="evenodd" fill="#FFFFFF" d="M75.35,75.36c-25.048,0-50.038,0-75.069,0
		c0-25.04,0-50.081,0-75.12c24.998,0,50.028,0,75.069,0C75.35,25.263,75.35,50.286,75.35,75.36z M38.16,65.8c0-0.01,0-0.021,0-0.031
		c7.159,0,14.32,0.096,21.479-0.033c4.778-0.087,8.47-4.077,8.479-8.839c0.023-11.6,0.043-23.199,0.029-34.798
		c-0.002-1.792,0.042-3.633-0.328-5.367c-0.882-4.133-4.554-6.764-9.151-6.769c-13.479-0.011-26.96-0.004-40.439-0.003
		c-6.212,0-9.865,3.63-9.867,9.812c-0.003,12.12-0.003,24.24,0,36.36c0.001,5.967,3.682,9.661,9.639,9.668
		C24.72,65.806,31.44,65.8,38.16,65.8z"/>
	<path fill-rule="evenodd" clip-rule="evenodd" d="M38.16,65.8c-6.72,0-13.44,0.006-20.16-0.001
		c-5.957-0.007-9.638-3.701-9.639-9.668c-0.003-12.12-0.003-24.24,0-36.36c0.001-6.182,3.654-9.812,9.867-9.812
		c13.479-0.001,26.96-0.008,40.439,0.003c4.598,0.004,8.27,2.636,9.151,6.769c0.37,1.734,0.326,3.575,0.328,5.367
		c0.014,11.6-0.006,23.199-0.029,34.798c-0.009,4.762-3.7,8.752-8.479,8.839c-7.158,0.129-14.319,0.033-21.479,0.033
		C38.16,65.779,38.16,65.79,38.16,65.8z M38.282,11.48c-6.678,0-13.356-0.004-20.034,0.007c-0.756,0.001-1.53,0.007-2.264,0.16
		c-3.926,0.815-6.141,3.739-6.14,8.112C9.846,31.955,9.868,44.15,9.88,56.346c0.005,4.768,3.19,7.934,7.992,7.934
		c13.556,0.001,27.111,0.001,40.667,0c4.962,0,8.059-3.108,8.06-8.094c0.002-12.116,0.001-24.232,0.001-36.348
		c0-5.376-2.992-8.354-8.403-8.356C51.558,11.479,44.92,11.48,38.282,11.48z"/>
	<path fill-rule="evenodd" clip-rule="evenodd" fill="#FFFFFF" d="M38.282,11.48c6.638,0,13.275-0.002,19.913,0.001
		c5.411,0.002,8.403,2.98,8.403,8.356c0,12.116,0.001,24.232-0.001,36.348c-0.001,4.985-3.098,8.094-8.06,8.094
		c-13.556,0.001-27.111,0.001-40.667,0c-4.802,0-7.987-3.166-7.992-7.934C9.868,44.15,9.846,31.955,9.844,19.759
		c0-4.373,2.214-7.297,6.14-8.112c0.734-0.152,1.508-0.158,2.264-0.16C24.926,11.476,31.604,11.48,38.282,11.48z M35.723,34.064
		c0.244-0.764,0.386-1.166,0.502-1.574c0.644-2.266,1.258-4.54,1.945-6.792c0.117-0.382,0.537-0.671,0.817-1.003
		c0.261,0.354,0.53,0.702,0.777,1.065c0.063,0.091,0.051,0.232,0.077,0.349c0.742,3.271,1.48,6.543,2.229,9.813
		c0.291,1.274,0.608,2.542,0.991,4.135c0.911-2.175,1.719-3.998,2.435-5.855c0.31-0.803,0.763-1.066,1.611-1.06
		c5.039,0.036,10.079,0.018,15.119,0.018c0.429,0,0.858,0,1.354,0c0.024-0.427,0.056-0.737,0.056-1.047
		c0.004-3.876,0.007-7.753,0.002-11.63c-0.006-3.791-2.077-5.881-5.836-5.882c-12.919-0.003-25.839-0.003-38.758,0
		c-3.653,0-5.833,2.16-5.844,5.795c-0.01,3.68-0.002,7.36-0.002,11.04c0,0.38,0,0.76,0,1.204c3.464,0,6.747,0.127,10.014-0.047
		c1.974-0.105,3.225,0.391,3.977,2.307c0.499,1.272,1.344,2.41,2.164,3.833c0.969-3.229,1.84-6.195,2.764-9.146
		c0.15-0.479,0.536-0.884,0.813-1.323c0.362,0.436,0.843,0.818,1.062,1.316C34.584,30.929,35.063,32.326,35.723,34.064z
		 M63.628,34.561c-5.478,0-10.792-0.014-16.106,0.034c-0.338,0.003-0.828,0.423-0.98,0.767c-0.955,2.152-1.807,4.35-2.762,6.501
		c-0.194,0.438-0.684,0.744-1.038,1.111c-0.245-0.417-0.61-0.806-0.717-1.256c-0.937-3.962-1.823-7.936-2.734-11.904
		c-0.09-0.389-0.242-0.763-0.472-1.474c-0.771,2.738-1.417,5.123-2.135,7.485c-0.13,0.429-0.555,0.769-0.843,1.149
		c-0.285-0.345-0.668-0.647-0.836-1.042c-0.63-1.483-1.19-2.997-1.893-4.798c-0.23,0.678-0.364,1.034-0.472,1.398
		c-0.737,2.487-1.451,4.981-2.221,7.458c-0.127,0.41-0.491,0.746-0.746,1.117c-0.353-0.295-0.817-0.522-1.039-0.895
		c-1.044-1.748-2.042-3.525-3.011-5.316c-0.346-0.638-0.772-0.884-1.513-0.875c-3.319,0.04-6.638,0.015-9.957,0.021
		c-0.301,0.001-0.603,0.064-0.954,0.104c0,3.642,0,7.197,0,10.751c0,4.262,2.064,6.34,6.309,6.341
		c12.636,0.002,25.271,0.002,37.907-0.005c0.598,0,1.202-0.022,1.792-0.114c2.517-0.391,4.388-2.517,4.426-5.063
		c0.051-3.396,0.063-6.794,0.083-10.192C63.72,35.474,63.665,35.081,63.628,34.561z M50.947,58.792
		c1.025-0.026,1.873-0.923,1.85-1.958c-0.023-1.042-0.905-1.892-1.937-1.864c-1.038,0.027-1.886,0.919-1.856,1.95
		C49.034,57.962,49.923,58.818,50.947,58.792z M56.221,54.97c-1.041,0.018-1.867,0.882-1.853,1.938
		c0.014,1.033,0.896,1.905,1.909,1.886c1.044-0.021,1.854-0.876,1.839-1.943C58.103,55.789,57.26,54.953,56.221,54.97z"/>
	<path fill-rule="evenodd" clip-rule="evenodd" d="M35.723,34.064c-0.66-1.738-1.139-3.136-1.73-4.484
		c-0.218-0.498-0.7-0.88-1.062-1.316c-0.276,0.439-0.663,0.844-0.813,1.323c-0.924,2.95-1.795,5.917-2.764,9.146
		c-0.819-1.422-1.665-2.56-2.164-3.833c-0.752-1.917-2.003-2.413-3.977-2.307c-3.267,0.174-6.55,0.047-10.014,0.047
		c0-0.444,0-0.824,0-1.204c0-3.68-0.008-7.36,0.002-11.04c0.01-3.635,2.191-5.795,5.844-5.795c12.919-0.003,25.839-0.003,38.758,0
		c3.759,0.001,5.83,2.091,5.836,5.882c0.005,3.876,0.002,7.753-0.002,11.63c0,0.31-0.031,0.621-0.056,1.047
		c-0.496,0-0.926,0-1.354,0c-5.04,0-10.08,0.018-15.119-0.018c-0.849-0.006-1.302,0.257-1.611,1.06
		c-0.716,1.857-1.523,3.68-2.435,5.855c-0.383-1.593-0.7-2.861-0.991-4.135c-0.749-3.27-1.487-6.542-2.229-9.813
		c-0.026-0.117-0.015-0.258-0.077-0.349c-0.247-0.363-0.517-0.711-0.777-1.065c-0.28,0.332-0.7,0.621-0.817,1.003
		c-0.687,2.251-1.301,4.526-1.945,6.792C36.109,32.899,35.967,33.301,35.723,34.064z"/>
	<path fill-rule="evenodd" clip-rule="evenodd" d="M63.628,34.561c0.037,0.52,0.092,0.914,0.089,1.307
		c-0.02,3.398-0.032,6.795-0.083,10.192c-0.038,2.546-1.909,4.672-4.426,5.063c-0.59,0.092-1.194,0.114-1.792,0.114
		c-12.636,0.007-25.271,0.007-37.907,0.005C15.264,51.24,13.2,49.162,13.2,44.9c0-3.555,0-7.11,0-10.751
		c0.351-0.04,0.652-0.104,0.954-0.104c3.319-0.007,6.638,0.018,9.957-0.021c0.74-0.009,1.167,0.237,1.513,0.875
		c0.969,1.791,1.967,3.568,3.011,5.316c0.222,0.372,0.687,0.6,1.039,0.895c0.255-0.371,0.619-0.707,0.746-1.117
		c0.77-2.477,1.483-4.971,2.221-7.458c0.108-0.364,0.242-0.72,0.472-1.398c0.703,1.802,1.263,3.315,1.893,4.798
		c0.167,0.395,0.551,0.697,0.836,1.042c0.288-0.381,0.712-0.72,0.843-1.149c0.717-2.362,1.363-4.747,2.135-7.485
		c0.229,0.71,0.382,1.085,0.472,1.474c0.911,3.968,1.798,7.941,2.734,11.904c0.106,0.45,0.472,0.839,0.717,1.256
		c0.354-0.367,0.844-0.674,1.038-1.111c0.955-2.151,1.807-4.35,2.762-6.501c0.152-0.344,0.643-0.764,0.98-0.767
		C52.836,34.546,58.15,34.561,63.628,34.561z"/>
	<path fill-rule="evenodd" clip-rule="evenodd" d="M50.947,58.792c-1.024,0.026-1.913-0.83-1.943-1.872
		c-0.029-1.031,0.818-1.923,1.856-1.95c1.031-0.027,1.913,0.822,1.937,1.864C52.82,57.869,51.973,58.766,50.947,58.792z"/>
	<path fill-rule="evenodd" clip-rule="evenodd" d="M56.221,54.97c1.039-0.017,1.882,0.819,1.896,1.88
		c0.015,1.067-0.795,1.923-1.839,1.943c-1.013,0.02-1.896-0.853-1.909-1.886C54.354,55.852,55.18,54.987,56.221,54.97z"/>
</g>
</svg>
