<?xml version="1.0" encoding="utf-8"?>
<!-- Generator: Adobe Illustrator 16.0.0, SVG Export Plug-In . SVG Version: 6.00 Build 0)  -->
<!DOCTYPE svg PUBLIC "-//W3C//DTD SVG 1.1//EN" "http://www.w3.org/Graphics/SVG/1.1/DTD/svg11.dtd">
<svg version="1.1" id="Layer_1" xmlns="http://www.w3.org/2000/svg" xmlns:xlink="http://www.w3.org/1999/xlink" x="0px" y="0px"
	 width="75px" height="75px" viewBox="0 0 75 75" enable-background="new 0 0 75 75" xml:space="preserve">
<g id="Nanotechnology-2">
	<path fill-rule="evenodd" clip-rule="evenodd" d="M37.02,16.774c2.093-1.379,4.063-2.678,5.978-3.938
		c1.651,3.668-1.213,4.754-3.32,6.286c1.725,2.045,3.342,3.98,4.99,5.889c0.179,0.21,0.52,0.338,0.806,0.39
		c2.345,0.428,4.693,0.829,7.171,1.262c0.088-0.317,0.235-0.694,0.295-1.083c0.476-3.079,0.469-3.081,3.665-4.888
		c-0.09,1.854,0.042,3.557-0.308,5.155c-0.359,1.645,0.169,2.275,1.64,2.82c2.947,1.092,5.611,2.709,7.701,5.125
		c2.788,3.219,2.716,6.924-0.103,10.128c-2.23,2.536-5.113,4.063-8.171,5.262c-1.145,0.448-1.297,0.986-1.117,2.082
		c0.516,3.153,0.524,6.311-0.421,9.408c-1.273,4.176-4.626,6.189-8.897,5.329c-3.294-0.663-6.097-2.345-8.649-4.431
		c-0.907-0.742-1.428-0.662-2.366-0.021c-2.003,1.369-4.052,2.776-6.278,3.693c-6.388,2.627-11.25-0.391-11.831-7.294
		c-0.193-2.307,0.024-4.656,0.197-6.977c0.069-0.938-0.105-1.354-1.017-1.717c-3.053-1.219-5.951-2.702-8.218-5.2
		c-3.024-3.333-3.02-7.311,0.077-10.601c2.222-2.361,4.973-3.907,7.967-5.024c1.095-0.41,1.212-0.952,1.166-2.072
		c-0.117-2.83-0.35-5.753,0.204-8.491c1.12-5.539,5.355-7.712,10.697-5.828c1.506,0.53,2.961,1.266,4.344,2.073
		C34.557,14.891,35.768,15.885,37.02,16.774z M37.02,48.996c1.607,0,3.222,0.081,4.821-0.041c0.576-0.045,1.345-0.429,1.634-0.898
		c1.688-2.735,3.289-5.524,4.833-8.341c0.252-0.459,0.299-1.275,0.058-1.718c-1.531-2.824-3.12-5.62-4.818-8.345
		c-0.336-0.542-1.22-1.018-1.867-1.041c-3.056-0.107-6.119-0.108-9.176,0c-0.649,0.024-1.499,0.51-1.871,1.048
		c-1.235,1.791-2.179,3.784-3.448,5.545c-1.729,2.4-1.928,4.66-0.035,7.028c0.383,0.479,0.607,1.084,0.908,1.629
		C30.977,49.149,30.977,49.149,37.02,48.996z M21.479,26.677c2.555-0.448,4.896-0.852,7.232-1.28
		c0.287-0.052,0.63-0.172,0.808-0.378c1.64-1.908,3.25-3.844,4.862-5.766c-1.801-1.83-4.864-3.601-6.945-4.039
		c-2.562-0.536-4.552,0.355-5.542,2.572C20.61,20.657,20.826,23.606,21.479,26.677z M34.433,58.414
		c-1.668-2.001-3.248-3.902-4.838-5.796c-0.128-0.151-0.305-0.33-0.481-0.363c-2.529-0.454-5.063-0.886-7.668-1.336
		c-0.573,2.701-0.738,5.299,0.066,7.894c0.913,2.939,2.945,4.167,5.954,3.505C30.168,61.724,32.345,60.18,34.433,58.414z
		 M52.738,50.921c-2.556,0.44-4.992,0.855-7.424,1.292c-0.237,0.042-0.514,0.169-0.663,0.347c-1.626,1.921-3.229,3.86-4.892,5.857
		c2.126,1.778,4.302,3.341,7.016,3.92c2.552,0.545,4.518-0.301,5.475-2.423C53.56,57.009,53.39,54.004,52.738,50.921z
		 M55.409,46.334c2.877-1.116,5.607-2.313,7.472-4.835c1.251-1.688,1.26-3.695,0.032-5.358c-1.891-2.559-4.611-3.833-7.523-4.834
		c-0.881,2.431-1.718,4.707-2.523,6.996c-0.096,0.27-0.113,0.629-0.021,0.896C53.664,41.534,54.515,43.858,55.409,46.334z
		 M18.775,46.351c0.905-2.509,1.735-4.79,2.541-7.082c0.096-0.272,0.132-0.631,0.039-0.893c-0.827-2.335-1.688-4.659-2.576-7.086
		c-2.655,0.966-5.195,2.093-7.063,4.299c-1.846,2.184-1.806,4.47,0.114,6.585C13.689,44.225,16.146,45.303,18.775,46.351z
		 M40.123,24.907c-1.162-1.271-2.036-2.229-3.04-3.327c-1.003,1.107-1.891,2.086-3.017,3.327
		C36.247,24.907,37.933,24.907,40.123,24.907z M52.047,30.171c-1.512-0.31-2.755-0.563-4.367-0.893
		c1.06,1.831,1.938,3.348,2.975,5.143C51.167,32.853,51.566,31.637,52.047,30.171z M50.662,43.146
		c-1.063,1.818-1.947,3.331-3.053,5.226c1.686-0.373,2.955-0.654,4.393-0.971C51.554,45.979,51.161,44.732,50.662,43.146z
		 M22.13,30.176c0.497,1.481,0.911,2.72,1.429,4.262c1.027-1.811,1.893-3.336,2.926-5.154C24.883,29.611,23.642,29.865,22.13,30.176
		z M23.529,43.117c-0.515,1.627-0.91,2.878-1.354,4.287c1.48,0.326,2.744,0.604,4.396,0.966
		C25.482,46.492,24.618,44.999,23.529,43.117z M34.137,52.758c1.124,1.235,2.007,2.207,2.967,3.261
		c1.013-1.134,1.853-2.073,2.914-3.261C37.907,52.758,36.215,52.758,34.137,52.758z"/>
	<path fill-rule="evenodd" clip-rule="evenodd" d="M57.5,14.519c0.017,3.602-2.679,6.293-6.309,6.297
		c-3.44,0.006-6.261-2.794-6.277-6.232c-0.015-3.389,2.828-6.29,6.21-6.339C54.644,8.195,57.482,10.99,57.5,14.519z"/>
	<path fill-rule="evenodd" clip-rule="evenodd" fill="#FFFFFF" d="M23.529,43.117c1.089,1.882,1.953,3.375,3.041,5.253
		c-1.651-0.362-2.915-0.64-4.396-0.966C22.619,45.995,23.015,44.744,23.529,43.117z"/>
</g>
</svg>
