<?xml version="1.0" encoding="utf-8"?>
<!-- Generator: Adobe Illustrator 16.0.0, SVG Export Plug-In . SVG Version: 6.00 Build 0)  -->
<!DOCTYPE svg PUBLIC "-//W3C//DTD SVG 1.1//EN" "http://www.w3.org/Graphics/SVG/1.1/DTD/svg11.dtd">
<svg version="1.1" id="Layer_1" xmlns="http://www.w3.org/2000/svg" xmlns:xlink="http://www.w3.org/1999/xlink" x="0px" y="0px"
	 width="75px" height="75px" viewBox="0 0 75 75" enable-background="new 0 0 75 75" xml:space="preserve">
<g id="Charity_and_NGO">
	<path fill-rule="evenodd" clip-rule="evenodd" d="M25.028,53.497c-0.706-1.037-1.422-2.068-2.118-3.112
		c-0.782-1.173-0.673-2.631,0.283-3.596c1.008-1.016,2.091-0.692,3.057,0.004c2.547,1.837,5.104,3.662,7.54,5.641
		c1.455,1.181,2.217,2.892,2.509,4.754c0.297,1.898,0.554,3.802,0.801,5.706c0.418,3.227-0.726,5.081-3.788,6.128
		c-0.931,0.318-1.874,0.612-2.831,0.828c-2.235,0.505-3.884-0.3-4.586-2.406c-0.675-2.026-1.909-3.478-3.701-4.587
		c-3.107-1.922-6.243-3.814-9.23-5.914c-3.886-2.73-6.373-6.543-7.753-11.064c-0.214-0.697-0.305-1.517-0.158-2.217
		c0.142-0.668,0.54-1.572,1.064-1.786c0.519-0.211,1.528,0.109,1.987,0.547c1.628,1.551,3.211,3.171,4.627,4.915
		c2.037,2.511,4.635,4.021,7.676,4.926c1.504,0.447,2.98,0.983,4.469,1.48C24.927,53.66,24.978,53.579,25.028,53.497z M7.395,44.672
		c-0.106,0.081-0.215,0.163-0.321,0.246c1.387,3.917,3.307,7.53,6.809,9.991c2.985,2.099,6.107,4.012,9.23,5.909
		c2.302,1.397,3.951,3.245,4.776,5.828c0.285,0.89,0.904,1.482,1.916,1.187c1.3-0.38,2.582-0.828,3.851-1.304
		c1.061-0.396,1.479-1.196,1.342-2.337c-0.182-1.489-0.343-2.981-0.442-4.478c-0.208-3.152-1.492-5.613-4.237-7.337
		c-1.663-1.042-3.169-2.334-4.756-3.498c-0.271-0.199-0.6-0.321-0.9-0.479c0.736,1.69,1.789,3.122,2.554,4.69
		c0.336,0.692,0.394,1.868,0.011,2.451c-0.301,0.456-1.537,0.592-2.25,0.42c-1.859-0.447-3.642-1.196-5.486-1.726
		c-3.547-1.016-6.406-3.007-8.738-5.839C9.689,47.109,8.518,45.91,7.395,44.672z"/>
	<path fill-rule="evenodd" clip-rule="evenodd" d="M49.821,53.52c4.642-1.337,9.423-2.184,12.544-6.355
		c1.176-1.571,2.546-3.019,3.98-4.358c0.604-0.563,1.679-1.081,2.409-0.939c1.114,0.215,1.187,1.455,1.086,2.455
		c-0.099,0.968-0.199,1.987-0.578,2.862c-1.9,4.377-4.514,8.177-8.738,10.697c-2.814,1.679-5.518,3.543-8.306,5.271
		c-1.552,0.963-2.534,2.309-3.149,3.995c-0.896,2.458-2.422,3.292-4.927,2.639c-1.264-0.328-2.524-0.725-3.722-1.238
		c-1.802-0.777-2.873-2.253-2.708-4.2c0.244-2.837,0.574-5.699,1.259-8.454c0.334-1.347,1.343-2.709,2.409-3.656
		c2.131-1.894,4.487-3.536,6.795-5.223c1.499-1.095,2.666-1.099,3.545-0.176c0.979,1.03,0.988,2.464,0.037,3.837
		C51.105,51.619,50.466,52.571,49.821,53.52z M51.349,49.051c-0.967-0.765-1.691-0.6-2.507,0.081
		c-1.367,1.138-2.756,2.281-4.267,3.209c-2.875,1.765-4.103,4.366-4.292,7.603c-0.025,0.421-0.078,0.84-0.114,1.26
		c-0.432,4.919-1.4,4.845,4.551,6.521c1.246,0.35,1.898-0.069,2.312-1.305c0.716-2.139,1.996-3.876,3.979-5.088
		c2.877-1.758,5.673-3.645,8.551-5.4c3.688-2.249,5.93-5.642,7.674-9.445c0.214-0.466,0.268-1.005,0.428-1.641
		c-0.291,0.117-0.398,0.129-0.453,0.188c-0.822,0.899-1.737,1.734-2.438,2.721c-3.761,5.278-9.599,6.729-15.327,8.325
		c-1.683,0.469-2.817-0.813-2.067-2.37C48.242,51.912,48.839,49.729,51.349,49.051z"/>
	<path fill-rule="evenodd" clip-rule="evenodd" d="M15.098,24.551c0.321-4.134,3.443-7.522,7.779-9.91
		c4.219-2.321,8.475-1.847,12.361,0.834c1.573,1.085,2.512,1.374,4.263,0.1c3.95-2.873,8.388-3.266,12.733-0.804
		c4.332,2.456,7.28,5.992,7.528,11.251c0.137,2.869-1.355,5.134-3.24,6.921c-5.544,5.25-11.284,10.291-16.947,15.418
		c-1.394,1.263-2.749,1.397-4.222,0.063c-5.551-5.027-11.248-9.902-16.657-15.077C15.687,30.468,15.059,28.449,15.098,24.551z
		 M37.835,46.057c5.407-5.049,10.71-9.918,15.901-14.904c1.752-1.681,3.064-3.703,2.66-6.398c-0.599-4.002-3.211-6.302-6.7-7.64
		c-3.695-1.421-6.978-0.425-9.775,2.363c-2.474,2.467-2.503,2.438-4.974,0.035c-4.407-4.281-10.229-3.98-14.395,0.742
		c-2.725,3.088-2.916,6.706-0.304,9.873C25.196,36.122,31.214,40.938,37.835,46.057z"/>
</g>
</svg>
