<?xml version="1.0" encoding="utf-8"?>
<!-- Generator: Adobe Illustrator 16.0.0, SVG Export Plug-In . SVG Version: 6.00 Build 0)  -->
<!DOCTYPE svg PUBLIC "-//W3C//DTD SVG 1.1//EN" "http://www.w3.org/Graphics/SVG/1.1/DTD/svg11.dtd">
<svg version="1.1" id="Layer_1" xmlns="http://www.w3.org/2000/svg" xmlns:xlink="http://www.w3.org/1999/xlink" x="0px" y="0px"
	 width="75px" height="75px" viewBox="0 0 75 75" enable-background="new 0 0 75 75" xml:space="preserve">
<g id="Power_of_Women-3">
	<path fill-rule="evenodd" clip-rule="evenodd" d="M33.139,70.75c-3.537,0-7.076,0-10.613,0c0.088-0.167,0.197-0.326,0.258-0.503
		c0.736-2.15,1.135-4.499,2.266-6.416c2.436-4.13,2.789-8.753,3.707-13.246c0.304-1.48-0.376-3.128-1.587-3.735
		c-2.201-1.105-3.286-2.845-4.538-4.834c-2.41-3.823-2.333-8.232-3.877-12.431c-2.171,2.062-4.483,4.233-7.975,3.034
		c-3.683-1.264-4.246-4.102-3.432-7.626c-0.129,0.036-0.258,0.073-0.388,0.109c-0.242,0.37-0.485,0.74-0.729,1.11
		c0.935-2.06,0.044-3.849-0.629-5.658c0-0.382,0-0.766,0-1.147c1.091-0.81,2.181-1.62,3.508-2.605
		c-0.012-1.384,1.366-3.535,2.874-3.414c1.655,0.132,3.176-0.929,5.029,0.068c1.197,0.645,1.868,1.111,2.14,2.38
		c0.468,2.185,2.196,2.705,3.845,1.147c2.118-2.001,4.128-4.116,6.262-6.099c2.305-2.141,4.84-3.872,8.179-3.919
		c0.386-0.006,0.768-0.304,1.149-0.466c0.956,0,1.913,0,2.868,0c2.501,0.474,5.056,0.762,7.491,1.461
		c4.383,1.261,8.681,2.793,11.682,6.563c0.354,0.444,0.736,0.889,0.982,1.393c0.659,1.352,1.302,2.716,1.862,4.11
		c0.74,1.839,1.475,3.689,2.062,5.58c0.393,1.263,0.584,2.599,0.76,3.915c0.128,0.959,0.376,2.052,0.057,2.89
		c-0.722,1.897-0.747,3.66,0.245,5.402c1.146,2.012,2.358,3.985,3.543,5.975c0,0.479,0,0.955,0,1.434
		c-0.758,0.593-1.445,1.328-2.289,1.741c-1.171,0.574-1.891,1.212-1.557,2.636c0.271,1.145-0.606,1.571-1.436,1.941
		c-0.369,0.165-0.799,0.195-1.304,0.311c1.449,0.893,1.872,2.339,0.827,2.886c-1.347,0.703-1.39,1.75-1.43,2.982
		c-0.086,2.575-1.51,3.864-4.103,3.938c-2.257,0.063-4.365-0.416-6.313-1.544c-2.386-1.385-3.237-0.926-4.413,1.747
		c-0.153,0.347-0.215,0.732-0.348,1.09c-0.785,2.113-1.579,4.222-2.37,6.333c-0.057-0.02-0.111-0.041-0.167-0.061
		c0-9.979,0-19.957,0-29.69c0.657-0.407,1.206-0.65,1.631-1.032c0.709-0.636,1.271-1.449,2.018-2.031
		c2.381-1.856,3.341-4.193,2.931-7.213c-0.204-1.502-0.019-3.055-0.041-4.583c-0.021-1.422-0.586-2.444-2.071-2.852
		c-1.331-0.366-2.617-0.894-3.954-1.231c-0.615-0.155-1.302-0.026-1.765-0.026c-0.839,2.019,0.466,2.808,1.534,3.788
		c0.495,0.454,1.071,1.202,1.035,1.779c-0.1,1.609-0.498,3.198-0.796,4.792c-0.018,0.096-0.182,0.163-0.419,0.363
		c0-0.533,0-0.918,0-1.229c-0.75-0.24-1.38-0.624-2.003-0.612c-2.772,0.051-5.542,0.244-8.314,0.313
		c-0.72,0.019-1.448-0.336-2.169-0.322c-1.069,0.022-2.134,0.3-3.203,0.325c-1.645,0.039-2.001-0.36-2.015-2.029
		c-0.014-1.842-0.003-3.683-0.003-5.523c-0.146-0.034-0.294-0.067-0.44-0.102C27,22.72,26.667,23.325,26.64,23.945
		c-0.077,1.717,0.153,3.463-0.066,5.155c-0.391,3.01,0.491,5.349,2.878,7.239c1.256,0.996,2.321,2.232,3.688,3.569
		C33.139,49.912,33.139,60.331,33.139,70.75z M43.169,23.075c0-1.67,0.036-3.34-0.011-5.008c-0.036-1.28-1.201-1.919-3.162-1.846
		c-1.235,0.047-1.426,0.828-1.416,1.846c0.024,2.719-0.004,5.437,0.012,8.155c0.017,3.141-0.532,3.012,3.134,3.014
		c1.013,0,1.487-0.381,1.456-1.441C43.136,26.224,43.17,24.648,43.169,23.075z M37.997,22.9c0-1.673,0.063-3.349-0.037-5.016
		c-0.032-0.53-0.365-1.273-0.789-1.507c-1.223-0.676-3.778,1.001-3.786,2.394c-0.014,2.484-0.004,4.969-0.004,7.454
		c0,3.17-0.001,3.146,3.171,3.016c1.014-0.041,1.481-0.419,1.456-1.467C37.967,26.15,37.996,24.525,37.997,22.9z M32.806,17.497
		c-1.919,0.711-3.27,1.624-4.311,2.97c-0.187,0.242-0.3,0.605-0.304,0.914c-0.024,2.194-0.01,4.39-0.014,6.584
		c-0.002,0.802,0.331,1.268,1.187,1.26c0.764-0.008,1.554,0.115,2.28-0.049c0.438-0.1,1.103-0.628,1.111-0.976
		C32.838,24.733,32.806,21.265,32.806,17.497z M43.755,23.87c0,1.493-0.075,2.953,0.05,4.396c0.035,0.385,0.682,0.717,1.048,1.073
		c0.281-0.303,0.713-0.56,0.818-0.914C46.24,26.52,46.314,24.741,43.755,23.87z M43.82,19.579c1.617,0.392,3.023,0.732,4.436,1.074
		c0.062-1.579-2.303-3.269-4.436-3.169C43.82,18.272,43.82,19.063,43.82,19.579z"/>
</g>
</svg>
