<?xml version="1.0" encoding="utf-8"?>
<!-- Generator: Adobe Illustrator 16.0.0, SVG Export Plug-In . SVG Version: 6.00 Build 0)  -->
<!DOCTYPE svg PUBLIC "-//W3C//DTD SVG 1.1//EN" "http://www.w3.org/Graphics/SVG/1.1/DTD/svg11.dtd">
<svg version="1.1" id="Layer_1" xmlns="http://www.w3.org/2000/svg" xmlns:xlink="http://www.w3.org/1999/xlink" x="0px" y="0px"
	 width="75px" height="75px" viewBox="0 0 75 75" enable-background="new 0 0 75 75" xml:space="preserve">
<g>
	<path fill-rule="evenodd" clip-rule="evenodd" d="M43.656,58.52c-0.363,0.001-0.728-0.006-1.091,0.001
		c-2.362,0.047-2.373,0.063-2.316,2.522c0.022,0.998,0.121,2.006,0.019,2.992c-0.149,1.448-1.201,2.454-2.431,2.513
		c-1.35,0.063-2.525-0.979-2.654-2.556c-0.104-1.263-0.017-2.543,0.025-3.814c0.037-1.117-0.395-1.728-1.581-1.652
		c-0.271,0.018-0.546,0.001-0.818-0.005c-4.521-0.1-4.521-0.1-4.595,4.349c-0.008,0.454,0.008,0.915-0.067,1.359
		c-0.243,1.438-1.306,2.372-2.576,2.313c-1.282-0.06-2.317-1.031-2.431-2.482c-0.092-1.173-0.025-2.362,0.035-3.541
		c0.065-1.303-0.313-1.935-1.802-2.042c-3.222-0.231-4.018-1.063-4.351-4.361c-0.128-1.262-0.559-1.798-1.829-1.74
		c-1.179,0.053-2.369,0.07-3.542-0.036c-1.659-0.151-2.622-1.173-2.611-2.583c0.012-1.452,0.919-2.418,2.61-2.596
		c1.08-0.112,2.183-0.099,3.27-0.043c1.427,0.074,1.832-0.6,1.919-1.949c0.301-4.628,0.349-4.623-4.294-4.805
		c-0.453-0.018-0.923,0.005-1.354-0.108c-1.254-0.327-2.1-1.062-2.149-2.458c-0.049-1.354,0.771-2.428,2.249-2.627
		c1.252-0.168,2.542-0.137,3.811-0.085c1.225,0.05,1.87-0.258,1.747-1.668c-0.134-1.521,0.497-3.53-0.264-4.448
		c-0.692-0.835-2.807-0.488-4.293-0.671c-0.448-0.055-0.911-0.081-1.336-0.218c-1.253-0.407-2.007-1.228-1.922-2.621
		c0.085-1.398,0.957-2.179,2.239-2.344c1.254-0.161,2.541-0.105,3.812-0.082c1.081,0.021,1.568-0.347,1.763-1.517
		c0.612-3.688,1.01-4.032,4.85-4.562c1.018-0.141,1.467-0.542,1.447-1.539c-0.021-1.091-0.059-2.182-0.026-3.271
		c0.06-2.045,0.976-3.188,2.537-3.244c1.578-0.057,2.631,1.297,2.636,3.432c0.003,0.999-0.057,1.998-0.066,2.998
		c-0.01,1.116,0.524,1.688,1.677,1.602c0.09-0.007,0.182,0,0.272,0.006c4.866,0.283,4.865,0.283,4.984-4.483
		c0.009-0.363-0.01-0.732,0.047-1.089c0.228-1.437,1.233-2.419,2.488-2.462c1.227-0.042,2.385,0.873,2.615,2.317
		c0.153,0.965,0.034,1.982-0.028,2.973c-0.153,2.441,0.053,2.694,2.412,2.747c4.442,0.098,4.441,0.098,4.506-4.4
		c0.006-0.454-0.013-0.917,0.064-1.36c0.231-1.332,1.09-2.126,2.388-2.242c1.349-0.12,2.339,0.642,2.599,1.928
		c0.248,1.227,0.188,2.521,0.227,3.786c0.062,2.044,0.048,2.044,2.066,2.297c2.58,0.324,3.688,1.401,4.057,3.945
		c0.305,2.097,0.304,2.1,2.45,2.135c0.818,0.013,1.64-0.034,2.454,0.017c1.889,0.117,2.968,1.033,3.007,2.491
		c0.044,1.589-1.063,2.611-3.073,2.751c-0.996,0.069-2,0.054-2.999,0.023c-1.187-0.037-1.779,0.309-1.855,1.682
		c-0.268,4.855-0.323,4.853,4.463,5.082c0.362,0.018,0.732,0.008,1.086,0.077c1.494,0.296,2.417,1.268,2.436,2.527
		c0.018,1.213-0.945,2.36-2.377,2.575c-1.069,0.16-2.175,0.086-3.264,0.115c-2.269,0.062-2.269,0.061-2.315,2.268
		c-0.093,4.327-0.093,4.327,4.23,4.479c0.363,0.013,0.731-0.006,1.088,0.051c1.641,0.264,2.665,1.297,2.641,2.631
		c-0.025,1.326-1.104,2.403-2.702,2.539c-1.174,0.101-2.361,0.066-3.543,0.049c-1.051-0.017-1.6,0.267-1.746,1.498
		c-0.432,3.622-0.914,4.07-4.735,4.625c-1.076,0.156-1.382,0.663-1.373,1.602c0.012,1.181,0.098,2.368,0.004,3.542
		c-0.141,1.76-1.281,2.931-2.664,2.904c-1.407-0.025-2.451-1.204-2.598-2.964c-0.037-0.451-0.025-0.909-0.006-1.362
		C47.397,57.818,47.241,58.605,43.656,58.52z M20.317,37.688c0.007,0,0.015,0,0.023,0c0,4.639-0.011,9.277,0.003,13.915
		c0.01,3.284,0.331,3.615,3.583,3.622c7.458,0.015,14.915,0.005,22.374,0.005c2.091,0,4.185,0.044,6.274-0.019
		c1.945-0.058,2.559-0.694,2.711-2.637c0.051-0.633,0.016-1.272,0.016-1.909c0.015-9.004,0.024-18.008,0.044-27.012
		c0.007-2.782-0.534-3.399-3.301-3.405c-9.55-0.021-19.1-0.021-28.649,0c-2.686,0.006-3.079,0.468-3.079,3.252
		C20.317,28.229,20.317,32.959,20.317,37.688z"/>
	<path fill-rule="evenodd" clip-rule="evenodd" d="M51.05,33.751c-0.301,0.697-0.775,2.062-1.469,3.303
		c-0.482,0.863-0.61,1.428-0.114,2.425c0.87,1.752,1.472,3.668,1.956,5.574c0.395,1.553-0.164,2.203-1.719,2.418
		c-1.695,0.233-3.397,0.483-5.103,0.545c-1.053,0.038-1.663,0.386-2.1,1.332c-2.232,4.85-6.984,5.268-9.55,0.119
		c-0.583-1.169-1.379-1.428-2.593-1.454c-1.615-0.036-3.235-0.298-4.833-0.576c-1.291-0.224-1.895-1.129-1.549-2.389
		c0.497-1.815,0.994-3.661,1.793-5.352c0.479-1.014,0.804-1.756-0.005-2.667c-0.236-0.266-0.382-0.616-0.546-0.939
		c-2.106-4.139-0.384-7.317,4.289-7.436c1.99-0.05,3.104-0.642,4.003-2.367c0.61-1.172,1.664-2.132,2.602-3.109
		c0.937-0.977,2.076-0.921,3.094,0.055c0.259,0.248,0.438,0.575,0.673,0.851c2.101,2.47,3.842,5.146,7.882,5.001
		C50.011,29.003,51.064,30.917,51.05,33.751z M43.303,38.362c-0.359-1.188-0.369-2.729-1.141-3.427
		c-1.221-1.104-2.952-2.258-4.467-2.256c-1.512,0.001-3.068,1.32-4.519,2.203c-1.236,0.753-0.839,2.12-0.781,3.235
		c0.063,1.206,0.008,2.833,0.726,3.498c1.266,1.173,3.067,2.371,4.666,2.401c1.479,0.028,3.174-1.253,4.412-2.359
		C42.92,41.013,42.932,39.575,43.303,38.362z M37.738,46.345c-1.078,0.38-2.039,0.657-2.933,1.076
		c-0.252,0.117-0.499,0.702-0.423,0.986c0.369,1.393,2.11,2.962,3.215,3.022c1.15,0.063,2.739-1.26,3.306-2.863
		c0.11-0.313-0.011-0.987-0.221-1.088C39.718,47.014,38.684,46.693,37.738,46.345z M45.533,30.487
		c-0.182,0.088-1.254,0.268-1.405,0.742c-0.484,1.515,1.281,4.444,2.879,5.106c0.266,0.109,0.878,0.05,0.926-0.079
		c0.478-1.316,1.274-2.692,1.182-3.994C49.012,30.834,47.464,30.533,45.533,30.487z M29.646,30.479
		c-1.385,0.049-3.09,0.102-3.304,1.684c-0.172,1.271,0.59,2.685,1.035,4.003c0.052,0.153,0.844,0.275,1.085,0.109
		c1.352-0.931,2.48-1.988,2.66-3.835C31.296,30.659,31.309,30.512,29.646,30.479z M29.583,46.311
		c1.387,0.181,1.86-0.264,1.643-1.598c-0.116-0.713-0.095-1.605-0.516-2.077c-0.861-0.964-1.979-1.699-2.991-2.53
		c-0.509,0.932-1.156,1.817-1.48,2.81C26.004,43.629,28.683,46.193,29.583,46.311z M46.035,46.342
		c1.628,0.301,1.899-1.771,2.821-2.813c0.381-0.43-0.309-1.927-0.683-2.87c-0.308-0.776-0.854-0.628-1.494-0.152
		c-1.448,1.075-2.335,2.347-2.577,4.224C43.923,46.127,44.538,46.28,46.035,46.342z M37.868,26.101
		c-0.004,0.039-0.009,0.078-0.014,0.117c-0.27,0-0.541-0.013-0.81,0.003c-1.311,0.074-3.047,1.425-2.71,2.34
		c0.225,0.609,1.281,1.104,2.049,1.271c0.904,0.197,1.935,0.131,2.843-0.095c0.679-0.169,1.824-0.912,1.765-1.154
		c-0.2-0.817-0.734-1.647-1.365-2.228C39.267,26.024,38.469,26.17,37.868,26.101z"/>
	<path fill-rule="evenodd" clip-rule="evenodd" d="M37.617,40.316c-1.126-0.15-1.773-0.807-1.835-1.936
		c-0.063-1.168,0.613-1.854,1.712-2.035c1.044-0.171,2.044,0.892,1.982,2.026C39.414,39.529,38.747,40.138,37.617,40.316z"/>
</g>
</svg>
