<?xml version="1.0" encoding="utf-8"?>
<!-- Generator: Adobe Illustrator 16.0.0, SVG Export Plug-In . SVG Version: 6.00 Build 0)  -->
<!DOCTYPE svg PUBLIC "-//W3C//DTD SVG 1.1//EN" "http://www.w3.org/Graphics/SVG/1.1/DTD/svg11.dtd">
<svg version="1.1" id="Layer_1" xmlns="http://www.w3.org/2000/svg" xmlns:xlink="http://www.w3.org/1999/xlink" x="0px" y="0px"
	 width="75px" height="75px" viewBox="0 0 75 75" enable-background="new 0 0 75 75" xml:space="preserve">
<g id="Software__x26__SaaS-2">
	<path fill-rule="evenodd" clip-rule="evenodd" d="M53.203,42.439c0,2.909-0.04,5.497,0.03,8.08c0.017,0.571,0.335,1.199,0.68,1.683
		c0.935,1.31,1.963,2.552,2.946,3.826c0.341,0.442,0.815,0.951,0.349,1.479c-0.27,0.306-0.83,0.445-1.277,0.486
		c-0.819,0.074-1.65,0.021-2.596,0.021c0,2.313,0,4.439,0,6.679c4.612,0,9.133,0,13.793,0c-0.304-0.574-0.552-1.046-0.843-1.597
		c0.235-0.272,0.453-0.523,0.67-0.774c0.257,0.054,0.516,0.03,0.649,0.147c0.839,0.739,1.668,1.492,2.464,2.277
		c0.593,0.584,0.619,1.228,0.01,1.841c-0.69,0.697-1.36,1.418-2.093,2.068c-0.486,0.432-0.528,0.386-1.676-0.363
		c0.265-0.515,0.535-1.041,0.922-1.794c-5.217-0.222-10.298,0.079-15.573-0.087c-0.365-2.738,0.024-5.456-0.246-8.32
		c-1.922-0.207-3.795-0.069-5.658-0.094c-1.888-0.024-3.776-0.005-5.908-0.005c-0.2,2.491-0.058,4.905-0.088,7.397
		c0.875,0.077,1.845-1.435,2.489,0.352c-0.539,1.23-1.669,2.086-2.716,2.974c-0.274,0.233-1.055,0.265-1.318,0.046
		c-0.908-0.755-1.715-1.641-2.51-2.523c-0.276-0.307-0.172-0.464,0.563-1.452c0.397,0.215,0.809,0.437,1.221,0.657
		c0.427-0.264,0.501-4.618,0.121-7.153c-1.514-0.327-8.273-0.404-11.275-0.101c-0.039,2.649-0.077,5.337-0.12,8.24
		c-2.723,0.027-5.289,0.056-7.855,0.078c-2.579,0.024-5.159,0.043-7.933,0.065c0.325,0.841,0.565,1.461,0.885,2.286
		c-0.62,0.038-0.978,0.152-1.27,0.06c-0.689-0.219-2.133-1.767-3.084-3.208c0.935-1.331,2.035-2.526,3.484-3.316
		c1.319,0.728,0.5,1.436,0.138,2.132c1.438,0.376,10.873,0.456,13.575,0.103c0-2.109,0-4.232,0-6.307
		c-1.332-0.696-2.949,0.409-4.091-1.003c0.641-1.559,1.827-2.761,2.879-4.02c0.954-1.142,1.447-2.283,1.365-3.803
		c-0.12-2.229-0.03-4.471-0.03-6.95c-0.924-0.024-1.738-0.098-2.548-0.058c-5.4,0.271-11.651-4.741-10.886-12.196
		c0.337-3.274,2.328-5.62,4.894-7.508c1.714-1.261,3.648-2.025,5.966-2.338c0-0.577,0.099-1.129-0.018-1.631
		c-0.612-2.669-0.042-5.116,1.256-7.456c1.288-2.321,3.345-3.712,5.709-4.726c3.576-1.531,7.181-1.622,10.771-0.077
		c2.628,1.131,4.518,3.006,5.461,5.753c0.337,0.98,0.646,1.971,1.005,3.072c2.871-0.974,5.613-0.708,8.084,1.166
		c2.401,1.821,3.441,4.323,3.474,7.458c0.757,0.281,1.557,0.499,2.281,0.865c1.363,0.688,2.801,1.307,3.999,2.226
		c4.681,3.594,3.702,10.693-0.794,13.678c-1.608,1.066-3.352,1.697-5.309,1.668C56.233,42.423,54.846,42.439,53.203,42.439z
		 M24.343,40.672c0.585-2.869-0.122-5.688,0.452-8.513c0.744-0.049,1.358-0.12,1.975-0.124c2.031-0.016,4.063-0.006,6.094-0.006
		c6.025,0,12.05-0.008,18.074,0.01c0.734,0.002,1.564-0.255,2.259,0.681c0,1.158-0.008,2.482,0.003,3.807
		c0.012,1.375,0.043,2.75,0.066,4.258c1.813,0,3.434,0.162,5.002-0.054c1.21-0.165,2.474-0.615,3.504-1.27
		c4.061-2.581,4.416-7.78,0.813-10.905c-1.17-1.013-2.492-1.794-4.043-2.11c-1.008-0.207-2.011-0.44-3.12-0.685
		c0-0.933,0.008-1.76-0.002-2.587c-0.028-2.355-1.07-4.162-3.031-5.424c-1.824-1.175-3.768-1.297-5.822-0.627
		c-0.736,0.24-1.46,0.973-2.327,0.325c-1.434-7.854-5.615-11.231-12.311-9.954c-2.839,0.542-5.3,1.726-7.003,4.176
		c-2.165,3.111-1.933,6.428-0.653,9.989c-0.704,0.207-1.276,0.505-1.855,0.522c-2.357,0.07-4.324,1.093-6.114,2.471
		c-5.179,3.992-4.383,10.808-0.077,14.088C18.582,40.536,21.232,41.083,24.343,40.672z M26.42,34.093
		c-0.384,4.504-0.23,15.264,0.216,16.675c8.174,0,16.346,0,24.484,0c0.46-1.576,0.535-14.491,0.107-16.675
		C43.014,34.093,34.779,34.093,26.42,34.093z M23.278,55.892c0.59,0.095,0.791,0.155,0.991,0.155
		c9.577,0.006,19.154,0.009,28.731-0.003c0.356,0,0.713-0.154,1.291-0.288c-0.983-1.201-1.809-2.209-2.55-3.114
		c-8.723,0-17.243,0-25.866,0C25.063,53.659,24.243,54.685,23.278,55.892z"/>
	<path fill-rule="evenodd" clip-rule="evenodd" d="M41.719,44.302c0.273-0.65,0.427-1.014,0.636-1.511
		c1.144,0.639,1.927,1.439,2.571,2.573c-0.886,0.747-1.731,1.46-2.609,2.201c-0.1-0.215-0.313-0.677-0.605-1.313
		c-2.757,0-5.6,0-8.547,0c0-0.703,0-1.236,0-1.951C35.976,44.302,38.816,44.302,41.719,44.302z"/>
	<path fill-rule="evenodd" clip-rule="evenodd" d="M33.092,38.985c0.762-0.727,1.558-1.485,2.471-2.359
		c0.209,0.493,0.406,0.957,0.658,1.548c2.729,0,5.507,0,8.465,0c0.075,0.691,0.138,1.271,0.222,2.047c-2.988,0-5.823,0-8.651,0
		c-0.255,0.552-0.443,0.957-0.705,1.523C34.711,40.803,33.983,39.986,33.092,38.985z"/>
</g>
</svg>
