<?xml version="1.0" encoding="utf-8"?>
<!-- Generator: Adobe Illustrator 16.0.0, SVG Export Plug-In . SVG Version: 6.00 Build 0)  -->
<!DOCTYPE svg PUBLIC "-//W3C//DTD SVG 1.1//EN" "http://www.w3.org/Graphics/SVG/1.1/DTD/svg11.dtd">
<svg version="1.1" id="Layer_1" xmlns="http://www.w3.org/2000/svg" xmlns:xlink="http://www.w3.org/1999/xlink" x="0px" y="0px"
	 width="75px" height="75px" viewBox="0 0 75 75" enable-background="new 0 0 75 75" xml:space="preserve">
<g id="Smart_Cities-4">
	<path fill-rule="evenodd" clip-rule="evenodd" fill="none" d="M8.102,69.521c0-20.223,0-40.446,0-60.669
		c20.223,0,40.446,0,60.669,0c0,20.223,0,40.446,0,60.669C48.548,69.521,28.324,69.521,8.102,69.521z M53.8,52.232
		c0.758,0,1.465,0,2.172,0c0.664,0.001,1.328,0.012,1.992-0.001c0.546-0.01,1.045-0.396,1.061-0.847
		c0.021-0.573-0.365-0.778-0.867-0.804c-0.575-0.029-1.151-0.038-1.728-0.042c-0.869-0.007-1.738-0.002-2.639-0.002
		c-0.023-0.477-0.044-0.786-0.052-1.097c-0.009-0.359,0.017-0.721-0.016-1.077c-0.083-0.914-0.491-1.546-1.309-1.657
		c-0.969-0.133-1.967-0.113-2.946-0.051c-0.243,0.016-0.581,0.417-0.659,0.7c-0.124,0.451,0.2,0.771,0.647,0.855
		c0.35,0.065,0.715,0.039,1.073,0.056c0.475,0.022,0.949,0.047,1.509,0.074c0,2.664,0,5.175,0,7.685
		c0,0.225,0.078,0.487-0.012,0.666c-0.169,0.333-0.376,0.701-0.671,0.907c-0.824,0.575-1.531,1.225-2.026,2.119
		c-0.147,0.268-0.511,0.56-0.795,0.583c-0.924,0.073-1.855,0.027-2.739,0.027c-0.311-1.431-0.278-13.902,0.004-14.915
		c0.119-0.026,0.248-0.083,0.375-0.079c0.904,0.021,1.58-0.323,1.895-1.204c0.323-0.902-0.132-1.548-0.751-2.132
		c-1.469-1.387-2.933-2.779-4.401-4.166c-1.208-1.14-2.412-2.284-3.636-3.407c-1-0.919-1.713-0.925-2.709-0.024
		c-0.666,0.603-1.277,1.265-1.939,1.871c-0.767,0.704-1.563,1.376-2.525,2.219c0-0.804,0-1.339,0-1.873
		c-0.003-2.561,0.017-5.121-0.014-7.682c-0.022-1.883-0.763-2.6-2.633-2.604c-4.134-0.01-8.267-0.013-12.399-0.001
		c-1.76,0.005-2.506,0.777-2.517,2.572c-0.012,1.977-0.003,3.953-0.003,5.93c0,1.159,0,2.317,0,3.449
		c-0.338,0.147-0.541,0.233-0.742,0.324c-2.624,1.187-3.645,3.371-2.898,6.137c0.4,1.487,0.261,2.863-0.597,4.236
		c-1.629,2.604-0.063,5.514,3.004,5.75c0.384,0.03,0.767,0.07,1.135,0.104c0,1.872,0,3.605,0,5.507
		c-1.057,0-2.032-0.014-3.008,0.007c-0.398,0.009-0.824,0.021-1.182,0.169c-0.235,0.097-0.541,0.463-0.511,0.662
		c0.045,0.289,0.314,0.623,0.581,0.774c0.244,0.138,0.611,0.07,0.924,0.072c1.708,0.007,3.415,0.007,5.122,0.008
		c0.27,0,0.539-0.003,0.808-0.015c0.499-0.021,0.898-0.207,0.936-0.761c0.037-0.542-0.296-0.813-0.804-0.898
		c-0.338-0.057-0.675-0.113-1.008-0.169c0-1.842,0-3.574,0-5.466c0.567,0,1.051,0.033,1.529-0.005
		c2.877-0.228,4.471-3.149,2.973-5.609c-0.904-1.484-1.145-2.908-0.65-4.591c0.625-2.131-0.249-4.326-2.005-5.425
		c-0.561-0.351-1.203-0.569-1.807-0.849c-0.288-1.985-0.184-9.248,0.146-10.134c0.087-0.023,0.173-0.066,0.26-0.066
		c4.223-0.014,8.444-0.033,12.666-0.026c0.858,0.001,0.996,0.157,1,1.06c0.015,3.459-0.003,6.918,0.013,10.377
		c0.003,0.585-0.172,1.032-0.617,1.415c-0.544,0.468-1.067,0.963-1.572,1.473c-0.523,0.528-0.653,1.191-0.394,1.869
		c0.237,0.621,0.715,1.024,1.414,1.093c0.346,0.034,0.692,0.06,1.015,0.087c0.269,1.785,0.197,13.867-0.107,14.947
		c-0.407,0-0.85,0-1.292,0c-2.247,0-4.493-0.004-6.739,0.004c-0.401,0.001-0.812,0.009-1.203,0.089
		c-0.416,0.086-0.761,0.319-0.73,0.822c0.027,0.486,0.343,0.7,0.793,0.757c0.089,0.012,0.18,0.012,0.27,0.012
		c2.92,0.002,5.84,0.024,8.76-0.008c1.037-0.012,1.657-0.552,1.923-1.561c0.112-0.426,0.151-0.883,0.152-1.325
		c0.011-4.043,0.002-8.086,0.008-12.128c0-0.524,0.05-1.048,0.074-1.539c1.832-0.264,10.699-0.193,11.716,0.096
		c0,0.421,0,0.866,0,1.312c0,4.044,0.093,8.09-0.036,12.129c-0.074,2.303,1.032,3.27,3.01,3.038c0.565-0.066,1.146-0.01,1.709-0.01
		c0.27,4.747,3.844,6.276,6.608,5.898c2.979-0.407,4.984-3.362,4.599-6.885c0.88,0,1.753,0,2.608,0
		c0.291,1.444,0.291,1.444-0.673,2.364c-1.091,1.041-1.143,2.643-0.119,3.728c1.021,1.083,2.669,1.117,3.736,0.078
		c1.077-1.05,1.097-2.629,0.022-3.735c-0.31-0.319-0.673-0.585-0.991-0.857c0-0.821-0.003-1.615,0.001-2.41
		c0.004-0.844,0.065-1.69,0.014-2.53c-0.158-2.571-1.491-3.4-3.572-3.525c-0.313-0.019-0.629-0.015-0.943-0.015
		c-1.572,0.003-3.144,0.016-4.716,0.008c-0.434-0.002-0.867-0.06-1.352-0.096C53.8,53.409,53.8,52.882,53.8,52.232z M51.198,30.375
		c-0.021,0.432-0.04,0.85-0.063,1.316c-1.211,0.05-2.27,0.374-3.2-0.688c-0.863-0.985-2.309-0.848-3.228,0.101
		c-0.916,0.945-0.894,2.335,0.053,3.249c0.955,0.922,2.393,1.02,3.232-0.017c0.68-0.838,1.426-0.941,2.345-0.884
		c0.447,0.028,0.898,0.021,1.348,0.001c0.982-0.044,1.175-0.23,1.218-1.192c0.029-0.651,0.023-1.306,0.034-1.997
		c0.796,0.066,1.399,0.115,2.075,0.171c0,0.724-0.021,1.395,0.005,2.063c0.037,0.953-0.063,1.747-0.873,2.501
		c-0.979,0.911-0.675,2.603,0.376,3.302c1.229,0.817,2.633,0.539,3.391-0.672c0.638-1.021,0.447-2.086-0.507-3.032
		c-0.268-0.266-0.638-0.589-0.661-0.907c-0.081-1.106-0.031-2.224-0.031-3.409c1.056,0.064,1.989,0.229,2.826-0.374
		c0.92-0.663,0.404-1.771,0.832-2.621c0.658,0,1.311-0.109,1.897,0.04c0.364,0.093,0.621,0.586,0.938,0.887
		c0.941,0.89,2.299,0.842,3.265-0.107c0.951-0.936,0.974-2.231,0.055-3.249c-0.806-0.893-2.438-1.039-3.258-0.068
		c-0.93,1.101-1.921,0.801-3.021,0.624c0-1.007,0-1.929,0-2.806c0.162-0.083,0.239-0.155,0.317-0.158
		c0.673-0.021,1.346-0.028,2.019-0.041c1.37-0.026,1.583-0.183,1.589-1.543c0.004-0.815,0.249-1.379,0.84-1.976
		c1.049-1.059,0.699-2.9-0.55-3.596c-1.043-0.58-2.322-0.32-3.017,0.612c-0.759,1.02-0.712,2.152,0.241,3.031
		c0.553,0.511,1.113,0.929,0.692,1.8c-0.692,0-1.392,0-2.152,0c-0.021-0.249-0.028-0.467-0.059-0.682
		c-0.189-1.351-0.671-1.784-2.021-1.815c-0.435-0.011-0.869-0.002-1.363-0.002c-0.034-0.41-0.071-0.67-0.073-0.93
		c-0.008-0.896-0.003-1.79-0.003-2.66c0.288-0.211,0.517-0.353,0.716-0.528c1.106-0.979,1.158-2.405,0.135-3.439
		c-1.019-1.029-2.427-0.957-3.418,0.176c-0.775,0.886-0.74,2.128,0.063,3.061c0.284,0.328,0.708,0.679,0.745,1.05
		c0.103,1.05,0.18,2.125-0.081,3.161c-0.682,0-1.277,0-1.96,0c0-0.826-0.013-1.542,0.003-2.257c0.016-0.671-0.354-1.009-0.96-1.073
		c-0.578-0.062-1.166-0.051-1.749-0.039c-0.859,0.017-1.581-0.006-2.231-0.843c-0.737-0.948-2.219-0.825-3.15-0.001
		c-0.913,0.809-1.069,2.195-0.248,3.143c0.975,1.123,2.261,1.366,3.624,0.07c0.274-0.261,0.591-0.592,0.928-0.646
		c0.642-0.103,1.312-0.029,1.98-0.029c0,0.69,0,1.195,0,1.671c-0.906,0.279-1.961-0.237-2.511,0.568
		c-0.448,0.658-0.585,1.529-0.875,2.346c-0.084-0.008-0.263-0.044-0.438-0.036c-1.083,0.045-2.033-0.004-2.888-0.958
		c-0.761-0.851-2.204-0.58-3.028,0.276c-0.855,0.887-0.894,2.077-0.098,3.046c0.987,1.205,2.614,1.274,3.596,0.036
		c0.457-0.575,0.912-0.784,1.585-0.728c0.478,0.039,0.957,0.044,1.482,0.066c0.023,0.483,0.054,0.836,0.055,1.188
		c0.006,1.438-0.012,2.875,0.007,4.313c0.017,1.336,0.599,1.98,1.914,2.13C50.291,30.412,50.688,30.375,51.198,30.375z
		 M41.554,56.884c0-1.303,0.032-2.606-0.011-3.907c-0.037-1.138-0.585-1.788-1.569-1.825c-1.39-0.052-2.784-0.023-4.176-0.006
		c-0.654,0.008-1.153,0.346-1.277,0.986c-0.135,0.695-0.169,1.417-0.184,2.128c-0.022,1.061,0.002,2.124,0.021,3.186
		c0.021,1.15,0.012,2.304,0.102,3.449c0.079,0.998,0.23,1.106,1.271,1.126c1.437,0.027,2.874,0.021,4.312,0.01
		c1.23-0.008,1.485-0.258,1.508-1.509C41.572,59.309,41.556,58.096,41.554,56.884z M28.364,34.705c-0.005,0-0.01,0-0.015,0
		c0-0.764,0.05-1.531-0.012-2.289c-0.089-1.09-0.893-1.776-1.989-1.796c-1.096-0.019-2.011,0.644-2.071,1.701
		c-0.087,1.521-0.072,3.054-0.004,4.577c0.039,0.881,0.494,1.078,1.961,1.082c1.516,0.003,1.98-0.24,2.106-1.121
		c0.031-0.221,0.021-0.448,0.022-0.673C28.366,35.693,28.364,35.199,28.364,34.705z M17.763,34.612c-0.002,0-0.003,0-0.005,0
		c0,0.313-0.001,0.627,0.001,0.94c0.013,2.345,0.581,2.813,2.916,2.394c0.175-0.031,0.386-0.051,0.506-0.159
		c0.249-0.226,0.629-0.501,0.638-0.768c0.055-1.564,0.112-3.141-0.021-4.697c-0.098-1.14-1.101-1.79-2.205-1.695
		c-1.041,0.089-1.753,0.832-1.822,1.969C17.729,33.266,17.763,33.939,17.763,34.612z M28.353,50.705c0,0-0.003,0-0.005,0
		c0-0.718,0.044-1.438-0.01-2.152c-0.092-1.226-0.961-2.03-2.089-2.009c-1.138,0.021-1.971,0.857-1.999,2.084
		c-0.03,1.346-0.034,2.692,0.008,4.037c0.026,0.836,0.331,1.138,1.137,1.207c0.579,0.05,1.169,0.051,1.747,0.004
		c0.889-0.071,1.153-0.361,1.205-1.287C28.381,51.963,28.353,51.333,28.353,50.705z M23.118,22.75
		c0.555-0.036,0.953-0.064,1.352-0.087c0.451-0.026,0.806-0.214,0.853-0.69c0.047-0.483-0.303-0.696-0.715-0.841
		c-0.961-0.338-2.085-0.068-2.706,0.666c-0.473,0.559-0.657,2.187-0.267,2.818c0.121,0.195,0.449,0.425,0.626,0.385
		c0.256-0.057,0.592-0.308,0.658-0.542C23.062,23.958,23.052,23.414,23.118,22.75z M20.068,66.608
		c0.63-0.069,1.263-0.072,1.851-0.236c0.267-0.074,0.601-0.453,0.627-0.722c0.042-0.416-0.285-0.755-0.755-0.764
		c-1.112-0.021-2.226-0.011-3.338-0.006c-0.478,0.002-0.759,0.29-0.814,0.728c-0.063,0.497,0.309,0.729,0.721,0.805
		C18.923,66.518,19.501,66.548,20.068,66.608z M35.985,64.871c0,0,0,0.004,0,0.006c-0.534,0-1.069-0.008-1.604,0.002
		c-0.44,0.007-0.811,0.168-0.883,0.644c-0.072,0.479,0.244,0.826,0.66,0.851c1.188,0.07,2.383,0.087,3.571,0.041
		c0.412-0.017,0.729-0.374,0.69-0.846c-0.039-0.479-0.382-0.683-0.832-0.694C37.055,64.859,36.52,64.871,35.985,64.871z
		 M43.733,66.602c0.674-0.059,1.26-0.064,1.825-0.172c0.455-0.086,0.877-0.341,0.795-0.904c-0.069-0.471-0.449-0.648-0.891-0.651
		c-1.075-0.007-2.15-0.006-3.225,0.011c-0.394,0.006-0.692,0.179-0.744,0.619c-0.057,0.474,0.154,0.813,0.604,0.903
		C42.664,66.52,43.246,66.547,43.733,66.602z M12.204,64.869c0,0.006,0,0.013,0,0.019c-0.579,0-1.171-0.069-1.733,0.029
		c-0.278,0.049-0.672,0.385-0.703,0.63c-0.031,0.256,0.293,0.788,0.491,0.803c1.229,0.092,2.47,0.117,3.701,0.061
		c0.388-0.018,0.7-0.424,0.61-0.896c-0.088-0.465-0.455-0.633-0.895-0.642C13.186,64.861,12.695,64.869,12.204,64.869z
		 M28.048,64.867c0,0.004,0,0.009,0,0.013c-0.535,0-1.07-0.013-1.605,0.004c-0.448,0.015-0.867,0.243-0.803,0.695
		c0.046,0.316,0.412,0.806,0.676,0.833c1.1,0.112,2.217,0.124,3.324,0.079c0.457-0.019,0.86-0.37,0.83-0.893
		c-0.03-0.539-0.456-0.722-0.95-0.73C29.028,64.86,28.538,64.867,28.048,64.867z M56.678,46.134c-0.002,0-0.004,0-0.007,0
		c0-0.4,0.094-0.834-0.029-1.191c-0.097-0.278-0.436-0.581-0.721-0.65c-0.2-0.048-0.64,0.226-0.716,0.444
		c-0.311,0.895-0.358,1.84,0.042,2.715c0.106,0.231,0.58,0.421,0.869,0.4c0.201-0.014,0.465-0.393,0.54-0.655
		C56.749,46.867,56.678,46.49,56.678,46.134z M56.688,41.635c0.013,0,0.025-0.001,0.038-0.001c-0.023-0.441,0.021-0.902-0.098-1.317
		c-0.069-0.243-0.377-0.539-0.617-0.578c-0.222-0.037-0.618,0.172-0.725,0.381c-0.445,0.87-0.403,1.812-0.076,2.7
		c0.088,0.237,0.575,0.499,0.829,0.456c0.249-0.042,0.512-0.428,0.626-0.719C56.771,42.288,56.688,41.945,56.688,41.635z
		 M28.19,22.642c0,0.005,0,0.01,0,0.015c0.402,0,0.823,0.07,1.201-0.024c0.252-0.063,0.576-0.336,0.624-0.565
		c0.05-0.237-0.127-0.612-0.327-0.793c-0.467-0.422-2.38-0.435-2.825-0.022c-0.202,0.188-0.4,0.548-0.356,0.785
		c0.043,0.231,0.365,0.504,0.619,0.581C27.452,22.718,27.833,22.642,28.19,22.642z M37.709,22.693
		c0.441-0.021,0.868,0.033,1.235-0.089c0.245-0.081,0.533-0.398,0.566-0.643c0.03-0.225-0.197-0.631-0.409-0.716
		c-0.895-0.362-1.839-0.438-2.724,0.021c-0.222,0.115-0.448,0.504-0.419,0.735c0.028,0.23,0.343,0.525,0.592,0.604
		C36.922,22.723,37.346,22.674,37.709,22.693z M32.992,22.698c0-0.015,0.001-0.03,0.001-0.046c0.356,0,0.743,0.087,1.06-0.025
		c0.285-0.101,0.608-0.382,0.696-0.654c0.059-0.182-0.208-0.605-0.431-0.716c-0.837-0.414-1.737-0.378-2.593-0.061
		c-0.216,0.08-0.448,0.477-0.433,0.713c0.015,0.243,0.279,0.586,0.513,0.673C32.166,22.716,32.593,22.669,32.992,22.698z"/>
	<path fill-rule="evenodd" clip-rule="evenodd" d="M53.8,52.232c0,0.649,0,1.177,0,1.817c0.484,0.036,0.918,0.094,1.352,0.096
		c1.572,0.008,3.144-0.005,4.716-0.008c0.314,0,0.63-0.004,0.943,0.015c2.081,0.125,3.414,0.954,3.572,3.525
		c0.052,0.84-0.01,1.687-0.014,2.53c-0.004,0.795-0.001,1.589-0.001,2.41c0.318,0.272,0.682,0.538,0.991,0.857
		c1.074,1.106,1.055,2.686-0.022,3.735c-1.067,1.039-2.715,1.005-3.736-0.078c-1.023-1.085-0.972-2.687,0.119-3.728
		c0.964-0.92,0.964-0.92,0.673-2.364c-0.855,0-1.729,0-2.608,0c0.386,3.522-1.62,6.478-4.599,6.885
		c-2.765,0.378-6.339-1.151-6.608-5.898c-0.563,0-1.144-0.057-1.709,0.01c-1.978,0.231-3.084-0.735-3.01-3.038
		c0.129-4.039,0.036-8.085,0.036-12.129c0-0.445,0-0.891,0-1.312c-1.017-0.289-9.884-0.359-11.716-0.096
		c-0.024,0.491-0.074,1.015-0.074,1.539c-0.006,4.042,0.003,8.085-0.008,12.128c-0.001,0.442-0.04,0.899-0.152,1.325
		c-0.266,1.009-0.886,1.549-1.923,1.561c-2.92,0.032-5.84,0.01-8.76,0.008c-0.09,0-0.181,0-0.27-0.012
		c-0.45-0.057-0.766-0.271-0.793-0.757c-0.03-0.503,0.314-0.736,0.73-0.822c0.392-0.08,0.802-0.088,1.203-0.089
		c2.246-0.008,4.492-0.004,6.739-0.004c0.442,0,0.885,0,1.292,0c0.305-1.08,0.376-13.162,0.107-14.947
		c-0.322-0.027-0.669-0.053-1.015-0.087c-0.699-0.068-1.177-0.472-1.414-1.093c-0.26-0.678-0.13-1.341,0.394-1.869
		c0.505-0.51,1.028-1.005,1.572-1.473c0.445-0.383,0.62-0.83,0.617-1.415c-0.016-3.459,0.002-6.918-0.013-10.377
		c-0.004-0.902-0.142-1.059-1-1.06c-4.222-0.007-8.443,0.013-12.666,0.026c-0.087,0-0.173,0.043-0.26,0.066
		c-0.329,0.886-0.434,8.148-0.146,10.134c0.604,0.279,1.247,0.498,1.808,0.849c1.756,1.099,2.63,3.294,2.005,5.425
		c-0.494,1.683-0.254,3.106,0.65,4.591c1.498,2.46-0.096,5.382-2.973,5.609c-0.479,0.038-0.962,0.005-1.529,0.005
		c0,1.892,0,3.624,0,5.466c0.333,0.056,0.67,0.112,1.008,0.169c0.508,0.085,0.841,0.356,0.804,0.898
		c-0.037,0.554-0.437,0.739-0.936,0.761c-0.269,0.012-0.538,0.015-0.808,0.015c-1.707-0.001-3.414-0.001-5.122-0.008
		c-0.313-0.002-0.68,0.065-0.924-0.072c-0.267-0.151-0.536-0.485-0.581-0.774c-0.03-0.199,0.275-0.565,0.511-0.662
		c0.357-0.147,0.783-0.16,1.182-0.169c0.976-0.021,1.951-0.007,3.008-0.007c0-1.901,0-3.635,0-5.507
		c-0.368-0.034-0.751-0.074-1.135-0.104c-3.067-0.236-4.633-3.146-3.004-5.75c0.857-1.373,0.997-2.749,0.597-4.236
		c-0.746-2.766,0.274-4.95,2.898-6.137c0.201-0.091,0.404-0.177,0.742-0.324c0-1.132,0-2.29,0-3.449c0-1.977-0.009-3.953,0.003-5.93
		c0.011-1.795,0.757-2.567,2.517-2.572c4.133-0.012,8.266-0.009,12.399,0.001c1.87,0.004,2.61,0.721,2.633,2.604
		c0.03,2.561,0.011,5.121,0.014,7.682c0,0.534,0,1.069,0,1.873c0.962-0.843,1.759-1.515,2.525-2.219
		c0.662-0.606,1.273-1.269,1.939-1.871c0.996-0.9,1.709-0.895,2.709,0.024c1.224,1.123,2.428,2.268,3.636,3.407
		c1.469,1.387,2.933,2.779,4.401,4.166c0.619,0.584,1.074,1.229,0.751,2.132c-0.314,0.881-0.99,1.226-1.895,1.204
		c-0.127-0.004-0.256,0.053-0.375,0.079c-0.282,1.013-0.314,13.484-0.004,14.915c0.884,0,1.815,0.046,2.739-0.027
		c0.284-0.023,0.647-0.315,0.795-0.583c0.495-0.895,1.202-1.544,2.026-2.119c0.295-0.206,0.502-0.574,0.671-0.907
		c0.09-0.179,0.012-0.441,0.012-0.666c0-2.51,0-5.021,0-7.685c-0.56-0.027-1.034-0.052-1.509-0.074
		c-0.358-0.017-0.724,0.01-1.073-0.056c-0.447-0.084-0.771-0.404-0.647-0.855c0.078-0.283,0.416-0.685,0.659-0.7
		c0.979-0.063,1.978-0.082,2.946,0.051c0.817,0.111,1.226,0.743,1.309,1.657c0.032,0.356,0.007,0.718,0.016,1.077
		c0.008,0.311,0.028,0.62,0.052,1.097c0.9,0,1.77-0.005,2.639,0.002c0.576,0.004,1.152,0.013,1.728,0.042
		c0.502,0.025,0.888,0.23,0.867,0.804c-0.016,0.451-0.515,0.837-1.061,0.847c-0.664,0.013-1.328,0.002-1.992,0.001
		C55.265,52.232,54.558,52.232,53.8,52.232z M54.235,66.269c1.732,0.199,3.939-1.338,3.966-3.843c0.022-2.228-1.65-3.95-3.869-3.939
		c-2.557,0.012-3.927,1.502-4.022,4.053C50.229,64.653,52.037,66.267,54.235,66.269z M15.39,49.907
		c-0.471-0.386-0.85-0.761-1.294-1.028c-0.162-0.098-0.527-0.006-0.707,0.127c-0.108,0.079-0.083,0.411-0.037,0.611
		c0.037,0.158,0.172,0.32,0.307,0.428c1.004,0.805,1.295,1.855,1.201,3.103c-0.031,0.419-0.259,1.158,0.463,1.191
		c0.868,0.04,0.583-0.758,0.558-1.208c-0.066-1.175,0.089-2.223,1.094-2.995c0.169-0.13,0.352-0.346,0.374-0.539
		c0.03-0.266-0.026-0.59-0.172-0.802c-0.059-0.087-0.502-0.022-0.677,0.104C16.111,49.178,15.784,49.54,15.39,49.907z M63.522,64.41
		c-0.584,0.002-0.912,0.312-0.936,0.885c-0.026,0.635,0.338,0.991,0.979,0.959c0.577-0.029,0.87-0.35,0.864-0.946
		C64.424,64.72,64.11,64.409,63.522,64.41z"/>
	<path fill-rule="evenodd" clip-rule="evenodd" d="M51.198,30.375c-0.511,0-0.907,0.037-1.294-0.007
		c-1.315-0.149-1.897-0.794-1.914-2.13c-0.019-1.438-0.001-2.875-0.007-4.313c-0.001-0.353-0.031-0.705-0.055-1.188
		c-0.525-0.022-1.005-0.027-1.482-0.066c-0.673-0.057-1.128,0.152-1.585,0.728c-0.981,1.238-2.608,1.169-3.596-0.036
		c-0.796-0.969-0.758-2.159,0.098-3.046c0.824-0.856,2.268-1.127,3.028-0.276c0.854,0.954,1.805,1.003,2.888,0.958
		c0.176-0.008,0.354,0.028,0.438,0.036c0.29-0.816,0.427-1.688,0.875-2.346c0.55-0.806,1.604-0.289,2.511-0.568
		c0-0.476,0-0.98,0-1.671c-0.669,0-1.339-0.073-1.98,0.029c-0.337,0.055-0.653,0.386-0.928,0.646
		c-1.363,1.296-2.649,1.053-3.624-0.07c-0.821-0.947-0.665-2.334,0.248-3.143c0.932-0.824,2.413-0.947,3.15,0.001
		c0.65,0.837,1.372,0.859,2.231,0.843c0.583-0.012,1.171-0.022,1.749,0.039c0.605,0.064,0.976,0.402,0.96,1.073
		c-0.016,0.715-0.003,1.431-0.003,2.257c0.683,0,1.278,0,1.96,0c0.261-1.036,0.184-2.111,0.081-3.161
		c-0.037-0.371-0.461-0.722-0.745-1.05c-0.804-0.933-0.839-2.175-0.063-3.061c0.991-1.133,2.399-1.205,3.418-0.176
		c1.023,1.034,0.972,2.461-0.135,3.439c-0.199,0.176-0.428,0.317-0.716,0.528c0,0.87-0.005,1.765,0.003,2.66
		c0.002,0.26,0.039,0.52,0.073,0.93c0.494,0,0.929-0.009,1.363,0.002c1.35,0.031,1.831,0.465,2.021,1.815
		c0.03,0.215,0.038,0.433,0.059,0.682c0.761,0,1.46,0,2.152,0c0.421-0.871-0.14-1.289-0.692-1.8c-0.953-0.879-1-2.012-0.241-3.031
		c0.694-0.933,1.974-1.192,3.017-0.612c1.249,0.695,1.599,2.537,0.55,3.596c-0.591,0.597-0.836,1.16-0.84,1.976
		c-0.006,1.36-0.219,1.517-1.589,1.543c-0.673,0.013-1.346,0.021-2.019,0.041c-0.078,0.003-0.155,0.075-0.317,0.158
		c0,0.877,0,1.799,0,2.806c1.101,0.177,2.092,0.477,3.021-0.624c0.82-0.971,2.452-0.824,3.258,0.068
		c0.919,1.018,0.896,2.313-0.055,3.249c-0.966,0.949-2.323,0.997-3.265,0.107c-0.317-0.301-0.574-0.794-0.938-0.887
		c-0.587-0.149-1.239-0.04-1.897-0.04c-0.428,0.85,0.088,1.958-0.832,2.621c-0.837,0.604-1.771,0.438-2.826,0.374
		c0,1.186-0.05,2.303,0.031,3.409c0.023,0.318,0.394,0.642,0.661,0.907c0.954,0.946,1.145,2.012,0.507,3.032
		c-0.758,1.211-2.162,1.489-3.391,0.672c-1.051-0.699-1.355-2.391-0.376-3.302c0.811-0.754,0.91-1.548,0.873-2.501
		c-0.026-0.668-0.005-1.339-0.005-2.063c-0.676-0.056-1.279-0.104-2.075-0.171c-0.011,0.691-0.005,1.346-0.034,1.997
		c-0.043,0.962-0.235,1.148-1.218,1.192c-0.449,0.021-0.9,0.027-1.348-0.001c-0.919-0.058-1.665,0.046-2.345,0.884
		c-0.84,1.036-2.277,0.938-3.232,0.017c-0.946-0.914-0.969-2.304-0.053-3.249c0.919-0.948,2.364-1.086,3.228-0.101
		c0.931,1.063,1.989,0.738,3.2,0.688C51.158,31.225,51.178,30.807,51.198,30.375z M56.87,12.264
		c-0.457-0.29-0.703-0.567-0.973-0.591c-0.42-0.037-0.595,0.319-0.576,0.713c0.019,0.393,0.215,0.736,0.642,0.624
		C56.236,12.938,56.446,12.627,56.87,12.264z"/>
	<path fill-rule="evenodd" clip-rule="evenodd" d="M41.554,56.884c0.002,1.212,0.019,2.425-0.004,3.638
		c-0.022,1.251-0.277,1.501-1.508,1.509c-1.438,0.011-2.875,0.018-4.312-0.01c-1.04-0.02-1.191-0.128-1.271-1.126
		c-0.09-1.146-0.081-2.299-0.102-3.449c-0.02-1.062-0.044-2.125-0.021-3.186c0.015-0.711,0.049-1.433,0.184-2.128
		c0.124-0.641,0.623-0.979,1.277-0.986c1.392-0.018,2.786-0.046,4.176,0.006c0.984,0.037,1.532,0.688,1.569,1.825
		C41.586,54.277,41.554,55.581,41.554,56.884z"/>
	<path fill-rule="evenodd" clip-rule="evenodd" d="M28.364,34.705c0,0.494,0.002,0.988-0.001,1.481
		c-0.002,0.225,0.009,0.452-0.022,0.673c-0.126,0.881-0.591,1.124-2.106,1.121c-1.467-0.004-1.922-0.201-1.961-1.082
		c-0.068-1.523-0.083-3.056,0.004-4.577c0.061-1.058,0.976-1.72,2.071-1.701c1.097,0.02,1.9,0.706,1.989,1.796
		c0.062,0.758,0.012,1.525,0.012,2.289C28.354,34.705,28.359,34.705,28.364,34.705z"/>
	<path fill-rule="evenodd" clip-rule="evenodd" d="M17.763,34.612c0-0.673-0.033-1.347,0.008-2.017
		c0.069-1.137,0.781-1.88,1.822-1.969c1.104-0.095,2.107,0.556,2.205,1.695c0.133,1.557,0.075,3.133,0.021,4.697
		c-0.009,0.267-0.389,0.542-0.638,0.768c-0.12,0.108-0.331,0.128-0.506,0.159c-2.335,0.419-2.903-0.049-2.916-2.394
		c-0.002-0.313-0.001-0.627-0.001-0.94C17.76,34.612,17.761,34.612,17.763,34.612z"/>
	<path fill-rule="evenodd" clip-rule="evenodd" d="M28.353,50.705c0,0.628,0.028,1.258-0.006,1.884
		c-0.052,0.926-0.316,1.216-1.205,1.287c-0.578,0.047-1.168,0.046-1.747-0.004c-0.806-0.069-1.11-0.371-1.137-1.207
		c-0.042-1.345-0.038-2.691-0.008-4.037c0.028-1.227,0.861-2.063,1.999-2.084c1.128-0.021,1.997,0.783,2.089,2.009
		c0.054,0.714,0.01,1.435,0.01,2.152C28.35,50.705,28.352,50.705,28.353,50.705z"/>
	<path fill-rule="evenodd" clip-rule="evenodd" d="M23.118,22.75c-0.066,0.664-0.057,1.208-0.199,1.709
		c-0.066,0.234-0.402,0.485-0.658,0.542c-0.177,0.04-0.505-0.189-0.626-0.385c-0.391-0.632-0.206-2.26,0.267-2.818
		c0.621-0.734,1.745-1.004,2.706-0.666c0.412,0.145,0.762,0.357,0.715,0.841c-0.047,0.477-0.401,0.664-0.853,0.69
		C24.071,22.686,23.673,22.714,23.118,22.75z"/>
	<path fill-rule="evenodd" clip-rule="evenodd" d="M20.068,66.608c-0.567-0.061-1.146-0.091-1.709-0.195
		c-0.412-0.076-0.784-0.308-0.721-0.805c0.056-0.438,0.337-0.726,0.814-0.728c1.112-0.005,2.226-0.015,3.338,0.006
		c0.47,0.009,0.797,0.348,0.755,0.764c-0.026,0.269-0.36,0.647-0.627,0.722C21.331,66.536,20.698,66.539,20.068,66.608z"/>
	<path fill-rule="evenodd" clip-rule="evenodd" d="M35.985,64.871c0.534,0,1.069-0.012,1.604,0.003
		c0.45,0.012,0.793,0.216,0.832,0.694c0.038,0.472-0.278,0.829-0.69,0.846c-1.188,0.046-2.383,0.029-3.571-0.041
		c-0.416-0.024-0.732-0.371-0.66-0.851c0.072-0.476,0.442-0.637,0.883-0.644c0.534-0.01,1.069-0.002,1.604-0.002
		C35.985,64.875,35.985,64.872,35.985,64.871z"/>
	<path fill-rule="evenodd" clip-rule="evenodd" d="M43.733,66.602c-0.487-0.055-1.069-0.082-1.635-0.194
		c-0.45-0.091-0.661-0.43-0.604-0.903c0.052-0.44,0.351-0.613,0.744-0.619c1.074-0.017,2.149-0.018,3.225-0.011
		c0.441,0.003,0.821,0.181,0.891,0.651c0.082,0.563-0.34,0.818-0.795,0.904C44.993,66.537,44.407,66.543,43.733,66.602z"/>
	<path fill-rule="evenodd" clip-rule="evenodd" d="M12.204,64.869c0.491,0,0.981-0.008,1.472,0.003
		c0.439,0.009,0.807,0.177,0.895,0.642c0.09,0.473-0.223,0.879-0.61,0.896c-1.231,0.057-2.472,0.031-3.701-0.061
		c-0.198-0.015-0.522-0.547-0.491-0.803c0.031-0.245,0.425-0.581,0.703-0.63c0.563-0.099,1.154-0.029,1.733-0.029
		C12.204,64.882,12.204,64.875,12.204,64.869z"/>
	<path fill-rule="evenodd" clip-rule="evenodd" d="M28.048,64.867c0.49,0,0.98-0.007,1.472,0.001c0.494,0.009,0.92,0.191,0.95,0.73
		c0.03,0.522-0.373,0.874-0.83,0.893c-1.107,0.045-2.225,0.033-3.324-0.079c-0.264-0.027-0.63-0.517-0.676-0.833
		c-0.064-0.452,0.354-0.681,0.803-0.695c0.535-0.017,1.07-0.004,1.605-0.004C28.048,64.876,28.048,64.871,28.048,64.867z"/>
	<path fill-rule="evenodd" clip-rule="evenodd" d="M56.678,46.134c0,0.356,0.071,0.733-0.021,1.063
		c-0.075,0.263-0.339,0.642-0.54,0.655c-0.289,0.021-0.763-0.169-0.869-0.4c-0.4-0.875-0.353-1.82-0.042-2.715
		c0.076-0.219,0.516-0.492,0.716-0.444c0.285,0.069,0.624,0.372,0.721,0.65c0.123,0.357,0.029,0.791,0.029,1.191
		C56.674,46.134,56.676,46.134,56.678,46.134z"/>
	<path fill-rule="evenodd" clip-rule="evenodd" d="M56.688,41.635c0,0.311,0.083,0.653-0.022,0.922
		c-0.114,0.291-0.377,0.677-0.626,0.719c-0.254,0.043-0.741-0.219-0.829-0.456c-0.327-0.889-0.369-1.83,0.076-2.7
		c0.106-0.209,0.503-0.418,0.725-0.381c0.24,0.039,0.548,0.335,0.617,0.578c0.119,0.415,0.074,0.876,0.098,1.317
		C56.713,41.634,56.7,41.635,56.688,41.635z"/>
	<path fill-rule="evenodd" clip-rule="evenodd" d="M28.19,22.642c-0.357,0-0.738,0.076-1.064-0.024
		c-0.254-0.077-0.576-0.35-0.619-0.581c-0.044-0.237,0.154-0.598,0.356-0.785c0.445-0.412,2.358-0.399,2.825,0.022
		c0.2,0.181,0.377,0.556,0.327,0.793c-0.048,0.229-0.372,0.502-0.624,0.565c-0.378,0.095-0.799,0.024-1.201,0.024
		C28.19,22.651,28.19,22.646,28.19,22.642z"/>
	<path fill-rule="evenodd" clip-rule="evenodd" d="M37.709,22.693c-0.363-0.02-0.787,0.029-1.158-0.087
		c-0.249-0.078-0.563-0.373-0.592-0.604c-0.029-0.231,0.197-0.62,0.419-0.735c0.885-0.46,1.829-0.384,2.724-0.021
		c0.212,0.085,0.439,0.491,0.409,0.716c-0.033,0.244-0.321,0.562-0.566,0.643C38.577,22.727,38.15,22.672,37.709,22.693z"/>
	<path fill-rule="evenodd" clip-rule="evenodd" d="M32.992,22.698c-0.399-0.029-0.826,0.018-1.187-0.116
		c-0.233-0.087-0.498-0.43-0.513-0.673c-0.016-0.236,0.217-0.633,0.433-0.713c0.855-0.317,1.756-0.354,2.593,0.061
		c0.223,0.11,0.489,0.534,0.431,0.716c-0.088,0.272-0.411,0.554-0.696,0.654c-0.316,0.112-0.703,0.025-1.06,0.025
		C32.993,22.668,32.992,22.684,32.992,22.698z"/>
	<path fill-rule="evenodd" clip-rule="evenodd" fill="none" d="M54.235,66.269c-2.198-0.002-4.006-1.615-3.926-3.729
		c0.096-2.551,1.466-4.041,4.022-4.053c2.219-0.011,3.892,1.712,3.869,3.939C58.175,64.931,55.968,66.468,54.235,66.269z
		 M56.604,62.377c0.001-1.181-1.141-2.306-2.357-2.324c-1.267-0.019-2.269,1.015-2.26,2.33c0.01,1.344,0.972,2.324,2.27,2.311
		C55.491,64.68,56.604,63.581,56.604,62.377z"/>
	<path fill-rule="evenodd" clip-rule="evenodd" fill="none" d="M15.39,49.907c0.395-0.367,0.722-0.729,1.109-1.009
		c0.175-0.126,0.618-0.19,0.677-0.104c0.146,0.212,0.202,0.536,0.172,0.802c-0.022,0.193-0.205,0.409-0.374,0.539
		c-1.005,0.772-1.16,1.82-1.094,2.995c0.025,0.45,0.311,1.248-0.558,1.208c-0.722-0.033-0.494-0.772-0.463-1.191
		c0.094-1.247-0.197-2.298-1.201-3.103c-0.135-0.107-0.27-0.27-0.307-0.428c-0.046-0.2-0.071-0.532,0.037-0.611
		c0.18-0.133,0.545-0.225,0.707-0.127C14.54,49.146,14.919,49.521,15.39,49.907z"/>
	<path fill-rule="evenodd" clip-rule="evenodd" fill="none" d="M63.522,64.41c0.588-0.001,0.901,0.31,0.907,0.897
		c0.006,0.597-0.287,0.917-0.864,0.946c-0.641,0.032-1.005-0.324-0.979-0.959C62.61,64.722,62.938,64.412,63.522,64.41z"/>
	<path fill-rule="evenodd" clip-rule="evenodd" fill="none" d="M56.87,12.264c-0.424,0.363-0.634,0.674-0.907,0.746
		c-0.427,0.112-0.623-0.231-0.642-0.624c-0.019-0.394,0.156-0.75,0.576-0.713C56.167,11.696,56.413,11.974,56.87,12.264z"/>
	<path fill-rule="evenodd" clip-rule="evenodd" d="M56.604,62.377c0,1.204-1.113,2.303-2.348,2.316
		c-1.298,0.014-2.26-0.967-2.27-2.311c-0.009-1.315,0.993-2.349,2.26-2.33C55.464,60.071,56.605,61.196,56.604,62.377z"/>
</g>
</svg>
