<?xml version="1.0" encoding="utf-8"?>
<!-- Generator: Adobe Illustrator 16.0.0, SVG Export Plug-In . SVG Version: 6.00 Build 0)  -->
<!DOCTYPE svg PUBLIC "-//W3C//DTD SVG 1.1//EN" "http://www.w3.org/Graphics/SVG/1.1/DTD/svg11.dtd">
<svg version="1.1" id="Layer_1" xmlns="http://www.w3.org/2000/svg" xmlns:xlink="http://www.w3.org/1999/xlink" x="0px" y="0px"
	 width="75px" height="75px" viewBox="0 0 75 75" enable-background="new 0 0 75 75" xml:space="preserve">
<g id="SpaceTech_-_Copy">
	<path fill-rule="evenodd" clip-rule="evenodd" d="M69.166,16.928c-1.306,1.36-2.595,2.737-3.922,4.076
		c-2.761,2.787-5.536,5.563-8.322,8.325c-1.144,1.135-2.003,1.142-3.135,0.025c-2.278-2.249-4.545-4.513-6.793-6.792
		c-1.049-1.064-1.041-1.951,0.035-3.036c3.813-3.841,7.643-7.663,11.478-11.481c0.343-0.34,0.778-0.587,1.171-0.877
		c0.181,0,0.361,0,0.542,0c0.314,0.168,0.693,0.271,0.933,0.514c2.683,2.708,5.346,5.438,8.014,8.162
		C69.166,16.205,69.166,16.565,69.166,16.928z"/>
	<path fill-rule="evenodd" clip-rule="evenodd" d="M8.168,58.407c1.306-1.36,2.595-2.738,3.922-4.077
		c2.763-2.787,5.536-5.562,8.322-8.325c1.141-1.132,2.006-1.141,3.136-0.025c2.278,2.249,4.544,4.513,6.791,6.793
		c1.05,1.066,1.042,1.95-0.034,3.034c-3.813,3.842-7.643,7.665-11.479,11.481c-0.343,0.341-0.777,0.588-1.17,0.878
		c-0.181,0-0.361,0-0.542,0c-0.314-0.168-0.693-0.271-0.933-0.514c-2.683-2.708-5.346-5.438-8.014-8.162
		C8.168,59.129,8.168,58.768,8.168,58.407z"/>
	<path fill-rule="evenodd" clip-rule="evenodd" d="M52.273,48.874c0.695,1.171,2.786,2.03,1.246,3.616
		c-1.624,1.674-2.517-0.494-3.79-1.244c-1.735,1.744-3.473,3.504-5.225,5.249c-1.395,1.39-2.165,1.205-2.734-0.658
		c-1.158-3.785-0.45-7.293,1.699-10.609c-0.799-0.77-1.571-1.513-2.441-2.353c-1.478,1.483-2.967,2.983-4.46,4.479
		c-1.847,1.848-2.25,1.852-4.087,0.066c-0.188-0.186-0.393-0.355-0.857-0.77c-0.333,0.46-0.647,0.9-0.97,1.34
		c-0.294,0.399-0.593,0.795-0.925,1.24c-1.028-1.085-1.847-1.948-2.841-2.997c0.738-0.562,1.564-1.187,2.482-1.884
		c-3.854-3.839-7.454-7.426-10.961-10.92c5.355-5.35,10.585-10.574,15.827-15.809c3.399,3.45,6.963,7.065,10.682,10.839
		c0.907-1.096,1.587-1.916,2.235-2.7c1.08,1.085,1.899,1.906,2.859,2.869c-0.747,0.553-1.606,1.188-2.465,1.824
		c0.118,0.119,0.236,0.238,0.356,0.357c0.015,0.076,0.003,0.177,0.048,0.226c2.364,2.569,2.364,2.567-0.134,5.068
		c-1.245,1.245-2.486,2.494-3.727,3.745c-0.062,0.063-0.1,0.15-0.23,0.354c0.779,0.672,1.584,1.366,2.297,1.982
		c1.721-0.569,3.499-1.449,5.36-1.689c1.776-0.23,3.67,0.045,5.454,0.395c1.636,0.32,1.814,1.287,0.649,2.479
		c-1.735,1.776-3.494,3.531-5.24,5.297C52.353,48.697,52.34,48.745,52.273,48.874z"/>
	<path fill-rule="evenodd" clip-rule="evenodd" d="M31.901,15.504c-5.179,5.182-10.305,10.311-15.425,15.433
		c-3.058-3.615-2.526-10.151,1.216-13.983C21.501,13.052,28.071,12.413,31.901,15.504z"/>
	<path fill-rule="evenodd" clip-rule="evenodd" d="M61.044,51.08c0.88,0,1.721,0,2.555,0c0.756,5.779-5.478,12.204-11.569,11.605
		c0-0.832,0-1.674,0-2.582C57.342,59.451,60.398,56.489,61.044,51.08z"/>
	<path fill-rule="evenodd" clip-rule="evenodd" d="M52.161,57.773c0-0.653-0.08-1.331,0.034-1.976
		c0.057-0.322,0.42-0.756,0.728-0.843c1.572-0.445,2.535-1.408,2.989-2.977c0.088-0.304,0.535-0.648,0.864-0.704
		c0.643-0.111,1.318-0.034,1.968-0.034C58.854,54.918,55.745,57.994,52.161,57.773z"/>
</g>
</svg>
