<?xml version="1.0" encoding="utf-8"?>
<!-- Generator: Adobe Illustrator 16.0.0, SVG Export Plug-In . SVG Version: 6.00 Build 0)  -->
<!DOCTYPE svg PUBLIC "-//W3C//DTD SVG 1.1//EN" "http://www.w3.org/Graphics/SVG/1.1/DTD/svg11.dtd">
<svg version="1.1" id="Layer_1" xmlns="http://www.w3.org/2000/svg" xmlns:xlink="http://www.w3.org/1999/xlink" x="0px" y="0px"
	 width="75px" height="75px" viewBox="0 0 75 75" enable-background="new 0 0 75 75" xml:space="preserve">
<g id="Wellbeing-3">
	<path fill-rule="evenodd" clip-rule="evenodd" d="M62.111,22.372c-5.42-8.07-13.311-12.15-23.03-12.54
		c0.51,0.19,1.08,0.21,1.63,0.31c6.67,1.21,11.78,7.091,11.96,13.73c0.2,7.14-4.41,13.22-11.31,14.74
		c-1.79,0.399-3.681,0.3-5.5,0.59c-7,1.13-12.19,7.14-12.26,14.13c-0.07,7.1,4.98,13.2,12.25,14.52
		c-0.39,0.051-0.54,0.08-0.69,0.101c-0.19,0.02-0.38,0.04-0.57,0.06c12.391,1.051,22.3-3.38,28.63-14.149
		C69.421,43.322,68.931,32.512,62.111,22.372z M37.251,56.332c-2.07,0-3.75-1.68-3.75-3.75s1.68-3.75,3.75-3.75
		c2.07,0,3.75,1.68,3.75,3.75S39.321,56.332,37.251,56.332z"/>
	<circle fill-rule="evenodd" clip-rule="evenodd" cx="37.251" cy="21.832" r="3.75"/>
	
		<circle fill-rule="evenodd" clip-rule="evenodd" fill="none" stroke="#000000" stroke-width="0.5" stroke-miterlimit="10" cx="37.376" cy="38.707" r="29.625"/>
	<path fill-rule="evenodd" clip-rule="evenodd" fill="none" stroke="#000000" stroke-miterlimit="10" d="M37.251,48.832
		c-2.07,0-3.75,1.68-3.75,3.75s1.68,3.75,3.75,3.75c2.07,0,3.75-1.68,3.75-3.75S39.321,48.832,37.251,48.832z"/>
</g>
</svg>
