<?xml version="1.0" encoding="utf-8"?>
<!-- Generator: Adobe Illustrator 16.0.0, SVG Export Plug-In . SVG Version: 6.00 Build 0)  -->
<!DOCTYPE svg PUBLIC "-//W3C//DTD SVG 1.1//EN" "http://www.w3.org/Graphics/SVG/1.1/DTD/svg11.dtd">
<svg version="1.1" id="Layer_1" xmlns="http://www.w3.org/2000/svg" xmlns:xlink="http://www.w3.org/1999/xlink" x="0px" y="0px"
	 width="60px" height="60px" viewBox="0 0 60 60" enable-background="new 0 0 60 60" xml:space="preserve">
<path fill-rule="evenodd" clip-rule="evenodd" fill="#437CCD" d="M25.612,48.562c0.717-2.3,1.453-4.663,2.187-7.019
	c-4.732-2.111-7.049-5.73-6.935-10.92c-0.896-0.128-1.795-0.258-2.692-0.384c-1.254-0.178-2.511-0.347-3.763-0.532
	c-0.244-0.036-0.349,0.023-0.443,0.266c-0.695,1.764-2.579,2.82-4.423,2.505c-1.927-0.331-3.352-1.918-3.429-3.819
	c-0.079-1.943,1.165-3.672,2.984-4.146c1.914-0.499,3.842,0.351,4.724,2.078c0.293,0.57,0.436,1.175,0.44,1.813
	c0.002,0.153,0.009,0.259,0.211,0.287c2.145,0.293,4.289,0.597,6.434,0.897c0.031,0.004,0.064-0.004,0.139-0.009
	c0.376-1.857,1.166-3.532,2.421-4.974c1.25-1.435,2.779-2.462,4.611-3.104c-0.127-0.448-0.249-0.882-0.373-1.314
	c-0.722-2.518-1.449-5.033-2.16-7.554c-0.075-0.271-0.205-0.283-0.439-0.268c-1.966,0.137-3.691-0.997-4.316-2.818
	c-0.61-1.783,0.043-3.755,1.599-4.823c1.95-1.34,4.655-0.795,5.909,1.19c1.281,2.028,0.655,4.678-1.393,5.889
	c-0.14,0.082-0.284,0.156-0.465,0.256c0.873,3.036,1.746,6.078,2.631,9.158c1.945-0.429,3.858-0.354,5.738,0.272
	c1.884,0.626,3.463,1.712,4.771,3.234c0.736-0.539,1.457-1.068,2.195-1.61c-0.745-1.337-0.899-2.716-0.356-4.14
	c0.424-1.106,1.182-1.928,2.231-2.479c2.054-1.078,4.626-0.438,5.979,1.485c1.327,1.884,1.061,4.497-0.606,6.083
	c-1.693,1.61-4.565,1.865-6.625-0.128c-0.717,0.525-1.439,1.056-2.189,1.606c1.338,2.001,1.972,4.192,1.843,6.582
	c-0.129,2.382-0.995,4.483-2.541,6.329c1.525,1.413,3.039,2.815,4.551,4.215c2.546-2.025,5.755-1.242,7.317,0.795
	c1.531,1.996,1.343,4.859-0.47,6.674c-1.788,1.788-4.666,1.948-6.675,0.38c-2.013-1.571-2.678-4.634-0.88-7.098
	c-1.512-1.399-3.026-2.802-4.544-4.208c-2.888,2.594-6.206,3.447-9.999,2.614c-0.03,0.073-0.072,0.156-0.101,0.245
	c-0.687,2.199-1.366,4.402-2.061,6.6c-0.076,0.241-0.033,0.35,0.189,0.478c1.684,0.97,2.481,2.891,1.985,4.729
	c-0.497,1.838-2.138,3.105-4.044,3.123c-2.147,0.02-3.926-1.59-4.193-3.796c-0.245-2.025,1.159-4.029,3.189-4.481
	C24.347,48.596,24.951,48.616,25.612,48.562z M31.454,41.108c5.261,0.009,9.573-4.263,9.583-9.49
	c0.011-5.351-4.255-9.644-9.601-9.641c-5.278,0.004-9.631,4.369-9.536,9.74C21.993,37.023,26.399,41.146,31.454,41.108z
	 M51.383,46.577c0.039-2.177-1.749-4.029-3.924-4.066c-2.266-0.038-4.078,1.711-4.136,3.992c-0.054,2.162,1.769,4.032,3.965,4.07
	C49.518,50.611,51.344,48.829,51.383,46.577z M49.446,20.69c0.004-2.028-1.612-3.669-3.627-3.68
	c-2.035-0.012-3.692,1.626-3.695,3.649c-0.003,2.009,1.651,3.672,3.648,3.669C47.797,24.325,49.442,22.696,49.446,20.69z
	 M24.756,5.01c-1.731,0.002-3.164,1.436-3.167,3.169c-0.003,1.752,1.447,3.204,3.183,3.187c1.749-0.018,3.165-1.433,3.171-3.17
	C27.949,6.449,26.508,5.008,24.756,5.01z M21.589,52.788c0,1.754,1.437,3.188,3.187,3.183c1.746-0.004,3.183-1.458,3.168-3.203
	c-0.015-1.732-1.444-3.146-3.188-3.154C23.035,49.605,21.59,51.056,21.589,52.788z M10.18,31.497c1.684,0.01,3.05-1.35,3.062-3.052
	c0.013-1.664-1.346-3.031-3.029-3.05c-1.675-0.018-3.064,1.337-3.077,3.001C7.122,30.116,8.468,31.486,10.18,31.497z"/>
<path fill-rule="evenodd" clip-rule="evenodd" fill="#437CCD" d="M35.935,37.488c-2.903,0-5.768,0-8.65,0
	c-0.007-0.111-0.019-0.206-0.019-0.301c0-1.538,0.004-3.077-0.003-4.615c-0.001-0.199,0.052-0.308,0.242-0.391
	c2.709-1.173,5.416-1.185,8.132-0.025c0.221,0.094,0.307,0.205,0.304,0.452C35.93,34.222,35.935,35.834,35.935,37.488z
	 M28.292,36.446c2.226,0,4.412,0,6.616,0c0-1.124,0.005-2.217-0.011-3.309c-0.001-0.087-0.127-0.216-0.223-0.25
	c-2.05-0.753-4.103-0.75-6.157-0.009c-0.171,0.062-0.232,0.146-0.229,0.327c0.01,0.703,0.004,1.406,0.004,2.11
	C28.292,35.691,28.292,36.066,28.292,36.446z"/>
<path fill-rule="evenodd" clip-rule="evenodd" fill="#437CCD" d="M34.989,27.834c-0.001,1.907-1.496,3.402-3.401,3.401
	c-1.881-0.001-3.383-1.51-3.377-3.394c0.005-1.884,1.507-3.389,3.386-3.389C33.477,24.453,34.989,25.961,34.989,27.834z
	 M33.963,27.839c-0.007-1.315-1.07-2.373-2.378-2.36c-1.314,0.012-2.36,1.077-2.35,2.393c0.011,1.292,1.073,2.349,2.363,2.349
	C32.903,30.22,33.97,29.146,33.963,27.839z"/>
</svg>
