<?xml version="1.0" encoding="utf-8"?>
<!-- Generator: Adobe Illustrator 16.0.0, SVG Export Plug-In . SVG Version: 6.00 Build 0)  -->
<!DOCTYPE svg PUBLIC "-//W3C//DTD SVG 1.1//EN" "http://www.w3.org/Graphics/SVG/1.1/DTD/svg11.dtd">
<svg version="1.1" id="Layer_1" xmlns="http://www.w3.org/2000/svg" xmlns:xlink="http://www.w3.org/1999/xlink" x="0px" y="0px"
	 width="60px" height="60px" viewBox="0 0 60 60" enable-background="new 0 0 60 60" xml:space="preserve">
<path fill-rule="evenodd" clip-rule="evenodd" fill="#437CCD" d="M43.607,42.274c1.637,0,3.188,0,4.871,0c0-1.027,0-1.99,0-2.954
	c-0.001-2.883,0.047-5.767-0.035-8.647c-0.021-0.681-0.4-1.4-0.769-2.007c-0.461-0.764-1.046-1.001-2.093-0.687
	c-2.272,0.683-6.454-2.976-6.338-5.364c0.12-2.46,2.814-4,4.894-2.682c1.202,0.762,2.347,1.719,3.249,2.811
	c0.521,0.632,0.759,1.734,0.666,2.574c-0.086,0.783-0.029,1.31,0.561,1.752c1.399,1.049,1.667,2.45,1.609,4.125
	c-0.111,3.261-0.032,6.526-0.032,9.791c0,0.415,0,0.827,0,1.356c0.796,0,1.463,0.009,2.129-0.002
	c0.938-0.018,1.411,0.398,1.405,1.37c-0.015,2.84-0.022,5.681,0.006,8.521c0.01,1.119-0.602,1.313-1.548,1.312
	c-8.012-0.018-16.023-0.01-24.036-0.01c-6.443,0-12.888,0.002-19.33-0.001c-1.564-0.001-1.655-0.095-1.658-1.671
	c-0.004-2.543-0.002-5.086-0.001-7.631c0.001-1.799,0.071-1.867,1.853-1.891c0.334-0.004,0.668-0.027,1.092-0.046
	c0.305-5.398,2.529-9.781,6.881-13.006c3.146-2.333,6.719-3.379,10.605-3.208C35.379,26.425,42.837,32.276,43.607,42.274z
	 M11.837,42.238c10.024,0,19.949,0,29.873,0c0.095-6.766-5.698-14.474-14.85-14.516C17.579,27.68,11.773,35.531,11.837,42.238z
	 M8.855,44.164c0,2.58,0,5.058,0,7.57c14.388,0,28.69,0,43.02,0c0-2.563,0-5.041,0-7.57C37.528,44.164,23.254,44.164,8.855,44.164z
	 M45.05,26.501c0.413-0.332,1.07-0.604,1.222-1.047c0.17-0.501,0.086-1.329-0.242-1.71c-0.733-0.857-1.646-1.581-2.563-2.254
	c-0.726-0.533-1.538-0.49-2.138,0.267c-0.573,0.725-0.576,1.518,0.114,2.165c0.8,0.751,1.658,1.443,2.521,2.123
	C44.212,26.24,44.566,26.304,45.05,26.501z"/>
<path fill-rule="evenodd" clip-rule="evenodd" fill="#437CCD" d="M36.254,15.046c0.006,5.253-4.334,9.546-9.678,9.575
	c-5.412,0.029-9.728-4.309-9.734-9.784c-0.005-5.219,4.373-9.558,9.686-9.597C31.909,5.201,36.249,9.575,36.254,15.046z
	 M26.543,6.977c-4.389,0.005-7.957,3.524-7.971,7.857c-0.016,4.497,3.567,8.135,8.002,8.129c4.356-0.006,8.069-3.712,8.039-8.021
	C34.581,10.572,30.934,6.972,26.543,6.977z"/>
</svg>
