<?xml version="1.0" encoding="utf-8"?>
<!-- Generator: Adobe Illustrator 16.0.0, SVG Export Plug-In . SVG Version: 6.00 Build 0)  -->
<!DOCTYPE svg PUBLIC "-//W3C//DTD SVG 1.1//EN" "http://www.w3.org/Graphics/SVG/1.1/DTD/svg11.dtd">
<svg version="1.1" id="Layer_1" xmlns="http://www.w3.org/2000/svg" xmlns:xlink="http://www.w3.org/1999/xlink" x="0px" y="0px"
	 width="60px" height="60px" viewBox="0 0 60 60" enable-background="new 0 0 60 60" xml:space="preserve">
<path fill-rule="evenodd" clip-rule="evenodd" fill="#437CCD" d="M9.197,7.962c0-0.849-0.009-1.589,0.002-2.328
	c0.011-0.698,0.281-0.975,0.979-0.98c1.523-0.01,3.049-0.01,4.572-0.002c0.707,0.005,0.972,0.27,0.982,0.971
	c0.014,0.756,0.004,1.511,0.004,2.303c9.922,0,19.76,0,29.729,0c0-0.664-0.003-1.331,0-1.997c0.003-1.11,0.175-1.279,1.298-1.279
	c1.401,0,2.802-0.004,4.202,0.001c0.771,0.003,1.035,0.269,1.045,1.042c0.012,0.72,0.004,1.44,0.004,2.236
	c0.255,0.012,0.472,0.031,0.688,0.032c2.534,0.027,4.252,1.748,4.254,4.294c0.009,5.067,0.003,10.133,0.003,15.2
	c0,7.416,0.002,14.83-0.003,22.246c0,2.054-1.056,3.591-2.87,4.146c-0.444,0.136-0.928,0.199-1.394,0.2
	c-14.749,0.009-29.499,0.009-44.247,0.004c-2.41,0-4.188-1.767-4.189-4.173c-0.007-12.584-0.007-25.169,0-37.752
	c0-2.383,1.76-4.139,4.129-4.166C8.627,7.959,8.869,7.962,9.197,7.962z M5.846,19.468c0,0.315-0.001,0.558,0,0.801
	c0.004,2.678,0.01,5.354,0.01,8.032c-0.002,7.106-0.009,14.212-0.009,21.317c0,1.834,1.012,2.845,2.819,2.845
	c14.564-0.001,29.127-0.001,43.691-0.001c2.043,0,2.993-0.938,2.993-2.972c0.003-9.762,0.002-19.524,0-29.285
	c0-0.238-0.024-0.478-0.039-0.737C38.813,19.468,22.381,19.468,5.846,19.468z M45.464,9.591c-9.942,0-19.796,0-29.726,0
	c0,1.273,0.003,2.502,0,3.733c-0.003,0.965-0.207,1.172-1.15,1.174c-1.339,0.003-2.678,0.001-4.016,0.001
	c-1.225,0-1.374-0.153-1.375-1.39c-0.002-1.165,0-2.333,0-3.483c-2.055-0.32-3.344,0.764-3.352,2.738
	c-0.006,1.605,0.023,3.214-0.014,4.819c-0.014,0.566,0.184,0.672,0.707,0.671c16.022-0.013,32.046-0.01,48.068-0.01
	c0.221,0,0.442,0,0.688,0c0.023-0.233,0.055-0.393,0.055-0.553c0.003-1.689,0.02-3.378-0.004-5.067
	c-0.025-1.877-1.398-2.958-3.261-2.597c-0.017,0.035-0.046,0.071-0.046,0.108c-0.01,1.193-0.016,2.388-0.022,3.582
	c-0.008,0.945-0.235,1.178-1.161,1.18c-1.215,0.003-2.43,0.001-3.646,0.001c-1.743,0-1.747-0.005-1.746-1.761
	C45.466,11.695,45.464,10.649,45.464,9.591z M14.098,12.884c0-2.231,0-4.398,0-6.637c-0.94,0-1.841,0.023-2.738-0.01
	c-0.479-0.018-0.586,0.167-0.58,0.611c0.021,1.83,0.008,3.659,0.011,5.49c0,0.176,0.032,0.352,0.05,0.545
	C11.941,12.884,12.985,12.884,14.098,12.884z M47.126,6.249c0,2.279,0,4.446,0,6.628c1.104,0,2.146,0,3.271,0
	c0-2.123,0.004-4.218-0.015-6.312c-0.001-0.107-0.22-0.299-0.341-0.302C49.08,6.238,48.116,6.249,47.126,6.249z"/>
<path fill-rule="evenodd" clip-rule="evenodd" fill="#437CCD" d="M39.447,44.806c0.163-1,0.367-2.094,0.501-3.194
	c0.034-0.273-0.086-0.645-0.271-0.851c-0.669-0.755-1.418-1.438-2.084-2.194c-0.2-0.229-0.372-0.659-0.29-0.912
	c0.081-0.254,0.473-0.509,0.769-0.57c0.925-0.196,1.866-0.313,2.804-0.437c0.402-0.053,0.662-0.193,0.832-0.599
	c0.383-0.908,0.825-1.79,1.242-2.687c0.171-0.373,0.402-0.766,0.85-0.646c0.307,0.08,0.646,0.357,0.796,0.64
	c0.479,0.885,0.893,1.805,1.293,2.728c0.162,0.377,0.408,0.513,0.79,0.562c0.896,0.114,1.799,0.224,2.681,0.414
	c0.341,0.073,0.804,0.305,0.898,0.572s-0.123,0.742-0.346,1.004c-0.614,0.718-1.286,1.39-1.972,2.042
	c-0.324,0.31-0.403,0.619-0.325,1.04c0.181,0.993,0.363,1.987,0.473,2.986c0.033,0.303-0.077,0.777-0.286,0.907
	c-0.246,0.153-0.721,0.119-1.01-0.017c-0.872-0.414-1.709-0.903-2.544-1.391c-0.32-0.188-0.577-0.198-0.904-0.009
	c-0.87,0.509-1.754,0.997-2.647,1.464C39.998,46.021,39.425,45.659,39.447,44.806z M46.287,43.496
	c-0.122-0.765-0.193-1.415-0.336-2.05c-0.134-0.602-0.025-1.068,0.449-1.492c0.491-0.438,0.927-0.942,1.479-1.509
	c-0.818-0.131-1.46-0.263-2.11-0.324c-0.537-0.05-0.857-0.308-1.065-0.79c-0.264-0.614-0.563-1.215-0.909-1.953
	c-0.364,0.766-0.682,1.4-0.969,2.048c-0.187,0.421-0.489,0.624-0.939,0.684c-0.684,0.088-1.362,0.208-2.182,0.337
	c0.558,0.575,1.001,1.079,1.495,1.529c0.451,0.409,0.555,0.867,0.435,1.442c-0.137,0.646-0.221,1.303-0.347,2.084
	c0.64-0.351,1.162-0.595,1.638-0.909c0.583-0.387,1.11-0.415,1.704-0.015C45.116,42.907,45.662,43.154,46.287,43.496z"/>
<path fill-rule="evenodd" clip-rule="evenodd" fill="#437CCD" d="M29.816,49.155c5.313,0,10.625,0,15.938,0.001
	c0.204,0,0.416-0.021,0.616,0.016c0.443,0.081,0.695,0.372,0.678,0.82c-0.018,0.417-0.26,0.688-0.688,0.742
	c-0.205,0.023-0.412,0.019-0.617,0.019c-10.646,0-21.293,0-31.938,0c-0.948,0-1.277-0.198-1.293-0.771
	c-0.016-0.592,0.359-0.826,1.304-0.826C19.149,49.156,24.482,49.155,29.816,49.155z"/>
<path fill-rule="evenodd" clip-rule="evenodd" fill="#437CCD" d="M42.947,30.967c-1.029,0-2.059,0.016-3.086-0.005
	c-0.775-0.016-1-0.25-1.002-1.002c-0.005-2.059-0.004-4.117,0.008-6.175c0.003-0.7,0.277-0.984,0.966-0.986
	c2.099-0.009,4.198-0.009,6.299,0c0.63,0.002,0.923,0.277,0.929,0.898c0.018,2.12,0.021,4.24,0.012,6.36
	c-0.003,0.635-0.276,0.902-0.914,0.911c-1.071,0.018-2.142,0.006-3.211,0.006C42.947,30.97,42.947,30.968,42.947,30.967z
	 M40.492,29.387c1.159,0,2.287,0,3.414,0c1.471,0,1.471,0,1.547-1.431c0-0.021,0.005-0.041,0.005-0.06
	c0.002-1.149,0.002-2.297,0.002-3.472c-1.692,0-3.308,0-4.968,0C40.492,26.075,40.492,27.69,40.492,29.387z"/>
<path fill-rule="evenodd" clip-rule="evenodd" fill="#437CCD" d="M33.887,26.937c0,1.029,0.008,2.058-0.003,3.086
	c-0.009,0.69-0.302,0.966-0.996,0.966c-2.037-0.003-4.073-0.009-6.11-0.016c-0.848-0.004-1.104-0.251-1.105-1.11
	c-0.006-2.016,0.002-4.034,0.012-6.051c0.005-0.756,0.256-1.013,0.994-1.016c2.059-0.006,4.118-0.006,6.177,0
	c0.769,0.003,1.018,0.26,1.023,1.053c0.007,1.028,0.001,2.059,0.001,3.088C33.882,26.937,33.885,26.937,33.887,26.937z
	 M32.251,24.438c-1.69,0-3.304,0-4.904,0c0,1.664,0,3.277,0,4.885c1.667,0,3.277,0,4.904,0
	C32.251,27.669,32.251,26.073,32.251,24.438z"/>
<path fill-rule="evenodd" clip-rule="evenodd" fill="#437CCD" d="M33.879,38.367c0,1.05,0.008,2.099-0.003,3.147
	c-0.008,0.725-0.284,1.006-1.016,1.01c-2.058,0.007-4.114,0.009-6.171,0.001c-0.724-0.005-0.998-0.281-1.003-1.021
	c-0.015-2.097-0.019-4.192-0.017-6.291c0-0.564,0.305-0.897,0.871-0.9c2.16-0.015,4.319-0.013,6.478,0.001
	c0.58,0.005,0.865,0.348,0.869,0.969c0.006,1.028,0.001,2.056,0.001,3.084C33.887,38.367,33.882,38.367,33.879,38.367z
	 M32.283,40.873c0-1.564,0.012-3.084-0.018-4.601c-0.004-0.122-0.271-0.333-0.424-0.339c-0.78-0.035-1.563-0.018-2.346-0.018
	c-0.713,0-1.427,0-2.162,0c0,1.702,0,3.316,0,4.957C28.992,40.873,30.605,40.873,32.283,40.873z"/>
<path fill-rule="evenodd" clip-rule="evenodd" fill="#437CCD" d="M20.682,38.368c0,1.052,0.007,2.102-0.004,3.151
	c-0.006,0.741-0.26,1.001-1.012,1.005c-2.059,0.009-4.117,0.01-6.177,0c-0.704-0.004-0.979-0.283-0.983-0.975
	c-0.01-2.099-0.012-4.198-0.007-6.3c0.002-0.614,0.294-0.923,0.907-0.927c2.12-0.017,4.24-0.02,6.361-0.009
	c0.658,0.003,0.908,0.295,0.91,0.968c0.002,1.028,0,2.057,0,3.086C20.68,38.368,20.68,38.368,20.682,38.368z M14.125,40.871
	c1.677,0,3.291,0,4.957,0c0-1.567,0.011-3.088-0.019-4.607c-0.003-0.12-0.274-0.327-0.427-0.336
	c-0.678-0.035-1.358-0.012-2.037-0.011c-0.815,0-1.632,0-2.475,0C14.125,37.608,14.125,39.207,14.125,40.871z"/>
<path fill-rule="evenodd" clip-rule="evenodd" fill="#437CCD" d="M16.576,30.965c-1.068,0-2.139,0.002-3.208,0
	c-0.587-0.001-0.868-0.325-0.869-0.888c-0.003-2.139,0.001-4.278,0.009-6.418c0.002-0.582,0.324-0.862,0.896-0.864
	c2.14-0.001,4.279-0.003,6.419,0.003c0.545,0.001,0.851,0.287,0.854,0.835c0.012,2.161,0.018,4.32,0.015,6.479
	c-0.002,0.584-0.339,0.855-0.904,0.857c-1.069,0.003-2.14,0-3.21,0C16.576,30.968,16.576,30.967,16.576,30.965z M19.033,29.337
	c0-1.677,0-3.291,0-4.895c-1.67,0-3.282,0-4.904,0c0,1.654,0,3.252,0,4.895C15.775,29.337,17.39,29.337,19.033,29.337z"/>
</svg>
