<?xml version="1.0" encoding="utf-8"?>
<!-- Generator: Adobe Illustrator 16.0.0, SVG Export Plug-In . SVG Version: 6.00 Build 0)  -->
<!DOCTYPE svg PUBLIC "-//W3C//DTD SVG 1.1//EN" "http://www.w3.org/Graphics/SVG/1.1/DTD/svg11.dtd">
<svg version="1.1" id="Layer_1" xmlns="http://www.w3.org/2000/svg" xmlns:xlink="http://www.w3.org/1999/xlink" x="0px" y="0px"
	 width="60px" height="60px" viewBox="0 0 60 60" enable-background="new 0 0 60 60" xml:space="preserve">
<path fill-rule="evenodd" clip-rule="evenodd" fill="#437CCD" d="M25.267,36.591c-5.324-4.126-4.751-10.833-1.144-14.347
	c3.631-3.535,9.663-3.439,13.184,0.215c3.394,3.521,3.9,10.023-1.231,14.022c1.209,0.748,2.521,1.407,3.657,2.295
	c3.101,2.423,4.642,5.687,4.803,9.605c0.031,0.771,0.008,1.547,0.004,2.32c-0.009,1.076-0.366,1.44-1.436,1.442
	c-2.905,0.005-5.813,0.002-8.723,0.002c-4.8,0-9.601-0.004-14.401,0.001c-3.564,0.006-3.296,0.284-3.301-3.344
	c-0.002-1.981,0.4-3.865,1.269-5.643c1.412-2.896,3.615-4.968,6.573-6.243C24.76,36.814,24.998,36.707,25.267,36.591z
	 M30.556,49.885c3.653,0,7.308-0.002,10.96,0.005c0.437,0.001,0.76,0,0.766-0.608c0.047-3.715-1.319-6.752-4.29-9.017
	c-3.218-2.455-6.963-2.51-10.626-1.813c-5.213,0.993-8.477,5.39-8.433,10.648c0.005,0.654,0.213,0.801,0.823,0.797
	C23.357,49.873,26.956,49.885,30.556,49.885z M37.611,29.015c0.078-3.828-3.084-7.062-6.948-7.104
	c-3.807-0.044-6.988,3.074-7.061,6.918c-0.07,3.788,3.033,6.997,6.876,7.102C34.297,36.034,37.532,32.898,37.611,29.015z"/>
<path fill-rule="evenodd" clip-rule="evenodd" fill="#437CCD" d="M30.646,5.667C42.5,5.699,52.33,14.458,53.687,26.259
	c0.643,5.591-0.642,10.739-3.716,15.447c-0.505,0.771-1.118,0.989-1.729,0.616c-0.626-0.382-0.692-1.083-0.177-1.876
	c5.341-8.224,4.616-18.597-2.073-25.693c-5.873-6.228-13.179-8.319-21.386-5.841c-8.226,2.483-13.138,8.254-14.657,16.729
	c-0.954,5.322,0.255,10.27,3.2,14.795c0.519,0.794,0.456,1.5-0.168,1.882c-0.617,0.376-1.207,0.167-1.72-0.613
	C1.632,27.046,10.826,7.607,28.25,5.793C29.044,5.711,29.846,5.707,30.646,5.667z"/>
<path fill-rule="evenodd" clip-rule="evenodd" fill="#437CCD" d="M46.887,28.736c0.007,2.076-0.375,4.293-1.271,6.413
	c-0.382,0.902-0.959,1.247-1.632,0.972c-0.688-0.284-0.861-0.921-0.496-1.823c2.463-6.078,0.662-12.649-4.549-16.597
	c-8.269-6.262-20.535-1.274-22.119,8.984c-0.415,2.68-0.103,5.261,0.972,7.747c0.234,0.542,0.296,1.116-0.228,1.434
	c-0.349,0.212-0.906,0.261-1.304,0.15c-0.274-0.078-0.501-0.526-0.641-0.855c-3.09-7.302-0.365-15.837,6.38-20.025
	C32.709,8.484,46.33,15.81,46.887,28.736z"/>
</svg>
