<?xml version="1.0" encoding="utf-8"?>
<!-- Generator: Adobe Illustrator 16.0.0, SVG Export Plug-In . SVG Version: 6.00 Build 0)  -->
<!DOCTYPE svg PUBLIC "-//W3C//DTD SVG 1.1//EN" "http://www.w3.org/Graphics/SVG/1.1/DTD/svg11.dtd">
<svg version="1.1" id="Layer_1" xmlns="http://www.w3.org/2000/svg" xmlns:xlink="http://www.w3.org/1999/xlink" x="0px" y="0px"
	 width="60px" height="60px" viewBox="0 0 60 60" enable-background="new 0 0 60 60" xml:space="preserve">
<path fill-rule="evenodd" clip-rule="evenodd" fill="#437CCD" d="M55.224,37.863c-0.183,0.022-0.354,0.086-0.505,0.057
	c-1.054-0.205-1.485,0.278-1.876,1.255c-3.754,9.382-12.83,15.355-23.08,15.272c-9.837-0.08-18.845-6.345-22.406-15.635
	c-0.271-0.708-0.596-1.007-1.33-0.892c-0.274,0.042-0.562,0.007-0.881,0.007c0-5.423,0-10.763,0-16.212
	c0.426,0,0.85-0.031,1.268,0.009c0.509,0.049,0.742-0.146,0.931-0.629c1.924-4.908,5.096-8.819,9.52-11.687
	c12.92-8.37,30.271-2.882,36.021,11.408c0.299,0.738,0.652,1.013,1.398,0.905c0.299-0.042,0.606-0.007,0.94-0.007
	C55.224,27.149,55.224,32.491,55.224,37.863z M6.244,36.771c16.005,0,31.919,0,47.838,0c0-4.666,0-9.28,0-13.901
	c-15.979,0-31.892,0-47.838,0C6.244,27.524,6.244,32.124,6.244,36.771z M19.304,41.97c-0.018,0.145-0.048,0.218-0.033,0.281
	c0.73,3.036,1.455,6.073,2.217,9.102c0.054,0.216,0.351,0.461,0.583,0.528c1.417,0.41,2.835,0.836,4.279,1.134
	c1.053,0.218,2.144,0.249,3.222,0.363c0-4.188,0-8.21,0-12.28C26.084,41.091,22.682,41.402,19.304,41.97z M30.785,41.174
	c0,4.034,0,8.073,0,12.106c1.693,0.145,5.025-0.485,7.397-1.342c0.43-0.154,0.663-0.376,0.771-0.82
	c0.56-2.268,1.15-4.528,1.71-6.798c0.186-0.753,0.308-1.522,0.457-2.271C39.455,41.521,32.268,40.924,30.785,41.174z M19.287,17.852
	c1.815,0.586,9.182,1.16,10.292,0.857c0-4.019,0-8.039,0-12.124c-2.474,0.051-4.822,0.495-7.101,1.312
	c-0.146,0.052-0.292,0.25-0.34,0.41C21.183,11.473,20.242,14.643,19.287,17.852z M41.075,18.099
	c-0.783-2.795-1.451-5.325-2.203-7.831c-0.746-2.492-0.772-2.523-3.333-3.063c-1.549-0.326-3.13-0.495-4.758-0.744
	c0,4.232,0,8.271,0,12.504C34.182,18.68,37.517,18.398,41.075,18.099z M18.21,17.85c0.871-3.168,1.702-6.187,2.557-9.292
	c-3.789,1.697-6.869,4.147-9.439,7.563C13.705,16.719,15.94,17.28,18.21,17.85z M39.581,8.557c0.868,3.146,1.7,6.166,2.561,9.293
	c2.27-0.58,4.509-1.15,6.872-1.754C46.422,12.689,43.357,10.242,39.581,8.557z M49.031,43.798c-2.33-0.586-4.525-1.138-6.712-1.688
	c-0.725,3.072-1.411,5.977-2.122,8.978C43.735,49.378,46.603,47.023,49.031,43.798z M18.029,42.104
	c-2.216,0.563-4.398,1.115-6.624,1.679c1.489,2.576,6.781,6.866,8.712,7.155C19.436,48.054,18.752,45.163,18.029,42.104z
	 M8.203,37.927c0.606,1.746,1.389,3.288,2.36,4.73c0.086,0.127,0.455,0.151,0.659,0.097c1.383-0.363,2.752-0.78,4.135-1.144
	c0.823-0.216,1.662-0.37,2.539-0.56c-0.126-0.878-0.267-1.699-0.355-2.522c-0.052-0.48-0.258-0.617-0.734-0.612
	c-2.41,0.023-4.821,0.011-7.231,0.011C9.15,37.927,8.726,37.927,8.203,37.927z M52.229,38.146c-0.063-0.072-0.127-0.145-0.189-0.216
	c-2.93,0-5.858-0.004-8.788,0.014c-0.128,0.001-0.344,0.189-0.366,0.318c-0.165,0.909-0.291,1.825-0.422,2.703
	c0.099,0.074,0.133,0.117,0.175,0.128c2.212,0.58,4.421,1.163,6.639,1.718c0.163,0.04,0.483-0.081,0.561-0.221
	C50.653,41.12,51.436,39.63,52.229,38.146z M42.305,19.007c0.112,0.665,0.263,1.362,0.343,2.067c0.058,0.509,0.268,0.659,0.78,0.654
	c2.669-0.027,5.338-0.012,8.007-0.015c0.176,0,0.353-0.038,0.742-0.083c-0.827-1.531-1.584-2.951-2.373-4.354
	c-0.069-0.121-0.368-0.217-0.521-0.177C46.986,17.713,44.697,18.349,42.305,19.007z M18.06,18.967
	c-2.06-0.53-4.006-1.001-5.934-1.535c-1.481-0.411-1.496-0.461-2.242,0.912C9.31,19.4,8.809,20.497,8.208,21.712
	c3.142,0,6.074,0.004,9.005-0.014c0.136-0.001,0.364-0.164,0.391-0.288C17.78,20.601,17.913,19.781,18.06,18.967z M18.991,40.732
	c3.615-0.306,7.096-0.601,10.578-0.896c0-0.601,0-1.231,0-1.843c-3.692,0-7.326,0-11.012,0
	C18.714,38.979,18.858,39.89,18.991,40.732z M30.77,37.98c0,0.689,0,1.301,0,1.854c3.542,0.301,7.04,0.599,10.596,0.901
	c0.134-0.872,0.273-1.782,0.424-2.755C38.088,37.98,34.454,37.98,30.77,37.98z M18.706,21.658c3.693,0,7.275,0,10.867,0
	c0-0.594,0-1.126,0-1.58c-3.489-0.294-6.919-0.582-10.415-0.876C19.019,19.959,18.869,20.771,18.706,21.658z M41.161,19.208
	c-3.491,0.292-6.924,0.579-10.388,0.868c0,0.49,0,1.024,0,1.594c3.632,0,7.218,0,10.867,0c-0.127-0.707-0.241-1.359-0.365-2.012
	C41.242,19.477,41.185,19.3,41.161,19.208z"/>
<path fill-rule="evenodd" clip-rule="evenodd" fill="#437CCD" d="M32.474,31.922c0.581-2.275,1.112-4.357,1.663-6.515
	c0.334,0.082,0.634,0.153,1.024,0.249c-0.098,0.382-0.186,0.728-0.273,1.072c-0.602,2.376-1.19,4.755-1.822,7.124
	c-0.08,0.299-0.345,0.72-0.589,0.769c-0.524,0.107-0.545-0.429-0.643-0.79c-0.461-1.727-0.914-3.455-1.372-5.183
	c-0.063-0.236-0.138-0.471-0.344-0.732c-0.068,0.222-0.144,0.439-0.203,0.664c-0.464,1.748-0.921,3.5-1.389,5.248
	c-0.096,0.36-0.098,0.84-0.646,0.822c-0.541-0.017-0.522-0.497-0.614-0.858c-0.687-2.683-1.368-5.366-2.068-8.124
	c0.343-0.092,0.64-0.17,1.021-0.271c0.545,2.137,1.082,4.233,1.618,6.329c0.042,0.007,0.086,0.012,0.128,0.019
	c0.234-0.857,0.471-1.715,0.701-2.573c0.314-1.173,0.6-2.354,0.948-3.516c0.076-0.252,0.368-0.438,0.561-0.655
	c0.196,0.213,0.498,0.396,0.569,0.643c0.551,1.939,1.057,3.891,1.578,5.839C32.344,31.567,32.378,31.65,32.474,31.922z"/>
<path fill-rule="evenodd" clip-rule="evenodd" fill="#437CCD" d="M16.403,27.88c-0.451,1.697-0.902,3.396-1.353,5.094
	c-0.099,0.377-0.151,0.774-0.313,1.121c-0.107,0.227-0.351,0.478-0.576,0.526c-0.13,0.028-0.447-0.293-0.502-0.504
	c-0.733-2.785-1.435-5.578-2.164-8.444c0.331-0.092,0.627-0.173,1.018-0.281c0.543,2.126,1.078,4.215,1.66,6.486
	c0.119-0.324,0.19-0.479,0.233-0.64c0.491-1.835,0.962-3.675,1.482-5.503c0.079-0.276,0.338-0.652,0.574-0.704
	c0.479-0.104,0.536,0.376,0.63,0.726c0.526,1.981,1.05,3.964,1.729,5.959c0.534-2.086,1.068-4.172,1.616-6.31
	c0.337,0.083,0.618,0.151,0.948,0.233c-0.02,0.197-0.013,0.375-0.056,0.541c-0.648,2.574-1.301,5.148-1.96,7.72
	c-0.056,0.216-0.12,0.463-0.263,0.617c-0.313,0.336-0.756,0.111-0.913-0.466c-0.496-1.833-0.979-3.67-1.467-5.506
	c-0.059-0.219-0.121-0.437-0.18-0.656C16.498,27.887,16.451,27.884,16.403,27.88z"/>
<path fill-rule="evenodd" clip-rule="evenodd" fill="#437CCD" d="M38.97,25.638c0.3-0.072,0.601-0.146,0.957-0.231
	c0.543,2.129,1.072,4.205,1.603,6.281c0.05,0.009,0.099,0.017,0.148,0.025c0.064-0.22,0.135-0.438,0.193-0.657
	c0.468-1.771,0.919-3.549,1.418-5.312c0.079-0.281,0.337-0.661,0.574-0.714c0.475-0.107,0.537,0.359,0.632,0.719
	c0.484,1.839,0.975,3.677,1.466,5.514c0.038,0.145,0.097,0.285,0.273,0.432c0.533-2.085,1.066-4.17,1.61-6.295
	c0.364,0.095,0.666,0.173,1.018,0.263c-0.569,2.257-1.122,4.45-1.676,6.644c-0.146,0.577-0.255,1.168-0.462,1.724
	c-0.093,0.247-0.384,0.42-0.584,0.627c-0.182-0.202-0.463-0.375-0.528-0.61c-0.528-1.873-1.016-3.758-1.517-5.64
	c-0.047-0.173-0.109-0.342-0.228-0.708c-0.331,1.225-0.614,2.266-0.892,3.307c-0.278,1.041-0.531,2.089-0.843,3.118
	c-0.064,0.211-0.337,0.486-0.522,0.494c-0.178,0.008-0.482-0.266-0.535-0.468c-0.722-2.746-1.41-5.503-2.104-8.257
	C38.956,25.83,38.97,25.76,38.97,25.638z"/>
</svg>
