<?xml version="1.0" encoding="utf-8"?>
<!-- Generator: Adobe Illustrator 16.0.0, SVG Export Plug-In . SVG Version: 6.00 Build 0)  -->
<!DOCTYPE svg PUBLIC "-//W3C//DTD SVG 1.1//EN" "http://www.w3.org/Graphics/SVG/1.1/DTD/svg11.dtd">
<svg version="1.1" id="Layer_1" xmlns="http://www.w3.org/2000/svg" xmlns:xlink="http://www.w3.org/1999/xlink" x="0px" y="0px"
	 width="60px" height="60px" viewBox="0 0 60 60" enable-background="new 0 0 60 60" xml:space="preserve">
<path fill-rule="evenodd" clip-rule="evenodd" fill="#437CCD" d="M17.591,48.343c0.251,0.431,0.479,0.814,0.701,1.202
	c0.234,0.41,0.193,0.59-0.198,0.83c-2.63,1.604-5.261,3.207-7.895,4.805c-0.445,0.271-0.621,0.227-0.885-0.217
	C6.91,50.902,4.511,46.84,2.109,42.776c-0.232-0.396-0.186-0.583,0.212-0.826c2.63-1.605,5.26-3.208,7.891-4.81
	c0.439-0.267,0.616-0.219,0.886,0.23c0.336,0.563,0.668,1.127,1.015,1.714c1.067-0.509,2.103-0.999,3.136-1.492
	c1.655-0.79,3.338-1.526,4.958-2.382c1.861-0.983,4.48-0.559,5.983,0.872c0.586,0.558,1.089,1.202,1.631,1.81
	c0.134,0.152,0.267,0.308,0.492,0.434c0-0.523,0.029-1.048-0.007-1.57c-0.035-0.475,0.097-0.846,0.477-1.134
	c0.088-0.065,0.153-0.16,0.222-0.235c-0.013-0.043-0.013-0.081-0.03-0.094c-0.605-0.43-0.701-1.027-0.674-1.729
	c0.048-1.287,0.021-2.577,0.008-3.866c-0.005-0.335,0.128-0.561,0.328-0.819c0.54-0.697,1.208-0.87,2.076-0.861
	c4.777,0.042,9.556,0.023,14.333,0.013c0.408-0.001,0.688,0.135,1.001,0.394c0.621,0.513,0.837,1.105,0.786,1.902
	c-0.067,1.045-0.025,2.1-0.014,3.151c0.008,0.708,0.098,1.435-0.697,1.771c0.015,0.102,0.009,0.143,0.024,0.153
	c0.655,0.462,0.702,1.122,0.681,1.855c-0.039,1.41-0.012,2.823-0.012,4.286c0.736-0.064,1.412,0.061,1.931,0.614
	c0.506,0.542,0.643,1.192,0.493,1.933c1.091,0.345,1.755,1.045,1.644,2.222c-0.108,1.155-0.869,1.728-1.945,1.858
	c0,0.399,0.057,0.771-0.011,1.118c-0.19,0.964-0.813,1.523-1.764,1.751c-2.708,0.647-5.416,1.305-8.122,1.956
	c-2.124,0.511-4.244,1.029-6.37,1.528c-1.556,0.366-3.008,0.079-4.333-0.8c-2.943-1.948-5.881-3.903-8.812-5.869
	c-0.275-0.185-0.494-0.236-0.792-0.065C18.383,47.99,18.006,48.145,17.591,48.343z M17.127,47.567
	c0.446-0.21,0.856-0.419,1.278-0.597c0.241-0.101,0.336-0.236,0.329-0.504c-0.021-0.615-0.005-1.233-0.008-1.851
	c-0.003-0.324,0.113-0.572,0.469-0.562c0.328,0.011,0.43,0.25,0.426,0.56c-0.008,0.63-0.02,1.261,0.01,1.891
	c0.008,0.176,0.114,0.412,0.252,0.505c3.023,2.031,6.051,4.055,9.093,6.058c1.082,0.713,2.29,0.886,3.548,0.584
	c4.818-1.157,9.636-2.325,14.452-3.489c0.764-0.184,1.183-0.753,1.086-1.459c-0.094-0.674-0.661-1.121-1.425-1.077
	c-2.616,0.143-5.232,0.299-7.847,0.451c-2.169,0.126-4.337,0.246-6.504,0.378c-0.79,0.048-1.432-0.194-1.995-0.774
	c-1.505-1.548-3.07-3.036-4.561-4.597c-0.71-0.744-1.433-1.355-2.519-1.354c-0.014,0-0.027-0.003-0.042-0.007
	c-0.289-0.052-0.47-0.212-0.416-0.519c0.056-0.334,0.3-0.408,0.602-0.354c0.387,0.07,0.77,0.165,1.158,0.206
	c0.387,0.042,0.668,0.216,0.938,0.488c1.865,1.881,3.74,3.752,5.616,5.622c0.619,0.618,1.59,0.502,2.05-0.238
	c0.338-0.543,0.269-1.117-0.224-1.696c-1.961-2.306-3.922-4.608-5.888-6.911c-0.446-0.522-0.878-1.062-1.369-1.537
	c-1.352-1.315-3.609-1.504-4.996-0.797c-2.494,1.27-5.046,2.427-7.574,3.632c-0.157,0.075-0.31,0.159-0.491,0.251
	C14.108,42.464,15.609,45.003,17.127,47.567z M3.023,42.568c2.32,3.923,4.617,7.809,6.931,11.718
	c2.497-1.522,4.953-3.02,7.429-4.526c-2.326-3.933-4.623-7.816-6.93-11.717C7.95,39.566,5.501,41.058,3.023,42.568z M37.55,34.922
	c2.451,0,4.902,0.001,7.354-0.001c0.509,0,1.03-0.526,1.033-1.037c0.001-1.315,0.002-2.634-0.003-3.95
	c0-0.492-0.519-1.005-1.017-1.005c-4.903-0.001-9.807-0.001-14.71,0c-0.498,0-1.001,0.508-1.001,1.011
	c-0.002,1.303-0.001,2.605-0.001,3.909c0.001,0.575,0.499,1.073,1.074,1.073C32.702,34.923,35.126,34.922,37.55,34.922z
	 M37.586,35.809c-2.467,0-4.932-0.001-7.397,0.002c-0.474,0-0.981,0.509-0.982,0.983c-0.002,0.799-0.015,1.598,0.011,2.396
	c0.006,0.201,0.098,0.434,0.225,0.593c0.461,0.581,0.967,1.129,1.43,1.706c0.187,0.232,0.389,0.313,0.681,0.311
	c4.44-0.007,8.882-0.005,13.323-0.005c0.545-0.001,1.059-0.511,1.062-1.052c0.001-1.289,0.001-2.578,0-3.867
	c-0.003-0.589-0.482-1.066-1.079-1.066C42.434,35.808,40.009,35.809,37.586,35.809z M45.937,46.774c0-1.046,0.001-2.038,0-3.031
	c-0.003-0.569-0.51-1.07-1.085-1.07c-4.134-0.002-8.267-0.002-12.402,0c-0.146,0-0.294,0.013-0.535,0.024
	c0.569,0.671,1.069,1.285,1.597,1.875c0.729,0.817,0.905,1.71,0.439,2.714c-0.02,0.043-0.011,0.099-0.018,0.181
	C37.929,47.237,41.898,47.008,45.937,46.774z M46.835,46.637c0.402,0.154,0.823,0.231,1.14,0.454
	c0.528,0.372,1.014,0.212,1.49-0.013c0.427-0.202,0.614-0.709,0.526-1.18c-0.084-0.439-0.46-0.864-0.897-0.879
	c-0.747-0.023-1.496,0.022-2.259,0.042C46.835,45.647,46.835,46.16,46.835,46.637z M46.813,44.146c0.347,0,0.627,0.013,0.904-0.003
	c0.647-0.037,0.864-0.423,0.595-1.036c-0.281-0.643-1.134-0.901-1.84-0.596c0.114,0.242,0.275,0.475,0.327,0.731
	C46.855,43.523,46.813,43.823,46.813,44.146z"/>
<path fill-rule="evenodd" clip-rule="evenodd" fill="#437CCD" d="M46.922,12.85c0.011,5.144-4.147,9.31-9.294,9.313
	c-5.158,0.002-9.304-4.134-9.314-9.292c-0.012-5.113,4.151-9.289,9.272-9.301C42.732,3.559,46.91,7.712,46.922,12.85z
	 M37.628,21.284c4.626-0.008,8.403-3.786,8.404-8.402c0-4.649-3.776-8.423-8.426-8.42c-4.631,0.006-8.404,3.774-8.401,8.397
	C29.207,17.512,32.987,21.294,37.628,21.284z"/>
<path fill-rule="evenodd" clip-rule="evenodd" fill="#437CCD" d="M38.04,25.118c0,0.52-0.003,1.037,0.001,1.556
	c0.002,0.298-0.116,0.497-0.429,0.507c-0.318,0.007-0.453-0.202-0.456-0.489c-0.008-1.064-0.008-2.129,0.001-3.193
	c0.003-0.287,0.144-0.5,0.458-0.489c0.307,0.011,0.428,0.215,0.426,0.514C38.037,24.053,38.04,24.587,38.04,25.118z"/>
<path fill-rule="evenodd" clip-rule="evenodd" fill="#437CCD" d="M41.818,24.603c0,0.378-0.002,0.755,0,1.132
	c0.003,0.304-0.145,0.491-0.444,0.494c-0.282,0-0.437-0.194-0.439-0.465c-0.013-0.754-0.012-1.51-0.003-2.264
	c0.004-0.284,0.142-0.498,0.454-0.49c0.304,0.008,0.437,0.204,0.433,0.503C41.815,23.877,41.818,24.241,41.818,24.603z"/>
<path fill-rule="evenodd" clip-rule="evenodd" fill="#437CCD" d="M34.267,24.638c0,0.362,0,0.725,0,1.089
	c0,0.294-0.132,0.498-0.438,0.498c-0.307,0.001-0.438-0.203-0.438-0.498c0-0.74-0.001-1.479-0.001-2.218
	c0-0.295,0.128-0.499,0.438-0.499c0.307,0,0.438,0.203,0.438,0.499C34.268,23.884,34.267,24.261,34.267,24.638z"/>
<path fill-rule="evenodd" clip-rule="evenodd" fill="#437CCD" d="M34.152,31.924c0,0.38,0.003,0.757-0.002,1.136
	c-0.003,0.306-0.127,0.528-0.468,0.52c-0.313-0.01-0.426-0.22-0.424-0.513c0.002-0.771,0.002-1.541,0-2.313
	c-0.002-0.3,0.136-0.499,0.437-0.503c0.303-0.002,0.448,0.204,0.454,0.497C34.155,31.139,34.15,31.532,34.152,31.924z"/>
<path fill-rule="evenodd" clip-rule="evenodd" fill="#437CCD" d="M39.295,31.914c0,0.379-0.002,0.757,0.001,1.136
	c0.005,0.311-0.109,0.531-0.449,0.53c-0.315-0.004-0.439-0.214-0.44-0.503c-0.004-0.771-0.004-1.541,0.001-2.312
	c0-0.289,0.125-0.51,0.433-0.514c0.329-0.003,0.461,0.212,0.456,0.527C39.293,31.157,39.295,31.536,39.295,31.914z"/>
<path fill-rule="evenodd" clip-rule="evenodd" fill="#437CCD" d="M31.565,31.91c-0.001,0.394,0,0.784-0.001,1.176
	c0,0.297-0.132,0.494-0.446,0.494c-0.317,0-0.439-0.214-0.441-0.5c-0.005-0.771-0.005-1.541,0-2.313
	c0.002-0.305,0.14-0.53,0.471-0.516c0.305,0.016,0.423,0.23,0.419,0.524C31.561,31.153,31.565,31.532,31.565,31.91z"/>
<path fill-rule="evenodd" clip-rule="evenodd" fill="#437CCD" d="M40.992,31.915c-0.001-0.394,0-0.784-0.001-1.178
	c0-0.278,0.131-0.469,0.411-0.486c0.31-0.02,0.47,0.181,0.474,0.471c0.013,0.798,0.014,1.597,0,2.395
	c-0.004,0.291-0.162,0.482-0.479,0.463c-0.292-0.021-0.406-0.21-0.405-0.485C40.992,32.7,40.992,32.309,40.992,31.915z"/>
<path fill-rule="evenodd" clip-rule="evenodd" fill="#437CCD" d="M44.441,31.94c0,0.393,0,0.783-0.001,1.175
	c-0.001,0.281-0.133,0.458-0.425,0.465c-0.291,0.006-0.441-0.169-0.443-0.447c-0.008-0.811-0.008-1.623,0-2.435
	c0.002-0.281,0.167-0.455,0.447-0.447c0.28,0.007,0.422,0.189,0.422,0.472C44.442,31.129,44.441,31.534,44.441,31.94z"/>
<path fill-rule="evenodd" clip-rule="evenodd" fill="#437CCD" d="M36.713,31.916c0,0.378-0.002,0.756,0,1.134
	c0.004,0.307-0.097,0.533-0.444,0.53c-0.322-0.005-0.43-0.215-0.43-0.505c0-0.77,0.001-1.539-0.001-2.31
	c0-0.293,0.121-0.509,0.427-0.515c0.333-0.007,0.453,0.222,0.449,0.532C36.712,31.161,36.713,31.539,36.713,31.916z"/>
<path fill-rule="evenodd" clip-rule="evenodd" fill="#437CCD" d="M39.295,38.773c0.001,0.393,0.001,0.786,0.001,1.178
	c0,0.302-0.15,0.493-0.45,0.49c-0.278-0.001-0.435-0.192-0.438-0.468c-0.008-0.798-0.008-1.597,0.001-2.396
	c0.003-0.273,0.142-0.463,0.432-0.465c0.312-0.004,0.452,0.186,0.454,0.483C39.298,37.989,39.295,38.382,39.295,38.773z"/>
<path fill-rule="evenodd" clip-rule="evenodd" fill="#437CCD" d="M41.883,38.777c0,0.363-0.001,0.728,0,1.093
	c0.003,0.319-0.108,0.575-0.463,0.57c-0.331-0.005-0.435-0.244-0.431-0.553c0.008-0.742,0.006-1.485,0.001-2.228
	c-0.001-0.306,0.089-0.539,0.432-0.546c0.346-0.007,0.455,0.228,0.459,0.527C41.887,38.021,41.882,38.398,41.883,38.777z"/>
<path fill-rule="evenodd" clip-rule="evenodd" fill="#437CCD" d="M33.26,38.765c0.001-0.392-0.001-0.785,0.001-1.176
	c0.001-0.279,0.131-0.464,0.42-0.476c0.313-0.014,0.462,0.183,0.467,0.475c0.008,0.784,0.007,1.568,0.002,2.354
	c-0.002,0.29-0.144,0.501-0.449,0.499c-0.297-0.004-0.444-0.193-0.441-0.498C33.263,39.549,33.26,39.158,33.26,38.765z"/>
<path fill-rule="evenodd" clip-rule="evenodd" fill="#437CCD" d="M31.564,38.768c0,0.392,0,0.782,0,1.176
	c0,0.298-0.139,0.499-0.441,0.498c-0.305-0.001-0.443-0.209-0.444-0.503c-0.004-0.784-0.009-1.567,0-2.352
	c0.003-0.293,0.153-0.484,0.468-0.474c0.292,0.013,0.414,0.201,0.418,0.477C31.566,37.983,31.564,38.374,31.564,38.768z"/>
<path fill-rule="evenodd" clip-rule="evenodd" fill="#437CCD" d="M44.441,38.8c0,0.393,0.001,0.784-0.001,1.175
	c-0.001,0.285-0.146,0.461-0.427,0.466c-0.285,0.005-0.439-0.176-0.441-0.454c-0.008-0.811-0.009-1.623,0-2.434
	c0.004-0.279,0.159-0.448,0.45-0.439c0.292,0.01,0.419,0.189,0.419,0.47C44.441,37.989,44.441,38.396,44.441,38.8z"/>
<path fill-rule="evenodd" clip-rule="evenodd" fill="#437CCD" d="M36.712,38.775c0,0.391-0.001,0.783,0,1.174
	c0.001,0.302-0.144,0.495-0.445,0.491c-0.279-0.002-0.425-0.191-0.427-0.47c-0.002-0.798-0.002-1.596,0.002-2.393
	c0.001-0.279,0.135-0.459,0.426-0.465c0.314-0.005,0.444,0.189,0.445,0.486C36.713,37.991,36.713,38.384,36.712,38.775z"/>
<path fill-rule="evenodd" clip-rule="evenodd" fill="#437CCD" d="M39.294,45.297c0,0.252,0.054,0.521-0.017,0.751
	c-0.054,0.174-0.261,0.412-0.402,0.415c-0.152,0.003-0.428-0.226-0.441-0.373c-0.054-0.541-0.05-1.094,0.002-1.636
	c0.01-0.136,0.258-0.322,0.422-0.355c0.255-0.052,0.418,0.136,0.432,0.399C39.305,44.764,39.293,45.03,39.294,45.297L39.294,45.297z
	"/>
<path fill-rule="evenodd" clip-rule="evenodd" fill="#437CCD" d="M41.877,45.311c0,0.252,0.055,0.521-0.019,0.75
	c-0.055,0.174-0.259,0.388-0.425,0.417c-0.253,0.043-0.439-0.147-0.439-0.441c-0.002-0.504-0.033-1.012,0.018-1.511
	c0.016-0.159,0.233-0.377,0.397-0.423c0.274-0.074,0.442,0.138,0.465,0.41C41.895,44.777,41.878,45.046,41.877,45.311L41.877,45.311
	z"/>
<path fill-rule="evenodd" clip-rule="evenodd" fill="#437CCD" d="M36.708,45.327c0,0.252,0.056,0.521-0.018,0.75
	c-0.055,0.167-0.266,0.369-0.428,0.389c-0.122,0.017-0.384-0.225-0.396-0.366c-0.049-0.541-0.048-1.091,0.001-1.633
	c0.012-0.139,0.243-0.33,0.403-0.367c0.251-0.058,0.423,0.121,0.436,0.39C36.72,44.768,36.71,45.048,36.708,45.327z"/>
<path fill-rule="evenodd" clip-rule="evenodd" fill="#437CCD" d="M44.439,45.309c0,0.252,0.053,0.519-0.019,0.748
	c-0.053,0.172-0.265,0.405-0.407,0.406c-0.146,0.002-0.405-0.236-0.42-0.39c-0.053-0.526-0.03-1.061-0.015-1.591
	c0.009-0.263,0.178-0.405,0.443-0.396c0.267,0.008,0.41,0.16,0.417,0.426c0.007,0.265,0.002,0.53,0.002,0.797
	C44.44,45.309,44.439,45.309,44.439,45.309z"/>
<path fill-rule="evenodd" clip-rule="evenodd" fill="#437CCD" d="M38.037,8.015c0.398,0.198,0.772,0.333,1.09,0.551
	c0.673,0.461,1.029,1.127,1.091,1.944c0.023,0.306-0.03,0.585-0.403,0.61c-0.371,0.023-0.462-0.233-0.489-0.547
	c-0.066-0.762-0.476-1.284-1.189-1.524c-0.706-0.24-1.334-0.043-1.829,0.504c-0.816,0.903-0.488,2.248,0.651,2.657
	c0.473,0.169,0.969,0.276,1.45,0.421c1.27,0.383,1.816,1.02,1.837,2.135c0.024,1.322-0.641,2.393-1.782,2.749
	c-0.364,0.114-0.462,0.283-0.426,0.619c0.019,0.18,0.052,0.385-0.013,0.54c-0.068,0.167-0.25,0.409-0.372,0.403
	c-0.167-0.01-0.393-0.188-0.466-0.352c-0.085-0.188-0.05-0.44-0.032-0.662c0.021-0.292-0.063-0.437-0.37-0.532
	c-1.045-0.328-1.732-1.243-1.793-2.304c-0.019-0.314,0.043-0.587,0.405-0.612c0.329-0.023,0.437,0.203,0.475,0.513
	c0.138,1.14,1.076,1.852,2.112,1.619c0.983-0.221,1.651-1.371,1.303-2.369c-0.104-0.29-0.413-0.567-0.697-0.717
	c-0.39-0.203-0.847-0.278-1.275-0.408c-0.212-0.064-0.43-0.122-0.641-0.197c-1.164-0.423-1.698-1.176-1.69-2.373
	c0.009-1.126,0.699-2.13,1.761-2.459c0.343-0.107,0.444-0.258,0.413-0.585c-0.022-0.206-0.054-0.447,0.03-0.619
	c0.079-0.163,0.298-0.342,0.464-0.35c0.121-0.007,0.341,0.235,0.368,0.393C38.077,7.389,38.037,7.729,38.037,8.015z"/>
</svg>
