<?xml version="1.0" encoding="utf-8"?>
<!-- Generator: Adobe Illustrator 16.0.0, SVG Export Plug-In . SVG Version: 6.00 Build 0)  -->
<!DOCTYPE svg PUBLIC "-//W3C//DTD SVG 1.1//EN" "http://www.w3.org/Graphics/SVG/1.1/DTD/svg11.dtd">
<svg version="1.1" id="Layer_1" xmlns="http://www.w3.org/2000/svg" xmlns:xlink="http://www.w3.org/1999/xlink" x="0px" y="0px"
	 width="127.559px" height="127.56px" viewBox="0 0 127.559 127.56" enable-background="new 0 0 127.559 127.56"
	 xml:space="preserve">
<path fill-rule="evenodd" clip-rule="evenodd" fill="#134A99" d="M116.237,121.079c-34.28,0-68.368,0-103.003,0
	c1.289-3.314,2.318-6.513,3.744-9.524c4.927-10.415,13.155-17.043,24.033-20.554c1.559-0.502,2.88-0.335,4.373,0.421
	c6.804,3.438,14.015,4.799,21.666,4.364c6.381-0.364,12.237-2.329,18.055-4.722c1.042-0.43,2.515-0.353,3.63-0.005
	c13.746,4.294,22.322,13.701,26.646,27.241C115.658,119.172,115.92,120.051,116.237,121.079z"/>
<path fill-rule="evenodd" clip-rule="evenodd" fill="#134A99" d="M64.914,9.057c2.217,2.753,4.219,5.229,6.21,7.716
	c3.71,4.635,7.462,9.239,11.09,13.936c1.004,1.3,1.808,1.526,3.29,0.75c4.9-2.56,9.878-4.969,14.826-7.43
	c0.469-0.233,0.957-0.424,1.669-0.736c0,0.671,0.064,1.159-0.011,1.625c-1.291,7.884-2.628,15.759-3.876,23.651
	c-0.278,1.755-0.796,2.591-2.868,2.582c-20.225-0.09-40.449-0.08-60.674-0.011c-1.831,0.006-2.593-0.521-2.878-2.328
	c-1.284-8.155-2.676-16.292-4.02-24.437c-0.041-0.25,0.025-0.518,0.062-1.075c1.02,0.453,1.91,0.81,2.764,1.234
	c4.653,2.314,9.317,4.604,13.929,6.995c1.295,0.671,2.05,0.554,2.988-0.638c5.274-6.713,10.638-13.357,15.974-20.022
	C63.798,10.356,64.231,9.866,64.914,9.057z"/>
<path fill-rule="evenodd" clip-rule="evenodd" fill="#134A99" d="M36.893,55.759c4.444,0,4.444,0,5.075,4.156
	c1.909,12.586,15.01,21.467,27.561,18.679c10.322-2.293,17.576-10.36,18.595-20.873c0.154-1.591,0.669-2.069,2.18-1.987
	c1.864,0.103,3.736,0.085,5.605,0.006c1.361-0.059,1.644,0.454,1.573,1.771c-0.74,13.92-10.288,25.853-23.772,29.621
	c-18.982,5.299-37.971-6.896-41.197-26.462C31.703,55.759,31.703,55.759,36.893,55.759z"/>
</svg>
