<?xml version="1.0" encoding="utf-8"?>
<!-- Generator: Adobe Illustrator 16.0.0, SVG Export Plug-In . SVG Version: 6.00 Build 0)  -->
<!DOCTYPE svg PUBLIC "-//W3C//DTD SVG 1.1//EN" "http://www.w3.org/Graphics/SVG/1.1/DTD/svg11.dtd">
<svg version="1.1" id="Layer_1" xmlns="http://www.w3.org/2000/svg" xmlns:xlink="http://www.w3.org/1999/xlink" x="0px" y="0px"
	 width="75px" height="75px" viewBox="0 0 75 75" enable-background="new 0 0 75 75" xml:space="preserve">
<g id="Telecom__x26__5G-1">
	<path fill-rule="evenodd" clip-rule="evenodd" d="M40.191,5c2.965,0.648,5.99,1.101,8.88,1.99
		c5.074,1.561,9.463,4.377,13.299,8.049c0.895,0.856,1.46,1.794,0.843,3.04c-0.779,1.574-2.46,1.728-3.931,0.324
		c-3.985-3.801-8.6-6.524-13.957-7.801c-11.154-2.656-21.015-0.09-29.573,7.558c-0.642,0.573-1.593,1.157-2.364,1.115
		c-0.673-0.038-1.673-0.86-1.837-1.512c-0.185-0.726,0.163-1.887,0.705-2.447c2.978-3.092,6.513-5.433,10.438-7.173
		c3.509-1.556,7.158-2.582,10.998-2.896C34.009,5.222,34.315,5.085,34.626,5C36.481,5,38.337,5,40.191,5z"/>
	<path fill-rule="evenodd" clip-rule="evenodd" d="M49.616,64.895c0-1.648,0-3.053,0-4.672c-0.747,0-1.437,0.038-2.12-0.007
		c-1.486-0.099-2.513-1.078-2.378-2.362c0.146-1.381,0.947-2.152,2.396-2.146c1.419,0.006,2.838-0.02,4.256,0.008
		c1.58,0.029,2.473,0.836,2.496,2.381c0.048,2.945,0.042,5.893,0.004,8.838c-0.021,1.581-0.86,2.471-2.409,2.505
		c-2.563,0.057-5.13,0.091-7.691-0.007c-2.891-0.11-5.076-2.176-5.162-5.119c-0.139-4.742-0.136-9.494-0.009-14.237
		c0.081-3.063,2.375-5.098,5.459-5.148c2.346-0.037,4.693-0.021,7.039-0.003c1.722,0.013,2.799,0.931,2.776,2.311
		c-0.022,1.368-1.091,2.239-2.837,2.258c-2.128,0.021-4.257,0.044-6.383-0.01c-1.104-0.027-1.576,0.338-1.563,1.5
		c0.044,4.146,0.033,8.293,0.006,12.438c-0.007,1.025,0.353,1.515,1.428,1.485C46.44,64.862,47.958,64.895,49.616,64.895z"/>
	<path fill-rule="evenodd" clip-rule="evenodd" d="M25.191,49.668c0,1.692,0,3.314,0,5.111c1.411,0.07,2.804,0.077,4.183,0.219
		c2.861,0.294,4.864,1.84,5.924,4.483c1.06,2.646,0.628,5.149-1.167,7.359c-1.385,1.705-3.267,2.519-5.431,2.598
		c-1.852,0.069-3.708,0.045-5.562,0.009c-1.58-0.031-2.616-1-2.595-2.326c0.023-1.34,1.049-2.205,2.677-2.221
		c1.69-0.018,3.381,0.023,5.07-0.014c1.791-0.039,3.039-1.215,3.013-2.766c-0.025-1.478-1.238-2.63-2.941-2.681
		c-1.743-0.053-3.49,0.011-5.234-0.021c-1.748-0.033-2.571-0.865-2.586-2.636c-0.025-3.054-0.024-6.107-0.001-9.161
		c0.016-1.842,0.86-2.683,2.715-2.696c3.271-0.024,6.543-0.02,9.815-0.001c1.738,0.01,2.791,0.912,2.775,2.307
		c-0.017,1.411-1.029,2.241-2.83,2.262c-2.453,0.027-4.906,0.021-7.36,0.033C25.556,49.526,25.455,49.585,25.191,49.668z"/>
	<path fill-rule="evenodd" clip-rule="evenodd" d="M37.48,16.658c6.452,0.039,12.028,2.277,16.705,6.712
		c1.473,1.398,1.338,3.093-0.218,3.934c-1.252,0.676-2.168,0.063-3.059-0.761c-3.217-2.981-6.985-4.767-11.371-5.213
		c-5.988-0.608-11.171,1.179-15.622,5.195c-1.546,1.396-2.999,1.409-3.895,0.04c-0.801-1.226-0.406-2.26,0.584-3.188
		C25.354,18.928,30.967,16.664,37.48,16.658z"/>
	<path fill-rule="evenodd" clip-rule="evenodd" d="M47.2,33.594c-0.578,0.704-0.997,1.699-1.632,1.864
		c-0.797,0.208-1.985,0.009-2.628-0.495c-2.31-1.813-4.804-2.628-7.626-1.771c-1.211,0.367-2.34,1.117-3.398,1.848
		c-1.359,0.938-2.604,0.98-3.477-0.086c-0.791-0.967-0.612-2.323,0.441-3.363c4.507-4.451,12.624-4.454,17.055,0.025
		C46.403,32.088,46.674,32.755,47.2,33.594z"/>
</g>
</svg>
