<?xml version="1.0" encoding="utf-8"?>
<!-- Generator: Adobe Illustrator 16.0.0, SVG Export Plug-In . SVG Version: 6.00 Build 0)  -->
<!DOCTYPE svg PUBLIC "-//W3C//DTD SVG 1.1//EN" "http://www.w3.org/Graphics/SVG/1.1/DTD/svg11.dtd">
<svg version="1.1" id="Layer_1" xmlns="http://www.w3.org/2000/svg" xmlns:xlink="http://www.w3.org/1999/xlink" x="0px" y="0px"
	 width="75px" height="75px" viewBox="0 0 75 75" enable-background="new 0 0 75 75" xml:space="preserve">
<g id="AgriTech">
	<path fill-rule="evenodd" clip-rule="evenodd" d="M4.766,70.32c0.596-0.646,0.936-1.039,1.3-1.405
		c6.292-6.31,12.601-12.601,18.874-18.929c2.273-2.293,4.743-4.041,8.18-3.939c0.581,0.019,1.22-0.428,1.759-0.774
		c4.805-3.084,9.592-6.196,14.386-9.298c2.44-1.579,3.515-1.578,6.208,0.191c0-2.613-0.146-5.054,0.036-7.468
		c0.227-2.993-0.185-4.848-3.575-6.316c-6.94-3.006-9.261-11.577-6.942-17.001c7.927,0.291,14.472,8.609,12.992,16.499
		c-0.209,1.117-0.494,2.241-0.515,3.366c-0.064,3.7-0.022,7.402-0.022,11.411c0.616-0.519,0.958-0.827,1.322-1.106
		c1.628-1.243,2.854-1.002,3.757,0.791c2.188,4.343,4.369,8.691,6.522,13.05c1.08,2.183,0.908,3.313-0.777,5.021
		c-2.959,3-5.967,5.952-8.928,8.951c-1.302,1.316-2.808,1.926-4.68,1.906c-5.54-0.056-11.078-0.075-16.616,0.033
		c-0.944,0.018-2.229,0.467-2.751,1.167c-2.433,3.265-5.51,4.159-9.511,3.942C19.483,70.07,13.148,70.32,6.826,70.32
		C6.251,70.32,5.677,70.32,4.766,70.32z M55.374,40.838c-0.546,0.495-0.896,0.795-1.226,1.115c-3.536,3.446-7.032,6.937-10.63,10.32
		c-1.141,1.074-1.627,2.148-1.014,3.842c2.736,0,5.6-0.315,8.362,0.071c4.416,0.62,7.615-0.977,10.139-4.418
		c0.141-0.191,0.382-0.32,0.488-0.525c0.13-0.243,0.309-0.607,0.217-0.8c-1.287-2.652-2.614-5.284-4.163-8.379
		c-0.093,1.3-0.143,2.006-0.197,2.777c-0.604,0-1.114,0-1.775,0C55.51,43.54,55.447,42.316,55.374,40.838z M36.382,55.126
		c-0.02-2.012-1.796-3.786-3.824-3.821c-2.097-0.037-3.951,1.81-3.917,3.9c0.032,2.026,1.805,3.809,3.815,3.837
		C34.522,59.07,36.403,57.194,36.382,55.126z M41.653,51.148c1.496-1.587,3.146-3.336,4.76-5.045
		c-1.957-0.203-3.019-1.525-3.219-3.778c-2.319,1.497-4.467,2.883-6.448,4.161C38.379,48.036,39.996,49.573,41.653,51.148z
		 M66.018,47.833c-1.85-3.69-3.644-7.266-5.502-10.974c-1.419,0.896-2.087,2.068-1.483,3.428c1.326,2.988,2.871,5.882,4.324,8.814
		C64.302,48.649,65.051,48.293,66.018,47.833z M47.575,39.488c0.862,1.287,1.637,2.444,2.581,3.854
		c0.992-1.076,2.205-2.174,3.114-3.482c0.408-0.587,0.553-1.848,0.189-2.341c-0.325-0.446-1.65-0.583-2.283-0.299
		C49.831,37.821,48.647,38.787,47.575,39.488z M59.931,59.346c1.611-1.511,3.246-3.04,4.894-4.585
		c-0.656-0.614-1.295-1.211-1.969-1.84c-0.244,0.195-0.435,0.329-0.602,0.488c-1.257,1.197-2.51,2.399-3.729,3.569
		C59.102,57.947,59.584,58.763,59.931,59.346z M55.462,62.835c1.372-0.048,2.074-0.855,2.202-2.124
		c0.117-1.173-1.085-2.366-2.263-2.286c-1.314,0.091-2.068,0.899-2.201,2.172C53.076,61.813,54.192,62.853,55.462,62.835z"/>
	<path fill-rule="evenodd" clip-rule="evenodd" d="M60.447,22.907c-0.409-2.938-0.83-5.804-1.187-8.677
		c-0.049-0.402,0.079-0.993,0.354-1.24c1.973-1.775,4.275-2.755,6.951-2.708C67.981,15.711,65.066,21.404,60.447,22.907z"/>
</g>
</svg>
