<?xml version="1.0" encoding="utf-8"?>
<!-- Generator: Adobe Illustrator 16.0.0, SVG Export Plug-In . SVG Version: 6.00 Build 0)  -->
<!DOCTYPE svg PUBLIC "-//W3C//DTD SVG 1.1//EN" "http://www.w3.org/Graphics/SVG/1.1/DTD/svg11.dtd">
<svg version="1.1" id="Layer_1" xmlns="http://www.w3.org/2000/svg" xmlns:xlink="http://www.w3.org/1999/xlink" x="0px" y="0px"
	 width="75px" height="75px" viewBox="0 0 75 75" enable-background="new 0 0 75 75" xml:space="preserve">
<g id="AI_and_ML">
	<path fill-rule="evenodd" clip-rule="evenodd" fill="none" d="M22.529,69.875c-5.843,0-11.688,0-17.543,0
		c0-21.549,0-43.097,0-64.75c10.253,0,20.517,0,30.78,0c-0.217,0.078-0.43,0.203-0.653,0.226c-3.831,0.402-7.356,1.672-10.58,3.762
		c-1.149,0.746-2.234,1.595-3.535,2.531c-1.693-3.252-4.669-3.088-7.64-2.942c-0.239,0.012-0.482-0.02-0.719,0.005
		c-0.915,0.097-1.563-0.135-2.168-0.967C9.517,6.429,7.573,6.393,6.384,7.468c-1.183,1.069-1.281,2.977-0.216,4.138
		c1.089,1.185,3.168,1.419,4.065,0.133c0.875-1.255,1.91-1.174,3.084-1.163c0.72,0.007,1.456,0.103,2.155-0.017
		c2.136-0.364,3.187,1.012,4.288,2.451c-3.94,4.333-6.286,9.301-6.809,15.102c-0.028,0.311-0.663,0.826-0.963,0.792
		c-0.466-0.054-0.98-0.418-1.308-0.794c-1.205-1.385-3.033-1.594-4.319-0.418c-1.215,1.112-1.253,3.096-0.078,4.245
		c1.236,1.21,3.268,1.151,4.288-0.316c0.624-0.897,1.258-0.999,2.274-0.723c0.181,6.115,2.281,11.544,6.404,16.337
		c-1.13,1.068-2.134,2.1-3.226,3.025c-1.342,1.143-1.98,2.491-1.864,4.285c0.032,0.514-0.389,1.19-0.803,1.573
		c-1.301,1.199-1.479,3.111-0.289,4.349c1.137,1.182,3.144,1.169,4.248-0.029c1.161-1.259,0.98-3.201-0.403-4.318
		c-0.864-0.698-1.202-2.728-0.455-3.553c1.267-1.4,2.644-2.704,4.229-4.306c0.132,0.881,0.263,1.372,0.271,1.865
		c0.026,1.773-0.005,3.549,0.019,5.323c0.009,0.729-0.208,1.746,0.952,1.707c0.979-0.034,0.893-0.932,0.891-1.658
		c-0.005-1.582,0.068-3.169-0.023-4.746c-0.073-1.241-0.344-2.473-0.556-3.907c0.826-0.839,1.899-1.924,3.006-3.044
		c0.299,0.272,0.581,0.521,0.854,0.778c1.193,1.118,1.754,1.124,2.923,0.021c0.243-0.23,0.478-0.472,0.715-0.709
		c1.726-1.725,1.726-1.725,3.999-0.616c0,1.151-0.01,2.346,0.003,3.541c0.014,1.164,0.608,1.771,1.783,1.775
		c1.534,0.003,3.07-0.023,4.604,0.008c1.338,0.027,1.937-0.642,1.946-1.923c0.007-1.147,0.002-2.295,0.002-3.396
		c2.257-1.12,2.257-1.119,3.889,0.51c0.34,0.339,0.679,0.679,1.021,1.015c0.848,0.834,1.701,0.781,2.522-0.021
		c1.131-1.105,2.259-2.215,3.352-3.358c0.791-0.827,0.785-1.701-0.036-2.532c-0.572-0.581-1.121-1.188-1.734-1.724
		c-0.621-0.54-0.731-1.015-0.423-1.853c0.407-1.105,0.996-1.487,2.116-1.351c0.709,0.086,1.437,0.014,2.156,0.009
		c1.115-0.008,1.682-0.598,1.716-1.687c0.029-0.958,0.013-1.918,0.013-2.877c0.001-3.742,0.001-3.754-3.745-3.737
		c-0.976,0.004-1.712,0.032-2.233-1.176c-0.555-1.284,0.207-1.729,0.837-2.391c0.43-0.452,0.882-0.881,1.313-1.331
		c0.804-0.838,0.813-1.689-0.007-2.518c-1.111-1.126-2.232-2.243-3.354-3.36c-0.836-0.834-1.682-0.806-2.513,0.002
		c-0.688,0.668-1.322,1.4-2.063,2.003c-0.285,0.233-0.833,0.336-1.199,0.247c-1.152-0.28-1.948-0.863-1.65-2.288
		c0.135-0.643,0.044-1.339,0.013-2.009c-0.052-1.14-0.612-1.756-1.816-1.736c-1.581,0.025-3.164,0.014-4.747,0.003
		c-1.202-0.008-1.747,0.623-1.763,1.775c-0.011,0.863-0.101,1.74,0.02,2.587c0.167,1.185-0.764,1.202-1.416,1.602
		c-0.744,0.456-1.225,0.226-1.705-0.371c-0.27-0.334-0.603-0.616-0.909-0.921c-2.023-2.026-2.05-2.026-4.171-0.191
		c-0.06,0.052-0.177,0.036-0.24,0.046c-0.902-0.877-1.79-1.741-2.763-2.687c0.476-0.411,0.888-0.803,1.337-1.148
		C34.31,3.808,49.35,6.045,57.01,16.727c3.125,4.357,4.629,9.227,4.447,14.562c-0.082,2.387,0.416,4.5,1.624,6.557
		c1.403,2.393,2.613,4.898,3.895,7.361c0.182,0.348,0.298,0.729,0.532,1.311c-1.069,0-1.876,0-2.684,0
		c-2.799,0.003-3.627,0.874-3.293,3.642c0.054,0.444,0.573,0.831,0.877,1.245c0.329-0.446,0.783-0.851,0.949-1.352
		c0.164-0.494,0.036-1.087,0.036-1.732c1.237,0,2.239,0.007,3.24-0.002c2.326-0.021,3.257-1.557,2.181-3.649
		c-1.095-2.128-2.146-4.286-3.379-6.332c-1.497-2.486-2.103-5.053-2.105-8.001C63.316,19.37,56.182,9.729,45.795,6.353
		c-1.756-0.57-3.613-0.827-5.423-1.228c9.881,0,19.762,0,29.642,0c0,21.583,0,43.167,0,64.75c-7.195,0-14.39,0-21.584,0
		c1.176-0.646,1.609-1.627,1.519-2.967c-0.091-1.335,0.047-2.686-0.039-4.021c-0.077-1.173,0.292-1.621,1.519-1.572
		c2.104,0.085,4.219,0.08,6.324,0c3.292-0.124,5.914-3.113,5.604-6.388c-0.041-0.433-0.582-0.816-0.891-1.222
		c-0.322,0.388-0.669,0.76-0.956,1.174c-0.092,0.132-0.02,0.374-0.037,0.564c-0.229,2.593-1.81,4.051-4.438,4.069
		c-2.013,0.014-4.024-0.001-6.037,0.003c-2.141,0.007-2.862,0.711-2.872,2.814c-0.009,1.847-0.001,3.692-0.001,5.604
		c-8.538,0-16.852,0-25.307,0c0-2.392,0.05-4.683-0.041-6.97c-0.02-0.479-0.561-0.937-0.86-1.405
		c-0.314,0.446-0.88,0.88-0.901,1.341c-0.101,2.007,0.011,4.026-0.065,6.036C20.899,68.276,21.335,69.254,22.529,69.875z"/>
	<path fill-rule="evenodd" clip-rule="evenodd" d="M40.372,5.125c1.81,0.401,3.667,0.658,5.423,1.228
		C56.182,9.729,63.316,19.37,63.33,30.335c0.003,2.948,0.608,5.515,2.105,8.001c1.233,2.046,2.284,4.204,3.379,6.332
		c1.076,2.093,0.146,3.628-2.181,3.649c-1.001,0.009-2.003,0.002-3.24,0.002c0,0.646,0.128,1.238-0.036,1.732
		c-0.166,0.501-0.62,0.905-0.949,1.352c-0.304-0.414-0.823-0.801-0.877-1.245c-0.334-2.768,0.494-3.639,3.293-3.642
		c0.808,0,1.614,0,2.684,0c-0.234-0.582-0.351-0.963-0.532-1.311c-1.281-2.463-2.491-4.969-3.895-7.361
		c-1.208-2.058-1.706-4.17-1.624-6.557c0.182-5.335-1.322-10.205-4.447-14.562c-7.66-10.681-22.7-12.919-33.118-4.914
		c-0.449,0.345-0.861,0.737-1.337,1.148c0.973,0.946,1.86,1.81,2.763,2.687c0.063-0.011,0.181,0.005,0.24-0.046
		c2.121-1.835,2.147-1.835,4.171,0.191c0.307,0.306,0.64,0.587,0.909,0.921c0.48,0.596,0.961,0.827,1.705,0.371
		c0.652-0.399,1.583-0.417,1.416-1.602c-0.12-0.847-0.03-1.724-0.02-2.587c0.016-1.152,0.561-1.783,1.763-1.775
		c1.583,0.011,3.166,0.022,4.747-0.003c1.204-0.02,1.765,0.596,1.816,1.736c0.031,0.67,0.122,1.366-0.013,2.009
		c-0.298,1.425,0.498,2.008,1.65,2.288c0.366,0.089,0.914-0.014,1.199-0.247c0.74-0.604,1.375-1.335,2.063-2.003
		c0.831-0.808,1.677-0.836,2.513-0.002c1.121,1.117,2.242,2.233,3.354,3.36c0.819,0.829,0.811,1.68,0.007,2.518
		c-0.432,0.45-0.884,0.879-1.313,1.331c-0.63,0.662-1.392,1.106-0.837,2.391c0.521,1.208,1.258,1.181,2.233,1.176
		c3.746-0.017,3.746-0.005,3.745,3.737c0,0.958,0.017,1.919-0.013,2.877c-0.034,1.089-0.601,1.679-1.716,1.687
		c-0.72,0.004-1.447,0.077-2.156-0.009c-1.12-0.137-1.709,0.246-2.116,1.351c-0.309,0.838-0.198,1.313,0.423,1.853
		c0.613,0.535,1.162,1.143,1.734,1.724c0.821,0.831,0.827,1.705,0.036,2.532c-1.093,1.144-2.221,2.253-3.352,3.358
		c-0.821,0.802-1.675,0.854-2.522,0.021c-0.342-0.336-0.681-0.676-1.021-1.015c-1.632-1.629-1.632-1.63-3.889-0.51
		c0,1.101,0.005,2.248-0.002,3.396c-0.01,1.281-0.608,1.95-1.946,1.923c-1.533-0.031-3.069-0.005-4.604-0.008
		c-1.175-0.005-1.77-0.611-1.783-1.775c-0.013-1.195-0.003-2.39-0.003-3.541c-2.273-1.108-2.273-1.108-3.999,0.616
		c-0.237,0.237-0.472,0.479-0.715,0.709c-1.169,1.104-1.729,1.098-2.923-0.021c-0.272-0.258-0.555-0.506-0.854-0.778
		c-1.106,1.12-2.18,2.205-3.006,3.044c0.212,1.435,0.482,2.666,0.556,3.907c0.092,1.577,0.019,3.164,0.023,4.746
		c0.002,0.727,0.089,1.624-0.891,1.658c-1.16,0.039-0.943-0.979-0.952-1.707c-0.023-1.774,0.008-3.55-0.019-5.323
		c-0.008-0.493-0.139-0.984-0.271-1.865c-1.586,1.602-2.963,2.905-4.229,4.306c-0.747,0.825-0.409,2.854,0.455,3.553
		c1.384,1.117,1.564,3.06,0.403,4.318c-1.104,1.198-3.111,1.211-4.248,0.029c-1.189-1.237-1.012-3.149,0.289-4.349
		c0.414-0.383,0.835-1.06,0.803-1.573c-0.116-1.794,0.522-3.143,1.864-4.285c1.092-0.926,2.096-1.957,3.226-3.025
		c-4.123-4.793-6.224-10.222-6.404-16.337c-1.017-0.276-1.65-0.174-2.274,0.723c-1.021,1.467-3.052,1.527-4.288,0.316
		c-1.175-1.149-1.137-3.133,0.078-4.245c1.286-1.176,3.114-0.967,4.319,0.418c0.327,0.376,0.842,0.74,1.308,0.794
		c0.3,0.034,0.935-0.481,0.963-0.792c0.522-5.801,2.868-10.769,6.809-15.102c-1.102-1.438-2.152-2.814-4.288-2.451
		c-0.699,0.12-1.436,0.024-2.155,0.017c-1.174-0.011-2.209-0.092-3.084,1.163c-0.897,1.287-2.977,1.052-4.065-0.133
		c-1.065-1.161-0.967-3.069,0.216-4.138c1.189-1.075,3.133-1.039,4.088,0.272c0.605,0.832,1.253,1.064,2.168,0.967
		c0.236-0.025,0.479,0.007,0.719-0.005c2.971-0.146,5.946-0.31,7.64,2.942c1.301-0.937,2.386-1.785,3.535-2.531
		c3.224-2.09,6.749-3.36,10.58-3.762c0.224-0.023,0.437-0.148,0.653-0.226C37.302,5.125,38.838,5.125,40.372,5.125z M54.717,27.773
		c-1.791-0.779-3.82,0.753-5.2-1.274c-2.086-3.067-0.558-5.107,1.79-6.747c-1.138-1.182-2.149-2.233-3.167-3.292
		c-1.733,0.994-2.381,3.705-5.658,2.383c-3.318-1.338-1.822-3.835-2.449-5.853c-1.463,0-2.878,0-4.28,0
		c-0.782,1.945,0.947,4.437-2.332,5.813c-3.313,1.391-4.041-1.303-5.79-2.378c-1.03,1.063-2.05,2.114-3.099,3.196
		c0.947,1.71,3.716,2.346,2.389,5.617c-1.334,3.289-3.795,1.895-5.771,2.424c0,1.528,0,2.976,0,4.289
		c1.736,0.771,3.78-0.789,5.145,1.242c2.05,3.05,0.589,5.114-1.942,6.83c1.184,1.204,2.209,2.247,3.262,3.316
		c0.303-0.289,0.626-0.518,0.847-0.819c1.5-2.052,3.175-2.739,5.595-1.281c1,0.604,1.567,1.099,1.524,2.256
		c-0.04,1.076-0.008,2.155-0.008,3.3c0.975,0,1.691,0,2.408,0c0.697,0,1.394,0,2.301,0c0-1.552-0.197-2.925,0.05-4.212
		c0.313-1.627,2.09-1.517,3.234-1.996c2.557-1.072,2.947,2.071,4.44,2.558c1.166-1.014,2.275-1.979,3.364-2.925
		c-1.096-1.86-3.779-2.527-2.477-5.79c1.328-3.324,3.831-1.803,5.825-2.412C54.717,30.542,54.717,29.125,54.717,27.773z
		 M23.865,42.408c-0.259-0.29-0.413-0.471-0.576-0.643c-1.269-1.331-1.264-1.916,0.033-3.23c0.538-0.546,1.154-1.034,1.592-1.65
		c0.238-0.335,0.286-0.896,0.234-1.335c-0.218-1.844-1.604-1.59-2.894-1.577c-2.961,0.029-2.974-0.003-3.176-2.868
		c-0.006-0.081-0.085-0.156-0.146-0.262c-1.352,0-2.716,0-4.069,0c-0.427,4.689,2.7,12.627,5.718,14.729
		C21.655,44.538,22.72,43.513,23.865,42.408z M18.95,28.89c0.595-3.221,0.595-3.221,3.896-3.224c0.048,0,0.097-0.007,0.143,0
		c1.173,0.194,1.735-0.293,2.196-1.428c0.591-1.453-0.623-1.774-1.22-2.402c-2.138-2.249-2.172-2.215-0.138-4.497
		c0.056-0.063,0.057-0.175,0.046-0.137c-0.947-0.95-1.849-1.853-2.75-2.757c-3.612,3.34-6.842,10.904-6.128,14.444
		C16.314,28.89,17.639,28.89,18.95,28.89z M9.836,9.538C9.073,9.095,8.629,8.634,8.229,8.67C7.89,8.7,7.29,9.399,7.362,9.633
		c0.124,0.409,0.642,0.884,1.059,0.955C8.727,10.64,9.135,10.087,9.836,9.538z M8.411,31.306c0.427-0.669,0.938-1.123,0.863-1.437
		c-0.1-0.42-0.654-0.73-1.014-1.088c-0.32,0.397-0.841,0.767-0.896,1.198C7.323,30.293,7.896,30.687,8.411,31.306z M16.642,58.527
		c-0.639-0.499-1.01-1.015-1.369-1.007c-0.372,0.009-0.732,0.525-1.098,0.818c0.328,0.388,0.598,0.972,1.005,1.096
		C15.469,59.521,15.946,58.984,16.642,58.527z"/>
	<path fill-rule="evenodd" clip-rule="evenodd" d="M22.529,69.875c-1.194-0.621-1.63-1.599-1.579-2.939
		c0.076-2.01-0.035-4.029,0.065-6.036c0.021-0.461,0.587-0.895,0.901-1.341c0.3,0.469,0.841,0.926,0.86,1.405
		c0.091,2.287,0.041,4.578,0.041,6.97c8.455,0,16.769,0,25.307,0c0-1.911-0.008-3.757,0.001-5.604
		c0.01-2.104,0.731-2.808,2.872-2.814c2.013-0.004,4.024,0.011,6.037-0.003c2.628-0.019,4.209-1.477,4.438-4.069
		c0.018-0.19-0.055-0.433,0.037-0.564c0.287-0.414,0.634-0.786,0.956-1.174c0.309,0.405,0.85,0.789,0.891,1.222
		c0.31,3.274-2.313,6.264-5.604,6.388c-2.105,0.08-4.22,0.085-6.324,0c-1.227-0.049-1.596,0.399-1.519,1.572
		c0.086,1.336-0.052,2.687,0.039,4.021c0.091,1.34-0.343,2.32-1.519,2.967C39.797,69.875,31.164,69.875,22.529,69.875z"/>
	<path fill-rule="evenodd" clip-rule="evenodd" fill="none" d="M54.717,27.773c0,1.352,0,2.768,0,4.243
		c-1.994,0.609-4.497-0.912-5.825,2.412c-1.303,3.262,1.381,3.929,2.477,5.79c-1.089,0.946-2.198,1.911-3.364,2.925
		c-1.493-0.486-1.884-3.63-4.44-2.558c-1.145,0.479-2.921,0.369-3.234,1.996c-0.247,1.287-0.05,2.66-0.05,4.212
		c-0.907,0-1.604,0-2.301,0c-0.717,0-1.434,0-2.408,0c0-1.145-0.032-2.224,0.008-3.3c0.043-1.157-0.524-1.652-1.524-2.256
		c-2.42-1.458-4.095-0.771-5.595,1.281c-0.221,0.302-0.544,0.53-0.847,0.819c-1.053-1.069-2.078-2.112-3.262-3.316
		c2.531-1.716,3.992-3.78,1.942-6.83c-1.364-2.031-3.408-0.47-5.145-1.242c0-1.313,0-2.76,0-4.289
		c1.977-0.53,4.438,0.865,5.771-2.424c1.327-3.271-1.441-3.907-2.389-5.617c1.049-1.083,2.068-2.133,3.099-3.196
		c1.749,1.075,2.477,3.769,5.79,2.378c3.279-1.376,1.55-3.867,2.332-5.813c1.402,0,2.817,0,4.28,0
		c0.627,2.018-0.869,4.515,2.449,5.853c3.277,1.322,3.925-1.39,5.658-2.383c1.018,1.059,2.029,2.11,3.167,3.292
		c-2.348,1.64-3.876,3.68-1.79,6.747C50.896,28.526,52.926,26.994,54.717,27.773z M48.25,29.803
		c-0.052-7.74-8.094-12.679-15.013-9.203c-2.812,1.412-4.61,3.688-5.37,6.728c-0.103,0.414,0.291,0.951,0.454,1.431
		c0.439-0.316,0.941-0.577,1.297-0.968c0.234-0.258,0.24-0.714,0.379-1.069c1.479-3.753,5.435-5.97,9.36-5.252
		c4.073,0.745,7.008,4.181,7.04,8.242c0.032,4.062-2.789,7.652-6.639,8.454c-4.104,0.854-8.159-1.265-9.723-5.089
		c-0.198-0.486-0.267-1.048-0.555-1.464c-0.198-0.287-0.807-0.619-0.99-0.513c-0.332,0.191-0.598,0.674-0.676,1.076
		c-0.066,0.333,0.16,0.734,0.286,1.093c1.661,4.749,6.574,7.653,11.48,6.794C44.686,39.171,48.282,34.912,48.25,29.803z"/>
	<path fill-rule="evenodd" clip-rule="evenodd" fill="none" d="M23.865,42.408c-1.146,1.104-2.21,2.13-3.284,3.163
		c-3.018-2.102-6.145-10.04-5.718-14.729c1.354,0,2.718,0,4.069,0c0.062,0.106,0.141,0.182,0.146,0.262
		c0.202,2.865,0.215,2.897,3.176,2.868c1.29-0.013,2.676-0.267,2.894,1.577c0.052,0.439,0.004,1-0.234,1.335
		c-0.438,0.616-1.054,1.104-1.592,1.65c-1.297,1.314-1.302,1.899-0.033,3.23C23.452,41.938,23.606,42.118,23.865,42.408z"/>
	<path fill-rule="evenodd" clip-rule="evenodd" fill="none" d="M18.95,28.89c-1.312,0-2.636,0-3.954,0
		c-0.714-3.54,2.516-11.104,6.128-14.444c0.901,0.904,1.803,1.807,2.75,2.757c0.011-0.038,0.01,0.074-0.046,0.137
		c-2.034,2.281-2,2.248,0.138,4.497c0.597,0.628,1.811,0.949,1.22,2.402c-0.461,1.135-1.023,1.622-2.196,1.428
		c-0.046-0.007-0.095-0.001-0.143,0C19.545,25.669,19.545,25.669,18.95,28.89z"/>
	<path fill-rule="evenodd" clip-rule="evenodd" fill="none" d="M9.836,9.538c-0.701,0.549-1.109,1.102-1.415,1.049
		c-0.417-0.07-0.935-0.546-1.059-0.955C7.29,9.399,7.89,8.7,8.229,8.67C8.629,8.634,9.073,9.095,9.836,9.538z"/>
	<path fill-rule="evenodd" clip-rule="evenodd" fill="none" d="M8.411,31.306c-0.516-0.62-1.088-1.013-1.047-1.327
		c0.056-0.431,0.576-0.801,0.896-1.198c0.359,0.357,0.914,0.668,1.014,1.088C9.349,30.184,8.838,30.637,8.411,31.306z"/>
	<path fill-rule="evenodd" clip-rule="evenodd" fill="none" d="M16.642,58.527c-0.695,0.457-1.173,0.994-1.462,0.907
		c-0.407-0.124-0.677-0.708-1.005-1.096c0.365-0.293,0.726-0.81,1.098-0.818C15.632,57.513,16.003,58.028,16.642,58.527z"/>
	<path fill-rule="evenodd" clip-rule="evenodd" d="M48.25,29.803c0.032,5.109-3.564,9.368-8.668,10.26
		c-4.906,0.858-9.819-2.046-11.48-6.794c-0.126-0.359-0.353-0.76-0.286-1.093c0.078-0.402,0.344-0.885,0.676-1.076
		c0.184-0.106,0.792,0.227,0.99,0.513c0.288,0.416,0.356,0.978,0.555,1.464c1.563,3.824,5.619,5.944,9.723,5.089
		c3.85-0.802,6.671-4.392,6.639-8.454c-0.032-4.061-2.967-7.498-7.04-8.242c-3.926-0.718-7.881,1.499-9.36,5.252
		c-0.139,0.355-0.145,0.811-0.379,1.069c-0.355,0.391-0.857,0.651-1.297,0.968c-0.163-0.48-0.557-1.017-0.454-1.431
		c0.76-3.04,2.559-5.316,5.37-6.728C40.156,17.125,48.198,22.063,48.25,29.803z"/>
</g>
</svg>
