<?xml version="1.0" encoding="utf-8"?>
<!-- Generator: Adobe Illustrator 16.0.0, SVG Export Plug-In . SVG Version: 6.00 Build 0)  -->
<!DOCTYPE svg PUBLIC "-//W3C//DTD SVG 1.1//EN" "http://www.w3.org/Graphics/SVG/1.1/DTD/svg11.dtd">
<svg version="1.1" id="Layer_1" xmlns="http://www.w3.org/2000/svg" xmlns:xlink="http://www.w3.org/1999/xlink" x="0px" y="0px"
	 width="75px" height="75px" viewBox="0 0 75 75" enable-background="new 0 0 75 75" xml:space="preserve">
<g id="aR">
	<path fill-rule="evenodd" clip-rule="evenodd" d="M70.418,70.303c-21.927,0-43.631,0-65.5,0c0.186-0.816,0.323-1.546,0.519-2.259
		c0.795-2.891,1.682-5.76,2.388-8.672c0.526-2.171,1.75-3.755,3.553-4.943c4.045-2.663,8.585-4.109,13.482-5.506
		c-0.898,2.074-1.157,4.065,0.38,5.542c1.358,1.3,2.954,2.597,4.688,3.216c5.346,1.911,10.81,1.873,16.119-0.229
		c4.243-1.679,5.464-4.037,4.527-8.711c3.532,1.344,6.843,2.559,10.113,3.868c1.027,0.414,1.975,1.049,2.922,1.642
		c1.974,1.232,3.295,2.9,3.86,5.244C68.327,63.044,69.384,66.546,70.418,70.303z"/>
	<path fill-rule="evenodd" clip-rule="evenodd" d="M54.089,30.682c0.244,2.144-0.093,3.931-1.285,5.498
		c-0.263,0.343-0.731,0.781-1.083,0.761c-1.472-0.074-1.881,0.982-2.483,1.974c-2.73,4.48-6.595,7.194-11.987,7.037
		c-5.388-0.158-9.068-3.146-11.619-7.689c-0.394-0.698-0.669-1.203-1.646-1.221c-0.586-0.011-1.324-0.563-1.709-1.084
		c-1.097-1.488-1.333-3.224-1.173-4.818c2.002,0.375,3.893,1.003,5.79,1.026c3.101,0.039,5.636-1.466,7.744-3.71
		c1.446-1.541,4.545-1.565,5.964-0.008C43.823,31.984,49.161,33.604,54.089,30.682z"/>
	<path fill-rule="evenodd" clip-rule="evenodd" d="M37.634,10.083c4.123,0.186,8.187,0.329,12.245,0.567
		c3.085,0.179,4.09,1.01,5.061,3.938c1.12,3.39,1.045,6.816,0.148,10.225c-1.256,4.788-5.169,6.676-9.658,4.575
		c-1.251-0.585-2.394-1.54-3.375-2.534c-2.11-2.141-6.796-2.223-8.803,0.009c-1.514,1.685-3.309,2.801-5.569,3.181
		c-3.315,0.556-5.992-0.861-7.123-4.046c-1.384-3.901-1.425-7.85-0.122-11.82c0.771-2.353,2.354-3.436,4.757-3.534
		C29.359,10.473,33.521,10.27,37.634,10.083z M37.524,23.728c3.811,0,7.623-0.058,11.431,0.034c1.251,0.03,1.854-0.404,1.873-1.575
		c0.04-2.325,0.038-4.653-0.012-6.979c-0.022-0.994-0.502-1.485-1.649-1.479c-7.67,0.048-15.344,0.04-23.016-0.002
		c-1.083-0.006-1.682,0.374-1.701,1.428c-0.04,2.376-0.044,4.753-0.008,7.129c0.02,1.128,0.645,1.499,1.803,1.475
		C30.005,23.682,33.765,23.73,37.524,23.728z"/>
	<path fill-rule="evenodd" clip-rule="evenodd" d="M29.527,45.673c5.442,3.238,10.877,3.18,16.224,0
		c0.848,1.383,1.655,2.771,2.535,4.11c1.128,1.713,0.867,3.563-1.126,4.65c-1.795,0.979-3.793,1.772-5.796,2.142
		c-4.06,0.748-8.118,0.501-11.918-1.338c-0.891-0.432-1.742-1.067-2.415-1.791c-0.975-1.049-0.954-2.276-0.161-3.503
		C27.775,48.547,28.634,47.114,29.527,45.673z"/>
	<path fill-rule="evenodd" clip-rule="evenodd" d="M47.986,8.238c-6.932,0-13.762,0-20.571,0C31.766,4.18,42.289,3.688,47.986,8.238
		z"/>
</g>
</svg>
