<?xml version="1.0" encoding="utf-8"?>
<!-- Generator: Adobe Illustrator 16.0.0, SVG Export Plug-In . SVG Version: 6.00 Build 0)  -->
<!DOCTYPE svg PUBLIC "-//W3C//DTD SVG 1.1//EN" "http://www.w3.org/Graphics/SVG/1.1/DTD/svg11.dtd">
<svg version="1.1" id="Layer_1" xmlns="http://www.w3.org/2000/svg" xmlns:xlink="http://www.w3.org/1999/xlink" x="0px" y="0px"
	 width="75px" height="75px" viewBox="0 0 75 75" enable-background="new 0 0 75 75" xml:space="preserve">
<g id="Autonomous_Vehicles">
	<path fill-rule="evenodd" clip-rule="evenodd" d="M64.44,42.73c-1.53-1.58-2.58-3.671-3.66-5.63c-1.3-2.35-2.511-4.77-3.561-7.24
		c-0.899-2.12-2.43-3.04-4.62-3.24c-2.55-0.22-5.1-0.55-7.659-0.78c-0.9-0.08-1.46-0.23-1.511-1.38c-0.22-4.57-0.689-4.96-5.22-4.96
		c-0.63,0-1.26-0.03-1.88,0c-1.87,0.11-3.01,1.22-3.14,3.06c-0.03,0.44-0.08,0.89-0.011,1.32c0.23,1.51-0.479,1.97-1.899,1.99
		c-1.681,0.04-3.36,0.35-5.05,0.41c-3.801,0.11-6.261,1.65-7.811,5.4c-1.81,4.35-3.6,8.86-7.189,12.22
		C9.06,45.93,8.58,48.4,8.86,51.27c0.38,4.051,0.52,8.12,0.71,12.181c0.069,1.56,0.01,3.13,0.02,4.7c0.01,1.449,0.73,2.21,2.2,2.199
		c1.31,0,2.63-0.01,3.95,0c1.5,0,2.149-0.779,2.13-2.229c-0.021-1.12,0-2.22,0-3.16h40.7c0.02,0.06,0.09,0.18,0.09,0.3
		c-0.13,5.891,0.359,5.05,5.56,5.09c2.28,0.011,2.74-0.54,2.82-2.939c0.14-5.01,0-10.061,0.61-15.01
		C68.13,48.46,67.13,45.52,64.44,42.73z M38.128,21.519c0.955,0,1.726,0.776,1.726,1.731s-0.771,1.731-1.726,1.731
		c-0.961,0-1.731-0.776-1.731-1.731S37.167,21.519,38.128,21.519z M22.85,30.85c0.36-0.63,1.4-1.11,2.181-1.22
		c8.87-1.22,17.75-1.21,26.609,0.01c0.73,0.1,1.7,0.55,2.03,1.13c1.25,2.21,2.28,4.54,3.39,6.84H19.52
		C20.64,35.28,21.62,32.99,22.85,30.85z M16.31,52.19c-1.77-0.08-3.329-1.721-3.3-3.471c0.021-1.88,1.63-3.37,3.57-3.319
		c1.88,0.06,3.29,1.529,3.26,3.399C19.82,50.69,18.17,52.27,16.31,52.19z M26.5,49.2h23.48C45.26,56.72,32.22,57.36,26.5,49.2z
		 M60.06,52.19c-1.76-0.051-3.34-1.66-3.35-3.421c-0.01-1.869,1.6-3.399,3.53-3.369c1.89,0.04,3.3,1.479,3.3,3.359
		C63.55,50.65,61.93,52.24,60.06,52.19z"/>
	<path fill-rule="evenodd" clip-rule="evenodd" d="M21.517,16.644c7.98-12.938,25.657-12.867,33.578,0.095
		c-0.612,0.354-1.222,0.706-1.924,1.112c-3.585-5.342-8.33-8.529-14.846-8.543c-6.522-0.014-11.295,3.125-14.916,8.51
		c-0.349-0.18-0.671-0.322-0.968-0.507C22.132,17.119,21.849,16.886,21.517,16.644z"/>
	<path fill-rule="evenodd" clip-rule="evenodd" d="M27.773,20.315c-0.549-0.312-1.125-0.639-1.816-1.033
		c2.986-4.564,6.948-7.058,12.382-7.047c5.44,0.011,9.357,2.578,12.293,7.095c-0.701,0.366-1.301,0.68-1.876,0.98
		C41.085,12.38,35.677,12.377,27.773,20.315z"/>
</g>
</svg>
