<?xml version="1.0" encoding="utf-8"?>
<!-- Generator: Adobe Illustrator 16.0.0, SVG Export Plug-In . SVG Version: 6.00 Build 0)  -->
<!DOCTYPE svg PUBLIC "-//W3C//DTD SVG 1.1//EN" "http://www.w3.org/Graphics/SVG/1.1/DTD/svg11.dtd">
<svg version="1.1" id="Layer_1" xmlns="http://www.w3.org/2000/svg" xmlns:xlink="http://www.w3.org/1999/xlink" x="0px" y="0px"
	 width="75px" height="75px" viewBox="0 0 75 75" enable-background="new 0 0 75 75" xml:space="preserve">
<path id="Biotech" fill-rule="evenodd" clip-rule="evenodd" d="M41.128,32.25c0,0.637,0,1.836,0,2.856
	c0.83,0.485,1.739,0.749,2.212,1.354c0.702,0.896,1.259,1.312,2.499,1.021c1.312-0.306,1.471-1.062,1.702-2.138
	c0.122-0.569,0.926-1.423,1.395-1.406c1.553,0.056,3.113,0.373,4.625,0.766c0.362,0.093,0.869,0.979,0.756,1.315
	c-0.688,2.056,0.486,2.908,2.142,3.561c0.052-0.012,0.171-0.031,0.283-0.072c1.007-0.355,2.572-1.3,2.92-0.969
	c1.277,1.222,2.223,2.826,3.107,4.392c0.14,0.249-0.576,1.205-1.088,1.545c-0.911,0.604-1.051,1.237-0.774,2.241
	c0.26,0.939,0.516,1.641,1.676,1.636c1.732-0.005,2.128,1.185,2.029,2.592c-0.065,0.944-0.305,1.883-0.551,2.803
	c-0.323,1.202-0.996,1.908-2.387,1.466c-1.061-0.338-1.717,0.047-2.309,1.054c-0.543,0.926-0.636,1.574,0.121,2.348
	c1.041,1.062,0.77,2.071-0.242,2.967c-0.62,0.547-1.258,1.086-1.951,1.53c-1.406,0.899-2.731,1.118-3.622-0.715
	c-0.14-0.29-0.278-0.581-0.557-0.733c0.766,5.365-1.491,8.032-6.832,8.033c-7.1,0.001-14.208-0.242-21.291,0.079
	c-5.274,0.239-8.673-4.583-5.544-9.635c3.46-5.59,6.569-11.4,9.692-17.188c0.689-1.275,1.011-2.848,1.125-4.313
	c0.182-2.336,0.049-4.697,0.049-7.149c-0.505-0.054-0.855,0-1.097-0.136c-0.489-0.279-0.92-0.66-1.375-1
	c0.479-0.388,0.933-1.069,1.442-1.114c1.639-0.145,3.299-0.054,5.345-0.054c-0.776-1.804-1.413-3.285-2.103-4.89
	c-4.95,2.616-8.888,0.891-12.245-2.545c-1.855-1.901-3.312-4.195-4.896-6.351c-0.693-0.94-0.616-1.792,0.628-2.262
	c3.834-1.445,7.749-2.227,11.817-1.184c4.931,1.264,7.061,4.87,6.34,9.912c-0.168,1.16,0.828,2.489,1.338,3.87
	c1.153-2.166,2.157-4.011,3.114-5.881c0.184-0.358,0.321-0.841,0.245-1.219c-1.37-6.814,1.648-11.609,8.241-12.988
	c4.996-1.044,9.775-0.095,14.457,1.662c1.13,0.426,1.462,1.117,0.819,2.226c-2.492,4.302-5.412,8.24-9.63,11.013
	c-3.887,2.557-7.918,3.037-12.475,0.271c-1.081,2.669-2.133,5.269-3.379,8.354c1.661,0,2.733-0.113,3.767,0.038
	c0.779,0.114,1.508,0.572,2.258,0.876C42.434,30.681,41.942,31.271,41.128,32.25z M47.299,56.514
	c-2.305-4.097-4.336-7.93-6.587-11.625c-1.348-2.212-2.054-4.439-1.851-7.043c0.162-2.075,0.031-4.176,0.031-6.324
	c-2.243,0-4.241,0-6.371,0c0,2.691,0.12,5.25-0.048,7.786c-0.093,1.4-0.427,2.894-1.071,4.127
	c-2.038,3.901-4.278,7.699-6.429,11.544c-0.255,0.457-0.435,0.956-0.691,1.535C32.001,56.514,39.456,56.514,47.299,56.514z
	 M35.548,67.452c3.828,0,7.656,0.015,11.484-0.006c2.53-0.015,3.957-1.262,3.963-3.393c0.007-2.316-2.297-5.266-4.134-5.268
	c-6.828-0.005-13.661,0.167-20.48-0.083c-2.785-0.104-4.285,0.764-5.394,3.237c-1.355,3.026-0.05,5.471,3.266,5.502
	C28.018,67.479,31.782,67.452,35.548,67.452z M40.843,17.016c0.548-0.45,1.027-0.959,1.606-1.295
	c2.418-1.396,4.825-2.821,7.331-4.042c0.562-0.273,1.5,0.234,2.266,0.383c-0.496,0.536-0.947,1.128-1.508,1.586
	c-0.324,0.267-0.834,0.299-1.241,0.477c-2.715,1.179-5.196,2.684-7.243,5.096c3.035,1.882,5.932,1.593,8.743-0.056
	c4.029-2.36,6.771-5.941,9.264-10.069c-5.04-1.596-9.901-2.519-14.895-0.479C42.154,9.846,39.396,13.918,40.843,17.016z
	 M62.52,50.427c-4.293,0.646-3.518-2.782-4.101-4.798c-0.243-0.838,1.001-2.109,1.749-3.522c-0.114-0.157-0.544-0.749-1.121-1.547
	c-1.652,1.84-3.054,1.533-5.005,0.361c-1.987-1.193-2.776-2.34-1.865-4.585c-0.975-0.163-1.688-0.284-2.646-0.446
	c0.249,2.648-1.179,3.163-3.257,3.854c-2.391,0.795-3.559-0.201-4.851-2.021c-1.077,3.148,0.729,4.976,1.879,7.034
	c4.795-3.224,9.313-2.648,11.603,1.414c2.295,4.076,0.482,8.176-4.846,10.701c0.522,0.914,1.039,1.816,1.634,2.857
	c2.4-1.774,2.92,0.573,4.15,1.688c0.623-0.443,1.221-0.866,2.012-1.428c-1.929-1.641-1.569-3.025-0.411-4.989
	c1.19-2.017,2.409-2.7,4.616-1.951C62.22,52.131,62.337,51.461,62.52,50.427z M17.833,14.815c2.764,6.366,9.24,10.178,13.182,7.313
	c-2.071-1.204-3.95-2.327-5.862-3.393c-0.82-0.458-2.353-0.394-1.72-1.846c0.16-0.37,1.733-0.253,2.628-0.136
	c0.666,0.086,1.324,0.468,1.916,0.832c1.372,0.846,2.703,1.76,4.107,2.685c0.191-2.25-0.473-3.902-2.26-5.021
	C25.934,12.812,21.91,13.598,17.833,14.815z M53.949,49.88c-0.346-2.167-1.503-3.95-3.312-4.706
	c-1.885-0.787-3.674-0.525-5.116,0.881c-0.412,0.4-0.577,1.489-0.338,2.039c0.679,1.565,1.623,3.017,2.464,4.512
	c1.232,2.193,2.602,2.462,4.353,0.6C52.858,52.293,53.313,51,53.949,49.88z"/>
</svg>
