<?xml version="1.0" encoding="utf-8"?>
<!-- Generator: Adobe Illustrator 16.0.0, SVG Export Plug-In . SVG Version: 6.00 Build 0)  -->
<!DOCTYPE svg PUBLIC "-//W3C//DTD SVG 1.1//EN" "http://www.w3.org/Graphics/SVG/1.1/DTD/svg11.dtd">
<svg version="1.1" id="Layer_1" xmlns="http://www.w3.org/2000/svg" xmlns:xlink="http://www.w3.org/1999/xlink" x="0px" y="0px"
	 width="75px" height="75px" viewBox="0 0 75 75" enable-background="new 0 0 75 75" xml:space="preserve">
<path id="CleanTech" fill-rule="evenodd" clip-rule="evenodd" d="M16.609,40.388c2.346-1.322,4.832-1.658,7.2-1.718
	c2.381-0.056,4.932,0.346,6.966,1.839c1.912,1.401,3.633,3.059,4.415,5.435c0.129,0.394,0.354,0.756,0.607,1.28
	c0.471-1.606,0.853-2.981,1.273-4.342c0.543-1.753,0.557-1.75-0.469-3.501c0.415-1.343,0.862-2.783,1.334-4.304
	c-0.48-0.334-0.929-0.609-1.334-0.936c-1.191-0.956-1.951-2.118-1.858-3.738c0.065-1.146-0.056-2.303,0.034-3.444
	c0.176-2.229-0.594-4.04-2.204-5.539c-0.166-0.153-0.284-0.355-0.484-0.611c-0.424-2.193,0.643-4.114,1.529-6.024
	c0.466-1.002,1.544-1.488,2.684-1.493c0.902-0.002,1.807,0.146,2.97,0.252c0.662-1.877,1.366-3.874,2.084-5.905
	c2.043-1.233,2.88-1.028,4.265,1.196c-0.631,1.986-1.29,4.073-2.012,6.353c2.176,0.737,4.245,1.438,6.48,2.197
	c0.812-2.25,1.602-4.435,2.387-6.61c0.624-0.107,1.065-0.258,1.504-0.251c1.968,0.034,2.769,1.084,2.236,2.999
	c-0.484,1.743-1.062,3.461-1.565,5.086c0.309,0.272,0.403,0.41,0.536,0.466c2.886,1.17,3.647,2.735,2.779,5.729
	c-0.106,0.366-0.241,0.727-0.328,1.097c-0.423,1.774-1.267,2.901-3.31,3.21c-1.913,0.286-3.533,1.452-4.417,3.3
	c-1.362,2.859-3.359,4.71-6.916,4.343c-0.498,1.534-0.957,2.95-1.408,4.336c-0.635,0.184-1.135,0.326-1.67,0.484
	c-1.707,3.46-2.492,7.152-3.354,11.134c5.305-6.504,13.153-6.917,18.673-4.743c-0.883,3.732-2.32,7.229-4.889,10.128
	c-1.249,1.412-2.706,2.728-4.292,3.738c-2.828,1.798-5.855,1.847-8.858,0.248c-0.253-0.134-0.545-0.192-1.012-0.35
	c0.243,3.118,1.168,5.916,2.087,8.881c-1.28,0-2.455,0-3.734,0c-1.055-5.377-0.867-10.736-0.198-16.298
	c-0.527,0.089-0.851,0.053-1.049,0.19c-1.91,1.332-4.088,1.218-6.208,1.029c-1.702-0.15-3.179-1.062-4.436-2.208
	c-2.731-2.489-4.365-5.648-5.403-9.143c-0.301-1.02-0.587-2.045-0.835-3.074C16.365,40.914,16.524,40.674,16.609,40.388z"/>
</svg>
