<?xml version="1.0" encoding="utf-8"?>
<!-- Generator: Adobe Illustrator 16.0.0, SVG Export Plug-In . SVG Version: 6.00 Build 0)  -->
<!DOCTYPE svg PUBLIC "-//W3C//DTD SVG 1.1//EN" "http://www.w3.org/Graphics/SVG/1.1/DTD/svg11.dtd">
<svg version="1.1" id="Layer_1" xmlns="http://www.w3.org/2000/svg" xmlns:xlink="http://www.w3.org/1999/xlink" x="0px" y="0px"
	 width="75px" height="75px" viewBox="0 0 75 75" enable-background="new 0 0 75 75" xml:space="preserve">
<g id="CloudTech">
	<path fill-rule="evenodd" clip-rule="evenodd" d="M25.322,46.249c-0.44-0.489-0.76-0.847-1.036-1.154
		c0.9-1.648,12.021-12.691,13.321-13.31c1.234,0.68,12.22,11.585,13.19,13.122c-0.093,0.216-0.166,0.507-0.332,0.731
		c-0.128,0.173-0.37,0.261-0.731,0.499c-0.528-0.406-1.119-0.768-1.6-1.242c-2.692-2.658-5.358-5.345-8.037-8.02
		c-0.41-0.408-0.841-0.799-1.54-1.461c0,0.928,0,1.545,0,2.162c0,9.166,0.004,18.332-0.008,27.498
		c-0.001,0.848,0.23,1.849-0.967,2.181c-0.884-0.121-1.181-0.725-1.241-1.493c-0.041-0.53-0.028-1.064-0.028-1.596
		c-0.001-8.693-0.001-17.387-0.001-26.081c0-0.644,0-1.289,0-2.246c-0.556,0.442-0.917,0.676-1.217,0.974
		c-2.683,2.669-5.348,5.357-8.039,8.02C26.572,45.313,25.997,45.702,25.322,46.249z"/>
	<path fill-rule="evenodd" clip-rule="evenodd" d="M53.408,20.942c0.431-0.256,0.92-0.547,1.637-0.973
		c0.589,1.14,1.122,2.037,1.528,2.99c0.394,0.92,0.658,1.894,1.021,2.973c0.663,0.349,1.383,0.74,2.111,1.11
		c6.275,3.188,9.399,8.477,9.274,15.335c-0.147,8.13-6.421,15.798-15.958,16.078c-2.423,0.07-4.848,0.007-7.272-0.003
		c-0.354-0.001-0.792,0.077-1.04-0.098c-0.383-0.269-0.818-0.695-0.88-1.109c-0.042-0.272,0.479-0.765,0.851-0.926
		c0.404-0.178,0.927-0.109,1.398-0.11c2.305-0.003,4.613,0.07,6.916,0c9.725-0.303,13.981-8.277,13.763-14.575
		c-0.215-6.226-3.213-10.786-9.121-13.135c-1.351-0.536-2.11-1.286-2.481-2.69C54.752,24.279,54.095,22.817,53.408,20.942z"/>
	<path fill-rule="evenodd" clip-rule="evenodd" d="M23.346,19.798c1.035-1.207,1.98-2.311,3.029-3.534
		c0.587,0.432,0.979,0.721,1.471,1.083c-0.86,1.8-1.995,3.247-3.349,4.418c-0.55,0.477-1.679,0.361-2.546,0.379
		c-3.488,0.074-6.498,1.954-7.619,5.098c-0.465,1.303-0.568,2.768-0.632,4.167c-0.049,1.071-0.258,1.92-1.088,2.667
		c-3.544,3.183-4.848,7.147-4.016,11.836c0.143,0.805,0.318,1.686-0.759,2.104c-1.09-0.043-1.276-0.848-1.44-1.691
		c-0.947-4.877,0.306-9.126,3.667-12.758c0.398-0.431,0.919-0.749,1.312-1.062c-0.076-3.652,0.649-6.815,3.114-9.366
		C16.905,20.638,19.896,19.672,23.346,19.798z"/>
	<path fill-rule="evenodd" clip-rule="evenodd" d="M7.869,50.036c0.438-0.335,0.827-0.634,1.363-1.043
		c0.5,0.611,0.932,1.072,1.288,1.585c2.62,3.77,6.109,5.802,10.805,5.646c2.837-0.095,5.682-0.015,8.522-0.013
		c0.79,0,1.574,0.013,1.847,0.992c-0.024,0.917-0.612,1.237-1.405,1.237c-3.729,0.001-7.48,0.233-11.18-0.104
		c-4.631-0.423-8.153-2.957-10.635-6.889C8.231,51.062,8.106,50.6,7.869,50.036z"/>
	<path fill-rule="evenodd" clip-rule="evenodd" d="M50.938,17.985c-5.32-4.612-11.178-5.416-17.646-3.656
		c-0.317-0.366-0.639-0.736-1.138-1.309c0.676-0.445,1.144-0.965,1.694-1.076c1.732-0.35,3.496-0.763,5.247-0.76
		c4.047,0.006,7.835,1.071,11.134,3.531c0.602,0.448,1.119,1.01,1.795,1.627C51.684,16.858,51.417,17.261,50.938,17.985z"/>
	<path fill-rule="evenodd" clip-rule="evenodd" d="M52.332,17.863c1.463,0.481,1.463,0.481,0.823,1.9
		c-0.475-0.199-0.954-0.401-1.592-0.67C51.903,18.55,52.127,18.191,52.332,17.863z"/>
</g>
</svg>
