<?xml version="1.0" encoding="utf-8"?>
<!-- Generator: Adobe Illustrator 16.0.0, SVG Export Plug-In . SVG Version: 6.00 Build 0)  -->
<!DOCTYPE svg PUBLIC "-//W3C//DTD SVG 1.1//EN" "http://www.w3.org/Graphics/SVG/1.1/DTD/svg11.dtd">
<svg version="1.1" id="Layer_1" xmlns="http://www.w3.org/2000/svg" xmlns:xlink="http://www.w3.org/1999/xlink" x="0px" y="0px"
	 width="75px" height="75px" viewBox="0 0 75 75" enable-background="new 0 0 75 75" xml:space="preserve">
<path id="Cryptocurrency-2" fill-rule="evenodd" clip-rule="evenodd" d="M27.312,5.541c2.799-0.096,5.406-0.185,8.18-0.283
	c0.123,2.755,0.238,5.305,0.362,8.079c1.347,0.001,2.626,0,4.104,0.001c-0.053-2.797-0.102-5.485-0.152-8.239
	c2.794-0.088,5.416-0.172,8.18-0.26c0.115,2.822,0.387,5.463,0.276,8.088c-0.076,1.798,0.672,2.531,2.155,3.289
	c5.229,2.665,9.019,6.742,11.458,12.568c-2.955,0.116-5.696,0.318-8.434,0.257c-0.592-0.012-1.223-0.918-1.736-1.501
	c-4.68-5.319-10.543-7.271-17.326-5.472c-6.426,1.7-10.547,6.033-11.968,12.599c-1.601,7.396,2.237,14.675,9.278,17.978
	c6.66,3.126,15.344,1.335,19.784-4.535c1.661-2.196,3.393-2.904,5.894-2.771c1.588,0.085,3.188-0.051,5.032-0.093
	c-2.006,5.977-5.606,10.383-10.791,13.418c-1.468,0.858-1.855,1.757-1.737,3.319c0.191,2.559,0.182,5.134,0.268,8.042
	c-2.504,0.107-4.964,0.269-7.42,0.252c-0.302-0.002-0.816-0.926-0.855-1.448c-0.159-2.122-0.171-4.255-0.243-6.57
	c-1.333,0.007-2.62,0.015-4.151,0.024c0.056,2.771,0.109,5.443,0.166,8.233c-2.831,0.09-5.449,0.173-8.204,0.259
	c-0.097-2.936-0.21-5.716-0.265-8.498c-0.023-1.178-0.291-1.928-1.523-2.556c-8.657-4.424-13.532-11.545-13.789-21.28
	c-0.254-9.455,4.092-16.688,12.146-21.615c1.252-0.765,1.689-1.528,1.574-2.98C27.361,11.154,27.39,8.444,27.312,5.541z"/>
</svg>
