<?xml version="1.0" encoding="utf-8"?>
<!-- Generator: Adobe Illustrator 16.0.0, SVG Export Plug-In . SVG Version: 6.00 Build 0)  -->
<!DOCTYPE svg PUBLIC "-//W3C//DTD SVG 1.1//EN" "http://www.w3.org/Graphics/SVG/1.1/DTD/svg11.dtd">
<svg version="1.1" id="Layer_1" xmlns="http://www.w3.org/2000/svg" xmlns:xlink="http://www.w3.org/1999/xlink" x="0px" y="0px"
	 width="75px" height="75px" viewBox="0 0 75 75" enable-background="new 0 0 75 75" xml:space="preserve">
<g id="Startup_Ecosystem-2">
	<path fill-rule="evenodd" clip-rule="evenodd" fill="none" d="M69.794,72c-21.658,0-43.316,0-64.975,0c0-21.658,0-43.316,0-64.975
		c21.658,0,43.316,0,64.975,0C69.794,28.684,69.794,50.342,69.794,72z M40.526,38.715c-0.629,0.045-1.011,0.063-1.391,0.102
		c-3.244,0.33-6.4,0.993-8.963,3.163c-0.859,0.729-1.683,1.092-2.794,1.193c-2.229,0.205-4.079,1.25-5.687,2.831
		c-1.219,1.199-2.604,2.228-3.909,3.339c-0.542,0.461-1.001,0.508-1.64,0.04c-0.948-0.695-1.982-0.558-2.963,0.08
		c-1.37,0.891-2.768,1.74-4.125,2.648c-1.486,0.993-1.86,2.505-0.911,4.01c2.257,3.578,4.549,7.135,6.872,10.671
		c1.006,1.53,2.406,1.804,4,0.862c0.993-0.587,1.943-1.246,2.918-1.864c2.828-1.793,3.01-2.292,1.938-5.358
		c3.265-2.682,4.345-2.954,8.303-2.115c1.834,0.388,3.692,0.676,5.5,1.158c5.626,1.498,9.942-0.732,13.685-4.678
		c0.103-0.107,0.083-0.331,0.201-0.87c-0.598,0.294-0.968,0.407-1.252,0.63c-0.718,0.564-1.4,1.174-2.09,1.774
		c-2.554,2.219-5.456,3.147-8.824,2.452c-2.306-0.477-4.639-0.833-6.921-1.395c-2.862-0.705-5.512-0.58-7.898,1.357
		c-0.402,0.326-0.896,0.541-1.441,0.862c-1.923-2.99-3.809-5.921-5.672-8.819c1.442-1.11,3.028-1.921,4.041-3.189
		c2.76-3.461,6.27-4.201,10.33-3.391c1.645,0.328,3.24,1.053,4.89,1.179c3.445,0.263,6.911,0.257,10.369,0.344
		c1.816,0.046,2.882,0.873,2.902,2.303c0.021,1.518-1.019,2.378-2.941,2.384c-3.851,0.011-7.7-0.006-11.551,0.015
		c-0.506,0.003-1.012,0.153-1.519,0.235c0.005,0.16,0.01,0.319,0.015,0.479c0.468,0.079,0.936,0.22,1.404,0.226
		c2.069,0.024,4.139,0.012,6.208,0.011c1.973-0.001,3.949,0.053,5.919-0.021c2.304-0.088,3.489-1.51,3.393-3.756
		c-0.018-0.412,0.295-0.972,0.633-1.244c2.691-2.178,5.416-4.316,8.151-6.44c1.425-1.105,2.864-0.993,3.816,0.229
		c0.898,1.154,0.677,2.511-0.649,3.667c-1.668,1.454-3.369,2.871-5.036,4.326c-0.348,0.302-0.609,0.701-0.91,1.056
		c0.103,0.123,0.205,0.247,0.309,0.37c0.407-0.245,0.854-0.442,1.215-0.743c1.625-1.357,3.228-2.741,4.835-4.118
		c1.818-1.559,2.174-3.629,0.893-5.177c-1.34-1.62-3.28-1.681-5.229-0.157c-1.843,1.441-3.681,2.887-5.548,4.352
		c-3.086-3.941-7.454-4.606-12.26-5.088c0.347-1.249,0.475-2.435,0.994-3.411c0.784-1.472,2.163-1.451,3.715-1.216
		c2.52,0.383,4.762-0.949,5.597-3.34c0.528-1.516,0.653-3.178,0.9-4.783c0.185-1.199-0.417-1.684-1.594-1.546
		c-1,0.118-2.018,0.139-3.005,0.323c-3.917,0.737-5.734,3.258-5.003,7.179c0.235,1.261-0.227,1.831-1.307,2.537
		c0-2.69,0.056-5.179-0.023-7.664c-0.039-1.217,0.306-1.974,1.36-2.711c3.174-2.218,4.316-5.206,2.88-8.209
		c-0.952-1.994-2.517-3.704-3.866-5.497c-0.503-0.666-1.203-0.603-1.724,0.033c-1.093,1.335-2.296,2.614-3.171,4.085
		c-2.021,3.398-1.681,6.481,1.44,8.844c1.966,1.487,2.336,3.089,2.217,5.248s-0.026,4.33-0.026,6.496
		C40.526,36.199,40.526,37.394,40.526,38.715z M24.268,25.785c0-0.003,0-0.006,0-0.009c1.826,0,3.655,0.062,5.478-0.017
		c1.955-0.083,3.377-1.365,3.741-3.203c0.353-1.777-0.497-3.371-2.13-4.328c-0.486-0.285-0.965-0.879-1.1-1.419
		c-0.762-3.044-3.637-4.981-6.754-4.516c-0.492,0.074-1.111-0.06-1.541-0.317c-1.922-1.156-3.837-1.168-5.52,0.072
		c-1.557,1.147-2.135,3.053-1.666,5.159c0.113,0.509,0.071,1.134-0.123,1.615c-1.4,3.474,0.796,6.867,4.568,6.955
		C20.903,25.818,22.586,25.785,24.268,25.785z M52.499,53.35c0.113,0.079,0.228,0.157,0.341,0.235
		c1.033-0.878,2.079-1.742,3.085-2.65c0.143-0.128,0.089-0.474,0.127-0.718c-0.254,0.029-0.578-0.032-0.747,0.103
		c-0.896,0.714-1.771,1.457-2.608,2.239C52.53,52.715,52.56,53.08,52.499,53.35z"/>
	<path fill-rule="evenodd" clip-rule="evenodd" d="M40.526,38.715c0-1.321,0-2.516,0-3.71c0-2.166-0.093-4.337,0.026-6.496
		s-0.251-3.761-2.217-5.248c-3.121-2.362-3.462-5.445-1.44-8.844c0.875-1.471,2.078-2.75,3.171-4.085
		c0.521-0.636,1.221-0.699,1.724-0.033c1.35,1.793,2.914,3.503,3.866,5.497c1.437,3.003,0.294,5.991-2.88,8.209
		c-1.055,0.737-1.399,1.494-1.36,2.711c0.079,2.485,0.023,4.974,0.023,7.664c1.08-0.706,1.542-1.276,1.307-2.537
		c-0.731-3.921,1.086-6.441,5.003-7.179c0.987-0.185,2.005-0.205,3.005-0.323c1.177-0.138,1.778,0.347,1.594,1.546
		c-0.247,1.605-0.372,3.268-0.9,4.783c-0.835,2.391-3.077,3.723-5.597,3.34c-1.552-0.235-2.931-0.256-3.715,1.216
		c-0.52,0.977-0.647,2.162-0.994,3.411c4.806,0.481,9.174,1.146,12.26,5.088c1.867-1.465,3.705-2.91,5.548-4.352
		c1.948-1.523,3.889-1.463,5.229,0.157c1.281,1.548,0.926,3.618-0.893,5.177c-1.607,1.377-3.21,2.761-4.835,4.118
		c-0.36,0.301-0.808,0.498-1.215,0.743c-0.104-0.123-0.206-0.247-0.309-0.37c0.301-0.354,0.563-0.754,0.91-1.056
		c1.667-1.455,3.368-2.872,5.036-4.326c1.326-1.156,1.548-2.513,0.649-3.667c-0.952-1.222-2.392-1.334-3.816-0.229
		c-2.735,2.124-5.46,4.263-8.151,6.44c-0.338,0.272-0.65,0.832-0.633,1.244c0.097,2.246-1.089,3.668-3.393,3.756
		c-1.97,0.074-3.946,0.021-5.919,0.021c-2.069,0.001-4.139,0.014-6.208-0.011c-0.469-0.006-0.937-0.146-1.404-0.226
		c-0.005-0.159-0.01-0.318-0.015-0.479c0.507-0.082,1.013-0.232,1.519-0.235c3.851-0.021,7.7-0.004,11.551-0.015
		c1.923-0.006,2.963-0.866,2.941-2.384c-0.021-1.43-1.086-2.257-2.902-2.303c-3.458-0.087-6.924-0.081-10.369-0.344
		c-1.649-0.126-3.245-0.851-4.89-1.179c-4.061-0.811-7.57-0.07-10.33,3.391c-1.013,1.269-2.599,2.079-4.041,3.189
		c1.863,2.898,3.749,5.829,5.672,8.819c0.545-0.321,1.039-0.536,1.441-0.862c2.387-1.938,5.036-2.063,7.898-1.357
		c2.282,0.562,4.615,0.918,6.921,1.395c3.368,0.695,6.271-0.233,8.824-2.452c0.689-0.601,1.372-1.21,2.09-1.774
		c0.284-0.223,0.654-0.336,1.252-0.63c-0.118,0.539-0.099,0.763-0.201,0.87c-3.742,3.945-8.059,6.176-13.685,4.678
		c-1.808-0.482-3.666-0.771-5.5-1.158c-3.958-0.839-5.038-0.566-8.303,2.115c1.072,3.066,0.891,3.565-1.938,5.358
		c-0.975,0.618-1.925,1.277-2.918,1.864c-1.594,0.941-2.994,0.668-4-0.862c-2.323-3.536-4.615-7.093-6.872-10.671
		c-0.949-1.505-0.575-3.017,0.911-4.01c1.357-0.908,2.755-1.758,4.125-2.648c0.98-0.638,2.015-0.775,2.963-0.08
		c0.639,0.468,1.098,0.421,1.64-0.04c1.306-1.111,2.69-2.14,3.909-3.339c1.607-1.581,3.458-2.626,5.687-2.831
		c1.111-0.102,1.935-0.465,2.794-1.193c2.563-2.17,5.719-2.833,8.963-3.163C39.516,38.777,39.897,38.76,40.526,38.715z
		 M17.18,67.165c0.551-0.182,0.899-0.228,1.173-0.397c1.429-0.889,2.861-1.774,4.245-2.73c0.956-0.66,1.027-1.601,0.431-2.539
		c-2.244-3.529-4.502-7.051-6.787-10.554c-0.628-0.962-1.56-1.113-2.521-0.53c-1.397,0.847-2.771,1.736-4.117,2.661
		c-0.926,0.637-1.162,1.503-0.523,2.499c2.259,3.521,4.505,7.049,6.806,10.542C16.19,66.581,16.786,66.854,17.18,67.165z
		 M52.378,44.348c-3.358-5.598-17.109-5.968-21.399-1.539c4.959,2.065,10.221,2.051,15.504,2.005
		c1.315-0.012,2.635,0.431,3.953,0.664c0.001,0.141,0.004,0.28,0.006,0.42C51.068,45.396,51.695,44.894,52.378,44.348z
		 M41.288,10.813c-0.213-0.021-0.425-0.042-0.638-0.063c-1.129,1.64-2.446,3.184-3.347,4.941c-1.556,3.037-0.257,6.209,3.012,7.79
		c0.221-1.749,0.496-3.438-1.236-4.653c-0.388-0.271-0.732-0.641-0.998-1.032c-0.143-0.21-0.075-0.562-0.103-0.85
		c0.256,0.05,0.575,0.022,0.757,0.167c0.505,0.402,0.952,0.877,1.422,1.321c0.15-0.04,0.3-0.079,0.449-0.12c0-1.832,0-3.666,0-5.499
		c0.24,0.002,0.48,0.004,0.721,0.006c0,1.854,0,3.708,0,5.562c0.917-0.406,1.371-0.895,1.889-1.304
		c0.166-0.132,0.496-0.056,0.751-0.074c-0.032,0.255,0.018,0.57-0.116,0.752c-0.279,0.385-0.609,0.766-0.998,1.032
		c-1.807,1.236-1.43,2.973-1.264,4.773c3.459-1.963,4.572-5.004,2.879-8.169C43.598,13.766,42.36,12.334,41.288,10.813z
		 M49.756,30.211c0.017,0.168,0.033,0.338,0.05,0.506c-1.646,0.713-4.244-0.54-4.938,2.184c4.543,0.69,7.74-3.215,6.229-7.579
		c-5.341-0.386-8.743,2.71-7.225,6.469c2.55-0.746,1.474-3.222,2.091-4.919c0.15,0.01,0.302,0.02,0.452,0.029
		c0.144,0.664,0.286,1.329,0.454,2.113c1.097-1.03,2.144-2.014,3.236-3.041c0.21,0.341,0.371,0.531,0.342,0.568
		c-0.879,1.089-1.777,2.164-2.74,3.321C48.438,29.986,49.097,30.099,49.756,30.211z"/>
	<path fill-rule="evenodd" clip-rule="evenodd" d="M24.268,25.785c-1.682,0-3.364,0.033-5.046-0.007
		c-3.772-0.088-5.969-3.481-4.568-6.955c0.194-0.481,0.236-1.106,0.123-1.615c-0.469-2.106,0.109-4.012,1.666-5.159
		c1.683-1.24,3.598-1.229,5.52-0.072c0.43,0.258,1.049,0.392,1.541,0.317c3.117-0.466,5.992,1.472,6.754,4.516
		c0.135,0.54,0.613,1.134,1.1,1.419c1.633,0.957,2.482,2.551,2.13,4.328c-0.364,1.838-1.786,3.12-3.741,3.203
		c-1.822,0.078-3.651,0.017-5.478,0.017C24.268,25.779,24.268,25.782,24.268,25.785z M29.326,17.635
		c-0.132-2.355-1.798-4.114-4.255-4.479c-2.029-0.301-4.149,0.977-4.824,2.792c0.416,0.506,0.776,0.942,1.273,1.546
		c-1.322-0.209-2.214-0.537-3.061-0.447c-2.077,0.222-3.41,2.045-3.266,4.208c0.137,2.05,1.786,3.568,4.125,3.618
		c3.127,0.065,6.256,0.024,9.383,0.013c0.525-0.002,1.063-0.025,1.572-0.143c1.699-0.39,2.691-1.934,2.338-3.571
		c-0.354-1.636-1.91-2.646-3.596-2.333c-0.328,0.062-0.656,0.125-0.984,0.188c-0.064-0.138-0.129-0.276-0.192-0.414
		C28.334,18.287,28.827,17.963,29.326,17.635z M15.837,16.671c2.699-0.069,3.932-2.072,5.395-3.756
		c-1.213-0.927-2.783-0.976-4.046-0.113C15.851,13.712,15.355,15.213,15.837,16.671z"/>
	<path fill-rule="evenodd" clip-rule="evenodd" d="M52.499,53.35c0.061-0.27,0.031-0.635,0.197-0.791
		c0.837-0.782,1.712-1.525,2.608-2.239c0.169-0.135,0.493-0.073,0.747-0.103c-0.038,0.244,0.016,0.59-0.127,0.718
		c-1.006,0.908-2.052,1.772-3.085,2.65C52.727,53.507,52.612,53.429,52.499,53.35z"/>
	<path fill-rule="evenodd" clip-rule="evenodd" fill="none" d="M17.18,67.165c-0.394-0.311-0.989-0.584-1.295-1.049
		c-2.301-3.493-4.547-7.021-6.806-10.542c-0.639-0.996-0.402-1.862,0.523-2.499c1.346-0.925,2.72-1.814,4.117-2.661
		c0.962-0.583,1.894-0.432,2.521,0.53c2.285,3.503,4.543,7.024,6.787,10.554c0.597,0.938,0.525,1.879-0.431,2.539
		c-1.384,0.956-2.816,1.842-4.245,2.73C18.079,66.938,17.73,66.983,17.18,67.165z"/>
	<path fill-rule="evenodd" clip-rule="evenodd" fill="none" d="M52.378,44.348c-0.683,0.546-1.31,1.048-1.937,1.55
		c-0.002-0.14-0.005-0.279-0.006-0.42c-1.318-0.233-2.638-0.676-3.953-0.664c-5.283,0.046-10.545,0.061-15.504-2.005
		C35.269,38.38,49.02,38.75,52.378,44.348z"/>
	<path fill-rule="evenodd" clip-rule="evenodd" fill="none" d="M41.288,10.813c1.072,1.521,2.31,2.952,3.18,4.58
		c1.693,3.165,0.58,6.206-2.879,8.169c-0.166-1.801-0.543-3.537,1.264-4.773c0.389-0.267,0.719-0.647,0.998-1.032
		c0.134-0.182,0.084-0.497,0.116-0.752c-0.255,0.019-0.585-0.058-0.751,0.074c-0.518,0.409-0.972,0.897-1.889,1.304
		c0-1.854,0-3.707,0-5.562c-0.24-0.002-0.48-0.004-0.721-0.006c0,1.833,0,3.667,0,5.499c-0.149,0.041-0.299,0.08-0.449,0.12
		c-0.47-0.444-0.917-0.919-1.422-1.321c-0.182-0.145-0.501-0.117-0.757-0.167c0.027,0.288-0.04,0.64,0.103,0.85
		c0.266,0.392,0.61,0.761,0.998,1.032c1.732,1.215,1.457,2.904,1.236,4.653c-3.269-1.581-4.567-4.753-3.012-7.79
		c0.9-1.758,2.218-3.302,3.347-4.941C40.863,10.771,41.075,10.792,41.288,10.813z"/>
	<path fill-rule="evenodd" clip-rule="evenodd" fill="none" d="M49.756,30.211c-0.659-0.112-1.317-0.225-2.048-0.349
		c0.963-1.157,1.861-2.232,2.74-3.321c0.029-0.037-0.132-0.228-0.342-0.568c-1.093,1.027-2.14,2.011-3.236,3.041
		c-0.168-0.784-0.311-1.449-0.454-2.113c-0.15-0.01-0.302-0.02-0.452-0.029c-0.617,1.697,0.459,4.173-2.091,4.919
		c-1.519-3.759,1.884-6.854,7.225-6.469c1.511,4.364-1.687,8.27-6.229,7.579c0.693-2.724,3.291-1.471,4.938-2.184
		C49.789,30.549,49.772,30.379,49.756,30.211z"/>
	<path fill-rule="evenodd" clip-rule="evenodd" fill="none" d="M29.326,17.635c-0.499,0.328-0.992,0.652-1.486,0.978
		c0.063,0.138,0.128,0.276,0.192,0.414c0.328-0.063,0.656-0.126,0.984-0.188c1.686-0.313,3.242,0.697,3.596,2.333
		c0.354,1.638-0.639,3.182-2.338,3.571c-0.509,0.117-1.047,0.141-1.572,0.143c-3.127,0.012-6.256,0.053-9.383-0.013
		c-2.339-0.05-3.988-1.568-4.125-3.618c-0.145-2.163,1.188-3.986,3.266-4.208c0.847-0.09,1.738,0.238,3.061,0.447
		c-0.497-0.604-0.857-1.04-1.273-1.546c0.675-1.815,2.795-3.093,4.824-2.792C27.528,13.521,29.194,15.279,29.326,17.635z"/>
	<path fill-rule="evenodd" clip-rule="evenodd" fill="none" d="M15.837,16.671c-0.481-1.458,0.014-2.959,1.349-3.869
		c1.263-0.862,2.833-0.813,4.046,0.113C19.769,14.599,18.536,16.602,15.837,16.671z"/>
</g>
</svg>
