<?xml version="1.0" encoding="utf-8"?>
<!-- Generator: Adobe Illustrator 16.0.0, SVG Export Plug-In . SVG Version: 6.00 Build 0)  -->
<!DOCTYPE svg PUBLIC "-//W3C//DTD SVG 1.1//EN" "http://www.w3.org/Graphics/SVG/1.1/DTD/svg11.dtd">
<svg version="1.1" id="Layer_1" xmlns="http://www.w3.org/2000/svg" xmlns:xlink="http://www.w3.org/1999/xlink" x="0px" y="0px"
	 width="75px" height="75px" viewBox="0 0 75 75" enable-background="new 0 0 75 75" xml:space="preserve">
<g id="Female_Unicorn_Founders-2">
	<path fill-rule="evenodd" clip-rule="evenodd" d="M29.958,42.915c-1.672-0.593-3.158-1.119-4.681-1.66
		c-0.924,0.746-1.838,1.652-2.904,2.314c-3.846,2.389-8.922,1.515-11.646-1.921c-2.809-3.541-2.576-8.477,0.64-11.764
		c2.369-2.423,4.831-4.755,7.208-7.084c-1.64-2.016-3.315-3.751-4.601-5.738c-1.432-2.215-2.558-4.637-3.701-7.025
		c-0.244-0.511-0.191-1.409,0.119-1.854c0.194-0.279,1.187-0.206,1.718-0.012c4.245,1.554,8.01,3.899,11.228,7.084
		c0.407,0.404,0.636,0.987,0.895,1.401c1.868-1.188,2.522-2.443,2.45-4.155c-0.073-1.75,0.02-3.507-0.012-5.26
		c-0.025-1.36,0.663-1.801,1.907-1.636c2.118,0.279,3.938,1.15,5.531,2.591c0.458,0.415,1.16,0.743,1.771,0.779
		c18.061,1.065,31.317,15.212,31.154,33.263c-0.04,4.409,0.004,8.82,0.009,13.23c0.003,4.101-1.955,6.922-5.824,8.13
		c-0.938,0.293-0.965,0.805-0.942,1.521c0.116,3.645-0.206,3.298-3.322,3.297c-13.021-0.001-26.041,0.003-39.061,0.003
		c-2.373,0-2.558-0.158-2.35-2.571c0.547-6.354,3.541-11.267,8.909-14.684C27.535,49.204,29.603,46.646,29.958,42.915z
		 M28.847,8.059c0,0.919-0.085,1.713,0.014,2.483c0.446,3.457-0.822,6.041-3.399,8.413c-4.337,3.991-8.413,8.269-12.525,12.497
		c-2.156,2.216-2.535,5.166-1.204,7.64c1.375,2.559,3.954,3.837,6.953,3.462c2.218-0.278,3.759-1.647,5.139-3.231
		c0.808-0.926,1.479-1.053,2.559-0.287c2.971,2.103,6.618,1.54,8.719-1.399c0.771-1.079,1.138-2.468,1.57-3.756
		c0.259-0.771,0.039-1.943,1.274-1.807c1.3,0.144,1.024,1.289,0.911,2.156c-0.465,3.559-2.403,6.03-5.613,7.588
		c-0.436,0.211-0.975,0.726-1.02,1.146c-0.481,4.547-2.879,7.762-6.696,10.089c-2.404,1.466-4.297,3.477-5.653,5.939
		c-1.198,2.178-2.106,4.468-2.031,7.082c3.399,0,6.661,0,9.906,0c1.343-8.494,6.314-13.242,14.66-14.64
		c0-4.216,0.005-8.359-0.003-12.503c-0.003-0.887-0.033-1.854,1.187-1.822c1.125,0.03,1.06,0.981,1.06,1.79
		c0,4.359-0.032,8.72,0.013,13.079c0.015,1.285-0.444,1.767-1.751,1.835c-2.934,0.156-5.617,1.122-7.903,3.017
		c-2.893,2.4-4.522,5.469-4.931,9.234c9.391,0,18.612,0,27.824,0c0.065-0.265,0.136-0.415,0.136-0.566
		c-0.011-7.92,0.237-15.854-0.108-23.76c-0.501-11.503-9.42-21.698-20.669-24.217c-2.585-0.578-2.585-0.578-2.765-3.328
		C34.294,11.09,32.137,8.63,28.847,8.059z M41.277,11.991c0,0.965-0.131,1.813,0.051,2.588c0.104,0.435,0.731,1.044,1.108,1.033
		c0.392-0.011,0.979-0.61,1.109-1.061C44.015,12.924,43.652,12.528,41.277,11.991z M64.806,47.993
		c-1.121,0.255-2.11,0.429-3.052,0.746c-0.146,0.049-0.191,1.057-0.086,1.098c0.964,0.363,1.973,0.61,3.138,0.939
		C64.806,49.67,64.806,49.009,64.806,47.993z M64.793,56.308c0-1.046,0-1.709,0-2.772c-0.829,0.363-1.475,0.57-2.019,0.931
		c-0.155,0.104-0.146,0.855,0.015,0.959C63.337,55.775,63.985,55.97,64.793,56.308z"/>
	<path fill-rule="evenodd" clip-rule="evenodd" fill="#FFFFFF" d="M61.668,49.837c-0.105-0.041-0.061-1.049,0.086-1.098
		c0.941-0.317,1.931-0.491,3.052-0.746c0,1.016,0,1.677,0,2.783"/>
	<path fill-rule="evenodd" clip-rule="evenodd" d="M26.896,28.217c-0.425-0.622-1.233-1.287-1.169-1.854
		c0.069-0.606,0.89-1.464,1.511-1.593c1.004-0.21,1.785,0.64,1.648,1.631c-0.089,0.655-0.839,1.219-1.293,1.824
		C27.36,28.223,27.129,28.219,26.896,28.217z"/>
</g>
</svg>
