<?xml version="1.0" encoding="utf-8"?>
<!-- Generator: Adobe Illustrator 16.0.0, SVG Export Plug-In . SVG Version: 6.00 Build 0)  -->
<!DOCTYPE svg PUBLIC "-//W3C//DTD SVG 1.1//EN" "http://www.w3.org/Graphics/SVG/1.1/DTD/svg11.dtd">
<svg version="1.1" id="Layer_1" xmlns="http://www.w3.org/2000/svg" xmlns:xlink="http://www.w3.org/1999/xlink" x="0px" y="0px"
	 width="75px" height="75px" viewBox="0 0 75 75" enable-background="new 0 0 75 75" xml:space="preserve">
<g id="FoodTech">
	<path fill-rule="evenodd" clip-rule="evenodd" d="M59.733,31.268c-0.412,0.446-0.817,0.886-1.293,1.399
		c2.117,2.639,3.371,5.62,3.837,8.99c1.17,8.477-5.541,17.29-14.036,18.346c-6.28,0.781-11.474-1.182-15.627-5.977
		c-0.357-0.413-1.075-0.705-1.635-0.722c-2.569-0.076-5.142-0.026-7.712-0.034c-2.675-0.009-4.264-1.643-4.271-4.274
		c-0.003-1.11,0.382-1.688,1.554-1.602c0.415,0.03,0.833,0.005,1.197,0.005c0.108-0.15,0.204-0.22,0.211-0.298
		c0.337-4.163,1.948-5.633,6.193-5.632c1.822,0,3.645,0,5.469,0c4.145,0.002,5.853,1.596,6.142,5.806
		c0.194,0.038,0.415,0.13,0.626,0.113c1.972-0.161,2.445,0.009,2.166,2.582c-0.207,1.905-1.762,3.244-3.745,3.293
		c-1.294,0.032-2.587,0.007-4.204,0.007c2.284,2.575,4.889,3.989,7.889,4.665c5.969,1.345,12.259-1.292,15.568-6.451
		c3.364-5.247,3.142-11.843-0.548-16.826c-0.522-0.708-1.031-1.13-2.041-1.117c-0.976,0.013-1.956-0.454-2.935-0.711
		c-0.093-0.161-0.187-0.322-0.28-0.481c-0.845,0.979-1.697,1.954-2.536,2.939c-0.742,0.873-1.429,0.844-2.222,0.016
		c-1.87-1.956-3.786-3.868-5.683-5.796c-0.948,1.005-1.8,1.906-2.578,2.729c1.208,1.189,2.58,2.542,3.771,3.716
		c0.74-0.119,1.867-0.615,2.188-0.297c1.055,1.044-0.359,1.523-0.847,2.19c-0.813,1.116-1.709,1.237-2.767-0.164
		c-0.855,0.911-1.655,1.741-2.427,2.595c-0.677,0.748-1.307,0.768-2.005,0.017c-0.699-0.753-1.427-1.482-2.182-2.182
		c-0.755-0.701-0.715-1.325,0.026-2.003c0.825-0.756,1.617-1.548,2.503-2.4c-1.457-1.146-0.992-2.07,0.108-3.009
		c0.921-0.784,1.759-1.663,2.613-2.482c-1.229-1.671-1.229-1.673,0.204-3.107c3.568-3.569,7.139-7.139,10.708-10.709
		c1.628-1.629,1.627-1.629,3.284-0.047c0.131,0.126,0.278,0.236,0.374,0.315c0.916-0.907,1.798-1.781,3.069-3.041
		c-0.424-0.267-1.064-0.493-1.408-0.945c-0.243-0.32-0.087-0.946-0.108-1.437c0.454,0.021,1.09-0.146,1.334,0.09
		c2.787,2.696,5.532,5.44,8.23,8.226c0.246,0.254,0.104,0.883,0.141,1.337c-0.49-0.003-1.07,0.155-1.448-0.052
		c-0.459-0.255-0.748-0.816-1.215-1.368c-0.934,1.106-1.736,2.059-2.66,3.153c0.162,0.169,0.666,0.534,0.932,1.029
		c0.217,0.405,0.148,0.965,0.207,1.456c-0.527-0.045-1.248,0.114-1.549-0.17c-2.271-2.155-4.459-4.398-6.676-6.61
		c-0.26-0.259-0.547-0.49-0.751-0.671c-3.709,3.707-7.37,7.364-10.966,10.957c2.199,2.173,4.478,4.424,7.111,7.026
		c0.49-0.604,1.197-1.392,1.793-2.258c0.179-0.26,0.134-0.764,0.032-1.109c-0.869-2.938,0.667-5.749,3.532-6.409
		c2.781-0.641,5.393,1.182,5.982,4.103c0.13,0.641,0.374,1.349,0.791,1.832c8.664,10.047,6.084,25.121-5.448,31.67
		c-0.28,0.158-0.553,0.332-1.07,0.646c0.5,0.047,0.779,0.067,1.057,0.1c2.209,0.258,3.773,3.5,2.521,5.347
		c-0.224,0.329-0.868,0.52-1.321,0.523c-3.879,0.04-7.76,0.017-11.639,0.029c-0.757,0.002-1.542-0.07-1.565-0.975
		c-0.024-0.925,0.759-1.006,1.518-1.001c3.272,0.013,6.544,0.005,9.816,0.005c0.457,0,0.916,0,1.362,0
		c0.144-1.759-0.024-1.976-1.568-1.978c-6.122-0.008-12.245,0.02-18.368-0.021c-1.356-0.009-1.92,0.485-1.656,1.998
		c1.744,0,3.509,0.01,5.274-0.005c0.744-0.007,1.536,0.023,1.535,0.972c-0.001,0.929-0.777,1.007-1.529,1.002
		c-1.917-0.014-3.834-0.037-5.749,0.009c-1.098,0.025-1.54-0.448-1.478-1.51c0.036-0.606-0.026-1.22,0.033-1.821
		c0.164-1.652,1.239-2.473,3.593-2.648c-1.042-0.676-2.014-1.179-2.831-1.865c-1.354-1.137-2.621-2.378-3.897-3.604
		c-0.547-0.525-0.919-1.262-0.13-1.747c0.311-0.189,1.231,0.142,1.558,0.514c4.077,4.65,9.19,7.078,15.351,6.708
		c7.536-0.45,13.123-4.211,16.187-11.127c3.063-6.913,2.007-13.483-2.63-19.463C60.009,31.458,59.881,31.388,59.733,31.268z
		 M25.503,43.931c-1.288,0.508-1.766,1.473-1.39,3.395c4.494,0,8.997,0,13.491,0c0.244-2.02-0.118-2.753-1.442-3.402
		c-0.524,0.539-0.975,1.004-1.427,1.468c-0.43-0.544-0.858-1.09-1.289-1.636c0.08-0.084,0.162-0.17,0.242-0.256
		c-0.586,0-1.172,0-1.758,0c0.082,0.094,0.163,0.186,0.245,0.279c-0.439,0.538-0.878,1.077-1.318,1.615
		c-0.453-0.572-0.907-1.145-1.485-1.875c-0.271,0-0.854,0-1.439,0c0.08,0.087,0.158,0.173,0.236,0.26
		c-0.396,0.534-0.792,1.07-1.189,1.606C26.523,44.935,26.066,44.484,25.503,43.931z M20.924,49.411
		c0.267,1.242,0.9,1.925,2.104,1.929c5.224,0.012,10.45,0.021,15.676-0.009c1.179-0.008,1.857-0.666,1.93-1.92
		C34.058,49.411,27.551,49.411,20.924,49.411z M52.526,28.68c0.009,1.605,1.308,2.93,2.904,2.961
		c1.626,0.032,3.047-1.365,3.039-2.989c-0.009-1.644-1.398-2.977-3.066-2.94C53.794,25.744,52.519,27.06,52.526,28.68z
		 M56.456,16.063c0.905,0.915,1.804,1.822,2.716,2.746c0.813-0.835,1.68-1.726,2.401-2.466c-0.879-0.895-1.769-1.801-2.687-2.736
		C58.115,14.386,57.266,15.245,56.456,16.063z M40.204,36.349c-0.479-0.457-0.904-0.861-1.324-1.262
		c-0.75,0.701-1.419,1.327-2.194,2.052c0.512,0.515,0.931,0.935,1.448,1.453C38.856,37.81,39.477,37.137,40.204,36.349z"/>
	<path fill-rule="evenodd" clip-rule="evenodd" d="M28.9,36.204c0.097-0.186,0.148-0.241,0.136-0.266
		c-1.215-2.591-0.044-4.358,1.561-6.471c3.036-4.003,2.977-8.479,0.483-12.872c-0.137-0.243-0.424-0.465-0.433-0.704
		c-0.017-0.493,0.108-0.991,0.174-1.486c0.477,0.145,1.246,0.156,1.379,0.455c0.892,1.977,2.021,3.955,2.365,6.048
		c0.692,4.218-0.539,8.055-3.518,11.204c-0.616,0.652-0.68,1.193-0.421,1.988c0.418,1.283,0.759,2.595,1.038,3.915
		c0.08,0.383-0.034,0.996-0.296,1.204c-0.254,0.204-0.894,0.169-1.225-0.014c-1.512-0.83-2.944-1.808-4.47-2.608
		c-0.561-0.296-1.339-0.454-1.95-0.332c-8.75,1.737-16.842-5.077-16.568-14.004c0.319-10.435,12.067-16.77,20.958-11.301
		c0.199,0.122,0.479,0.216,0.564,0.396c0.243,0.519,0.406,1.074,0.602,1.615c-0.538,0.008-1.128,0.164-1.602-0.005
		c-1.566-0.555-3.039-1.466-4.642-1.816c-6.416-1.406-12.737,3.18-13.84,9.899c-1.044,6.352,3.801,12.75,10.209,13.391
		c1.282,0.129,2.652,0.192,3.877-0.124c1.367-0.353,2.424-0.154,3.511,0.638C27.45,35.433,28.193,35.791,28.9,36.204z"/>
	<path fill-rule="evenodd" clip-rule="evenodd" d="M16.237,18.695c1.237,0.137,2.475,0.274,3.796,0.42
		c0-0.584-0.111-1.261,0.036-1.874c0.116-0.482,0.552-0.887,0.847-1.326c0.341,0.451,0.826,0.857,0.986,1.366
		c0.172,0.548,0.039,1.191,0.039,1.815c1.351-0.142,2.609-0.273,3.944-0.412c0.017-0.229-0.04-0.498,0.067-0.661
		c0.271-0.414,0.616-0.781,0.932-1.167c0.329,0.381,0.942,0.768,0.936,1.142c-0.031,1.502-0.254,2.998-0.441,4.851
		c0.677,0.859,0.688,1.96-0.292,3.488c-1.148,1.793-2.863,2.423-5.071,2.274c-0.027,0.603,0.063,1.179-0.106,1.665
		c-0.171,0.49-0.599,0.89-0.914,1.33c-0.32-0.428-0.758-0.813-0.927-1.292c-0.158-0.451-0.034-1.002-0.034-1.72
		c-0.591,0-1.087,0.03-1.578-0.005c-2.072-0.15-3.992-1.939-4.289-3.979c-0.027-0.185-0.105-0.427-0.023-0.551
		c1.173-1.766-0.368-3.51-0.03-5.271c0.14-0.728-0.272-1.838,0.871-1.839c0.467-0.001,0.935,0.938,1.401,1.448
		C16.336,18.498,16.286,18.596,16.237,18.695z M16.358,20.803c0.73,1.707,1.72,2.176,3.573,1.766
		C19.449,20.889,18.953,20.634,16.358,20.803z M16.413,24.787c0.552,1.581,1.578,2.102,3.492,1.767
		C19.529,24.846,18.805,24.479,16.413,24.787z M25.559,24.809c-2.425-0.371-3.377,0.132-3.4,1.795
		C24.119,26.794,24.889,26.389,25.559,24.809z M25.635,20.801c-2.676-0.187-3.34,0.168-3.53,1.82
		C23.985,22.893,24.782,22.504,25.635,20.801z"/>
	<path fill-rule="evenodd" clip-rule="evenodd" d="M56.888,28.69c-0.69,0.444-1.07,0.877-1.446,0.873
		c-0.299-0.005-0.864-0.587-0.823-0.831c0.063-0.373,0.518-0.901,0.859-0.943C55.812,27.747,56.211,28.229,56.888,28.69z"/>
</g>
</svg>
