<?xml version="1.0" encoding="utf-8"?>
<!-- Generator: Adobe Illustrator 16.0.0, SVG Export Plug-In . SVG Version: 6.00 Build 0)  -->
<!DOCTYPE svg PUBLIC "-//W3C//DTD SVG 1.1//EN" "http://www.w3.org/Graphics/SVG/1.1/DTD/svg11.dtd">
<svg version="1.1" id="Layer_1" xmlns="http://www.w3.org/2000/svg" xmlns:xlink="http://www.w3.org/1999/xlink" x="0px" y="0px"
	 width="75px" height="75px" viewBox="0 0 75 75" enable-background="new 0 0 75 75" xml:space="preserve">
<g id="gamming">
	<path fill-rule="evenodd" clip-rule="evenodd" d="M5.765,46.151c0.54-8.377,2.011-16.366,7.08-23.229
		c1.399-1.893,3.227-3.576,5.147-4.951c3.115-2.23,6.578-2.349,10.091-0.74c6.416,2.939,12.853,2.988,19.273,0.014
		c3.971-1.839,7.645-1.229,11.082,1.301c3.35,2.464,5.599,5.805,7.242,9.544c3.637,8.275,4.458,16.907,2.998,25.787
		c-0.098,0.589-0.258,1.173-0.442,1.741c-1.421,4.375-4.876,6.117-9.133,4.32c-2.853-1.204-5.523-2.835-8.286-4.254
		c-2.23-1.145-4.439-2.338-6.723-3.366c-4.324-1.949-8.723-1.934-12.979,0.133c-4.019,1.949-7.918,4.14-11.888,6.19
		c-1.109,0.573-2.248,1.127-3.432,1.514c-3.953,1.293-7.276-0.222-8.372-4.214C6.553,52.766,6.295,49.421,5.765,46.151z
		 M66.464,45.448c-0.512-3.191-0.924-7.104-1.808-10.908c-1.086-4.674-3.15-8.952-6.68-12.348c-3.284-3.157-5.961-3.489-10.117-1.73
		c-6.871,2.909-13.812,2.9-20.611-0.18c-3.284-1.487-6.107-1.079-8.822,1.11c-2.657,2.143-4.429,4.932-5.815,7.994
		c-3.104,6.848-3.697,14.081-3.12,21.454c0.126,1.601,0.576,3.224,1.155,4.729c0.641,1.668,1.878,2.235,3.572,1.703
		c1.546-0.486,3.038-1.188,4.487-1.924c3.789-1.919,7.483-4.033,11.324-5.839c4.942-2.323,10.04-2.361,15.054-0.169
		c2.59,1.134,5.083,2.494,7.6,3.791c2.276,1.171,4.482,2.489,6.8,3.57c3.409,1.59,5.31,0.665,6.046-3.05
		C66.015,51.206,66.111,48.683,66.464,45.448z"/>
	<path fill-rule="evenodd" clip-rule="evenodd" d="M21.966,35.125c-1.059,0-1.87,0-2.683,0c-2.838,0-3.866-0.421-3.636-1.626
		c0.431-2.248,2.328-1.433,3.73-1.563c0.798-0.073,1.606-0.014,2.586-0.014c0-1.512,0.006-2.865-0.001-4.219
		c-0.006-1.102,0.298-2.04,1.591-1.999c1.265,0.039,1.549,0.982,1.534,2.079c-0.018,1.303-0.005,2.606-0.005,4.14
		c1.435,0,2.774-0.001,4.115,0.001c1.14,0.002,2.147,0.264,2.128,1.659c-0.019,1.315-1.007,1.531-2.07,1.538
		c-1.307,0.008-2.614,0.002-4.173,0.002c0,1.479-0.019,2.875,0.006,4.27c0.021,1.148-0.411,2.004-1.628,1.993
		c-1.16-0.01-1.496-0.908-1.495-1.945C21.967,38.085,21.966,36.729,21.966,35.125z"/>
	<path fill-rule="evenodd" clip-rule="evenodd" d="M44.363,26.022c1.682-0.036,3.146,1.342,3.222,3.029
		c0.074,1.69-1.286,3.16-2.995,3.233c-1.816,0.078-3.257-1.282-3.271-3.091C41.303,27.47,42.658,26.058,44.363,26.022z"/>
	<path fill-rule="evenodd" clip-rule="evenodd" d="M56.276,29.193c-0.008,1.759-1.337,3.086-3.094,3.093
		c-1.719,0.006-3.146-1.372-3.175-3.064c-0.027-1.732,1.484-3.23,3.231-3.199C54.956,26.054,56.285,27.44,56.276,29.193z"/>
	<path fill-rule="evenodd" clip-rule="evenodd" d="M53.165,34.798c1.781-0.004,3.098,1.293,3.108,3.063
		c0.012,1.766-1.3,3.16-3.018,3.209c-1.703,0.049-3.271-1.499-3.249-3.208C50.028,36.14,51.408,34.802,53.165,34.798z"/>
	<path fill-rule="evenodd" clip-rule="evenodd" d="M44.436,34.797c1.761,0.004,3.138,1.338,3.156,3.06
		c0.018,1.727-1.53,3.263-3.236,3.211c-1.705-0.052-3.053-1.473-3.036-3.199C41.338,36.1,42.663,34.794,44.436,34.797z"/>
</g>
</svg>
