<?xml version="1.0" encoding="utf-8"?>
<!-- Generator: Adobe Illustrator 16.0.0, SVG Export Plug-In . SVG Version: 6.00 Build 0)  -->
<!DOCTYPE svg PUBLIC "-//W3C//DTD SVG 1.1//EN" "http://www.w3.org/Graphics/SVG/1.1/DTD/svg11.dtd">
<svg version="1.1" id="Layer_1" xmlns="http://www.w3.org/2000/svg" xmlns:xlink="http://www.w3.org/1999/xlink" x="0px" y="0px"
	 width="75px" height="75px" viewBox="0 0 75 75" enable-background="new 0 0 75 75" xml:space="preserve">
<g id="Hydrogen">
	<path fill-rule="evenodd" clip-rule="evenodd" d="M52.594,10.888c-10.601-5.771-21.23-5.176-31.644,0.9
		c-1.353,0.79-3.05,1.163-4.629,1.344c-2.184,0.236-3.293,1.178-3.66,3.367c-0.297,1.803-0.637,3.75-1.552,5.281
		c-6.86,11.419-6.007,25.616,2.329,35.976c8.266,10.275,22.215,14.19,34.68,9.749c12.479-4.447,20.76-16.221,20.711-31.367
		C68.316,26.056,63.217,16.674,52.594,10.888z M15.87,13.895c1.42,0,2.592,1.101,2.682,2.502c0.11,0.103,0.229,0.201,0.346,0.298
		c-0.123,0.083-0.249,0.173-0.367,0.263c-0.188,1.303-1.309,2.309-2.66,2.309c-1.482,0-2.682-1.206-2.682-2.689
		C13.188,15.094,14.388,13.895,15.87,13.895z M52.157,64.18c-11.778,6.59-26.42,4.399-35.913-5.385
		C6.862,49.122,5.185,34.204,12.218,22.7c0.93-1.516,1.656-3.062,4.15-2.854c0.971,0.083,3.078-2.003,2.994-2.952
		c-0.216-2.48,1.281-3.242,2.828-4.178c4.731-2.869,9.895-4.289,13.773-4.351c15.161,0,27.003,9.076,30.488,22.11
		C69.973,43.628,64.083,57.5,52.157,64.18z"/>
	<path fill-rule="evenodd" clip-rule="evenodd" fill="#FFFFFF" d="M18.53,16.957c0.021-0.124,0.028-0.248,0.028-0.381
		c0-0.062,0-0.118-0.007-0.18c0.11,0.103,0.229,0.201,0.346,0.298C18.774,16.777,18.648,16.867,18.53,16.957z"/>
	<path fill-rule="evenodd" clip-rule="evenodd" d="M37.803,29.144c4.947,0.072,8.929,4.184,8.851,9.136
		c-0.077,4.941-4.206,8.937-9.144,8.852c-4.955-0.085-8.925-4.188-8.843-9.143C28.747,33.034,32.841,29.07,37.803,29.144z
		 M45.273,38.21c0.045-4.203-3.414-7.687-7.626-7.68c-4.075,0.007-7.475,3.303-7.594,7.359c-0.125,4.223,3.235,7.77,7.445,7.857
		C41.703,45.834,45.229,42.416,45.273,38.21z"/>
	<path fill-rule="evenodd" clip-rule="evenodd" d="M40.036,42.732c-0.163-1.191-0.328-2.384-0.513-3.728c-1.158,0-2.273,0-3.626,0
		c-0.203,1.173-0.422,2.446-0.641,3.72c-0.206-0.003-0.412-0.007-0.617-0.009c0-3.036,0-6.072,0-9.108
		c0.169-0.044,0.338-0.087,0.508-0.131c0.234,1.215,0.471,2.428,0.738,3.805c1.084,0,2.199,0,3.554,0
		c0.195-1.186,0.405-2.469,0.616-3.754c0.206,0.001,0.413,0.002,0.62,0.002c0,3.043,0,6.086,0,9.129
		C40.464,42.682,40.249,42.708,40.036,42.732z"/>
</g>
</svg>
