<?xml version="1.0" encoding="utf-8"?>
<!-- Generator: Adobe Illustrator 16.0.0, SVG Export Plug-In . SVG Version: 6.00 Build 0)  -->
<!DOCTYPE svg PUBLIC "-//W3C//DTD SVG 1.1//EN" "http://www.w3.org/Graphics/SVG/1.1/DTD/svg11.dtd">
<svg version="1.1" id="Layer_1" xmlns="http://www.w3.org/2000/svg" xmlns:xlink="http://www.w3.org/1999/xlink" x="0px" y="0px"
	 width="75px" height="75px" viewBox="0 0 75 75" enable-background="new 0 0 75 75" xml:space="preserve">
<g id="Medical_Device_Innovation">
	<path fill-rule="evenodd" clip-rule="evenodd" d="M38.056,65.537c-6.946,0-13.892,0.014-20.838-0.007
		c-3.032-0.009-5.492-1.243-7.321-3.669c-1.167-1.55-1.745-3.321-1.746-5.26C8.144,43.964,8.132,31.326,8.154,18.688
		c0.009-4.997,4.021-8.933,9.061-8.936c13.842-0.01,27.684-0.007,41.525,0.005c0.688,0,1.391,0.066,2.062,0.215
		c4.152,0.92,7.051,4.497,7.056,8.762c0.017,12.604,0.02,25.209-0.001,37.813c-0.008,5.056-4.011,8.979-9.112,8.987
		C51.848,65.545,44.952,65.538,38.056,65.537z M37.998,64.076c6.913,0,13.826,0.003,20.739-0.002
		c4.344-0.002,7.669-3.297,7.673-7.629c0.009-12.539,0.009-25.078-0.001-37.617c-0.003-4.305-3.33-7.614-7.635-7.616
		c-13.843-0.005-27.686-0.005-41.528,0c-4.332,0.002-7.645,3.313-7.647,7.653C9.592,31.389,9.595,43.911,9.603,56.434
		c0,0.508,0.037,1.026,0.138,1.523c0.729,3.63,3.763,6.113,7.47,6.117C24.139,64.08,31.069,64.076,37.998,64.076z"/>
	<path fill-rule="evenodd" clip-rule="evenodd" d="M35.496,33.76c-0.643-1.688-1.245-3.273-1.848-4.858
		c-0.059-0.154-0.08-0.348-0.188-0.452C33.255,28.247,33.02,28,32.76,27.945c-0.364-0.076-0.596,0.209-0.7,0.56
		c-0.461,1.548-0.921,3.095-1.382,4.643c-0.511,1.717-1.021,3.434-1.559,5.239c-0.129-0.196-0.221-0.32-0.296-0.453
		c-0.946-1.662-1.898-3.321-2.826-4.993c-0.238-0.429-0.545-0.598-1.031-0.596c-3.778,0.013-7.557,0.006-11.335,0.005
		c-0.181,0-0.36,0-0.604,0c-0.012-0.195-0.032-0.368-0.032-0.541c-0.001-3.959-0.004-7.919,0-11.879
		c0.004-3.254,2.326-5.575,5.587-5.576c13.083-0.003,26.166-0.002,39.249,0c3.254,0.001,5.585,2.33,5.588,5.58
		c0.004,4.108,0.001,8.217,0.001,12.324c0,0.194,0,0.388,0,0.627c-0.256,0-0.449,0-0.644,0c-5.411,0-10.822,0-16.234,0.001
		c-0.804,0-0.885,0.052-1.186,0.772c-0.767,1.84-1.532,3.682-2.299,5.521c-0.062,0.147-0.13,0.293-0.247,0.557
		c-0.332-1.439-0.638-2.759-0.939-4.079c-0.801-3.501-1.601-7.003-2.398-10.506c-0.094-0.413-0.247-0.772-0.744-0.78
		c-0.495-0.008-0.659,0.344-0.774,0.754c-0.767,2.728-1.539,5.454-2.311,8.181C35.612,33.414,35.574,33.521,35.496,33.76z"/>
	<path fill-rule="evenodd" clip-rule="evenodd" d="M13.028,33.79c0.269,0,0.498,0,0.728,0c3.531,0,7.063,0.005,10.594-0.008
		c0.338-0.001,0.526,0.097,0.694,0.397c1.116,2.002,2.254,3.991,3.385,5.985c0.057,0.1,0.092,0.229,0.176,0.295
		c0.244,0.188,0.495,0.464,0.77,0.498c0.382,0.047,0.583-0.294,0.689-0.655c0.465-1.581,0.936-3.16,1.404-4.74
		c0.407-1.374,0.813-2.749,1.223-4.123c0.04-0.135,0.098-0.264,0.185-0.496c0.577,1.508,1.116,2.916,1.654,4.324
		c0.124,0.323,0.254,0.645,0.368,0.971c0.13,0.37,0.381,0.594,0.773,0.566c0.371-0.025,0.565-0.279,0.665-0.635
		c0.685-2.443,1.378-4.885,2.069-7.326c0.063-0.219,0.134-0.436,0.245-0.797c0.334,1.451,0.637,2.758,0.936,4.064
		c0.758,3.31,1.518,6.619,2.269,9.931c0.09,0.399,0.229,0.745,0.686,0.79c0.48,0.047,0.686-0.279,0.849-0.676
		c1.019-2.468,2.055-4.928,3.068-7.397c0.132-0.323,0.298-0.438,0.651-0.438c5.264,0.012,10.528,0.013,15.792,0.001
		c0.409-0.001,0.529,0.113,0.528,0.526c-0.016,3.548,0.004,7.096-0.013,10.644c-0.014,3.06-2.303,5.379-5.362,5.467
		c-0.379,0.011-0.759,0.003-1.139,0.003c-12.738,0-25.478-0.005-38.217,0.005c-2.158,0.001-3.828-0.847-4.964-2.693
		c-0.495-0.805-0.732-1.697-0.734-2.638c-0.009-3.845-0.004-7.689-0.003-11.534C12.997,34.021,13.013,33.94,13.028,33.79z"/>
	<path fill-rule="evenodd" clip-rule="evenodd" d="M54.143,56.624c0.009-1.028,0.836-1.851,1.863-1.853
		c1.02-0.002,1.862,0.833,1.872,1.852c0.008,1.028-0.869,1.899-1.896,1.884C54.96,58.49,54.134,57.645,54.143,56.624z"/>
	<path fill-rule="evenodd" clip-rule="evenodd" d="M50.689,54.771c1.017,0.011,1.851,0.86,1.843,1.878
		c-0.007,1.013-0.861,1.861-1.87,1.858c-1.038-0.002-1.88-0.866-1.862-1.91C48.816,55.576,49.66,54.761,50.689,54.771z"/>
</g>
</svg>
