<?xml version="1.0" encoding="utf-8"?>
<!-- Generator: Adobe Illustrator 16.0.0, SVG Export Plug-In . SVG Version: 6.00 Build 0)  -->
<!DOCTYPE svg PUBLIC "-//W3C//DTD SVG 1.1//EN" "http://www.w3.org/Graphics/SVG/1.1/DTD/svg11.dtd">
<svg version="1.1" id="Layer_1" xmlns="http://www.w3.org/2000/svg" xmlns:xlink="http://www.w3.org/1999/xlink" x="0px" y="0px"
	 width="75px" height="75px" viewBox="0 0 75 75" enable-background="new 0 0 75 75" xml:space="preserve">
<g id="Imapct_Investment">
	<path fill-rule="evenodd" clip-rule="evenodd" d="M21.829,38.106c2.713-0.537,5.24-1.125,7.798-1.521
		c2.837-0.438,5.714-0.163,8.04,1.546c3.392,2.491,7.14,3.661,11.232,4.074c0.902,0.092,1.871,0.221,2.657,0.627
		c1.622,0.84,2.832,0.291,4.181-0.65c2.722-1.9,5.489-3.752,8.356-5.421c1.05-0.611,2.437-0.896,3.666-0.89
		c1.997,0.013,2.846,1.691,1.833,3.42c-2.851,4.869-6.756,8.823-11.409,11.897c-3.265,2.156-6.927,3.708-10.388,5.573
		c-1.263,0.681-2.458,1.487-3.681,2.24c-1.472,0.907-2.899,1.173-4.603,0.371c-3.608-1.696-7.365-3.084-10.942-4.839
		c-2.173-1.066-4.325-1.045-6.781-0.883c0,0.632,0.013,1.19-0.003,1.749c-0.042,1.584-0.683,2.322-2.288,2.345
		c-3.711,0.051-7.423,0.052-11.133-0.001c-1.599-0.022-2.267-0.765-2.271-2.357c-0.017-5.591-0.017-11.182,0.003-16.771
		c0.006-1.524,0.69-2.228,2.195-2.239c3.76-0.028,7.519,0.004,11.278-0.019C20.828,36.351,21.535,36.983,21.829,38.106z
		 M21.792,52.616c0.593,0,1.018,0.022,1.438-0.004c2.261-0.143,4.324,0.33,6.393,1.363c3.267,1.63,6.715,2.894,10.03,4.433
		c1.597,0.741,2.887,0.42,4.312-0.413c1.936-1.132,3.945-2.148,5.978-3.101c7.672-3.597,14.172-8.553,18.611-15.916
		c0.869-1.442,0.406-2.227-1.32-2.226c-0.658,0.001-1.433,0.031-1.957,0.361c-3.537,2.229-7.02,4.541-10.544,6.842
		c0.172,0.221,0.248,0.339,0.343,0.438c1.76,1.857,2.188,3.45,1.349,5.038c-1.016,1.923-3.052,2.927-5.384,2.451
		c-1.689-0.345-3.355-0.853-4.99-1.41c-2.872-0.978-5.692-2.106-8.816-2c-0.633,0.021-1.276-0.25-1.914-0.386
		c0.014-0.168,0.027-0.336,0.042-0.503c0.477-0.049,0.953-0.143,1.43-0.14c3.075,0.019,5.979,0.806,8.858,1.839
		c2.025,0.728,4.126,1.32,6.242,1.696c1.73,0.308,3.603-1.163,3.935-2.714c0.301-1.407-0.797-3.15-2.52-3.753
		c-1.582-0.554-3.192-1.174-4.838-1.376c-4.039-0.498-7.816-1.507-11.097-4.073c-0.801-0.626-1.892-0.964-2.903-1.219
		c-4.213-1.062-8.199,0.15-12.16,1.392c-0.24,0.076-0.492,0.576-0.495,0.88C21.781,44.213,21.792,48.308,21.792,52.616z
		 M7.011,46.995c0,2.697,0.026,5.395-0.013,8.091c-0.017,1.146,0.407,1.686,1.598,1.676c3.563-0.029,7.128-0.024,10.691-0.003
		c1.076,0.007,1.584-0.406,1.579-1.534c-0.023-5.442-0.024-10.885,0.003-16.326c0.006-1.189-0.499-1.613-1.659-1.6
		c-3.516,0.04-7.031,0.046-10.547-0.002c-1.285-0.018-1.685,0.556-1.666,1.752C7.04,41.696,7.011,44.347,7.011,46.995z"/>
	<path fill-rule="evenodd" clip-rule="evenodd" d="M47.528,23.592c1.697-1.419,3.303-1.377,4.976-0.233
		c2.791-2.792,5.563-5.537,8.281-8.334c0.227-0.232,0.221-0.852,0.108-1.227c-0.54-1.795-0.018-3.397,1.472-4.268
		c1.322-0.773,3.047-0.543,4.122,0.55c1.137,1.154,1.311,2.877,0.429,4.244c-0.899,1.396-2.461,1.831-4.192,1.316
		c-0.414-0.123-1.111,0.026-1.418,0.322c-2.531,2.444-5.024,4.931-7.464,7.467c-0.337,0.35-0.508,1.074-0.425,1.57
		c0.257,1.525-0.157,2.865-1.364,3.685c-1.191,0.809-2.448,0.826-3.678,0.132c-1.264-0.713-1.785-2.07-1.604-3.583
		c0.055-0.45-0.051-1.072-0.335-1.386c-1.425-1.564-2.934-3.053-4.467-4.624c-1.75,1.45-3.47,1.566-5.305,0.139
		c-2.636,2.664-5.261,5.279-7.817,7.961c-0.233,0.244-0.137,0.936-0.014,1.368c0.538,1.893-0.496,3.822-2.363,4.299
		c-1.936,0.493-3.795-0.624-4.194-2.521c-0.419-1.993,0.84-3.874,2.813-4.131c0.462-0.06,1.039-0.076,1.406,0.146
		c1.087,0.658,1.706,0.108,2.424-0.63c2.116-2.178,4.315-4.277,6.409-6.477c0.373-0.392,0.586-1.125,0.55-1.68
		c-0.098-1.461,0.197-2.69,1.468-3.532c1.196-0.793,2.437-0.826,3.665-0.064c1.288,0.798,1.72,1.987,1.604,3.462
		c-0.033,0.424,0.025,0.998,0.284,1.278C44.37,20.431,45.914,21.951,47.528,23.592z M41.696,16.966
		c-0.013-1.297-1.238-2.489-2.516-2.445c-1.268,0.043-2.354,1.149-2.38,2.421c-0.027,1.36,1.065,2.477,2.426,2.478
		C40.593,19.419,41.71,18.31,41.696,16.966z M23.159,29.65c-0.031,1.35,0.958,2.426,2.284,2.485
		c1.383,0.061,2.559-1.007,2.596-2.357c0.036-1.305-1.16-2.531-2.47-2.533C24.291,27.244,23.188,28.344,23.159,29.65z
		 M52.545,25.857c-0.017-1.306-1.093-2.392-2.392-2.415c-1.358-0.024-2.466,1.099-2.451,2.486c0.015,1.325,1.066,2.387,2.379,2.4
		C51.459,28.343,52.563,27.235,52.545,25.857z M64.127,14.937c1.269-0.041,2.394-1.19,2.398-2.45c0.005-1.343-1.168-2.47-2.528-2.43
		c-1.394,0.04-2.435,1.169-2.363,2.563C61.7,13.91,62.848,14.978,64.127,14.937z"/>
</g>
</svg>
