<?xml version="1.0" encoding="utf-8"?>
<!-- Generator: Adobe Illustrator 16.0.0, SVG Export Plug-In . SVG Version: 6.00 Build 0)  -->
<!DOCTYPE svg PUBLIC "-//W3C//DTD SVG 1.1//EN" "http://www.w3.org/Graphics/SVG/1.1/DTD/svg11.dtd">
<svg version="1.1" id="Layer_1" xmlns="http://www.w3.org/2000/svg" xmlns:xlink="http://www.w3.org/1999/xlink" x="0px" y="0px"
	 width="75px" height="75px" viewBox="0 0 75 75" enable-background="new 0 0 75 75" xml:space="preserve">
<g>
	<path fill-rule="evenodd" clip-rule="evenodd" fill="none" d="M-19.922,96.426c0-38.974,0-77.948,0-116.922
		c38.974,0,77.948,0,116.922,0c0,38.974,0,77.948,0,116.922C58.026,96.426,19.052,96.426-19.922,96.426z M21.438,35.996
		c-3.573,0.055-5.544,2.741-4.747,6.427c0.203,0.938,0.767,2.392,0.373,2.759c-1.477,1.379-3.154,2.696-4.991,3.502
		c-3.719,1.632-4.878,3.404-3.572,7.299c0.499,1.488,0.131,2.006-0.884,2.93c-1.289,1.172-2.436,2.622-3.244,4.163
		c-0.603,1.15-1.771,2.635-0.065,3.968c0.494-0.955,1.061-1.881,1.471-2.872c1.91-4.608,6.402-6.542,10.58-4.417
		c2.587,1.316,4.003,3.501,4.287,6.426c0.032,0.332,0.506,0.622,0.774,0.932c0.299-0.27,0.736-0.483,0.868-0.818
		c0.326-0.823,0.436-1.732,0.765-2.555c1.25-3.11,3.728-4.649,6.936-4.851c2.983-0.186,6.008,2.125,7.194,5.178
		c0.213,0.55,0.21,1.187,0.437,1.728c0.205,0.485,0.589,0.896,0.896,1.339c0.319-0.428,0.709-0.821,0.936-1.293
		c0.188-0.389,0.125-0.892,0.271-1.309c1.172-3.341,4.173-5.657,7.32-5.679c3-0.021,5.864,2.051,7.149,5.251
		c0.33,0.82,0.437,1.729,0.725,2.571c0.069,0.201,0.456,0.412,0.692,0.406c0.24-0.005,0.625-0.227,0.686-0.431
		c0.211-0.711,0.227-1.484,0.463-2.183c1.129-3.343,4.154-5.624,7.36-5.612c3.05,0.012,5.834,2.055,7.142,5.28
		c0.223,0.548,0.247,1.182,0.502,1.71c0.217,0.45,0.632,0.805,0.96,1.203c0.262-0.613,0.849-1.3,0.729-1.827
		c-0.573-2.524-1.63-4.845-3.91-6.316c-1.154-0.745-1.495-1.355-0.986-2.879c1.322-3.951,0.188-5.722-3.501-7.335
		c-1.837-0.803-3.641-2.017-4.971-3.487c-0.518-0.572,0.358-2.354,0.51-3.596c0.26-2.123-0.53-3.837-2.313-4.995
		c-1.608-1.043-4.47-0.783-5.906,0.414c-1.796,1.495-2.661,3.561-1.597,5.529c1.043,1.927,0.755,2.911-1.062,3.857
		c-0.633,0.33-1,1.17-1.634,1.501c-0.525,0.274-1.598,0.437-1.852,0.146c-1.517-1.739-4.881-2.536-2.734-6.205
		c1.046-1.788-0.781-4.677-2.723-5.517c-2.17-0.939-5.199-0.163-6.432,1.707c-1.165,1.768-1.363,3.626-0.212,5.486
		c0.577,0.933,0.452,1.574-0.466,2.227c-0.965,0.687-1.744,1.652-2.747,2.264c-0.458,0.279-1.352,0.189-1.874-0.075
		c-0.635-0.32-1.005-1.149-1.633-1.502c-1.688-0.948-2.111-1.792-1.157-3.846C27.763,39.342,25.055,35.941,21.438,35.996z
		 M60.293,32.516c0.044-0.32,0.087-0.64,0.131-0.96c-1.756,0-3.514,0.035-5.269-0.008c-3.272-0.079-3.797-1.072-2.25-4.115
		c0.226-0.442,0.576-1.288,0.473-1.359c-1.919-1.294-1.236-3.253-1.22-4.944c0.018-1.72-0.868-2.839-1.979-3.841
		c-0.896-0.806-1.559-2.386-3.482-1.367c0.511,0.638,0.857,1.344,1.422,1.729c2.395,1.631,2.29,4.032,2.079,6.449
		c-0.042,0.474-0.527,0.909-0.808,1.361c-0.503-0.417-1.415-0.81-1.442-1.255c-0.176-2.921-1.236-5.217-3.958-6.559
		c-1.348-0.664-0.834-1.665-0.543-2.681c0.659-2.299-0.182-4.137-2.007-5.495c-1.752-1.303-4.166-1.281-5.887,0.071
		c-1.776,1.395-2.688,3.257-1.862,5.52c0.507,1.387,0.155,2.102-1.032,2.947c-1.166,0.829-2.815,2.104-2.838,3.213
		c-0.087,4.166-2.52,4.777-5.797,4.671c-0.179-0.006-0.372,0.392-0.558,0.603c0.128,0.25,0.19,0.609,0.394,0.733
		c1.513,0.918,1.406,2.425,0.766,3.53c-0.348,0.602-1.809,0.685-2.789,0.767c-1.717,0.143-3.449,0.106-5.175,0.146
		c0.33,1.019,0.757,1.493,1.239,1.554C23.379,33.923,57.933,33.303,60.293,32.516z"/>
	<path fill-rule="evenodd" clip-rule="evenodd" d="M21.438,35.996c3.617-0.054,6.325,3.346,4.813,6.602
		c-0.954,2.054-0.531,2.897,1.157,3.846c0.628,0.353,0.998,1.182,1.633,1.502c0.522,0.265,1.417,0.354,1.874,0.075
		c1.002-0.611,1.781-1.577,2.747-2.264c0.918-0.652,1.042-1.294,0.466-2.227c-1.151-1.86-0.952-3.719,0.212-5.486
		c1.232-1.869,4.262-2.646,6.432-1.707c1.941,0.84,3.769,3.729,2.723,5.517c-2.146,3.669,1.218,4.466,2.734,6.205
		c0.254,0.29,1.326,0.128,1.852-0.146c0.634-0.331,1.001-1.171,1.634-1.501c1.816-0.946,2.104-1.931,1.062-3.857
		c-1.064-1.968-0.199-4.034,1.597-5.529c1.437-1.196,4.298-1.457,5.906-0.414c1.783,1.158,2.573,2.872,2.313,4.995
		c-0.151,1.242-1.027,3.023-0.51,3.596c1.33,1.471,3.134,2.685,4.971,3.487c3.689,1.613,4.823,3.384,3.501,7.335
		c-0.509,1.523-0.168,2.134,0.986,2.879c2.28,1.472,3.337,3.792,3.91,6.316c0.12,0.527-0.467,1.214-0.729,1.827
		c-0.328-0.398-0.743-0.753-0.96-1.203c-0.255-0.528-0.279-1.162-0.502-1.71c-1.308-3.226-4.092-5.269-7.142-5.28
		c-3.206-0.012-6.231,2.27-7.36,5.612c-0.236,0.698-0.252,1.472-0.463,2.183c-0.061,0.204-0.445,0.426-0.686,0.431
		c-0.236,0.006-0.623-0.205-0.692-0.406c-0.288-0.842-0.395-1.751-0.725-2.571c-1.285-3.2-4.149-5.272-7.149-5.251
		c-3.147,0.021-6.148,2.338-7.32,5.679c-0.146,0.417-0.083,0.92-0.271,1.309c-0.227,0.472-0.616,0.865-0.936,1.293
		c-0.307-0.443-0.69-0.854-0.896-1.339c-0.227-0.541-0.224-1.178-0.437-1.728c-1.186-3.053-4.211-5.363-7.194-5.178
		c-3.208,0.201-5.686,1.74-6.936,4.851c-0.329,0.822-0.439,1.731-0.765,2.555c-0.132,0.335-0.569,0.549-0.868,0.818
		c-0.269-0.31-0.743-0.6-0.774-0.932c-0.284-2.925-1.7-5.109-4.287-6.426c-4.178-2.125-8.67-0.191-10.58,4.417
		c-0.41,0.991-0.977,1.917-1.471,2.872c-1.706-1.333-0.538-2.817,0.065-3.968c0.808-1.541,1.955-2.991,3.244-4.163
		C8.631,57.988,9,57.471,8.5,55.982c-1.306-3.895-0.146-5.667,3.572-7.299c1.836-0.806,3.514-2.123,4.991-3.502
		c0.394-0.367-0.17-1.82-0.373-2.759C15.894,38.736,17.865,36.05,21.438,35.996z M21.484,45.885
		c-1.188,0.391-2.351,0.652-3.406,1.146c-2.079,0.976-2.007,1.378-1.095,3.638c0.578,1.431,1.25,3.407,0.697,4.585
		c-1.074,2.289-0.161,3.22,1.52,4.236c0.492,0.298,0.885,0.799,1.245,1.267c0.738,0.959,1.409,0.855,2.133-0.006
		c0.381-0.452,0.755-0.973,1.249-1.261c1.738-1.015,2.538-1.992,1.5-4.26c-0.542-1.184,0.15-3.142,0.72-4.576
		c0.878-2.207,0.918-2.688-1.158-3.655C23.834,46.508,22.665,46.263,21.484,45.885z M43.991,48.887
		c-0.201-0.301-0.386-0.721-0.693-1.011c-2.476-2.326-6.833-2.348-9.44-0.082c-0.797,0.692-0.984,1.384-0.215,2.251
		c1.398,1.576,1.978,3.568,1.099,5.39c-0.956,1.982-0.26,2.777,1.241,3.918c2.663,2.023,2.58,2.164,5.328-0.268
		c0.632-0.561,1.761-1.566,1.623-1.837c-1.473-2.883-1.132-5.441,0.925-7.859C43.939,49.294,43.932,49.125,43.991,48.887z
		 M61.085,48.839c-0.309-0.354-0.627-0.86-1.072-1.203c-2.463-1.896-5.722-2.048-8.355-0.384c-1.228,0.775-2.132,1.605-0.753,3.15
		c1.271,1.425,1.739,3.32,0.874,4.999c-1.001,1.942-0.331,2.781,1.209,3.94c2.676,2.011,2.581,2.162,5.327-0.262
		c0.636-0.563,1.796-1.539,1.664-1.808c-1.411-2.866-1.219-5.438,0.905-7.848C60.968,49.329,60.976,49.165,61.085,48.839z
		 M30.034,50.504c-1.953-0.01-3.29,1.426-3.198,3.437c0.084,1.826,1.291,2.963,3.164,2.979c1.867,0.016,3.093-1.11,3.204-2.945
		C33.325,51.981,31.985,50.514,30.034,50.504z M50.248,53.767c-0.005-2.018-1.396-3.354-3.378-3.245
		c-1.782,0.098-2.996,1.377-3.019,3.184c-0.026,2.002,1.362,3.308,3.4,3.201C49.108,56.809,50.252,55.61,50.248,53.767z
		 M41.938,41.062c0.043-1.5-1.521-3.171-3.101-3.317c-1.777-0.164-3.634,1.437-3.681,3.171c-0.042,1.498,1.507,3.167,3.084,3.327
		C39.945,44.414,41.891,42.742,41.938,41.062z M16.245,53.726c-0.023-1.907-1.569-3.317-3.497-3.188
		c-1.727,0.116-2.967,1.457-2.992,3.236c-0.028,1.949,1.432,3.27,3.466,3.137C15.005,56.794,16.265,55.467,16.245,53.726z
		 M67.312,53.942c0.068-1.986-1.31-3.431-3.257-3.412c-1.761,0.017-3.095,1.278-3.204,3.03c-0.119,1.93,1.293,3.377,3.279,3.359
		C66.007,56.904,67.248,55.742,67.312,53.942z M24.907,41.1c0.075-1.48-1.472-3.181-3.055-3.355
		c-1.79-0.197-3.663,1.382-3.707,3.125c-0.038,1.529,1.455,3.185,3.042,3.374C22.858,44.443,24.822,42.784,24.907,41.1z
		 M55.329,44.256c1.731,0.13,3.592-1.554,3.618-3.272c0.023-1.532-1.534-3.127-3.159-3.235c-1.808-0.121-3.619,1.505-3.61,3.238
		C52.186,42.486,53.779,44.141,55.329,44.256z"/>
	<path fill-rule="evenodd" clip-rule="evenodd" d="M60.293,32.516c-2.36,0.787-36.914,1.407-42.392,0.71
		c-0.481-0.061-0.909-0.535-1.239-1.554c1.726-0.04,3.458-0.002,5.175-0.146c0.979-0.083,2.441-0.165,2.789-0.767
		c0.64-1.104,0.747-2.612-0.766-3.53c-0.204-0.124-0.266-0.483-0.394-0.734c0.186-0.21,0.378-0.607,0.558-0.602
		c3.277,0.106,5.71-0.505,5.797-4.671c0.023-1.108,1.672-2.384,2.838-3.213c1.188-0.845,1.539-1.56,1.032-2.947
		c-0.827-2.263,0.086-4.125,1.862-5.52c1.721-1.352,4.135-1.374,5.887-0.071c1.825,1.358,2.666,3.195,2.007,5.495
		c-0.291,1.016-0.805,2.017,0.543,2.681c2.722,1.341,3.782,3.637,3.958,6.559c0.027,0.445,0.939,0.838,1.442,1.255
		c0.28-0.452,0.766-0.888,0.808-1.361c0.211-2.417,0.315-4.818-2.079-6.449c-0.564-0.385-0.911-1.09-1.422-1.729
		c1.924-1.019,2.586,0.561,3.482,1.367c1.111,1.001,1.997,2.121,1.979,3.841c-0.017,1.691-0.699,3.65,1.22,4.944
		c0.104,0.071-0.247,0.917-0.473,1.359c-1.547,3.043-1.022,4.036,2.25,4.115c1.755,0.043,3.513,0.008,5.269,0.008
		C60.38,31.875,60.337,32.196,60.293,32.516z M38.564,31.541c3.278,0,6.556-0.021,9.833,0.009c1.32,0.012,1.851-0.581,1.867-1.881
		c0.017-1.371-0.256-2.308-1.918-2.3c-6.556,0.031-13.111,0.023-19.666,0.006c-1.319-0.003-1.851,0.604-1.867,1.899
		c-0.019,1.368,0.25,2.308,1.919,2.283C32.009,31.506,35.288,31.542,38.564,31.541z M38.181,25.61c0,0.013,0,0.026,0,0.04
		c1.64,0,3.279,0.033,4.918-0.007c3.182-0.078,4.097-1.49,2.368-4.084c-0.738-1.109-2.183-2.168-3.463-2.405
		c-2.162-0.398-4.458-0.262-6.68-0.095c-2.563,0.191-4.372,2.179-4.358,4.765c0.002,0.598,0.861,1.644,1.413,1.705
		C34.292,25.741,36.244,25.61,38.181,25.61z M41.898,13.656c0.003-1.646-1.836-3.431-3.467-3.363
		c-1.458,0.061-3.135,1.673-3.26,3.136c-0.134,1.576,1.623,3.512,3.253,3.585C40.048,17.088,41.896,15.301,41.898,13.656z"/>
	<path fill-rule="evenodd" clip-rule="evenodd" fill="none" d="M21.484,45.885c1.181,0.378,2.351,0.623,3.404,1.114
		c2.076,0.968,2.036,1.448,1.158,3.655c-0.57,1.435-1.262,3.393-0.72,4.576c1.038,2.268,0.238,3.245-1.5,4.26
		c-0.494,0.288-0.867,0.809-1.249,1.261c-0.725,0.861-1.396,0.965-2.133,0.006c-0.36-0.468-0.752-0.969-1.245-1.267
		c-1.68-1.017-2.594-1.947-1.52-4.236c0.553-1.178-0.119-3.154-0.697-4.585c-0.912-2.26-0.984-2.662,1.095-3.638
		C19.133,46.537,20.296,46.275,21.484,45.885z"/>
	<path fill-rule="evenodd" clip-rule="evenodd" fill="none" d="M43.991,48.887c-0.06,0.238-0.052,0.407-0.133,0.502
		c-2.057,2.418-2.397,4.977-0.925,7.859c0.138,0.271-0.991,1.276-1.623,1.837c-2.748,2.432-2.665,2.291-5.328,0.268
		c-1.501-1.141-2.197-1.936-1.241-3.918c0.879-1.821,0.299-3.813-1.099-5.39c-0.77-0.867-0.583-1.559,0.215-2.251
		c2.608-2.266,6.965-2.244,9.44,0.082C43.605,48.166,43.79,48.586,43.991,48.887z"/>
	<path fill-rule="evenodd" clip-rule="evenodd" fill="none" d="M61.085,48.839c-0.109,0.326-0.117,0.49-0.201,0.586
		c-2.124,2.41-2.316,4.981-0.905,7.848c0.132,0.269-1.028,1.245-1.664,1.808c-2.746,2.424-2.651,2.272-5.327,0.262
		c-1.54-1.159-2.21-1.998-1.209-3.94c0.865-1.679,0.397-3.574-0.874-4.999c-1.379-1.545-0.475-2.375,0.753-3.15
		c2.634-1.664,5.893-1.512,8.355,0.384C60.458,47.979,60.776,48.485,61.085,48.839z"/>
	<path fill-rule="evenodd" clip-rule="evenodd" fill="none" d="M30.034,50.504c1.951,0.01,3.291,1.478,3.17,3.47
		c-0.111,1.835-1.337,2.961-3.204,2.945c-1.873-0.016-3.079-1.152-3.164-2.979C26.744,51.93,28.081,50.494,30.034,50.504z"/>
	<path fill-rule="evenodd" clip-rule="evenodd" fill="none" d="M50.248,53.767c0.004,1.844-1.14,3.042-2.996,3.14
		c-2.038,0.106-3.427-1.199-3.4-3.201c0.022-1.807,1.236-3.086,3.019-3.184C48.853,50.412,50.243,51.749,50.248,53.767z"/>
	<path fill-rule="evenodd" clip-rule="evenodd" fill="none" d="M41.938,41.062c-0.048,1.681-1.993,3.353-3.697,3.181
		c-1.577-0.16-3.126-1.829-3.084-3.327c0.047-1.734,1.904-3.335,3.681-3.171C40.418,37.89,41.981,39.562,41.938,41.062z"/>
	<path fill-rule="evenodd" clip-rule="evenodd" fill="none" d="M16.245,53.726c0.02,1.741-1.239,3.068-3.022,3.185
		c-2.034,0.133-3.494-1.188-3.466-3.137c0.025-1.779,1.265-3.12,2.992-3.236C14.675,50.408,16.222,51.818,16.245,53.726z"/>
	<path fill-rule="evenodd" clip-rule="evenodd" fill="none" d="M67.312,53.942c-0.063,1.8-1.305,2.962-3.182,2.978
		c-1.986,0.018-3.398-1.43-3.279-3.359c0.109-1.752,1.443-3.014,3.204-3.03C66.002,50.512,67.38,51.956,67.312,53.942z"/>
	<path fill-rule="evenodd" clip-rule="evenodd" fill="none" d="M24.907,41.1c-0.084,1.685-2.048,3.344-3.72,3.144
		c-1.587-0.189-3.08-1.845-3.042-3.374c0.044-1.743,1.917-3.322,3.707-3.125C23.435,37.919,24.981,39.619,24.907,41.1z"/>
	<path fill-rule="evenodd" clip-rule="evenodd" fill="none" d="M55.329,44.256c-1.55-0.115-3.144-1.77-3.151-3.27
		c-0.009-1.733,1.803-3.359,3.61-3.238c1.625,0.108,3.183,1.703,3.159,3.235C58.921,42.702,57.061,44.386,55.329,44.256z"/>
	<path fill-rule="evenodd" clip-rule="evenodd" fill="none" d="M38.564,31.541c-3.277,0-6.556-0.035-9.832,0.016
		c-1.669,0.025-1.938-0.915-1.919-2.283c0.017-1.295,0.548-1.902,1.867-1.899c6.555,0.017,13.11,0.024,19.666-0.006
		c1.662-0.008,1.935,0.929,1.918,2.3c-0.017,1.3-0.547,1.893-1.867,1.881C45.12,31.521,41.843,31.541,38.564,31.541z"/>
	<path fill-rule="evenodd" clip-rule="evenodd" fill="none" d="M38.181,25.61c-1.937,0-3.888,0.131-5.801-0.082
		c-0.552-0.062-1.411-1.107-1.413-1.705c-0.014-2.585,1.795-4.573,4.358-4.765c2.222-0.167,4.518-0.303,6.68,0.095
		c1.28,0.236,2.725,1.295,3.463,2.405c1.729,2.595,0.813,4.006-2.368,4.084c-1.639,0.04-3.278,0.007-4.918,0.007
		C38.181,25.637,38.181,25.624,38.181,25.61z"/>
	<path fill-rule="evenodd" clip-rule="evenodd" fill="none" d="M41.898,13.656c-0.002,1.645-1.851,3.432-3.474,3.358
		c-1.631-0.073-3.388-2.009-3.253-3.585c0.125-1.462,1.803-3.075,3.26-3.136C40.063,10.225,41.901,12.01,41.898,13.656z"/>
</g>
</svg>
