<?xml version="1.0" encoding="utf-8"?>
<!-- Generator: Adobe Illustrator 16.0.0, SVG Export Plug-In . SVG Version: 6.00 Build 0)  -->
<!DOCTYPE svg PUBLIC "-//W3C//DTD SVG 1.1//EN" "http://www.w3.org/Graphics/SVG/1.1/DTD/svg11.dtd">
<svg version="1.1" id="Layer_1" xmlns="http://www.w3.org/2000/svg" xmlns:xlink="http://www.w3.org/1999/xlink" x="0px" y="0px"
	 width="75px" height="75px" viewBox="0 0 75 75" enable-background="new 0 0 75 75" xml:space="preserve">
<g>
	<path fill-rule="evenodd" clip-rule="evenodd" d="M41.79,57.674c-2.979,0.024-5.818-0.579-8.405-2.063
		c-1.007-0.578-1.489-0.349-2.087,0.554c-1.393,2.093-2.882,4.126-4.37,6.156c-0.5,0.682-0.621,1.221-0.195,2.061
		c1.287,2.537,0.223,5.563-2.267,6.819c-2.445,1.234-5.536,0.303-6.845-2.063c-1.348-2.435-0.552-5.69,1.883-6.943
		c0.946-0.485,2.149-0.563,3.247-0.63c0.693-0.043,1.237-0.03,1.687-0.683c1.576-2.278,3.183-4.539,4.826-6.771
		c0.472-0.64,0.39-1.04-0.143-1.582c-4.564-4.645-6.13-10.213-4.983-16.57c0.144-0.797-0.064-1.223-0.778-1.549
		c-3.319-1.512-6.631-3.038-9.93-4.592c-0.702-0.33-1.157-0.214-1.725,0.324c-1.865,1.772-4.885,2.184-7.137,1.067
		c-2.572-1.274-3.822-3.648-3.524-6.688c0.237-2.421,2.123-4.553,4.643-5.248c4.015-1.106,8.022,1.871,7.996,6.029
		c-0.008,1.126,0.355,1.706,1.371,2.149c3.108,1.356,6.187,2.781,9.253,4.23c0.819,0.387,1.194,0.194,1.61-0.58
		c4.744-8.829,15.211-11.686,23.743-7.682c0.802,0.376,1.312,0.393,2.011-0.242c3.263-2.967,6.577-5.878,9.902-8.777
		c0.524-0.457,0.476-0.873,0.314-1.444c-0.8-2.827,0.016-5.297,2.236-6.905c1.947-1.408,5.163-1.385,6.991,0.05
		c2.344,1.839,3.125,4.559,2.066,7.208c-0.983,2.465-3.459,3.952-6.115,3.64c-0.61-0.072-1.281-0.115-1.797-0.401
		c-0.907-0.503-1.511-0.265-2.217,0.375c-2.997,2.718-6.023,5.405-9.07,8.066c-0.611,0.533-0.576,0.863-0.015,1.383
		c3.468,3.208,5.38,7.146,5.77,11.89c0.806,9.853-6.31,18.018-15.544,19.286C43.399,57.658,42.591,57.635,41.79,57.674z
		 M52.021,50.599c3.955-3.026,6.451-10.09,3.947-16.378c-2.52-6.324-8.975-10.506-16.12-9.645
		c-6.509,0.784-12.217,6.45-13.156,13.254c-0.84,6.086,2.688,11.782,5.525,13.296c-0.203-2.344,0.402-4.35,2.21-5.893
		c1.817-1.552,4.024-1.438,6.427-1.38c-3.859-1.83-5.183-3.976-4.471-6.981c0.609-2.571,2.79-4.229,5.526-4.202
		c2.532,0.026,4.829,1.677,5.209,4.015c0.417,2.578,0.305,5.386-4.315,7.15C47.825,43.395,51.626,44.625,52.021,50.599z
		 M7.356,21.929c-1.915,0.004-3.516,1.582-3.513,3.463c0.002,1.992,1.56,3.57,3.521,3.57c1.96-0.001,3.545-1.613,3.515-3.574
		C10.85,23.479,9.267,21.925,7.356,21.929z M67.604,14.166c1.698-0.012,3.256-1.582,3.204-3.231
		c-0.052-1.644-1.567-3.107-3.22-3.107c-1.713,0-3.213,1.53-3.169,3.231C64.464,12.741,65.936,14.178,67.604,14.166z M22.125,68.88
		c1.186,0.002,2.333-1.146,2.306-2.307c-0.027-1.123-1.149-2.255-2.257-2.277c-1.201-0.024-2.305,1.063-2.324,2.287
		C19.832,67.847,20.854,68.878,22.125,68.88z"/>
</g>
</svg>
