<?xml version="1.0" encoding="utf-8"?>
<!-- Generator: Adobe Illustrator 16.0.0, SVG Export Plug-In . SVG Version: 6.00 Build 0)  -->
<!DOCTYPE svg PUBLIC "-//W3C//DTD SVG 1.1//EN" "http://www.w3.org/Graphics/SVG/1.1/DTD/svg11.dtd">
<svg version="1.1" id="Layer_1" xmlns="http://www.w3.org/2000/svg" xmlns:xlink="http://www.w3.org/1999/xlink" x="0px" y="0px"
	 width="75px" height="75px" viewBox="0 0 75 75" enable-background="new 0 0 75 75" xml:space="preserve">
<g id="Robotics-3">
	<path fill-rule="evenodd" clip-rule="evenodd" d="M30.643,58.279c-1.581,0-3.073,0.001-4.566,0
		c-5.982-0.004-9.594-3.604-9.585-9.549c0.005-3.053,0-6.105,0-9.148c-3.304-0.131-4.664,1.12-4.67,4.125
		c-0.004,1.618,0.029,3.237-0.003,4.854c-0.034,1.666-0.962,2.71-2.328,2.705c-1.351-0.004-2.293-1.05-2.334-2.717
		c-0.045-1.839-0.031-3.681-0.002-5.521c0.069-4.475,3.194-7.759,7.688-8.112c0.49-0.038,0.98-0.08,1.649-0.134
		c0-1.858,0.064-3.629-0.01-5.394c-0.424-10.146,6.261-15.865,14.734-17.534c0.219-0.043,0.438-0.071,0.659-0.104
		c1.044-0.158,2.344,0,3.05-0.572c0.559-0.454,0.371-1.81,0.549-2.759c0.241-1.302,1.123-1.952,2.37-1.886
		c1.25,0.068,2.026,0.81,2.159,2.134c0.262,2.628,0.271,2.633,2.895,3.034c4.031,0.617,7.809,1.861,10.936,4.597
		c3.382,2.961,5.011,6.747,5.054,11.222c0.022,2.382,0.005,4.763,0.005,6.936c1.84,0.511,3.522,0.748,4.995,1.438
		c2.923,1.368,4.419,3.804,4.44,7.072c0.015,2.232,0.026,4.463-0.004,6.693c-0.023,1.688-0.901,2.692-2.288,2.724
		c-1.479,0.034-2.364-0.959-2.392-2.771c-0.031-1.952-0.008-3.904-0.01-5.857c-0.004-3.032-1.278-4.239-4.646-4.21
		c-0.032,0.515-0.09,1.046-0.091,1.576c-0.011,2.788,0.006,5.577-0.009,8.366c-0.025,4.965-3.65,8.673-8.605,8.787
		c-1.776,0.04-3.553,0.007-5.442,0.007c-0.321,2.871,0.69,6.186-2.279,7.889c-1.645,0.941-3.784,1.495-5.675,1.437
		C32.242,67.453,30.937,65.351,30.643,58.279z M37.708,34.7c4.069,0,8.139,0.016,12.206-0.007c2.621-0.014,4.163-1.465,4.312-4.073
		c0.07-1.222,0.034-2.451-0.009-3.676c-0.138-3.781-1.938-6.573-5.218-8.372c-4.669-2.561-9.729-2.962-14.916-2.503
		c-0.773,0.069-1.545,0.22-2.301,0.403c-6.23,1.507-11.259,4.851-10.603,13.781c0.209,2.851,1.649,4.429,4.489,4.442
		C29.682,34.714,33.694,34.7,37.708,34.7z M21.2,39.075c0,3.194-0.02,6.752,0.006,10.31c0.018,2.551,1.6,4.158,4.167,4.232
		c1.672,0.049,3.346,0.014,5.019,0.014c6.468,0.001,12.936,0.014,19.403-0.008c2.393-0.006,4.245-1.248,4.34-3.299
		c0.179-3.867,0.052-7.747,0.052-11.336c-2.596,0.138-5.069,0.354-7.544,0.38c-5.464,0.058-10.93,0.054-16.394,0.005
		C27.272,39.348,24.297,39.183,21.2,39.075z M35.058,58.35c0.323,1.604,0.229,3.297,1.021,4.26c0.488,0.594,2.964,0.549,3.423-0.059
		c0.757-0.999,0.6-2.688,0.848-4.201C38.487,58.35,37.062,58.35,35.058,58.35z"/>
	<path fill-rule="evenodd" clip-rule="evenodd" d="M30.604,27.693c-0.01,1.307-1.018,2.292-2.329,2.278
		c-1.277-0.014-2.311-1.077-2.283-2.35c0.025-1.197,1.201-2.367,2.359-2.348C29.549,25.293,30.612,26.438,30.604,27.693z"/>
	<path fill-rule="evenodd" clip-rule="evenodd" d="M49.443,27.709c-0.013,1.305-1.026,2.282-2.345,2.265
		c-1.303-0.021-2.268-1.038-2.239-2.362c0.028-1.245,1.148-2.361,2.333-2.328C48.399,25.319,49.455,26.457,49.443,27.709z"/>
</g>
</svg>
