<?xml version="1.0" encoding="utf-8"?>
<!-- Generator: Adobe Illustrator 16.0.0, SVG Export Plug-In . SVG Version: 6.00 Build 0)  -->
<!DOCTYPE svg PUBLIC "-//W3C//DTD SVG 1.1//EN" "http://www.w3.org/Graphics/SVG/1.1/DTD/svg11.dtd">
<svg version="1.1" id="Layer_1" xmlns="http://www.w3.org/2000/svg" xmlns:xlink="http://www.w3.org/1999/xlink" x="0px" y="0px"
	 width="75px" height="75px" viewBox="0 0 75 75" enable-background="new 0 0 75 75" xml:space="preserve">
<g>
	<path fill-rule="evenodd" clip-rule="evenodd" fill="none" d="M-12-13c33.333,0,66.667,0,100,0c0,33.333,0,66.667,0,100
		c-33.333,0-66.667,0-100,0C-12,53.667-12,20.333-12-13z M12.533,38.978c-0.5,0.296-0.969,0.567-1.433,0.848
		c-1.141,0.689-1.407,1.675-0.734,2.844c1.398,2.429,2.807,4.853,4.227,7.269c0.639,1.088,1.608,1.348,2.715,0.768
		c0.217-0.113,0.442-0.219,0.636-0.365c0.551-0.413,0.999-0.519,1.59,0.053c0.537,0.521,1.301,0.506,2,0.196
		c0.347-0.153,0.696-0.323,1.003-0.544c0.426-0.306,0.738-0.243,1.141,0.084c2.006,1.631,4.036,3.233,6.066,4.835
		c1.01,0.797,1.715,0.71,2.501-0.279c0.525-0.66,1.046-1.324,1.562-1.991c1.055-1.362,0.97-1.964-0.404-3.05
		c-1.354-1.071-2.702-2.15-4.062-3.234c1.233-1.142,3.443-1.146,3.464-3.422c1.018-0.143,2.01-0.287,3.004-0.418
		c7.796-1.024,15.593-2.038,23.387-3.073c2.232-0.296,2.867-1.608,1.788-3.56c-1.499-2.71-2.987-5.426-4.484-8.148
		c0.162-0.172,0.291-0.31,0.422-0.446c1.707-1.78,2.069-4.393,0.9-6.489c-1.193-2.141-3.541-3.235-5.951-2.711
		c-0.515,0.112-0.721-0.039-0.949-0.458c-1.613-2.963-3.237-5.921-4.884-8.866c-0.948-1.696-2.452-1.794-3.633-0.247
		c-4.262,5.581-8.512,11.171-12.768,16.757c-1.333,1.749-2.669,3.496-4.041,5.293c-1.062-0.67-1.985-0.344-2.942,0.197
		c-2.938,1.658-5.904,3.267-8.857,4.899C12.221,36.589,11.979,37.195,12.533,38.978z M29.218,22.565
		c-0.217-0.046-0.292-0.077-0.367-0.077c-6.616-0.003-13.232-0.017-19.848,0.006c-1.53,0.005-2.74,1.084-2.97,2.535
		c-0.067,0.426-0.042,0.869-0.042,1.304C5.989,37.115,6.029,47.898,5.957,58.68c-0.014,2.188,1.012,3.892,3.877,3.851
		c7.35-0.104,14.702-0.034,22.054-0.034c0.344,0,0.688,0,1.028,0c0,0.722,0,1.328,0,1.985c-1.13,0-2.189-0.016-3.248,0.006
		c-0.637,0.014-1.122,0.273-1.149,1c-0.024,0.641,0.41,1.016,1.205,1.016c5.472,0.004,10.945,0.002,16.418-0.007
		c0.906-0.001,1.32-0.316,1.339-0.959c0.021-0.683-0.434-1.046-1.342-1.052c-1.024-0.008-2.049-0.002-3.086-0.002
		c0-0.713,0-1.302,0-1.987c0.389,0,0.734,0,1.081,0c7.542,0,15.084,0.001,22.626-0.001c2.02-0.001,3.248-1.231,3.248-3.262
		c0.003-11.163,0.003-22.326-0.003-33.49c-0.001-2.007-1.26-3.25-3.27-3.258c-1.824-0.007-3.648-0.005-5.473-0.002
		c-0.258,0-0.516,0.027-0.787,0.042c0,0.692,0,1.281,0,1.977c0.313,0,0.604,0,0.896,0c1.77,0,3.539-0.012,5.309,0.005
		c0.994,0.01,1.333,0.362,1.333,1.333c0.001,11.027-0.001,22.054-0.004,33.082c-0.001,1.309-0.283,1.585-1.576,1.584
		c-18.842,0-37.684,0-56.525,0c-0.245,0-0.491,0.009-0.735-0.003c-0.788-0.037-1.135-0.374-1.175-1.158
		c-0.02-0.38-0.007-0.763-0.007-1.144c0-10.619,0-21.237-0.002-31.856c0-1.653,0.174-1.841,1.805-1.841
		c5.745-0.001,11.49,0.003,17.235-0.015c0.318-0.001,0.729-0.09,0.934-0.299C28.414,23.731,28.762,23.17,29.218,22.565z
		 M60.718,46.771c-0.127,0.511-0.245,1.012-0.377,1.51c-0.163,0.614-0.019,1.11,0.619,1.301c0.658,0.196,1.112-0.091,1.293-0.762
		c0.403-1.495,0.819-2.987,1.192-4.489c0.208-0.833-0.358-1.492-1.163-1.276c-1.679,0.449-3.344,0.962-4.976,1.555
		c-0.286,0.104-0.542,0.736-0.527,1.113c0.021,0.549,0.549,0.917,1.06,0.729c0.979-0.36,1.875-0.462,2.749,0.203
		C60.608,46.671,60.627,46.689,60.718,46.771z M60.35,20.556c0.298-0.085,0.481-0.091,0.604-0.18
		c1.421-1.048,2.865-2.071,4.219-3.202c0.232-0.194,0.237-0.968,0.039-1.274c-0.157-0.244-0.928-0.395-1.182-0.224
		c-1.441,0.969-2.832,2.02-4.181,3.116c-0.232,0.188-0.311,0.763-0.219,1.092C59.709,20.17,60.128,20.363,60.35,20.556z
		 M60.801,26.467c-0.2,0.193-0.624,0.417-0.699,0.727c-0.079,0.321,0.066,0.922,0.308,1.059c1.394,0.788,2.824,1.519,4.292,2.155
		c0.275,0.12,0.907-0.175,1.141-0.466c0.333-0.416,0.198-0.991-0.308-1.261c-1.366-0.729-2.762-1.403-4.148-2.092
		C61.269,26.53,61.123,26.531,60.801,26.467z M56.227,16.503c0.158-0.155,0.602-0.389,0.703-0.725
		c0.399-1.322,0.705-2.673,1.016-4.02c0.134-0.579-0.087-1.051-0.682-1.204c-0.619-0.16-1.077,0.121-1.243,0.744
		c-0.349,1.31-0.686,2.625-0.986,3.946C54.883,15.91,55.344,16.479,56.227,16.503z M51.401,52.46c0.146,0.129,0.405,0.475,0.75,0.63
		c0.47,0.212,1.923-0.507,2.032-1.034c0.072-0.353-0.039-0.879-0.277-1.131c-0.48-0.507-1.042-0.161-1.56,0.096
		C51.849,51.268,51.35,51.495,51.401,52.46z M57.783,47.72c-0.602-0.001-1.771,0.897-1.882,1.406
		c-0.048,0.22-0.052,0.563,0.079,0.683c0.272,0.25,0.781,0.628,0.957,0.53c0.608-0.341,1.178-0.81,1.622-1.346
		c0.136-0.163-0.137-0.723-0.311-1.056C58.174,47.792,57.879,47.761,57.783,47.72z M47.27,54.979
		c0.649-0.185,1.168-0.208,1.509-0.466c0.308-0.232,0.587-0.726,0.578-1.097c-0.013-0.535-0.484-0.839-1.047-0.757
		c-0.451,0.065-0.97,0.12-1.306,0.378c-0.296,0.229-0.563,0.761-0.507,1.104C46.552,54.477,47.032,54.741,47.27,54.979z
		 M42.702,55.79c0.11-0.018,0.434-0.053,0.748-0.126c0.601-0.14,0.859-0.548,0.767-1.141c-0.097-0.611-0.528-0.845-1.11-0.818
		c-0.269,0.011-0.534,0.085-0.803,0.105c-0.665,0.051-1.073,0.368-1.071,1.063C41.234,55.492,41.706,55.821,42.702,55.79z
		 M37.702,55.966c0.789,0.028,1.24-0.295,1.279-0.916c0.04-0.634-0.392-1.033-1.15-1.065c-0.849-0.035-1.303,0.295-1.316,0.957
		C36.502,55.588,36.907,55.938,37.702,55.966z"/>
	<path fill-rule="evenodd" clip-rule="evenodd" d="M12.533,38.978c-0.554-1.782-0.312-2.389,1.263-3.259
		c2.953-1.633,5.918-3.241,8.857-4.899c0.957-0.541,1.88-0.867,2.942-0.197c1.372-1.797,2.708-3.544,4.041-5.293
		c4.256-5.586,8.506-11.176,12.768-16.757c1.181-1.547,2.685-1.449,3.633,0.247c1.646,2.945,3.271,5.903,4.884,8.866
		c0.229,0.419,0.435,0.569,0.949,0.458c2.41-0.523,4.758,0.571,5.951,2.711c1.169,2.096,0.807,4.709-0.9,6.489
		c-0.131,0.136-0.26,0.274-0.422,0.446c1.497,2.722,2.985,5.438,4.484,8.148c1.079,1.951,0.444,3.264-1.788,3.56
		c-7.794,1.035-15.591,2.049-23.387,3.073c-0.994,0.131-1.986,0.275-3.004,0.418c-0.021,2.276-2.23,2.28-3.464,3.422
		c1.36,1.084,2.707,2.163,4.062,3.234c1.374,1.086,1.458,1.688,0.404,3.05c-0.516,0.667-1.037,1.331-1.562,1.991
		c-0.786,0.989-1.491,1.076-2.501,0.279c-2.03-1.602-4.06-3.204-6.066-4.835c-0.403-0.327-0.715-0.39-1.141-0.084
		c-0.307,0.221-0.656,0.391-1.003,0.544c-0.699,0.31-1.462,0.324-2-0.196c-0.591-0.571-1.039-0.466-1.59-0.053
		c-0.194,0.146-0.419,0.252-0.636,0.365c-1.107,0.58-2.076,0.32-2.715-0.768c-1.42-2.416-2.828-4.84-4.227-7.269
		c-0.673-1.169-0.406-2.154,0.734-2.844C11.564,39.545,12.033,39.273,12.533,38.978z M41.358,13.348
		c-0.161,0.171-0.281,0.277-0.377,0.402c-4.619,6.06-9.23,12.125-13.864,18.173c-0.323,0.422-0.219,0.709,0.002,1.088
		c1.442,2.466,2.883,4.932,4.294,7.416c0.279,0.491,0.552,0.65,1.148,0.569c6.039-0.818,12.083-1.594,18.125-2.385
		c1.502-0.196,3.002-0.405,4.616-0.624C50.624,29.718,46.006,21.559,41.358,13.348z M30.738,43.24
		c-2.162-3.726-4.262-7.346-6.402-11.035c-3.37,1.857-6.693,3.688-10.073,5.551c0.463,0.791,0.883,1.508,1.339,2.287
		c0.776-0.425,1.483-0.818,2.196-1.201c0.742-0.399,1.348-0.313,1.646,0.223c0.314,0.565,0.094,1.098-0.643,1.516
		c-0.706,0.4-1.417,0.789-2.192,1.221c1.364,2.351,2.696,4.646,4.057,6.99C24.042,46.931,27.346,45.11,30.738,43.24z M44.165,9.571
		c-0.365,0.476-0.609,0.875-0.933,1.197c-0.532,0.531-0.49,0.984-0.12,1.632c4.516,7.914,8.997,15.847,13.485,23.777
		c0.871,1.54,0.867,1.542,2.585,1.307c0.07-0.009,0.136-0.054,0.291-0.118C54.386,28.129,49.314,18.92,44.165,9.571z M32.314,51.352
		c-1.586-1.264-3.088-2.469-4.604-3.656c-0.145-0.112-0.424-0.215-0.559-0.15c-0.688,0.329-1.348,0.714-2.1,1.125
		c1.991,1.579,3.854,3.058,5.769,4.577C31.33,52.601,31.794,52.012,32.314,51.352z M13.628,40.674
		c-0.564,0.339-1.042,0.625-1.559,0.935c1.444,2.483,2.843,4.889,4.268,7.338c0.564-0.335,1.04-0.617,1.554-0.923
		C16.459,45.554,15.073,43.164,13.628,40.674z M55.46,25.91c1.186-1.258,1.343-2.974,0.48-4.301
		c-0.814-1.252-2.353-1.873-3.62-1.397C53.356,22.09,54.386,23.959,55.46,25.91z"/>
	<path fill-rule="evenodd" clip-rule="evenodd" d="M29.218,22.565c-0.456,0.605-0.804,1.167-1.256,1.625
		c-0.205,0.208-0.616,0.298-0.934,0.299c-5.745,0.018-11.49,0.014-17.235,0.015c-1.631,0-1.805,0.188-1.805,1.841
		C7.991,36.964,7.99,47.582,7.991,58.201c0,0.381-0.012,0.764,0.007,1.144c0.04,0.784,0.387,1.121,1.175,1.158
		c0.245,0.012,0.49,0.003,0.735,0.003c18.841,0,37.683,0,56.525,0c1.293,0.001,1.575-0.275,1.576-1.584
		c0.003-11.027,0.005-22.055,0.004-33.082c0-0.971-0.339-1.323-1.333-1.333c-1.77-0.017-3.539-0.005-5.309-0.005
		c-0.291,0-0.582,0-0.896,0c0-0.696,0-1.285,0-1.977c0.271-0.015,0.529-0.042,0.787-0.042c1.824-0.003,3.648-0.005,5.473,0.002
		c2.01,0.008,3.269,1.251,3.27,3.258c0.006,11.164,0.006,22.327,0.003,33.49c0,2.03-1.229,3.261-3.248,3.262
		c-7.542,0.002-15.084,0.001-22.626,0.001c-0.347,0-0.692,0-1.081,0c0,0.686,0,1.274,0,1.987c1.037,0,2.062-0.006,3.086,0.002
		c0.908,0.006,1.362,0.369,1.342,1.052c-0.019,0.643-0.433,0.958-1.339,0.959c-5.473,0.009-10.946,0.011-16.418,0.007
		c-0.795,0-1.229-0.375-1.205-1.016c0.027-0.727,0.512-0.986,1.149-1c1.058-0.021,2.117-0.006,3.248-0.006c0-0.657,0-1.264,0-1.985
		c-0.34,0-0.684,0-1.028,0c-7.352,0-14.704-0.07-22.054,0.034c-2.865,0.041-3.891-1.663-3.877-3.851
		c0.072-10.781,0.032-21.564,0.034-32.346c0-0.435-0.026-0.878,0.042-1.304c0.229-1.451,1.44-2.53,2.97-2.535
		c6.616-0.023,13.232-0.009,19.848-0.006C28.926,22.488,29.001,22.519,29.218,22.565z M35.058,64.428c2.019,0,3.931,0,5.866,0
		c0-0.656,0-1.259,0-1.867c-1.994,0-3.926,0-5.866,0C35.058,63.212,35.058,63.798,35.058,64.428z"/>
	<path fill-rule="evenodd" clip-rule="evenodd" d="M60.718,46.771c-0.091-0.082-0.109-0.101-0.13-0.116
		c-0.874-0.665-1.77-0.563-2.749-0.203c-0.511,0.188-1.038-0.181-1.06-0.729c-0.015-0.377,0.241-1.009,0.527-1.113
		c1.632-0.593,3.297-1.105,4.976-1.555c0.805-0.216,1.371,0.443,1.163,1.276c-0.373,1.502-0.789,2.994-1.192,4.489
		c-0.181,0.671-0.635,0.958-1.293,0.762c-0.638-0.19-0.782-0.687-0.619-1.301C60.473,47.783,60.591,47.282,60.718,46.771z"/>
	<path fill-rule="evenodd" clip-rule="evenodd" d="M60.35,20.556c-0.222-0.192-0.641-0.385-0.72-0.672
		c-0.092-0.33-0.014-0.904,0.219-1.092c1.349-1.096,2.739-2.146,4.181-3.116c0.254-0.171,1.024-0.02,1.182,0.224
		c0.198,0.306,0.193,1.08-0.039,1.274c-1.354,1.13-2.798,2.154-4.219,3.202C60.831,20.465,60.647,20.47,60.35,20.556z"/>
	<path fill-rule="evenodd" clip-rule="evenodd" d="M60.801,26.467c0.322,0.064,0.468,0.063,0.585,0.121
		c1.387,0.688,2.782,1.363,4.148,2.092c0.506,0.27,0.641,0.846,0.308,1.261c-0.233,0.291-0.865,0.585-1.141,0.466
		c-1.468-0.636-2.898-1.367-4.292-2.155c-0.241-0.136-0.387-0.738-0.308-1.059C60.177,26.884,60.601,26.66,60.801,26.467z"/>
	<path fill-rule="evenodd" clip-rule="evenodd" d="M56.227,16.503c-0.883-0.025-1.344-0.594-1.192-1.259
		c0.301-1.322,0.638-2.636,0.986-3.946c0.166-0.623,0.624-0.904,1.243-0.744c0.595,0.153,0.815,0.625,0.682,1.204
		c-0.311,1.347-0.616,2.698-1.016,4.02C56.828,16.115,56.385,16.348,56.227,16.503z"/>
	<path fill-rule="evenodd" clip-rule="evenodd" d="M51.401,52.46c-0.052-0.965,0.447-1.192,0.945-1.439
		c0.518-0.257,1.079-0.603,1.56-0.096c0.238,0.252,0.35,0.778,0.277,1.131c-0.109,0.527-1.563,1.246-2.032,1.034
		C51.807,52.935,51.548,52.589,51.401,52.46z"/>
	<path fill-rule="evenodd" clip-rule="evenodd" d="M57.783,47.72c0.096,0.041,0.391,0.072,0.466,0.218
		c0.174,0.333,0.446,0.893,0.311,1.056c-0.444,0.536-1.014,1.005-1.622,1.346c-0.176,0.098-0.685-0.28-0.957-0.53
		c-0.131-0.119-0.127-0.463-0.079-0.683C56.012,48.617,57.182,47.719,57.783,47.72z"/>
	<path fill-rule="evenodd" clip-rule="evenodd" d="M47.27,54.979c-0.237-0.238-0.718-0.503-0.772-0.837
		c-0.057-0.344,0.211-0.876,0.507-1.104c0.336-0.258,0.854-0.313,1.306-0.378c0.563-0.082,1.034,0.222,1.047,0.757
		c0.009,0.371-0.271,0.864-0.578,1.097C48.438,54.771,47.919,54.795,47.27,54.979z"/>
	<path fill-rule="evenodd" clip-rule="evenodd" d="M42.702,55.79c-0.996,0.031-1.468-0.298-1.47-0.916
		c-0.002-0.695,0.406-1.013,1.071-1.063c0.269-0.021,0.534-0.095,0.803-0.105c0.582-0.026,1.014,0.207,1.11,0.818
		c0.093,0.593-0.166,1.001-0.767,1.141C43.136,55.737,42.813,55.772,42.702,55.79z"/>
	<path fill-rule="evenodd" clip-rule="evenodd" d="M37.702,55.966c-0.795-0.028-1.2-0.378-1.187-1.024
		c0.013-0.662,0.467-0.992,1.316-0.957c0.759,0.032,1.19,0.432,1.15,1.065C38.942,55.671,38.491,55.994,37.702,55.966z"/>
	<path fill-rule="evenodd" clip-rule="evenodd" fill="none" d="M41.358,13.348c4.647,8.211,9.266,16.37,13.945,24.639
		c-1.614,0.219-3.114,0.428-4.616,0.624c-6.042,0.791-12.086,1.566-18.125,2.385c-0.596,0.081-0.869-0.078-1.148-0.569
		c-1.412-2.483-2.853-4.95-4.294-7.416c-0.222-0.378-0.326-0.666-0.002-1.088c4.633-6.048,9.245-12.113,13.864-18.173
		C41.077,13.625,41.197,13.519,41.358,13.348z"/>
	<path fill-rule="evenodd" clip-rule="evenodd" fill="none" d="M30.738,43.24c-3.392,1.87-6.696,3.69-10.072,5.552
		c-1.36-2.344-2.692-4.64-4.057-6.99c0.775-0.432,1.487-0.82,2.192-1.221c0.737-0.418,0.958-0.95,0.643-1.516
		c-0.298-0.535-0.904-0.622-1.646-0.223c-0.713,0.383-1.42,0.776-2.196,1.201c-0.456-0.779-0.876-1.496-1.339-2.287
		c3.38-1.863,6.703-3.694,10.073-5.551C26.476,35.895,28.577,39.515,30.738,43.24z"/>
	<path fill-rule="evenodd" clip-rule="evenodd" fill="none" d="M44.165,9.571c5.149,9.349,10.221,18.558,15.309,27.795
		c-0.155,0.064-0.221,0.109-0.291,0.118c-1.718,0.235-1.714,0.233-2.585-1.307c-4.488-7.93-8.97-15.863-13.485-23.777
		c-0.37-0.648-0.412-1.101,0.12-1.632C43.556,10.447,43.8,10.047,44.165,9.571z"/>
	<path fill-rule="evenodd" clip-rule="evenodd" fill="none" d="M32.314,51.352c-0.521,0.66-0.985,1.249-1.495,1.896
		c-1.915-1.52-3.778-2.998-5.769-4.577c0.752-0.411,1.412-0.796,2.1-1.125c0.135-0.064,0.415,0.038,0.559,0.15
		C29.226,48.883,30.728,50.088,32.314,51.352z"/>
	<path fill-rule="evenodd" clip-rule="evenodd" fill="none" d="M13.628,40.674c1.445,2.49,2.832,4.88,4.264,7.35
		c-0.514,0.306-0.99,0.588-1.554,0.923c-1.425-2.449-2.824-4.854-4.268-7.338C12.586,41.299,13.063,41.013,13.628,40.674z"/>
	<path fill-rule="evenodd" clip-rule="evenodd" fill="none" d="M55.46,25.91c-1.074-1.951-2.104-3.819-3.14-5.699
		c1.268-0.475,2.806,0.145,3.62,1.397C56.803,22.936,56.646,24.651,55.46,25.91z"/>
	<path fill-rule="evenodd" clip-rule="evenodd" fill="none" d="M35.058,64.428c0-0.63,0-1.216,0-1.867c1.94,0,3.872,0,5.866,0
		c0,0.608,0,1.211,0,1.867C38.988,64.428,37.076,64.428,35.058,64.428z"/>
</g>
</svg>
