<?xml version="1.0" encoding="utf-8"?>
<!-- Generator: Adobe Illustrator 16.0.0, SVG Export Plug-In . SVG Version: 6.00 Build 0)  -->
<!DOCTYPE svg PUBLIC "-//W3C//DTD SVG 1.1//EN" "http://www.w3.org/Graphics/SVG/1.1/DTD/svg11.dtd">
<svg version="1.1" id="Layer_1" xmlns="http://www.w3.org/2000/svg" xmlns:xlink="http://www.w3.org/1999/xlink" x="0px" y="0px"
	 width="75px" height="75px" viewBox="0 0 75 75" enable-background="new 0 0 75 75" xml:space="preserve">
<g id="Supply_Chain_Management-2">
	<path fill-rule="evenodd" clip-rule="evenodd" d="M48.33,9.912c-0.169-0.135-0.246-0.411-0.428-0.51
		c-0.699-0.371-1.394-0.906-2.136-0.991c-1.425-0.154-2.874-0.044-4.271-0.044c-0.465-3.383,0.229-3.171-3.502-3.177
		c-4.381-0.011-8.76-0.005-13.143-0.005c-2.56,0-2.822,0.335-2.341,3.091c0.523,0,1.424,0.203,1.555-0.033
		c0.864-1.525,2.255-0.889,3.422-0.931c2.244-0.082,4.493-0.024,6.74-0.024h4.837v15.626c-0.205,0.077-0.308,0.146-0.408,0.148
		c-1.457,0.017-2.922-0.017-4.375,0.05c-0.962,0.045-1.623-0.186-2.281-1.002c-1.21-1.508-3.377-1.555-4.537-0.044
		c-0.86,1.114-1.72,1.198-3.073,0.816v-6.001h-2.081c0,2.203,0.085,4.224-0.031,6.23c-0.092,1.643,0.551,2.271,2.15,2.136
		c1.229-0.104,2.3-0.041,3.205,1.201c0.902,1.242,2.983,1.381,3.895,0.188c1.236-1.612,2.754-1.396,4.337-1.399
		c1.686-0.002,3.368,0.026,5.052-0.014c0.945-0.021,1.631,0.147,2.291,0.996c1.197,1.529,3.349,1.584,4.544,0.1
		c0.746-0.928,1.532-1.056,2.573-1.15c0.545-0.046,1.471-0.721,1.476-1.116C51.812,19.068,53.098,13.731,48.33,9.912z
		 M29.543,25.825c-0.86,0-1.558-0.698-1.558-1.563c0-0.859,0.697-1.557,1.558-1.557c0.864,0,1.563,0.697,1.563,1.557
		C31.105,25.127,30.407,25.825,29.543,25.825z M44.633,10.587c2.331-0.47,2.486,1.799,4.078,2.949h-4.078V10.587z M45.655,25.825
		c-0.864,0-1.563-0.698-1.563-1.563c0-0.832,0.654-1.514,1.482-1.554c0.003-0.007,0.008-0.014,0.012-0.021
		c0.005,0.007,0.008,0.014,0.012,0.021c0.017-0.003,0.036-0.003,0.057-0.003c0.859,0,1.558,0.697,1.558,1.557
		C47.213,25.127,46.515,25.825,45.655,25.825z M49.706,22.421c-0.002,0.213-0.286,0.6-0.414,0.591
		c-0.349-0.027-0.763-0.139-1.006-0.371c-2.332-2.257-3.157-2.254-5.539,0.021c-0.238,0.226-0.678,0.359-1.005,0.333
		c-0.162-0.014-0.401-0.496-0.401-0.769c-0.02-3.704-0.012-7.411,0.009-11.116c0.003-0.185,0.163-0.37,0.247-0.557
		c0.232-0.006,0.462-0.018,0.693-0.025c0.031,0.978,0.085,1.952,0.097,2.932c0.02,2.215,0.051,2.255,2.27,2.263
		c1.616,0.004,3.231,0,5.067,0C49.724,18.081,49.737,20.252,49.706,22.421z"/>
	<path fill-rule="evenodd" clip-rule="evenodd" d="M57.887,55.644c-1.805-3.403-1.62-5.652,0.606-7.338
		c1.837-1.392,4.337-1.272,6.037,0.285c1.961,1.798,2.032,4.106,0.2,6.996c0.898,0.219,1.857,0.296,2.671,0.679
		c1.615,0.764,2.375,2.174,2.385,3.953c0.018,2.867-0.028,5.734,0.02,8.6c0.022,1.318-0.549,1.789-1.827,1.779
		c-4.44-0.035-8.882-0.041-13.322,0.003c-1.332,0.011-1.779-0.547-1.748-1.827c0.059-2.416,0.016-4.835,0.016-7.251
		C52.924,57.344,53.846,56.253,57.887,55.644z M55.012,68.355c0.536,0.052,0.918,0.119,1.299,0.12
		c3.486,0.008,6.972,0.029,10.455-0.046c0.315-0.007,0.868-0.662,0.88-1.032c0.078-2.414,0.068-4.832,0.022-7.25
		c-0.026-1.304-0.759-2.181-2.074-2.214c-2.865-0.071-5.742-0.142-8.592,0.081c-0.707,0.055-1.843,1.184-1.899,1.891
		C54.881,62.683,55.012,65.488,55.012,68.355z M61.502,49.482c-1.366-0.096-2.649,1.002-2.79,2.385
		c-0.147,1.438,0.998,2.776,2.459,2.875c1.438,0.096,2.763-1.105,2.813-2.543C64.03,50.824,62.892,49.578,61.502,49.482z"/>
	<path fill-rule="evenodd" clip-rule="evenodd" d="M47.93,38.842c-0.479,0.772-0.719,1.333-1.109,1.757
		c-0.952,1.033-1.014,2.02,0.025,2.984c0.882,0.819,0.969,1.719,0.39,2.719c-0.452,0.775-0.795,1.688-1.437,2.256
		c-0.584,0.518-1.539,0.964-2.276,0.889c-1.591-0.161-2.452,0.169-2.997,1.665c-0.112,0.309-0.25,0.638-0.467,0.873
		c-1.428,1.552-5.689,0.667-6.51-1.266c-0.471-1.108-1.413-1.695-2.65-1.282c-1.153,0.386-1.978,0.036-2.602-0.911
		c-0.493-0.748-1.154-1.487-1.329-2.315c-0.169-0.801-0.083-1.923,0.379-2.527c0.905-1.183,1.035-2.094-0.062-3.131
		c-0.237-0.226-0.503-0.509-0.572-0.807c-0.438-1.856,0.929-3.059,1.854-4.297c0.392-0.528,1.678-0.313,2.473-0.639
		c0.903-0.37,2.111-0.778,2.469-1.517c0.58-1.206,1.266-1.767,2.526-1.761c0.842,0.003,1.752-0.192,2.506,0.065
		c0.744,0.254,1.609,0.836,1.931,1.507c0.676,1.412,1.448,2.119,3.067,1.595c0.427-0.14,1.188-0.12,1.413,0.148
		C46.004,36.1,46.924,37.463,47.93,38.842z M29.755,36.813c-0.172,0.872-0.738,1.932-0.421,2.47
		c1.141,1.945,1.133,4.251-0.453,6.161c0.392,0.619,0.799,1.269,1.186,1.882c2.467-0.675,4.662,0.521,5.948,3.118
		c0.771,0,1.541,0,2.278,0c0.905-2.46,3.134-3.661,5.927-3.212c0.375-0.644,0.762-1.306,1.128-1.933
		c-1.779-1.743-1.78-4.254-0.083-6.591c-0.363-0.59-0.742-1.201-1.109-1.8c-2.133,0.868-5.415-0.99-5.928-3.169
		c-0.755,0-1.525,0-2.28,0C35.393,35.94,32.166,37.758,29.755,36.813z"/>
	<path fill-rule="evenodd" clip-rule="evenodd" d="M18.617,60.819c0.464,0.376,0.982,0.798,1.599,1.298
		c1.116-1.135,2.037-0.569,2.964,0.477c0.892,1.007,1.892,1.916,2.844,2.87c0.236,0.239,0.584,0.45,0.676,0.739
		c0.68,2.16-1.596,2.501-2.399,3.759c-0.511,0.796-1.284,0.773-1.989,0.055c-1.295-1.323-2.709-2.547-3.872-3.975
		c-0.405-0.498-0.218-1.479-0.3-2.241c0.165-0.056,0.331-0.11,0.497-0.168c-0.479-0.46-0.957-0.921-1.407-1.355
		C12.15,64.622,8.3,63.952,5.789,60.355C3.583,57.191,4.008,52.889,6.79,50.2c2.831-2.736,7.163-2.983,10.314-0.589
		C20.441,52.149,21.025,56.126,18.617,60.819z M12.268,61.627c3.194,0.02,5.841-2.558,5.865-5.708
		c0.026-3.124-2.614-5.8-5.767-5.846c-3.137-0.044-5.815,2.588-5.844,5.745C6.493,59.004,9.071,61.609,12.268,61.627z
		 M24.221,67.025c-0.988-1.057-1.821-1.947-2.734-2.923c-0.333,0.347-0.65,0.68-0.852,0.891c0.958,1.035,1.817,1.967,2.723,2.945
		C23.712,67.563,24.008,67.252,24.221,67.025z"/>
	<path fill-rule="evenodd" clip-rule="evenodd" d="M12.738,44.943c-0.722,0.21-1.253,0.363-1.778,0.516
		c-2.786-6.705-1.329-18.994,6.417-26.493c0.433,0.392,0.872,0.791,1.458,1.319c-3.062,3.355-5.258,7.144-6.335,11.517
		C11.434,36.135,11.519,40.463,12.738,44.943z"/>
	<path fill-rule="evenodd" clip-rule="evenodd" d="M63.489,44.389c-0.561-0.146-1.134-0.298-1.795-0.471
		c1.848-8.895-0.227-16.656-6.252-23.438c0.179-0.236,0.351-0.506,0.564-0.736c0.227-0.246,0.493-0.452,0.735-0.671
		C62.886,24.116,66.377,37.134,63.489,44.389z"/>
	<path fill-rule="evenodd" clip-rule="evenodd" d="M49.232,60.109c0.351,0.667,0.628,1.195,0.972,1.849
		c-6.62,3.509-13.418,4.177-20.646,2.343c0.056-0.42,0.071-0.737,0.144-1.042c0.064-0.268,0.188-0.521,0.354-0.964
		C36.631,63.974,42.992,63.382,49.232,60.109z"/>
	<path fill-rule="evenodd" clip-rule="evenodd" d="M26.435,15.642c-1.75,0-3.357,0-5.066,0c0-0.659,0-1.238,0-1.921
		c1.691,0,3.341,0,5.066,0C26.435,14.39,26.435,15.005,26.435,15.642z"/>
	<path fill-rule="evenodd" clip-rule="evenodd" d="M19.267,11.422c0-0.683,0-1.229,0-1.874c1.678,0,3.284,0,5.032,0
		c0,0.582,0,1.161,0,1.874C22.674,11.422,21.031,11.422,19.267,11.422z"/>
	<path fill-rule="evenodd" clip-rule="evenodd" d="M41.28,42.057c0.025,2.307-1.809,4.209-4.102,4.256
		c-2.299,0.047-4.204-1.775-4.27-4.085c-0.068-2.386,1.811-4.337,4.181-4.336C39.394,37.892,41.257,39.743,41.28,42.057z
		 M39.156,41.864c-0.079-1.076-0.818-1.76-2.025-1.863c-1.162-0.101-2.146,0.944-2.101,2.142c0.049,1.283,0.82,1.949,2.021,2.059
		C38.194,44.305,39.185,43.237,39.156,41.864z"/>
</g>
</svg>
