<?xml version="1.0" encoding="utf-8"?>
<!-- Generator: Adobe Illustrator 16.0.0, SVG Export Plug-In . SVG Version: 6.00 Build 0)  -->
<!DOCTYPE svg PUBLIC "-//W3C//DTD SVG 1.1//EN" "http://www.w3.org/Graphics/SVG/1.1/DTD/svg11.dtd">
<svg version="1.1" id="Layer_1" xmlns="http://www.w3.org/2000/svg" xmlns:xlink="http://www.w3.org/1999/xlink" x="0px" y="0px"
	 width="75px" height="75px" viewBox="0 0 75 75" enable-background="new 0 0 75 75" xml:space="preserve">
<g id="Sustainability-3">
	<path fill-rule="evenodd" clip-rule="evenodd" fill="none" d="M67.945,68.689c-20.764,0-41.527,0-62.313,0
		c0-20.746,0-41.498,0-62.29c20.756,0,41.534,0,62.313,0C67.945,27.149,67.945,47.917,67.945,68.689z M13.157,48.223
		c0.868,2.887,1.649,5.58,2.513,8.247c0.113,0.348,0.607,0.661,0.995,0.815c5.689,2.271,11.387,4.52,17.091,6.752
		c1.743,0.682,3.556,1.045,5.415,0.576c6.607-1.663,13.212-3.342,19.807-5.053c1.094-0.284,1.576-1.154,1.335-2.244
		c-0.238-1.08-1.022-1.599-2.146-1.536c-4.331,0.241-8.663,0.469-12.991,0.754c-0.436,0.028-0.958,0.318-1.253,0.652
		c-1.452,1.646-3.222,2.088-5.256,1.45c-2.196-0.688-4.388-1.409-6.529-2.248c-0.486-0.191-1.129-0.994-1.057-1.4
		c0.17-0.956,1.021-0.83,1.783-0.568c2.09,0.717,4.181,1.433,6.278,2.126c1.435,0.474,2.705,0.04,3.352-1.101
		c0.677-1.194,0.365-2.629-0.869-3.545c-3.001-2.226-5.99-4.471-9.064-6.593c-1.682-1.162-3.64-1.623-5.669-1.055
		C22.374,45.519,17.877,46.854,13.157,48.223z M37.301,46.104c2.369-1.697,4.551-3.219,6.685-4.804
		c1.293-0.96,2.678-1.353,4.277-1.152c2.548,0.317,5.104,0.577,8.055,0.905c-0.11-2.312-0.175-4.449-0.361-6.577
		c-0.022-0.26-0.689-0.637-1.076-0.661c-1.518-0.098-3.043-0.052-4.564-0.105c-1.912-0.067-3.712-0.688-4.443-2.518
		c-0.999-2.497-2.756-2.866-5.088-2.641c-4.667,0.451-7.463-3.105-6.059-7.604c0.243-0.778,0.534-1.543,0.856-2.467
		c-4.501,0.093-8.238,1.628-11.702,4.526c1.408,0.696,2.648,1.197,3.764,1.896c0.872,0.547,1.853,1.193,2.325,2.05
		c1.064,1.926,1.948,3.97,2.709,6.038c0.781,2.126,0.018,4.12-1.808,5.477c-0.665,0.493-1.364,0.96-1.943,1.542
		c-0.475,0.478-0.794,1.108-1.371,1.947C31.892,41.664,34.65,44.091,37.301,46.104z M25.578,42.261
		c0.141-2.57,1.828-4.054,3.756-5.329c1.17-0.774,1.869-1.821,1.388-3.146c-0.722-1.986-1.672-3.892-2.575-5.809
		c-0.164-0.35-0.514-0.682-0.861-0.864c-1.663-0.87-3.354-1.685-4.996-2.5c-5.352,5.314-6.644,14.51-3.998,19.898
		C20.664,43.778,23.038,43.045,25.578,42.261z M55.315,31.562c-2.806-6.908-7.441-11.347-14.674-12.749
		c-2.678-0.52-2.691-0.449-3.527,1.848c-1.508,4.142-0.021,6.124,4.322,5.767c3.181-0.262,4.584,0.618,6.121,3.379
		c0.429,0.77,1.443,1.55,2.287,1.679C51.554,31.744,53.33,31.562,55.315,31.562z M39.371,47.463
		c2.194,2.172,5.677,3.049,5.656,7.015c1.051-0.162,2.163-0.022,2.863-0.493c3.834-2.581,6.363-6.162,7.697-10.806
		c-2.274-0.277-4.465-0.458-6.621-0.836c-1.782-0.313-3.223,0.15-4.595,1.257c-1.107,0.894-2.341,1.629-3.486,2.479
		C40.353,46.475,39.897,46.977,39.371,47.463z M35.22,15.996c-0.827-5.512-9.836-6.699-15.271-5.094
		C21.075,16.695,29.612,17.571,35.22,15.996z M53.39,10.711c-1.193-0.142-2.269-0.312-3.35-0.389
		c-3.116-0.221-6.177,0.007-8.961,1.583c-1.596,0.902-2.765,2.2-3.168,4.213c0.972,0.146,1.818,0.302,2.673,0.399
		c3.008,0.342,5.979,0.255,8.794-1.018C51.399,14.586,52.8,13.112,53.39,10.711z"/>
	<path fill-rule="evenodd" clip-rule="evenodd" d="M13.157,48.223c4.72-1.369,9.217-2.704,13.733-3.97
		c2.029-0.568,3.987-0.107,5.669,1.055c3.074,2.122,6.063,4.367,9.064,6.593c1.234,0.916,1.546,2.351,0.869,3.545
		c-0.646,1.141-1.917,1.574-3.352,1.101c-2.098-0.693-4.188-1.409-6.278-2.126c-0.762-0.262-1.613-0.388-1.783,0.568
		c-0.072,0.406,0.57,1.209,1.057,1.4c2.142,0.839,4.333,1.561,6.529,2.248c2.034,0.638,3.804,0.195,5.256-1.45
		c0.295-0.334,0.817-0.624,1.253-0.652c4.328-0.285,8.66-0.513,12.991-0.754c1.124-0.063,1.908,0.456,2.146,1.536
		c0.241,1.09-0.241,1.96-1.335,2.244c-6.595,1.711-13.199,3.39-19.807,5.053c-1.859,0.469-3.672,0.105-5.415-0.576
		c-5.704-2.232-11.401-4.481-17.091-6.752c-0.388-0.154-0.882-0.468-0.995-0.815C14.807,53.803,14.025,51.109,13.157,48.223z"/>
	<path fill-rule="evenodd" clip-rule="evenodd" d="M37.301,46.104c-2.65-2.013-5.409-4.439-9.745-4.148
		c0.577-0.839,0.896-1.47,1.371-1.947c0.579-0.582,1.278-1.049,1.943-1.542c1.825-1.356,2.589-3.351,1.808-5.477
		c-0.761-2.068-1.645-4.112-2.709-6.038c-0.473-0.856-1.453-1.503-2.325-2.05c-1.115-0.698-2.355-1.199-3.764-1.896
		c3.464-2.898,7.201-4.434,11.702-4.526c-0.322,0.924-0.613,1.688-0.856,2.467c-1.404,4.499,1.392,8.056,6.059,7.604
		c2.332-0.226,4.089,0.144,5.088,2.641c0.731,1.829,2.531,2.45,4.443,2.518c1.521,0.054,3.047,0.008,4.564,0.105
		c0.387,0.024,1.054,0.401,1.076,0.661c0.187,2.128,0.251,4.266,0.361,6.577c-2.951-0.328-5.507-0.588-8.055-0.905
		c-1.6-0.2-2.984,0.192-4.277,1.152C41.852,42.885,39.67,44.406,37.301,46.104z"/>
	<path fill-rule="evenodd" clip-rule="evenodd" d="M25.578,42.261c-2.54,0.784-4.914,1.518-7.287,2.251
		c-2.646-5.39-1.354-14.585,3.998-19.899c1.642,0.815,3.333,1.63,4.996,2.5c0.348,0.183,0.697,0.515,0.861,0.864
		c0.903,1.917,1.854,3.822,2.575,5.809c0.481,1.325-0.218,2.372-1.388,3.146C27.406,38.207,25.719,39.69,25.578,42.261z"/>
	<path fill-rule="evenodd" clip-rule="evenodd" d="M55.315,31.562c-1.985,0-3.762,0.183-5.471-0.077
		c-0.844-0.129-1.858-0.909-2.287-1.679c-1.537-2.761-2.94-3.641-6.121-3.379c-4.344,0.357-5.83-1.625-4.322-5.767
		c0.836-2.297,0.85-2.367,3.527-1.848C47.874,20.215,52.51,24.653,55.315,31.562z"/>
	<path fill-rule="evenodd" clip-rule="evenodd" d="M39.371,47.463c0.526-0.486,0.981-0.988,1.515-1.384
		c1.146-0.851,2.379-1.586,3.486-2.479c1.372-1.106,2.813-1.569,4.595-1.257c2.156,0.378,4.347,0.559,6.621,0.836
		c-1.334,4.644-3.863,8.225-7.697,10.806c-0.7,0.471-1.813,0.331-2.863,0.493C45.048,50.512,41.565,49.635,39.371,47.463z"/>
	<path fill-rule="evenodd" clip-rule="evenodd" d="M35.22,15.996c-5.607,1.575-14.145,0.699-15.271-5.094
		C25.384,9.297,34.393,10.484,35.22,15.996z"/>
	<path fill-rule="evenodd" clip-rule="evenodd" d="M53.39,10.711c-0.59,2.401-1.99,3.875-4.012,4.789
		c-2.815,1.272-5.786,1.359-8.794,1.018c-0.854-0.098-1.701-0.253-2.673-0.399c0.403-2.013,1.572-3.311,3.168-4.213
		c2.784-1.576,5.845-1.804,8.961-1.583C51.121,10.399,52.196,10.569,53.39,10.711z"/>
</g>
</svg>
