<?xml version="1.0" encoding="utf-8"?>
<!-- Generator: Adobe Illustrator 16.0.0, SVG Export Plug-In . SVG Version: 6.00 Build 0)  -->
<!DOCTYPE svg PUBLIC "-//W3C//DTD SVG 1.1//EN" "http://www.w3.org/Graphics/SVG/1.1/DTD/svg11.dtd">
<svg version="1.1" id="Layer_1" xmlns="http://www.w3.org/2000/svg" xmlns:xlink="http://www.w3.org/1999/xlink" x="0px" y="0px"
	 width="75px" height="75px" viewBox="0 0 75 75" enable-background="new 0 0 75 75" xml:space="preserve">
<g id="Web_3.0-1">
	<g>
		<path fill-rule="evenodd" clip-rule="evenodd" fill="none" d="M69.705,36.905c0,0.867,0,1.733,0,2.601
			c-1.247-0.021-2.496-0.014-3.741-0.076c-0.743-0.037-1.038,0.232-1.303,0.959c-1.027,2.816-3.262,4.289-6.311,4.314
			c-0.905,0.008-1.812,0.001-2.658,0.001c-0.701,3.631-1.378,7.142-2.05,10.626c2.853,1.139,5.726,2.286,8.682,3.467
			c2.335-2.793,4.276-5.936,5.362-9.493c0.862-2.823,1.359-5.758,2.019-8.643c0,9.991,0,19.982,0,30.045
			c-10.304,0-20.607,0-30.912,0c6.572-2.142,9.213-7.644,11.708-13.755c-4.085-0.487-8-0.954-11.996-1.431
			c0,5.305,0,10.245,0,15.186c-0.867,0-1.733,0-2.601,0c0-4.973,0-9.945,0-15.195c-4.063,0.487-7.944,0.954-11.997,1.44
			c2.495,6.111,5.136,11.613,11.708,13.755c-10.279,0-20.559,0-30.911,0c0-10.015,0-20.03,0-30.045
			c0.089,0.514,0.199,1.025,0.265,1.542c0.788,6.244,3.174,11.792,7.104,16.599c2.967-1.185,5.84-2.332,8.692-3.472
			c-0.671-3.482-1.349-6.993-2.05-10.633c-0.987,0-2.04,0.045-3.087-0.009c-2.212-0.114-4.277-0.999-5.048-3.02
			c-0.882-2.313-2.384-2.417-4.298-2.232c-0.523,0.05-1.053,0.047-1.579,0.069c0-0.867,0-1.733,0-2.601
			c1.197,0.038,2.399,0.021,3.591,0.13c0.928,0.085,1.316-0.268,1.636-1.134c0.986-2.674,3.225-4.153,6.109-4.192
			c0.938-0.013,1.877-0.002,2.685-0.002c0.712-3.694,1.382-7.164,2.038-10.566c-2.89-1.157-5.764-2.309-8.683-3.478
			c-2.472,2.961-4.417,6.275-5.548,9.978C5.726,30.283,5.3,33.043,4.704,35.75c0-10.004,0-20.007,0-30.027
			c21.667,0,43.334,0,65.001,0c0,10.021,0,20.023,0,30.027c-0.382-2.021-0.642-4.073-1.171-6.055
			c-1.2-4.497-3.275-8.563-6.219-12.029c-3.015,1.21-5.887,2.362-8.668,3.479c0.676,3.51,1.345,6.981,2.034,10.562
			c0.68,0,1.396,0.021,2.11-0.004c3.427-0.121,5.803,1.321,7.011,4.603c0.111,0.303,0.57,0.665,0.878,0.675
			C67.021,37.021,68.363,36.941,69.705,36.905z M21.126,44.777c0.685,3.459,1.34,6.768,1.958,9.889
			c4.491-0.536,8.66-1.034,12.829-1.532c0-2.744,0-5.515,0-8.356C31.051,44.777,26.265,44.777,21.126,44.777z M53.275,44.783
			c-5.147,0-9.933,0-14.758,0c0,2.882,0,5.684,0,8.35c4.277,0.514,8.442,1.015,12.829,1.541
			C51.973,51.466,52.612,48.186,53.275,44.783z M21.138,31.627c5.144,0,9.929,0,14.773,0c0-2.843,0-5.605,0-8.291
			c-4.255-0.512-8.424-1.014-12.841-1.545C22.454,24.928,21.81,28.205,21.138,31.627z M38.533,23.329c0,2.706,0,5.498,0,8.3
			c4.902,0,9.69,0,14.745,0c-0.683-3.431-1.339-6.735-1.956-9.84C46.87,22.325,42.739,22.823,38.533,23.329z M23.988,19.529
			c4.051,0.483,7.924,0.945,11.891,1.419c0-5.208,0-10.069,0-14.935C31.786,6.191,26.865,11.185,23.988,19.529z M38.527,5.76
			c0,5.152,0,10.021,0,15.198c4.02-0.485,7.894-0.954,11.994-1.45C47.938,13.42,45.433,7.805,38.527,5.76z M52.777,18.913
			c2.68-1.041,5.218-2.028,7.95-3.09c-4.396-4.513-9.307-7.373-15.344-9.031C48.861,10.357,51.226,14.203,52.777,18.913z
			 M28.665,6.859c-5.726,1.655-10.657,4.47-14.979,8.975c2.748,1.061,5.304,2.047,7.73,2.984c1.126-2.285,1.987-4.384,3.152-6.298
			C25.761,10.563,27.252,8.787,28.665,6.859z M13.661,60.627c4.358,4.464,9.224,7.354,14.983,8.818
			c-3.193-3.409-5.494-7.333-7.034-11.874C18.957,58.592,16.457,59.553,13.661,60.627z M52.772,57.568
			c-1.509,4.665-3.887,8.473-6.967,11.885c5.74-1.521,10.633-4.363,14.923-8.825C57.979,59.57,55.446,58.597,52.772,57.568z"/>
		<path fill-rule="evenodd" clip-rule="evenodd" d="M4.704,39.506c0.526-0.022,1.056-0.02,1.579-0.069
			c1.914-0.185,3.416-0.081,4.298,2.232c0.771,2.021,2.836,2.905,5.048,3.02c1.047,0.054,2.1,0.009,3.087,0.009
			c0.701,3.64,1.379,7.15,2.05,10.633c-2.853,1.14-5.726,2.287-8.692,3.472c-3.931-4.807-6.316-10.354-7.104-16.599
			c-0.065-0.517-0.176-1.028-0.265-1.542C4.704,40.275,4.704,39.891,4.704,39.506z"/>
		<path fill-rule="evenodd" clip-rule="evenodd" d="M69.705,40.661c-0.659,2.885-1.156,5.819-2.019,8.643
			c-1.086,3.558-3.027,6.7-5.362,9.493c-2.956-1.181-5.829-2.328-8.682-3.467c0.672-3.484,1.349-6.995,2.05-10.626
			c0.847,0,1.753,0.007,2.658-0.001c3.049-0.025,5.283-1.498,6.311-4.314c0.265-0.727,0.56-0.996,1.303-0.959
			c1.245,0.063,2.494,0.055,3.741,0.076C69.705,39.891,69.705,40.275,69.705,40.661z"/>
		<path fill-rule="evenodd" clip-rule="evenodd" d="M4.704,35.75c0.596-2.707,1.021-5.467,1.828-8.109
			c1.131-3.702,3.076-7.017,5.548-9.978c2.919,1.169,5.793,2.32,8.683,3.478c-0.656,3.402-1.326,6.872-2.038,10.566
			c-0.808,0-1.746-0.011-2.685,0.002c-2.885,0.039-5.123,1.519-6.109,4.192c-0.319,0.866-0.708,1.219-1.636,1.134
			c-1.191-0.109-2.394-0.092-3.591-0.13C4.704,36.521,4.704,36.135,4.704,35.75z"/>
		<path fill-rule="evenodd" clip-rule="evenodd" d="M69.705,36.905c-1.342,0.036-2.685,0.115-4.024,0.074
			c-0.308-0.01-0.767-0.372-0.878-0.675c-1.208-3.281-3.584-4.724-7.011-4.603c-0.714,0.025-1.431,0.004-2.11,0.004
			c-0.689-3.58-1.358-7.052-2.034-10.562c2.781-1.116,5.653-2.269,8.668-3.479c2.943,3.466,5.019,7.532,6.219,12.029
			c0.529,1.981,0.789,4.034,1.171,6.055C69.705,36.135,69.705,36.521,69.705,36.905z"/>
		<path fill-rule="evenodd" clip-rule="evenodd" d="M35.615,70.706c-6.572-2.142-9.213-7.644-11.708-13.755
			c4.053-0.486,7.935-0.953,11.997-1.44c0,5.25,0,10.223,0,15.195C35.809,70.706,35.712,70.706,35.615,70.706z"/>
		<path fill-rule="evenodd" clip-rule="evenodd" d="M38.505,70.706c0-4.94,0-9.881,0-15.186c3.996,0.477,7.911,0.943,11.996,1.431
			c-2.495,6.111-5.136,11.613-11.708,13.755C38.697,70.706,38.601,70.706,38.505,70.706z"/>
		<path fill-rule="evenodd" clip-rule="evenodd" d="M21.126,44.777c5.139,0,9.925,0,14.787,0c0,2.842,0,5.612,0,8.356
			c-4.169,0.498-8.338,0.996-12.829,1.532C22.466,51.545,21.811,48.236,21.126,44.777z"/>
		<path fill-rule="evenodd" clip-rule="evenodd" d="M53.275,44.783c-0.663,3.402-1.303,6.683-1.929,9.891
			c-4.387-0.526-8.552-1.027-12.829-1.541c0-2.666,0-5.468,0-8.35C43.343,44.783,48.128,44.783,53.275,44.783z"/>
		<path fill-rule="evenodd" clip-rule="evenodd" d="M21.138,31.627c0.672-3.422,1.316-6.699,1.933-9.836
			c4.417,0.531,8.586,1.033,12.841,1.545c0,2.686,0,5.448,0,8.291C31.066,31.627,26.281,31.627,21.138,31.627z"/>
		<path fill-rule="evenodd" clip-rule="evenodd" d="M38.533,23.329c4.206-0.506,8.337-1.004,12.789-1.54
			c0.617,3.104,1.273,6.409,1.956,9.84c-5.055,0-9.843,0-14.745,0C38.533,28.827,38.533,26.035,38.533,23.329z"/>
		<path fill-rule="evenodd" clip-rule="evenodd" d="M23.988,19.529c2.877-8.345,7.798-13.338,11.891-13.516
			c0,4.865,0,9.727,0,14.935C31.912,20.475,28.039,20.013,23.988,19.529z"/>
		<path fill-rule="evenodd" clip-rule="evenodd" d="M38.527,5.76c6.905,2.045,9.411,7.66,11.994,13.748
			c-4.101,0.496-7.975,0.965-11.994,1.45C38.527,15.78,38.527,10.912,38.527,5.76z"/>
		<path fill-rule="evenodd" clip-rule="evenodd" d="M52.777,18.913c-1.552-4.71-3.916-8.556-7.394-12.121
			c6.037,1.658,10.947,4.519,15.344,9.031C57.995,16.885,55.457,17.872,52.777,18.913z"/>
		<path fill-rule="evenodd" clip-rule="evenodd" d="M28.665,6.859c-1.413,1.928-2.904,3.703-4.097,5.661
			c-1.165,1.914-2.026,4.013-3.152,6.298c-2.427-0.938-4.982-1.924-7.73-2.984C18.008,11.329,22.939,8.515,28.665,6.859z"/>
		<path fill-rule="evenodd" clip-rule="evenodd" d="M13.661,60.627c2.796-1.074,5.296-2.035,7.949-3.056
			c1.54,4.541,3.841,8.465,7.034,11.874C22.885,67.981,18.02,65.091,13.661,60.627z"/>
		<path fill-rule="evenodd" clip-rule="evenodd" d="M52.772,57.568c2.674,1.028,5.207,2.002,7.956,3.06
			c-4.29,4.462-9.183,7.304-14.923,8.825C48.886,66.041,51.264,62.233,52.772,57.568z"/>
	</g>
	<g>
		<path d="M15.843,42.582l-2.051-8.59h1.775l1.295,5.9l1.57-5.9h2.063l1.506,6l1.318-6h1.746l-2.086,8.59h-1.84l-1.711-6.422
			l-1.705,6.422H15.843z"/>
		<path d="M25.95,42.582v-8.59h6.369v1.453h-4.635v1.904h4.313v1.447h-4.313v2.338h4.799v1.447H25.95z"/>
		<path d="M33.96,33.992h3.434c0.68,0,1.187,0.028,1.521,0.085s0.633,0.175,0.896,0.354s0.483,0.419,0.659,0.718
			s0.264,0.634,0.264,1.005c0,0.402-0.108,0.771-0.325,1.107s-0.511,0.588-0.882,0.756c0.523,0.152,0.926,0.412,1.207,0.779
			s0.422,0.799,0.422,1.295c0,0.391-0.091,0.771-0.272,1.14s-0.43,0.664-0.744,0.885s-0.702,0.356-1.163,0.407
			c-0.289,0.031-0.986,0.051-2.092,0.059H33.96V33.992z M35.694,35.422v1.986h1.137c0.676,0,1.096-0.01,1.26-0.029
			c0.297-0.035,0.53-0.138,0.7-0.308s0.255-0.394,0.255-0.671c0-0.266-0.073-0.481-0.22-0.647s-0.364-0.267-0.653-0.302
			c-0.172-0.02-0.666-0.029-1.482-0.029H35.694z M35.694,38.838v2.297H37.3c0.625,0,1.021-0.018,1.189-0.053
			c0.258-0.047,0.468-0.161,0.63-0.343s0.243-0.425,0.243-0.729c0-0.258-0.063-0.477-0.188-0.656s-0.306-0.311-0.542-0.393
			s-0.749-0.123-1.538-0.123H35.694z"/>
		<path d="M45.532,40.303l1.594-0.193c0.051,0.406,0.188,0.717,0.41,0.932s0.492,0.322,0.809,0.322c0.34,0,0.626-0.129,0.858-0.387
			s0.349-0.605,0.349-1.043c0-0.414-0.111-0.742-0.334-0.984s-0.494-0.363-0.814-0.363c-0.211,0-0.463,0.041-0.756,0.123
			l0.182-1.342c0.445,0.012,0.785-0.085,1.02-0.29S49.2,36.6,49.2,36.26c0-0.289-0.086-0.52-0.258-0.691s-0.4-0.258-0.686-0.258
			c-0.281,0-0.521,0.098-0.721,0.293s-0.32,0.48-0.363,0.855l-1.518-0.258c0.105-0.52,0.265-0.935,0.478-1.245
			s0.51-0.555,0.891-0.732s0.808-0.267,1.28-0.267c0.809,0,1.457,0.258,1.945,0.773c0.402,0.422,0.604,0.898,0.604,1.43
			c0,0.754-0.412,1.355-1.236,1.805c0.492,0.105,0.886,0.342,1.181,0.709s0.442,0.811,0.442,1.33c0,0.754-0.275,1.396-0.826,1.928
			s-1.236,0.797-2.057,0.797c-0.777,0-1.422-0.224-1.934-0.671S45.614,41.025,45.532,40.303z"/>
		<path d="M52.616,42.582v-1.646h1.646v1.646H52.616z"/>
		<path d="M58.382,33.957c0.832,0,1.482,0.297,1.951,0.891c0.559,0.703,0.838,1.869,0.838,3.498c0,1.625-0.281,2.793-0.844,3.504
			c-0.465,0.586-1.113,0.879-1.945,0.879c-0.836,0-1.51-0.321-2.021-0.964s-0.768-1.788-0.768-3.437
			c0-1.617,0.281-2.781,0.844-3.492C56.901,34.25,57.55,33.957,58.382,33.957z M58.382,35.322c-0.199,0-0.377,0.063-0.533,0.19
			s-0.277,0.354-0.363,0.683c-0.113,0.426-0.17,1.143-0.17,2.15s0.051,1.7,0.152,2.077s0.229,0.628,0.384,0.753
			s0.331,0.188,0.53,0.188s0.377-0.063,0.533-0.19s0.277-0.354,0.363-0.683c0.113-0.422,0.17-1.137,0.17-2.145
			s-0.051-1.7-0.152-2.077s-0.229-0.629-0.384-0.756S58.581,35.322,58.382,35.322z"/>
	</g>
</g>
</svg>
